%TF.GenerationSoftware,KiCad,Pcbnew,10.0.4*%
%TF.CreationDate,2026-07-21T12:54:15+05:30*%
%TF.ProjectId,Singy,53696e67-792e-46b6-9963-61645f706362,rev?*%
%TF.SameCoordinates,Original*%
%TF.FileFunction,Soldermask,Bot*%
%TF.FilePolarity,Negative*%
%FSLAX46Y46*%
G04 Gerber Fmt 4.6, Leading zero omitted, Abs format (unit mm)*
G04 Created by KiCad (PCBNEW 10.0.4) date 2026-07-21 12:54:15*
%MOMM*%
%LPD*%
G01*
G04 APERTURE LIST*
G04 Aperture macros list*
%AMRoundRect*
0 Rectangle with rounded corners*
0 $1 Rounding radius*
0 $2 $3 $4 $5 $6 $7 $8 $9 X,Y pos of 4 corners*
0 Add a 4 corners polygon primitive as box body*
4,1,4,$2,$3,$4,$5,$6,$7,$8,$9,$2,$3,0*
0 Add four circle primitives for the rounded corners*
1,1,$1+$1,$2,$3*
1,1,$1+$1,$4,$5*
1,1,$1+$1,$6,$7*
1,1,$1+$1,$8,$9*
0 Add four rect primitives between the rounded corners*
20,1,$1+$1,$2,$3,$4,$5,0*
20,1,$1+$1,$4,$5,$6,$7,0*
20,1,$1+$1,$6,$7,$8,$9,0*
20,1,$1+$1,$8,$9,$2,$3,0*%
G04 Aperture macros list end*
%ADD10C,0.650000*%
%ADD11O,1.000000X2.100000*%
%ADD12O,1.000000X1.800000*%
%ADD13C,1.100000*%
%ADD14C,1.000000*%
%ADD15RoundRect,0.250000X0.750000X-0.250000X0.750000X0.250000X-0.750000X0.250000X-0.750000X-0.250000X0*%
%ADD16R,0.900000X1.500000*%
%ADD17R,1.500000X0.900000*%
%ADD18R,0.900000X0.900000*%
G04 APERTURE END LIST*
D10*
%TO.C,USB1*%
X80930000Y-109085000D03*
X86710000Y-109085000D03*
D11*
X79500000Y-108585000D03*
X88140000Y-108585000D03*
D12*
X79500000Y-112735000D03*
X88140000Y-112735000D03*
%TD*%
D13*
%TO.C,3.5mmjack1*%
X106200000Y-78860000D03*
X100200000Y-78860000D03*
%TD*%
D14*
%TO.C,Card_Reader1*%
X57080000Y-79455000D03*
X57080000Y-87455000D03*
%TD*%
D15*
%TO.C,Positive1*%
X107370000Y-101890000D03*
%TD*%
%TO.C,J2*%
X107250000Y-105110000D03*
%TD*%
D16*
%TO.C,U1*%
X59420000Y-93635000D03*
X60690000Y-93635000D03*
X61960000Y-93635000D03*
X63230000Y-93635000D03*
X64500000Y-93635000D03*
X65770000Y-93635000D03*
X67040000Y-93635000D03*
X68310000Y-93635000D03*
X69580000Y-93635000D03*
X70850000Y-93635000D03*
X72120000Y-93635000D03*
X73390000Y-93635000D03*
X74660000Y-93635000D03*
X75930000Y-93635000D03*
D17*
X77200000Y-95395000D03*
X77200000Y-96665000D03*
X77200000Y-97935000D03*
X77200000Y-99215000D03*
X77200000Y-100485000D03*
X77200000Y-101755000D03*
X77200000Y-103025000D03*
X77200000Y-104295000D03*
X77200000Y-105565000D03*
X77200000Y-106835000D03*
X77200000Y-108105000D03*
X77170000Y-109375000D03*
D16*
X75930000Y-111135000D03*
X74660000Y-111135000D03*
X73390000Y-111135000D03*
X72120000Y-111135000D03*
X70850000Y-111135000D03*
X69580000Y-111135000D03*
X68310000Y-111135000D03*
X67040000Y-111135000D03*
X65770000Y-111135000D03*
X64500000Y-111135000D03*
X63230000Y-111135000D03*
X61960000Y-111135000D03*
X60690000Y-111135000D03*
X59420000Y-111135000D03*
D18*
X68540000Y-99485000D03*
X67140000Y-99485000D03*
X65740000Y-99485000D03*
X68540000Y-100885000D03*
X67140000Y-100885000D03*
X65740000Y-100885000D03*
X68540000Y-102285000D03*
X67140000Y-102285000D03*
X65740000Y-102285000D03*
%TD*%
M02*
