%TF.GenerationSoftware,KiCad,Pcbnew,10.0.4*%
%TF.CreationDate,2026-07-21T12:54:15+05:30*%
%TF.ProjectId,Singy,53696e67-792e-46b6-9963-61645f706362,rev?*%
%TF.SameCoordinates,Original*%
%TF.FileFunction,Copper,L3,Inr*%
%TF.FilePolarity,Positive*%
%FSLAX46Y46*%
G04 Gerber Fmt 4.6, Leading zero omitted, Abs format (unit mm)*
G04 Created by KiCad (PCBNEW 10.0.4) date 2026-07-21 12:54:15*
%MOMM*%
%LPD*%
G01*
G04 APERTURE LIST*
%TA.AperFunction,ComponentPad*%
%ADD10C,0.650000*%
%TD*%
%TA.AperFunction,ComponentPad*%
%ADD11O,1.000000X2.100000*%
%TD*%
%TA.AperFunction,ComponentPad*%
%ADD12O,1.000000X1.800000*%
%TD*%
%TA.AperFunction,ComponentPad*%
%ADD13C,1.100000*%
%TD*%
%TA.AperFunction,ComponentPad*%
%ADD14C,1.000000*%
%TD*%
%TA.AperFunction,ViaPad*%
%ADD15C,0.600000*%
%TD*%
%TA.AperFunction,Conductor*%
%ADD16C,0.200000*%
%TD*%
G04 APERTURE END LIST*
D10*
%TO.N,*%
%TO.C,USB1*%
X80930000Y-109085000D03*
X86710000Y-109085000D03*
D11*
%TO.N,P-*%
X79500000Y-108585000D03*
X88140000Y-108585000D03*
D12*
X79500000Y-112735000D03*
X88140000Y-112735000D03*
%TD*%
D13*
%TO.N,*%
%TO.C,3.5mmjack1*%
X106200000Y-78860000D03*
X100200000Y-78860000D03*
%TD*%
D14*
%TO.N,*%
%TO.C,Card_Reader1*%
X57080000Y-79455000D03*
X57080000Y-87455000D03*
%TD*%
D15*
%TO.N,T-SDA*%
X64310000Y-112710000D03*
%TO.N,D-3.3V*%
X70230000Y-81180000D03*
X74360000Y-106992500D03*
X86440000Y-70620000D03*
X74100000Y-70620000D03*
X73322500Y-77830000D03*
X73422500Y-82965000D03*
X66897500Y-104220000D03*
X65870000Y-95407500D03*
X88580000Y-100845000D03*
X67930000Y-83345000D03*
X69820000Y-84300000D03*
%TO.N,Net-(U1-IO0)*%
X72270000Y-106560000D03*
%TO.N,S-MISO*%
X63160000Y-85950000D03*
%TO.N,AGND*%
X82580000Y-83580000D03*
X104030000Y-78990000D03*
X79855000Y-94610000D03*
X75740000Y-89405000D03*
X86707500Y-89325000D03*
X87317500Y-75125000D03*
%TO.N,A-3.3V*%
X93520000Y-101270000D03*
X79900000Y-85850000D03*
X81170000Y-82015000D03*
X78760000Y-91070000D03*
%TO.N,GND*%
X76540000Y-79835000D03*
X78530000Y-84070000D03*
X88890000Y-105480000D03*
X94470000Y-103470000D03*
X88470000Y-97700000D03*
X85625000Y-95220000D03*
X88910000Y-93525000D03*
X73240000Y-76280000D03*
X99930000Y-110302500D03*
X107250000Y-105110000D03*
X74860000Y-84755000D03*
%TO.N,P-*%
X97240000Y-97632500D03*
X67940000Y-81135000D03*
X69830000Y-82710000D03*
X95660000Y-110175000D03*
X91535000Y-99770000D03*
X103062500Y-106515000D03*
X57370000Y-92165000D03*
X67080000Y-91325000D03*
X57370000Y-76645000D03*
X61400000Y-102315000D03*
X103260000Y-102745000D03*
X64780000Y-107950000D03*
X94865000Y-92555000D03*
X68090000Y-68990000D03*
X94975000Y-90770000D03*
X70230000Y-79630000D03*
X67080000Y-76645000D03*
X92050000Y-94085000D03*
X92405000Y-104850000D03*
X87022500Y-104470000D03*
%TO.N,P+*%
X88690000Y-94650000D03*
X99510000Y-105355000D03*
X98730000Y-69420000D03*
X107370000Y-101890000D03*
X90607500Y-96422500D03*
%TO.N,CE*%
X89940000Y-110175000D03*
X81420000Y-108015000D03*
X86220000Y-108015000D03*
%TO.N,Net-(SplitRegulator1-FB1P)*%
X93262500Y-91300000D03*
X96600000Y-94152500D03*
%TO.N,SW2*%
X104590000Y-100025000D03*
X102530000Y-69420000D03*
X90190000Y-92020000D03*
%TO.N,SW1*%
X82680000Y-91225000D03*
X55740000Y-68020000D03*
%TO.N,-12V*%
X104030000Y-93660000D03*
X94310000Y-87125000D03*
X88590000Y-82425000D03*
X94310000Y-80595000D03*
X96600000Y-92327500D03*
%TO.N,D-SDA*%
X86000000Y-73260000D03*
%TO.N,D-CS*%
X85170000Y-72990000D03*
%TO.N,D-SCL*%
X84600000Y-73500000D03*
%TO.N,D-DC*%
X83890000Y-72910000D03*
%TO.N,Net-(N-channel1-D)*%
X72470000Y-70660000D03*
X68072500Y-74430000D03*
%TO.N,+12V*%
X91760000Y-87125000D03*
X95060000Y-98832500D03*
%TO.N,S-MOSI*%
X65200000Y-86240000D03*
%TO.N,Auto-Pause*%
X83470000Y-99030000D03*
X85307500Y-93475000D03*
X97140000Y-104567500D03*
%TO.N,SCK*%
X67940000Y-87420000D03*
%TO.N,BCK*%
X68660000Y-88190000D03*
%TO.N,DIN*%
X69430000Y-89180000D03*
%TO.N,LRCK*%
X70040000Y-88460000D03*
%TO.N,Net-(U1-EN)*%
X62185000Y-86775000D03*
%TO.N,T-SCL*%
X65380000Y-113450000D03*
%TO.N,D+*%
X72080000Y-100310000D03*
X83710000Y-101550000D03*
%TO.N,D-*%
X71250000Y-100570000D03*
X83125000Y-102100000D03*
%TO.N,Head-D*%
X82740000Y-97750000D03*
X103800000Y-82830000D03*
%TO.N,D-Bright*%
X69970000Y-101390000D03*
X69947500Y-75380000D03*
%TO.N,S-CS*%
X65870000Y-87310000D03*
%TO.N,S-CLK*%
X64580000Y-85280000D03*
%TD*%
%TO.N,Net-(SplitRegulator1-FB1P)*%
D16*
X94140000Y-93290000D02*
X95002500Y-94152500D01*
X95002500Y-94152500D02*
X96600000Y-94152500D01*
X94140000Y-92177500D02*
X94140000Y-93290000D01*
X93262500Y-91300000D02*
X94140000Y-92177500D01*
%TO.N,SW1*%
X55740000Y-68190000D02*
X58590000Y-71040000D01*
X55740000Y-68020000D02*
X55740000Y-68190000D01*
X58590000Y-71040000D02*
X69140000Y-71040000D01*
X69140000Y-71040000D02*
X82680000Y-84580000D01*
X82680000Y-84580000D02*
X82680000Y-91225000D01*
%TO.N,Auto-Pause*%
X96440000Y-98250000D02*
X84905000Y-98250000D01*
X97140000Y-104567500D02*
X97140000Y-98950000D01*
X83445000Y-99005000D02*
X83445000Y-96790000D01*
X83470000Y-99030000D02*
X83445000Y-99005000D01*
X85307500Y-93475000D02*
X85307500Y-94052500D01*
X97140000Y-98950000D02*
X96440000Y-98250000D01*
X85307500Y-94052500D02*
X83445000Y-95915000D01*
X83445000Y-95915000D02*
X83445000Y-96790000D01*
X84905000Y-98250000D02*
X83445000Y-96790000D01*
%TO.N,D+*%
X72080000Y-100310000D02*
X73270000Y-101500000D01*
X73270000Y-101500000D02*
X83660000Y-101500000D01*
X83660000Y-101500000D02*
X83710000Y-101550000D01*
%TO.N,D-*%
X72860000Y-102100000D02*
X83125000Y-102100000D01*
X71330000Y-100570000D02*
X72860000Y-102100000D01*
X71250000Y-100570000D02*
X71330000Y-100570000D01*
%TO.N,Head-D*%
X94620000Y-82830000D02*
X103800000Y-82830000D01*
X82740000Y-97750000D02*
X82740000Y-94710000D01*
X82740000Y-94710000D02*
X94620000Y-82830000D01*
%TO.N,D-Bright*%
X71500000Y-76932500D02*
X69947500Y-75380000D01*
X69550000Y-100970000D02*
X69550000Y-91940000D01*
X69550000Y-91940000D02*
X71500000Y-89990000D01*
X69970000Y-101390000D02*
X69550000Y-100970000D01*
X71500000Y-89990000D02*
X71500000Y-76932500D01*
%TD*%
%TA.AperFunction,Conductor*%
%TO.N,GND*%
G36*
X105393032Y-63950648D02*
G01*
X105751433Y-63968256D01*
X105763541Y-63969448D01*
X106115475Y-64021653D01*
X106127393Y-64024024D01*
X106472516Y-64110472D01*
X106484160Y-64114005D01*
X106819130Y-64233860D01*
X106830371Y-64238516D01*
X107059005Y-64346650D01*
X107152003Y-64390635D01*
X107162720Y-64396363D01*
X107467885Y-64579273D01*
X107478000Y-64586031D01*
X107763768Y-64797970D01*
X107773166Y-64805683D01*
X108036790Y-65044618D01*
X108045381Y-65053209D01*
X108264820Y-65295322D01*
X108284312Y-65316828D01*
X108292032Y-65326235D01*
X108503966Y-65611997D01*
X108510726Y-65622114D01*
X108693629Y-65927267D01*
X108699366Y-65938000D01*
X108851483Y-66259628D01*
X108856139Y-66270869D01*
X108975994Y-66605839D01*
X108979527Y-66617485D01*
X109065973Y-66962598D01*
X109068347Y-66974532D01*
X109120550Y-67326457D01*
X109121743Y-67338567D01*
X109139351Y-67696966D01*
X109139500Y-67703051D01*
X109139500Y-111146948D01*
X109139351Y-111153033D01*
X109121743Y-111511432D01*
X109120550Y-111523542D01*
X109068347Y-111875467D01*
X109065973Y-111887401D01*
X108979527Y-112232514D01*
X108975994Y-112244160D01*
X108856139Y-112579130D01*
X108851483Y-112590371D01*
X108699366Y-112911999D01*
X108693629Y-112922732D01*
X108510726Y-113227885D01*
X108503966Y-113238002D01*
X108292032Y-113523764D01*
X108284312Y-113533171D01*
X108045388Y-113796783D01*
X108036783Y-113805388D01*
X107773171Y-114044312D01*
X107763764Y-114052032D01*
X107478002Y-114263966D01*
X107467885Y-114270726D01*
X107162732Y-114453629D01*
X107151999Y-114459366D01*
X106830371Y-114611483D01*
X106819130Y-114616139D01*
X106484160Y-114735994D01*
X106472514Y-114739527D01*
X106127401Y-114825973D01*
X106115467Y-114828347D01*
X105763542Y-114880550D01*
X105751432Y-114881743D01*
X105413927Y-114898324D01*
X105393031Y-114899351D01*
X105386949Y-114899500D01*
X55573051Y-114899500D01*
X55566968Y-114899351D01*
X55544856Y-114898264D01*
X55208567Y-114881743D01*
X55196457Y-114880550D01*
X54844532Y-114828347D01*
X54832598Y-114825973D01*
X54487485Y-114739527D01*
X54475839Y-114735994D01*
X54140869Y-114616139D01*
X54129628Y-114611483D01*
X53808000Y-114459366D01*
X53797272Y-114453631D01*
X53492114Y-114270726D01*
X53481997Y-114263966D01*
X53256934Y-114097049D01*
X53196233Y-114052030D01*
X53186828Y-114044312D01*
X53161808Y-114021635D01*
X52923209Y-113805381D01*
X52914618Y-113796790D01*
X52675683Y-113533166D01*
X52667967Y-113523764D01*
X52654150Y-113505134D01*
X52456031Y-113238000D01*
X52449273Y-113227885D01*
X52366139Y-113089185D01*
X52266363Y-112922720D01*
X52260633Y-112911999D01*
X52150000Y-112678083D01*
X52127804Y-112631153D01*
X63509500Y-112631153D01*
X63509500Y-112788846D01*
X63540261Y-112943489D01*
X63540264Y-112943501D01*
X63600602Y-113089172D01*
X63600609Y-113089185D01*
X63688210Y-113220288D01*
X63688213Y-113220292D01*
X63799707Y-113331786D01*
X63799711Y-113331789D01*
X63930814Y-113419390D01*
X63930827Y-113419397D01*
X64076498Y-113479735D01*
X64076503Y-113479737D01*
X64231153Y-113510499D01*
X64231156Y-113510500D01*
X64231158Y-113510500D01*
X64388842Y-113510500D01*
X64447116Y-113498908D01*
X64516705Y-113505134D01*
X64571883Y-113547996D01*
X64592924Y-113596333D01*
X64610261Y-113683491D01*
X64610264Y-113683501D01*
X64670602Y-113829172D01*
X64670609Y-113829185D01*
X64758210Y-113960288D01*
X64758213Y-113960292D01*
X64869707Y-114071786D01*
X64869711Y-114071789D01*
X65000814Y-114159390D01*
X65000827Y-114159397D01*
X65146498Y-114219735D01*
X65146503Y-114219737D01*
X65301153Y-114250499D01*
X65301156Y-114250500D01*
X65301158Y-114250500D01*
X65458844Y-114250500D01*
X65458845Y-114250499D01*
X65613497Y-114219737D01*
X65759179Y-114159394D01*
X65890289Y-114071789D01*
X66001789Y-113960289D01*
X66089394Y-113829179D01*
X66099249Y-113805388D01*
X66149735Y-113683501D01*
X66149737Y-113683497D01*
X66180500Y-113528842D01*
X66180500Y-113371158D01*
X66180500Y-113371155D01*
X66180499Y-113371153D01*
X66153126Y-113233543D01*
X78499499Y-113233543D01*
X78537947Y-113426829D01*
X78537950Y-113426839D01*
X78613364Y-113608907D01*
X78613371Y-113608920D01*
X78722860Y-113772781D01*
X78722863Y-113772785D01*
X78862214Y-113912136D01*
X78862218Y-113912139D01*
X79026079Y-114021628D01*
X79026092Y-114021635D01*
X79208160Y-114097049D01*
X79208165Y-114097051D01*
X79208169Y-114097051D01*
X79208170Y-114097052D01*
X79401456Y-114135500D01*
X79401459Y-114135500D01*
X79598543Y-114135500D01*
X79728582Y-114109632D01*
X79791835Y-114097051D01*
X79973914Y-114021632D01*
X80137782Y-113912139D01*
X80277139Y-113772782D01*
X80386632Y-113608914D01*
X80462051Y-113426835D01*
X80500500Y-113233543D01*
X87139499Y-113233543D01*
X87177947Y-113426829D01*
X87177950Y-113426839D01*
X87253364Y-113608907D01*
X87253371Y-113608920D01*
X87362860Y-113772781D01*
X87362863Y-113772785D01*
X87502214Y-113912136D01*
X87502218Y-113912139D01*
X87666079Y-114021628D01*
X87666092Y-114021635D01*
X87848160Y-114097049D01*
X87848165Y-114097051D01*
X87848169Y-114097051D01*
X87848170Y-114097052D01*
X88041456Y-114135500D01*
X88041459Y-114135500D01*
X88238543Y-114135500D01*
X88368582Y-114109632D01*
X88431835Y-114097051D01*
X88613914Y-114021632D01*
X88777782Y-113912139D01*
X88917139Y-113772782D01*
X89026632Y-113608914D01*
X89102051Y-113426835D01*
X89140500Y-113233541D01*
X89140500Y-112236459D01*
X89140500Y-112236456D01*
X89102052Y-112043170D01*
X89102051Y-112043169D01*
X89102051Y-112043165D01*
X89084421Y-112000602D01*
X89026635Y-111861092D01*
X89026628Y-111861079D01*
X88917139Y-111697218D01*
X88917136Y-111697214D01*
X88777785Y-111557863D01*
X88777781Y-111557860D01*
X88613920Y-111448371D01*
X88613907Y-111448364D01*
X88431839Y-111372950D01*
X88431829Y-111372947D01*
X88238543Y-111334500D01*
X88238541Y-111334500D01*
X88041459Y-111334500D01*
X88041457Y-111334500D01*
X87848170Y-111372947D01*
X87848160Y-111372950D01*
X87666092Y-111448364D01*
X87666079Y-111448371D01*
X87502218Y-111557860D01*
X87502214Y-111557863D01*
X87362863Y-111697214D01*
X87362860Y-111697218D01*
X87253371Y-111861079D01*
X87253364Y-111861092D01*
X87177950Y-112043160D01*
X87177947Y-112043170D01*
X87139500Y-112236456D01*
X87139500Y-112236459D01*
X87139500Y-113233541D01*
X87139500Y-113233543D01*
X87139499Y-113233543D01*
X80500500Y-113233543D01*
X80500500Y-113233541D01*
X80500500Y-112236459D01*
X80500500Y-112236456D01*
X80462052Y-112043170D01*
X80462051Y-112043169D01*
X80462051Y-112043165D01*
X80444421Y-112000602D01*
X80386635Y-111861092D01*
X80386628Y-111861079D01*
X80277139Y-111697218D01*
X80277136Y-111697214D01*
X80137785Y-111557863D01*
X80137781Y-111557860D01*
X79973920Y-111448371D01*
X79973907Y-111448364D01*
X79791839Y-111372950D01*
X79791829Y-111372947D01*
X79598543Y-111334500D01*
X79598541Y-111334500D01*
X79401459Y-111334500D01*
X79401457Y-111334500D01*
X79208170Y-111372947D01*
X79208160Y-111372950D01*
X79026092Y-111448364D01*
X79026079Y-111448371D01*
X78862218Y-111557860D01*
X78862214Y-111557863D01*
X78722863Y-111697214D01*
X78722860Y-111697218D01*
X78613371Y-111861079D01*
X78613364Y-111861092D01*
X78537950Y-112043160D01*
X78537947Y-112043170D01*
X78499500Y-112236456D01*
X78499500Y-112236459D01*
X78499500Y-113233541D01*
X78499500Y-113233543D01*
X78499499Y-113233543D01*
X66153126Y-113233543D01*
X66150536Y-113220521D01*
X66149737Y-113216503D01*
X66097001Y-113089185D01*
X66089397Y-113070827D01*
X66089390Y-113070814D01*
X66001789Y-112939711D01*
X66001786Y-112939707D01*
X65890292Y-112828213D01*
X65890288Y-112828210D01*
X65759185Y-112740609D01*
X65759172Y-112740602D01*
X65613501Y-112680264D01*
X65613489Y-112680261D01*
X65458845Y-112649500D01*
X65458842Y-112649500D01*
X65301158Y-112649500D01*
X65301155Y-112649500D01*
X65242883Y-112661091D01*
X65173292Y-112654864D01*
X65118114Y-112612001D01*
X65097075Y-112563665D01*
X65079738Y-112476510D01*
X65079737Y-112476503D01*
X65079735Y-112476498D01*
X65019397Y-112330827D01*
X65019390Y-112330814D01*
X64998305Y-112299258D01*
X64931789Y-112199711D01*
X64931786Y-112199707D01*
X64820292Y-112088213D01*
X64820288Y-112088210D01*
X64689185Y-112000609D01*
X64689172Y-112000602D01*
X64543501Y-111940264D01*
X64543489Y-111940261D01*
X64388845Y-111909500D01*
X64388842Y-111909500D01*
X64231158Y-111909500D01*
X64231155Y-111909500D01*
X64076510Y-111940261D01*
X64076498Y-111940264D01*
X63930827Y-112000602D01*
X63930814Y-112000609D01*
X63799711Y-112088210D01*
X63799707Y-112088213D01*
X63688213Y-112199707D01*
X63688210Y-112199711D01*
X63600609Y-112330814D01*
X63600602Y-112330827D01*
X63540264Y-112476498D01*
X63540261Y-112476510D01*
X63509500Y-112631153D01*
X52127804Y-112631153D01*
X52108516Y-112590372D01*
X52108516Y-112590371D01*
X52103860Y-112579130D01*
X51984005Y-112244160D01*
X51980472Y-112232514D01*
X51972254Y-112199707D01*
X51894024Y-111887393D01*
X51891652Y-111875467D01*
X51871240Y-111737861D01*
X51864267Y-111690853D01*
X51873902Y-111621654D01*
X51919420Y-111568646D01*
X51986367Y-111548663D01*
X58080000Y-111530000D01*
X58081257Y-109233543D01*
X78499499Y-109233543D01*
X78537947Y-109426829D01*
X78537950Y-109426839D01*
X78613364Y-109608907D01*
X78613371Y-109608920D01*
X78722860Y-109772781D01*
X78722863Y-109772785D01*
X78862214Y-109912136D01*
X78862218Y-109912139D01*
X79026079Y-110021628D01*
X79026092Y-110021635D01*
X79205997Y-110096153D01*
X79208165Y-110097051D01*
X79208169Y-110097051D01*
X79208170Y-110097052D01*
X79401456Y-110135500D01*
X79401459Y-110135500D01*
X79598543Y-110135500D01*
X79728582Y-110109632D01*
X79791835Y-110097051D01*
X79973914Y-110021632D01*
X80137782Y-109912139D01*
X80171147Y-109878774D01*
X80281447Y-109768475D01*
X80282830Y-109769858D01*
X80333101Y-109735603D01*
X80402945Y-109733720D01*
X80440119Y-109750493D01*
X80538977Y-109816547D01*
X80538980Y-109816549D01*
X80689206Y-109878774D01*
X80689211Y-109878776D01*
X80689215Y-109878776D01*
X80689216Y-109878777D01*
X80848692Y-109910500D01*
X80848695Y-109910500D01*
X81011307Y-109910500D01*
X81118598Y-109889157D01*
X81170789Y-109878776D01*
X81321021Y-109816548D01*
X81321023Y-109816547D01*
X81451126Y-109729615D01*
X81456225Y-109726208D01*
X81571208Y-109611225D01*
X81661548Y-109476021D01*
X81723776Y-109325789D01*
X81755500Y-109166305D01*
X81755500Y-109003695D01*
X81755500Y-109003692D01*
X81727350Y-108862179D01*
X81733577Y-108792588D01*
X81776439Y-108737410D01*
X81793998Y-108727619D01*
X81793808Y-108727264D01*
X81799167Y-108724398D01*
X81799179Y-108724394D01*
X81930289Y-108636789D01*
X82041789Y-108525289D01*
X82129394Y-108394179D01*
X82189737Y-108248497D01*
X82220500Y-108093842D01*
X82220500Y-107936158D01*
X82220500Y-107936155D01*
X82220499Y-107936153D01*
X85419500Y-107936153D01*
X85419500Y-108093846D01*
X85450261Y-108248489D01*
X85450264Y-108248501D01*
X85510602Y-108394172D01*
X85510609Y-108394185D01*
X85598210Y-108525288D01*
X85598213Y-108525292D01*
X85709707Y-108636786D01*
X85709711Y-108636789D01*
X85840817Y-108724392D01*
X85846187Y-108727262D01*
X85845300Y-108728920D01*
X85892885Y-108767262D01*
X85914953Y-108833555D01*
X85912649Y-108862178D01*
X85884500Y-109003690D01*
X85884500Y-109003695D01*
X85884500Y-109166305D01*
X85884500Y-109166307D01*
X85884499Y-109166307D01*
X85916222Y-109325783D01*
X85916225Y-109325793D01*
X85978450Y-109476019D01*
X85978452Y-109476023D01*
X86068788Y-109611220D01*
X86068794Y-109611228D01*
X86183771Y-109726205D01*
X86183779Y-109726211D01*
X86318976Y-109816547D01*
X86318980Y-109816549D01*
X86469206Y-109878774D01*
X86469211Y-109878776D01*
X86469215Y-109878776D01*
X86469216Y-109878777D01*
X86628692Y-109910500D01*
X86628695Y-109910500D01*
X86791307Y-109910500D01*
X86898598Y-109889157D01*
X86950789Y-109878776D01*
X87101021Y-109816548D01*
X87199880Y-109750492D01*
X87266557Y-109729615D01*
X87333937Y-109748100D01*
X87357941Y-109769086D01*
X87358553Y-109768475D01*
X87502214Y-109912136D01*
X87502218Y-109912139D01*
X87666079Y-110021628D01*
X87666092Y-110021635D01*
X87845997Y-110096153D01*
X87848165Y-110097051D01*
X87848169Y-110097051D01*
X87848170Y-110097052D01*
X88041456Y-110135500D01*
X88041459Y-110135500D01*
X88238543Y-110135500D01*
X88368582Y-110109632D01*
X88431835Y-110097051D01*
X88434003Y-110096153D01*
X89139500Y-110096153D01*
X89139500Y-110253846D01*
X89170261Y-110408489D01*
X89170264Y-110408501D01*
X89230602Y-110554172D01*
X89230609Y-110554185D01*
X89318210Y-110685288D01*
X89318213Y-110685292D01*
X89429707Y-110796786D01*
X89429711Y-110796789D01*
X89560814Y-110884390D01*
X89560827Y-110884397D01*
X89706498Y-110944735D01*
X89706503Y-110944737D01*
X89861153Y-110975499D01*
X89861156Y-110975500D01*
X89861158Y-110975500D01*
X90018844Y-110975500D01*
X90018845Y-110975499D01*
X90173497Y-110944737D01*
X90319179Y-110884394D01*
X90450289Y-110796789D01*
X90561789Y-110685289D01*
X90649394Y-110554179D01*
X90709737Y-110408497D01*
X90740500Y-110253842D01*
X90740500Y-110096158D01*
X90740500Y-110096155D01*
X90740499Y-110096153D01*
X94859500Y-110096153D01*
X94859500Y-110253846D01*
X94890261Y-110408489D01*
X94890264Y-110408501D01*
X94950602Y-110554172D01*
X94950609Y-110554185D01*
X95038210Y-110685288D01*
X95038213Y-110685292D01*
X95149707Y-110796786D01*
X95149711Y-110796789D01*
X95280814Y-110884390D01*
X95280827Y-110884397D01*
X95426498Y-110944735D01*
X95426503Y-110944737D01*
X95581153Y-110975499D01*
X95581156Y-110975500D01*
X95581158Y-110975500D01*
X95738844Y-110975500D01*
X95738845Y-110975499D01*
X95893497Y-110944737D01*
X96039179Y-110884394D01*
X96170289Y-110796789D01*
X96281789Y-110685289D01*
X96369394Y-110554179D01*
X96429737Y-110408497D01*
X96460500Y-110253842D01*
X96460500Y-110096158D01*
X96460500Y-110096155D01*
X96460499Y-110096153D01*
X96429738Y-109941510D01*
X96429737Y-109941503D01*
X96416895Y-109910500D01*
X96369397Y-109795827D01*
X96369390Y-109795814D01*
X96281789Y-109664711D01*
X96281786Y-109664707D01*
X96170292Y-109553213D01*
X96170288Y-109553210D01*
X96039185Y-109465609D01*
X96039172Y-109465602D01*
X95893501Y-109405264D01*
X95893489Y-109405261D01*
X95738845Y-109374500D01*
X95738842Y-109374500D01*
X95581158Y-109374500D01*
X95581155Y-109374500D01*
X95426510Y-109405261D01*
X95426498Y-109405264D01*
X95280827Y-109465602D01*
X95280814Y-109465609D01*
X95149711Y-109553210D01*
X95149707Y-109553213D01*
X95038213Y-109664707D01*
X95038210Y-109664711D01*
X94950609Y-109795814D01*
X94950602Y-109795827D01*
X94890264Y-109941498D01*
X94890261Y-109941510D01*
X94859500Y-110096153D01*
X90740499Y-110096153D01*
X90709738Y-109941510D01*
X90709737Y-109941503D01*
X90696895Y-109910500D01*
X90649397Y-109795827D01*
X90649390Y-109795814D01*
X90561789Y-109664711D01*
X90561786Y-109664707D01*
X90450292Y-109553213D01*
X90450288Y-109553210D01*
X90319185Y-109465609D01*
X90319172Y-109465602D01*
X90173501Y-109405264D01*
X90173489Y-109405261D01*
X90018845Y-109374500D01*
X90018842Y-109374500D01*
X89861158Y-109374500D01*
X89861155Y-109374500D01*
X89706510Y-109405261D01*
X89706498Y-109405264D01*
X89560827Y-109465602D01*
X89560814Y-109465609D01*
X89429711Y-109553210D01*
X89429707Y-109553213D01*
X89318213Y-109664707D01*
X89318210Y-109664711D01*
X89230609Y-109795814D01*
X89230602Y-109795827D01*
X89170264Y-109941498D01*
X89170261Y-109941510D01*
X89139500Y-110096153D01*
X88434003Y-110096153D01*
X88613914Y-110021632D01*
X88613920Y-110021628D01*
X88665799Y-109986964D01*
X88733825Y-109941510D01*
X88777782Y-109912139D01*
X88917139Y-109772782D01*
X89026632Y-109608914D01*
X89102051Y-109426835D01*
X89140500Y-109233541D01*
X89140500Y-107936459D01*
X89140500Y-107936456D01*
X89102052Y-107743170D01*
X89102051Y-107743169D01*
X89102051Y-107743165D01*
X89089536Y-107712950D01*
X89026635Y-107561092D01*
X89026628Y-107561079D01*
X88917139Y-107397218D01*
X88917136Y-107397214D01*
X88777785Y-107257863D01*
X88777781Y-107257860D01*
X88613920Y-107148371D01*
X88613907Y-107148364D01*
X88431839Y-107072950D01*
X88431829Y-107072947D01*
X88238543Y-107034500D01*
X88238541Y-107034500D01*
X88041459Y-107034500D01*
X88041457Y-107034500D01*
X87848170Y-107072947D01*
X87848160Y-107072950D01*
X87666092Y-107148364D01*
X87666079Y-107148371D01*
X87502218Y-107257860D01*
X87502214Y-107257863D01*
X87362863Y-107397214D01*
X87362860Y-107397218D01*
X87253371Y-107561079D01*
X87253364Y-107561092D01*
X87190464Y-107712950D01*
X87146623Y-107767354D01*
X87080329Y-107789419D01*
X87012630Y-107772140D01*
X86965019Y-107721003D01*
X86961342Y-107712950D01*
X86929397Y-107635827D01*
X86929390Y-107635814D01*
X86841789Y-107504711D01*
X86841786Y-107504707D01*
X86730292Y-107393213D01*
X86730288Y-107393210D01*
X86599185Y-107305609D01*
X86599172Y-107305602D01*
X86453501Y-107245264D01*
X86453489Y-107245261D01*
X86298845Y-107214500D01*
X86298842Y-107214500D01*
X86141158Y-107214500D01*
X86141155Y-107214500D01*
X85986510Y-107245261D01*
X85986498Y-107245264D01*
X85840827Y-107305602D01*
X85840814Y-107305609D01*
X85709711Y-107393210D01*
X85709707Y-107393213D01*
X85598213Y-107504707D01*
X85598210Y-107504711D01*
X85510609Y-107635814D01*
X85510602Y-107635827D01*
X85450264Y-107781498D01*
X85450261Y-107781510D01*
X85419500Y-107936153D01*
X82220499Y-107936153D01*
X82189737Y-107781503D01*
X82173855Y-107743160D01*
X82129397Y-107635827D01*
X82129390Y-107635814D01*
X82041789Y-107504711D01*
X82041786Y-107504707D01*
X81930292Y-107393213D01*
X81930288Y-107393210D01*
X81799185Y-107305609D01*
X81799172Y-107305602D01*
X81653501Y-107245264D01*
X81653489Y-107245261D01*
X81498845Y-107214500D01*
X81498842Y-107214500D01*
X81341158Y-107214500D01*
X81341155Y-107214500D01*
X81186510Y-107245261D01*
X81186498Y-107245264D01*
X81040827Y-107305602D01*
X81040814Y-107305609D01*
X80909711Y-107393210D01*
X80909707Y-107393213D01*
X80798213Y-107504707D01*
X80798210Y-107504711D01*
X80710609Y-107635814D01*
X80710604Y-107635824D01*
X80678657Y-107712951D01*
X80634815Y-107767355D01*
X80568521Y-107789419D01*
X80500822Y-107772139D01*
X80453212Y-107721002D01*
X80449551Y-107712988D01*
X80386632Y-107561086D01*
X80386630Y-107561083D01*
X80386628Y-107561079D01*
X80277139Y-107397218D01*
X80277136Y-107397214D01*
X80137785Y-107257863D01*
X80137781Y-107257860D01*
X79973920Y-107148371D01*
X79973907Y-107148364D01*
X79791839Y-107072950D01*
X79791829Y-107072947D01*
X79598543Y-107034500D01*
X79598541Y-107034500D01*
X79401459Y-107034500D01*
X79401457Y-107034500D01*
X79208170Y-107072947D01*
X79208160Y-107072950D01*
X79026092Y-107148364D01*
X79026079Y-107148371D01*
X78862218Y-107257860D01*
X78862214Y-107257863D01*
X78722863Y-107397214D01*
X78722860Y-107397218D01*
X78613371Y-107561079D01*
X78613364Y-107561092D01*
X78537950Y-107743160D01*
X78537947Y-107743170D01*
X78499500Y-107936456D01*
X78499500Y-107936459D01*
X78499500Y-109233541D01*
X78499500Y-109233543D01*
X78499499Y-109233543D01*
X58081257Y-109233543D01*
X58082003Y-107871153D01*
X63979500Y-107871153D01*
X63979500Y-108028846D01*
X64010261Y-108183489D01*
X64010264Y-108183501D01*
X64070602Y-108329172D01*
X64070609Y-108329185D01*
X64158210Y-108460288D01*
X64158213Y-108460292D01*
X64269707Y-108571786D01*
X64269711Y-108571789D01*
X64400814Y-108659390D01*
X64400827Y-108659397D01*
X64546498Y-108719735D01*
X64546503Y-108719737D01*
X64635351Y-108737410D01*
X64701153Y-108750499D01*
X64701156Y-108750500D01*
X64701158Y-108750500D01*
X64858844Y-108750500D01*
X64858845Y-108750499D01*
X65013497Y-108719737D01*
X65159179Y-108659394D01*
X65290289Y-108571789D01*
X65401789Y-108460289D01*
X65489394Y-108329179D01*
X65549737Y-108183497D01*
X65580500Y-108028842D01*
X65580500Y-107871158D01*
X65580500Y-107871155D01*
X65580499Y-107871153D01*
X65558834Y-107762237D01*
X65549737Y-107716503D01*
X65507398Y-107614286D01*
X65489397Y-107570827D01*
X65489390Y-107570814D01*
X65401789Y-107439711D01*
X65401786Y-107439707D01*
X65290292Y-107328213D01*
X65290288Y-107328210D01*
X65159185Y-107240609D01*
X65159172Y-107240602D01*
X65013501Y-107180264D01*
X65013489Y-107180261D01*
X64858845Y-107149500D01*
X64858842Y-107149500D01*
X64701158Y-107149500D01*
X64701155Y-107149500D01*
X64546510Y-107180261D01*
X64546498Y-107180264D01*
X64400827Y-107240602D01*
X64400814Y-107240609D01*
X64269711Y-107328210D01*
X64269707Y-107328213D01*
X64158213Y-107439707D01*
X64158210Y-107439711D01*
X64070609Y-107570814D01*
X64070602Y-107570827D01*
X64010264Y-107716498D01*
X64010261Y-107716510D01*
X63979500Y-107871153D01*
X58082003Y-107871153D01*
X58082440Y-107072947D01*
X58082764Y-106481153D01*
X71469500Y-106481153D01*
X71469500Y-106638846D01*
X71500261Y-106793489D01*
X71500264Y-106793501D01*
X71560602Y-106939172D01*
X71560609Y-106939185D01*
X71648210Y-107070288D01*
X71648213Y-107070292D01*
X71759707Y-107181786D01*
X71759711Y-107181789D01*
X71890814Y-107269390D01*
X71890827Y-107269397D01*
X72032816Y-107328210D01*
X72036503Y-107329737D01*
X72191153Y-107360499D01*
X72191156Y-107360500D01*
X72191158Y-107360500D01*
X72348844Y-107360500D01*
X72348845Y-107360499D01*
X72503497Y-107329737D01*
X72649179Y-107269394D01*
X72780289Y-107181789D01*
X72891789Y-107070289D01*
X72979394Y-106939179D01*
X72989965Y-106913658D01*
X72989967Y-106913653D01*
X73559500Y-106913653D01*
X73559500Y-107071346D01*
X73590261Y-107225989D01*
X73590264Y-107226001D01*
X73650602Y-107371672D01*
X73650609Y-107371685D01*
X73738210Y-107502788D01*
X73738213Y-107502792D01*
X73849707Y-107614286D01*
X73849711Y-107614289D01*
X73980814Y-107701890D01*
X73980827Y-107701897D01*
X74126498Y-107762235D01*
X74126503Y-107762237D01*
X74263155Y-107789419D01*
X74281153Y-107792999D01*
X74281156Y-107793000D01*
X74281158Y-107793000D01*
X74438844Y-107793000D01*
X74438845Y-107792999D01*
X74593497Y-107762237D01*
X74739179Y-107701894D01*
X74870289Y-107614289D01*
X74981789Y-107502789D01*
X75069394Y-107371679D01*
X75074025Y-107360500D01*
X75111760Y-107269397D01*
X75129737Y-107225997D01*
X75160500Y-107071342D01*
X75160500Y-106913658D01*
X75160500Y-106913655D01*
X75160499Y-106913653D01*
X75129737Y-106759003D01*
X75079966Y-106638844D01*
X75069397Y-106613327D01*
X75069390Y-106613314D01*
X74992979Y-106498957D01*
X74992978Y-106498956D01*
X74981791Y-106482213D01*
X74981786Y-106482207D01*
X74935732Y-106436153D01*
X102262000Y-106436153D01*
X102262000Y-106593846D01*
X102292761Y-106748489D01*
X102292764Y-106748501D01*
X102353102Y-106894172D01*
X102353109Y-106894185D01*
X102440710Y-107025288D01*
X102440713Y-107025292D01*
X102552207Y-107136786D01*
X102552211Y-107136789D01*
X102683314Y-107224390D01*
X102683327Y-107224397D01*
X102828998Y-107284735D01*
X102829003Y-107284737D01*
X102983653Y-107315499D01*
X102983656Y-107315500D01*
X102983658Y-107315500D01*
X103141344Y-107315500D01*
X103141345Y-107315499D01*
X103295997Y-107284737D01*
X103408666Y-107238067D01*
X103441672Y-107224397D01*
X103441672Y-107224396D01*
X103441679Y-107224394D01*
X103572789Y-107136789D01*
X103684289Y-107025289D01*
X103771894Y-106894179D01*
X103832237Y-106748497D01*
X103863000Y-106593842D01*
X103863000Y-106436158D01*
X103863000Y-106436155D01*
X103862999Y-106436153D01*
X103849981Y-106370710D01*
X103832237Y-106281503D01*
X103807907Y-106222764D01*
X103771897Y-106135827D01*
X103771890Y-106135814D01*
X103684289Y-106004711D01*
X103684286Y-106004707D01*
X103572792Y-105893213D01*
X103572788Y-105893210D01*
X103441685Y-105805609D01*
X103441672Y-105805602D01*
X103296001Y-105745264D01*
X103295989Y-105745261D01*
X103141345Y-105714500D01*
X103141342Y-105714500D01*
X102983658Y-105714500D01*
X102983655Y-105714500D01*
X102829010Y-105745261D01*
X102828998Y-105745264D01*
X102683327Y-105805602D01*
X102683314Y-105805609D01*
X102552211Y-105893210D01*
X102552207Y-105893213D01*
X102440713Y-106004707D01*
X102440710Y-106004711D01*
X102353109Y-106135814D01*
X102353102Y-106135827D01*
X102292764Y-106281498D01*
X102292761Y-106281510D01*
X102262000Y-106436153D01*
X74935732Y-106436153D01*
X74870292Y-106370713D01*
X74870288Y-106370710D01*
X74739185Y-106283109D01*
X74739172Y-106283102D01*
X74593501Y-106222764D01*
X74593489Y-106222761D01*
X74438845Y-106192000D01*
X74438842Y-106192000D01*
X74281158Y-106192000D01*
X74281155Y-106192000D01*
X74126510Y-106222761D01*
X74126498Y-106222764D01*
X73980827Y-106283102D01*
X73980814Y-106283109D01*
X73849711Y-106370710D01*
X73849707Y-106370713D01*
X73738213Y-106482207D01*
X73738210Y-106482211D01*
X73650609Y-106613314D01*
X73650602Y-106613327D01*
X73590264Y-106758998D01*
X73590261Y-106759010D01*
X73559500Y-106913653D01*
X72989967Y-106913653D01*
X73012144Y-106860114D01*
X73039735Y-106793501D01*
X73039737Y-106793497D01*
X73070500Y-106638842D01*
X73070500Y-106481158D01*
X73070500Y-106481155D01*
X73070499Y-106481153D01*
X73048531Y-106370713D01*
X73039737Y-106326503D01*
X73021760Y-106283102D01*
X72979397Y-106180827D01*
X72979390Y-106180814D01*
X72891789Y-106049711D01*
X72891786Y-106049707D01*
X72780292Y-105938213D01*
X72780288Y-105938210D01*
X72649185Y-105850609D01*
X72649172Y-105850602D01*
X72503501Y-105790264D01*
X72503489Y-105790261D01*
X72348845Y-105759500D01*
X72348842Y-105759500D01*
X72191158Y-105759500D01*
X72191155Y-105759500D01*
X72036510Y-105790261D01*
X72036498Y-105790264D01*
X71890827Y-105850602D01*
X71890814Y-105850609D01*
X71759711Y-105938210D01*
X71759707Y-105938213D01*
X71648213Y-106049707D01*
X71648210Y-106049711D01*
X71560609Y-106180814D01*
X71560602Y-106180827D01*
X71500264Y-106326498D01*
X71500261Y-106326510D01*
X71469500Y-106481153D01*
X58082764Y-106481153D01*
X58082767Y-106474998D01*
X58083377Y-105360288D01*
X58084044Y-104141153D01*
X66097000Y-104141153D01*
X66097000Y-104298846D01*
X66127761Y-104453489D01*
X66127764Y-104453501D01*
X66188102Y-104599172D01*
X66188109Y-104599185D01*
X66275710Y-104730288D01*
X66275713Y-104730292D01*
X66387207Y-104841786D01*
X66387211Y-104841789D01*
X66518314Y-104929390D01*
X66518327Y-104929397D01*
X66663998Y-104989735D01*
X66664003Y-104989737D01*
X66818653Y-105020499D01*
X66818656Y-105020500D01*
X66818658Y-105020500D01*
X66976344Y-105020500D01*
X66976345Y-105020499D01*
X67130997Y-104989737D01*
X67276679Y-104929394D01*
X67407789Y-104841789D01*
X67519289Y-104730289D01*
X67606894Y-104599179D01*
X67667237Y-104453497D01*
X67679638Y-104391153D01*
X86222000Y-104391153D01*
X86222000Y-104548846D01*
X86252761Y-104703489D01*
X86252764Y-104703501D01*
X86313102Y-104849172D01*
X86313109Y-104849185D01*
X86400710Y-104980288D01*
X86400713Y-104980292D01*
X86512207Y-105091786D01*
X86512211Y-105091789D01*
X86643314Y-105179390D01*
X86643327Y-105179397D01*
X86763528Y-105229185D01*
X86789003Y-105239737D01*
X86943653Y-105270499D01*
X86943656Y-105270500D01*
X86943658Y-105270500D01*
X87101344Y-105270500D01*
X87101345Y-105270499D01*
X87255997Y-105239737D01*
X87401679Y-105179394D01*
X87532789Y-105091789D01*
X87644289Y-104980289D01*
X87731894Y-104849179D01*
X87751850Y-104801001D01*
X87764213Y-104771153D01*
X91604500Y-104771153D01*
X91604500Y-104928846D01*
X91635261Y-105083489D01*
X91635264Y-105083501D01*
X91695602Y-105229172D01*
X91695609Y-105229185D01*
X91783210Y-105360288D01*
X91783213Y-105360292D01*
X91894707Y-105471786D01*
X91894711Y-105471789D01*
X92025814Y-105559390D01*
X92025827Y-105559397D01*
X92171498Y-105619735D01*
X92171503Y-105619737D01*
X92326153Y-105650499D01*
X92326156Y-105650500D01*
X92326158Y-105650500D01*
X92483844Y-105650500D01*
X92483845Y-105650499D01*
X92638497Y-105619737D01*
X92784179Y-105559394D01*
X92915289Y-105471789D01*
X93026789Y-105360289D01*
X93114394Y-105229179D01*
X93174737Y-105083497D01*
X93205500Y-104928842D01*
X93205500Y-104771158D01*
X93205500Y-104771155D01*
X93205499Y-104771153D01*
X93197371Y-104730292D01*
X93174737Y-104616503D01*
X93167558Y-104599172D01*
X93114397Y-104470827D01*
X93114390Y-104470814D01*
X93026789Y-104339711D01*
X93026786Y-104339707D01*
X92915292Y-104228213D01*
X92915288Y-104228210D01*
X92784185Y-104140609D01*
X92784172Y-104140602D01*
X92638501Y-104080264D01*
X92638489Y-104080261D01*
X92483845Y-104049500D01*
X92483842Y-104049500D01*
X92326158Y-104049500D01*
X92326155Y-104049500D01*
X92171510Y-104080261D01*
X92171498Y-104080264D01*
X92025827Y-104140602D01*
X92025814Y-104140609D01*
X91894711Y-104228210D01*
X91894707Y-104228213D01*
X91783213Y-104339707D01*
X91783210Y-104339711D01*
X91695609Y-104470814D01*
X91695602Y-104470827D01*
X91635264Y-104616498D01*
X91635261Y-104616510D01*
X91604500Y-104771153D01*
X87764213Y-104771153D01*
X87786387Y-104717621D01*
X87786387Y-104717618D01*
X87792237Y-104703497D01*
X87823000Y-104548842D01*
X87823000Y-104391158D01*
X87823000Y-104391155D01*
X87822999Y-104391153D01*
X87792238Y-104236510D01*
X87792237Y-104236503D01*
X87752517Y-104140609D01*
X87731897Y-104090827D01*
X87731890Y-104090814D01*
X87644289Y-103959711D01*
X87644286Y-103959707D01*
X87532792Y-103848213D01*
X87532788Y-103848210D01*
X87401685Y-103760609D01*
X87401672Y-103760602D01*
X87256001Y-103700264D01*
X87255989Y-103700261D01*
X87101345Y-103669500D01*
X87101342Y-103669500D01*
X86943658Y-103669500D01*
X86943655Y-103669500D01*
X86789010Y-103700261D01*
X86788998Y-103700264D01*
X86643327Y-103760602D01*
X86643314Y-103760609D01*
X86512211Y-103848210D01*
X86512207Y-103848213D01*
X86400713Y-103959707D01*
X86400710Y-103959711D01*
X86313109Y-104090814D01*
X86313102Y-104090827D01*
X86252764Y-104236498D01*
X86252761Y-104236510D01*
X86222000Y-104391153D01*
X67679638Y-104391153D01*
X67689871Y-104339711D01*
X67698000Y-104298844D01*
X67698000Y-104141155D01*
X67697999Y-104141153D01*
X67667922Y-103989947D01*
X67667237Y-103986503D01*
X67667235Y-103986498D01*
X67606897Y-103840827D01*
X67606890Y-103840814D01*
X67519289Y-103709711D01*
X67519286Y-103709707D01*
X67407792Y-103598213D01*
X67407788Y-103598210D01*
X67276685Y-103510609D01*
X67276672Y-103510602D01*
X67131001Y-103450264D01*
X67130989Y-103450261D01*
X66976345Y-103419500D01*
X66976342Y-103419500D01*
X66818658Y-103419500D01*
X66818655Y-103419500D01*
X66664010Y-103450261D01*
X66663998Y-103450264D01*
X66518327Y-103510602D01*
X66518314Y-103510609D01*
X66387211Y-103598210D01*
X66387207Y-103598213D01*
X66275713Y-103709707D01*
X66275710Y-103709711D01*
X66188109Y-103840814D01*
X66188102Y-103840827D01*
X66127764Y-103986498D01*
X66127761Y-103986510D01*
X66097000Y-104141153D01*
X58084044Y-104141153D01*
X58085087Y-102236153D01*
X60599500Y-102236153D01*
X60599500Y-102393846D01*
X60630261Y-102548489D01*
X60630264Y-102548501D01*
X60690602Y-102694172D01*
X60690609Y-102694185D01*
X60778210Y-102825288D01*
X60778213Y-102825292D01*
X60889707Y-102936786D01*
X60889711Y-102936789D01*
X61020814Y-103024390D01*
X61020827Y-103024397D01*
X61166498Y-103084735D01*
X61166503Y-103084737D01*
X61321153Y-103115499D01*
X61321156Y-103115500D01*
X61321158Y-103115500D01*
X61478844Y-103115500D01*
X61478845Y-103115499D01*
X61633497Y-103084737D01*
X61779179Y-103024394D01*
X61910289Y-102936789D01*
X62021789Y-102825289D01*
X62109394Y-102694179D01*
X62169737Y-102548497D01*
X62200500Y-102393842D01*
X62200500Y-102236158D01*
X62200500Y-102236155D01*
X62200499Y-102236153D01*
X62187696Y-102171789D01*
X62169737Y-102081503D01*
X62169735Y-102081498D01*
X62109397Y-101935827D01*
X62109390Y-101935814D01*
X62021789Y-101804711D01*
X62021786Y-101804707D01*
X61910292Y-101693213D01*
X61910288Y-101693210D01*
X61779185Y-101605609D01*
X61779172Y-101605602D01*
X61633501Y-101545264D01*
X61633489Y-101545261D01*
X61478845Y-101514500D01*
X61478842Y-101514500D01*
X61321158Y-101514500D01*
X61321155Y-101514500D01*
X61166510Y-101545261D01*
X61166498Y-101545264D01*
X61020827Y-101605602D01*
X61020814Y-101605609D01*
X60889711Y-101693210D01*
X60889707Y-101693213D01*
X60778213Y-101804707D01*
X60778210Y-101804711D01*
X60690609Y-101935814D01*
X60690602Y-101935827D01*
X60630264Y-102081498D01*
X60630261Y-102081510D01*
X60599500Y-102236153D01*
X58085087Y-102236153D01*
X58088868Y-95328653D01*
X65069500Y-95328653D01*
X65069500Y-95486346D01*
X65100261Y-95640989D01*
X65100264Y-95641001D01*
X65160602Y-95786672D01*
X65160609Y-95786685D01*
X65248210Y-95917788D01*
X65248213Y-95917792D01*
X65359707Y-96029286D01*
X65359711Y-96029289D01*
X65490814Y-96116890D01*
X65490827Y-96116897D01*
X65603906Y-96163735D01*
X65636503Y-96177237D01*
X65791153Y-96207999D01*
X65791156Y-96208000D01*
X65791158Y-96208000D01*
X65948844Y-96208000D01*
X65948845Y-96207999D01*
X66103497Y-96177237D01*
X66216166Y-96130567D01*
X66249172Y-96116897D01*
X66249172Y-96116896D01*
X66249179Y-96116894D01*
X66380289Y-96029289D01*
X66491789Y-95917789D01*
X66579394Y-95786679D01*
X66639737Y-95640997D01*
X66670500Y-95486342D01*
X66670500Y-95328658D01*
X66670500Y-95328655D01*
X66670499Y-95328653D01*
X66639738Y-95174010D01*
X66639737Y-95174003D01*
X66634056Y-95160288D01*
X66579397Y-95028327D01*
X66579390Y-95028314D01*
X66491789Y-94897211D01*
X66491786Y-94897207D01*
X66380292Y-94785713D01*
X66380288Y-94785710D01*
X66249185Y-94698109D01*
X66249172Y-94698102D01*
X66103501Y-94637764D01*
X66103489Y-94637761D01*
X65948845Y-94607000D01*
X65948842Y-94607000D01*
X65791158Y-94607000D01*
X65791155Y-94607000D01*
X65636510Y-94637761D01*
X65636498Y-94637764D01*
X65490827Y-94698102D01*
X65490814Y-94698109D01*
X65359711Y-94785710D01*
X65359707Y-94785713D01*
X65248213Y-94897207D01*
X65248210Y-94897211D01*
X65160609Y-95028314D01*
X65160602Y-95028327D01*
X65100264Y-95173998D01*
X65100261Y-95174010D01*
X65069500Y-95328653D01*
X58088868Y-95328653D01*
X58090000Y-93260000D01*
X58085992Y-93259995D01*
X51944363Y-93253207D01*
X51877345Y-93233448D01*
X51831649Y-93180594D01*
X51820500Y-93129207D01*
X51820500Y-92086153D01*
X56569500Y-92086153D01*
X56569500Y-92243846D01*
X56600261Y-92398489D01*
X56600264Y-92398501D01*
X56660602Y-92544172D01*
X56660609Y-92544185D01*
X56748210Y-92675288D01*
X56748213Y-92675292D01*
X56859707Y-92786786D01*
X56859711Y-92786789D01*
X56990814Y-92874390D01*
X56990827Y-92874397D01*
X57135139Y-92934172D01*
X57136503Y-92934737D01*
X57291153Y-92965499D01*
X57291156Y-92965500D01*
X57291158Y-92965500D01*
X57448844Y-92965500D01*
X57448845Y-92965499D01*
X57603497Y-92934737D01*
X57749179Y-92874394D01*
X57880289Y-92786789D01*
X57991789Y-92675289D01*
X58079394Y-92544179D01*
X58139737Y-92398497D01*
X58170500Y-92243842D01*
X58170500Y-92086158D01*
X58170500Y-92086155D01*
X58170499Y-92086153D01*
X58159142Y-92029059D01*
X58139737Y-91931503D01*
X58110511Y-91860945D01*
X58079397Y-91785827D01*
X58079390Y-91785814D01*
X57991789Y-91654711D01*
X57991786Y-91654707D01*
X57880292Y-91543213D01*
X57880288Y-91543210D01*
X57749185Y-91455609D01*
X57749172Y-91455602D01*
X57603501Y-91395264D01*
X57603489Y-91395261D01*
X57448845Y-91364500D01*
X57448842Y-91364500D01*
X57291158Y-91364500D01*
X57291155Y-91364500D01*
X57136510Y-91395261D01*
X57136498Y-91395264D01*
X56990827Y-91455602D01*
X56990814Y-91455609D01*
X56859711Y-91543210D01*
X56859707Y-91543213D01*
X56748213Y-91654707D01*
X56748210Y-91654711D01*
X56660609Y-91785814D01*
X56660602Y-91785827D01*
X56600264Y-91931498D01*
X56600261Y-91931510D01*
X56569500Y-92086153D01*
X51820500Y-92086153D01*
X51820500Y-91246153D01*
X66279500Y-91246153D01*
X66279500Y-91403846D01*
X66310261Y-91558489D01*
X66310264Y-91558501D01*
X66370602Y-91704172D01*
X66370609Y-91704185D01*
X66458210Y-91835288D01*
X66458213Y-91835292D01*
X66569707Y-91946786D01*
X66569711Y-91946789D01*
X66700814Y-92034390D01*
X66700827Y-92034397D01*
X66825779Y-92086153D01*
X66846503Y-92094737D01*
X67001153Y-92125499D01*
X67001156Y-92125500D01*
X67001158Y-92125500D01*
X67158844Y-92125500D01*
X67158845Y-92125499D01*
X67313497Y-92094737D01*
X67459179Y-92034394D01*
X67590289Y-91946789D01*
X67701789Y-91835289D01*
X67789394Y-91704179D01*
X67849737Y-91558497D01*
X67880500Y-91403842D01*
X67880500Y-91246158D01*
X67880500Y-91246155D01*
X67880499Y-91246153D01*
X67875197Y-91219500D01*
X67849737Y-91091503D01*
X67808171Y-90991153D01*
X67789397Y-90945827D01*
X67789390Y-90945814D01*
X67701789Y-90814711D01*
X67701786Y-90814707D01*
X67590292Y-90703213D01*
X67590288Y-90703210D01*
X67459185Y-90615609D01*
X67459172Y-90615602D01*
X67313501Y-90555264D01*
X67313489Y-90555261D01*
X67158845Y-90524500D01*
X67158842Y-90524500D01*
X67001158Y-90524500D01*
X67001155Y-90524500D01*
X66846510Y-90555261D01*
X66846498Y-90555264D01*
X66700827Y-90615602D01*
X66700814Y-90615609D01*
X66569711Y-90703210D01*
X66569707Y-90703213D01*
X66458213Y-90814707D01*
X66458210Y-90814711D01*
X66370609Y-90945814D01*
X66370602Y-90945827D01*
X66310264Y-91091498D01*
X66310261Y-91091510D01*
X66279500Y-91246153D01*
X51820500Y-91246153D01*
X51820500Y-87553543D01*
X56079499Y-87553543D01*
X56117947Y-87746829D01*
X56117950Y-87746839D01*
X56193364Y-87928907D01*
X56193371Y-87928920D01*
X56302860Y-88092781D01*
X56302863Y-88092785D01*
X56442214Y-88232136D01*
X56442218Y-88232139D01*
X56606079Y-88341628D01*
X56606092Y-88341635D01*
X56788160Y-88417049D01*
X56788165Y-88417051D01*
X56788169Y-88417051D01*
X56788170Y-88417052D01*
X56981456Y-88455500D01*
X56981459Y-88455500D01*
X57178543Y-88455500D01*
X57339459Y-88423491D01*
X57371835Y-88417051D01*
X57553914Y-88341632D01*
X57717782Y-88232139D01*
X57857139Y-88092782D01*
X57966632Y-87928914D01*
X58042051Y-87746835D01*
X58059423Y-87659500D01*
X58080500Y-87553543D01*
X58080500Y-87356456D01*
X58042052Y-87163170D01*
X58042051Y-87163169D01*
X58042051Y-87163165D01*
X58006153Y-87076498D01*
X57966635Y-86981092D01*
X57966628Y-86981079D01*
X57857139Y-86817218D01*
X57857136Y-86817214D01*
X57736075Y-86696153D01*
X61384500Y-86696153D01*
X61384500Y-86853846D01*
X61415261Y-87008489D01*
X61415264Y-87008501D01*
X61475602Y-87154172D01*
X61475609Y-87154185D01*
X61563210Y-87285288D01*
X61563213Y-87285292D01*
X61674707Y-87396786D01*
X61674711Y-87396789D01*
X61805814Y-87484390D01*
X61805827Y-87484397D01*
X61948490Y-87543489D01*
X61951503Y-87544737D01*
X62106153Y-87575499D01*
X62106156Y-87575500D01*
X62106158Y-87575500D01*
X62263844Y-87575500D01*
X62263845Y-87575499D01*
X62418497Y-87544737D01*
X62564179Y-87484394D01*
X62695289Y-87396789D01*
X62806789Y-87285289D01*
X62894394Y-87154179D01*
X62954737Y-87008497D01*
X62985500Y-86853842D01*
X62986203Y-86850309D01*
X63018588Y-86788398D01*
X63079303Y-86753824D01*
X63107820Y-86750500D01*
X63238844Y-86750500D01*
X63238845Y-86750499D01*
X63393497Y-86719737D01*
X63539179Y-86659394D01*
X63670289Y-86571789D01*
X63781789Y-86460289D01*
X63869394Y-86329179D01*
X63929737Y-86183497D01*
X63959415Y-86034295D01*
X63971020Y-86012108D01*
X63978801Y-85988311D01*
X63986934Y-85981684D01*
X63991799Y-85972385D01*
X64013558Y-85959994D01*
X64032970Y-85944180D01*
X64043397Y-85943002D01*
X64052515Y-85937811D01*
X64077517Y-85939150D01*
X64102398Y-85936342D01*
X64114332Y-85941123D01*
X64122285Y-85941550D01*
X64135945Y-85947309D01*
X64143197Y-85950891D01*
X64200821Y-85989394D01*
X64326794Y-86041573D01*
X64330462Y-86043385D01*
X64353263Y-86064388D01*
X64377405Y-86083842D01*
X64378741Y-86087856D01*
X64381852Y-86090722D01*
X64389678Y-86120716D01*
X64399470Y-86150136D01*
X64399319Y-86155066D01*
X64399500Y-86155066D01*
X64399500Y-86318846D01*
X64430261Y-86473489D01*
X64430264Y-86473501D01*
X64490602Y-86619172D01*
X64490609Y-86619185D01*
X64578210Y-86750288D01*
X64578213Y-86750292D01*
X64689707Y-86861786D01*
X64689711Y-86861789D01*
X64820814Y-86949390D01*
X64820827Y-86949397D01*
X64897347Y-86981092D01*
X64966503Y-87009737D01*
X64976117Y-87011649D01*
X64986329Y-87013681D01*
X65048240Y-87046065D01*
X65082814Y-87106781D01*
X65083755Y-87159489D01*
X65069500Y-87231153D01*
X65069500Y-87388846D01*
X65100261Y-87543489D01*
X65100264Y-87543501D01*
X65160602Y-87689172D01*
X65160609Y-87689185D01*
X65248210Y-87820288D01*
X65248213Y-87820292D01*
X65359707Y-87931786D01*
X65359711Y-87931789D01*
X65490814Y-88019390D01*
X65490827Y-88019397D01*
X65636498Y-88079735D01*
X65636503Y-88079737D01*
X65791153Y-88110499D01*
X65791156Y-88110500D01*
X65791158Y-88110500D01*
X65948844Y-88110500D01*
X65948845Y-88110499D01*
X66103497Y-88079737D01*
X66216166Y-88033067D01*
X66249172Y-88019397D01*
X66249172Y-88019396D01*
X66249179Y-88019394D01*
X66380289Y-87931789D01*
X66491789Y-87820289D01*
X66579394Y-87689179D01*
X66639737Y-87543497D01*
X66670500Y-87388842D01*
X66670500Y-87341153D01*
X67139500Y-87341153D01*
X67139500Y-87498846D01*
X67170261Y-87653489D01*
X67170264Y-87653501D01*
X67230602Y-87799172D01*
X67230609Y-87799185D01*
X67318210Y-87930288D01*
X67318213Y-87930292D01*
X67429707Y-88041786D01*
X67429711Y-88041789D01*
X67560814Y-88129390D01*
X67560827Y-88129397D01*
X67670082Y-88174651D01*
X67706503Y-88189737D01*
X67706505Y-88189737D01*
X67706510Y-88189739D01*
X67768157Y-88202001D01*
X67830068Y-88234385D01*
X67864642Y-88295101D01*
X67865583Y-88299426D01*
X67890261Y-88423491D01*
X67890264Y-88423501D01*
X67950602Y-88569172D01*
X67950609Y-88569185D01*
X68038210Y-88700288D01*
X68038213Y-88700292D01*
X68149707Y-88811786D01*
X68149711Y-88811789D01*
X68280814Y-88899390D01*
X68280827Y-88899397D01*
X68392921Y-88945827D01*
X68426503Y-88959737D01*
X68472291Y-88968844D01*
X68529691Y-88980263D01*
X68591602Y-89012648D01*
X68626176Y-89073364D01*
X68629500Y-89101880D01*
X68629500Y-89258846D01*
X68660261Y-89413489D01*
X68660264Y-89413501D01*
X68720602Y-89559172D01*
X68720609Y-89559185D01*
X68808210Y-89690288D01*
X68808213Y-89690292D01*
X68919707Y-89801786D01*
X68919711Y-89801789D01*
X69050814Y-89889390D01*
X69050827Y-89889397D01*
X69189386Y-89946789D01*
X69196503Y-89949737D01*
X69295858Y-89969500D01*
X69351153Y-89980499D01*
X69351156Y-89980500D01*
X69351158Y-89980500D01*
X69508844Y-89980500D01*
X69508845Y-89980499D01*
X69663497Y-89949737D01*
X69809179Y-89889394D01*
X69940289Y-89801789D01*
X70051789Y-89690289D01*
X70139394Y-89559179D01*
X70139677Y-89558497D01*
X70170598Y-89483846D01*
X70199737Y-89413497D01*
X70220018Y-89311539D01*
X70252403Y-89249628D01*
X70294183Y-89221169D01*
X70419172Y-89169397D01*
X70419172Y-89169396D01*
X70419179Y-89169394D01*
X70550289Y-89081789D01*
X70661789Y-88970289D01*
X70672398Y-88954412D01*
X70726010Y-88909607D01*
X70795335Y-88900900D01*
X70858362Y-88931054D01*
X70895082Y-88990497D01*
X70899500Y-89023303D01*
X70899500Y-89689902D01*
X70879815Y-89756941D01*
X70863181Y-89777583D01*
X69069481Y-91571282D01*
X69069475Y-91571290D01*
X69029998Y-91639668D01*
X69029998Y-91639669D01*
X69006442Y-91680469D01*
X68991868Y-91705713D01*
X68990423Y-91708215D01*
X68949499Y-91860943D01*
X68949499Y-91860945D01*
X68949499Y-92029046D01*
X68949500Y-92029059D01*
X68949500Y-100883330D01*
X68949499Y-100883348D01*
X68949499Y-101049054D01*
X68949498Y-101049054D01*
X68990423Y-101201787D01*
X68990424Y-101201788D01*
X69008495Y-101233088D01*
X69008499Y-101233093D01*
X69012198Y-101239500D01*
X69069480Y-101338716D01*
X69141686Y-101410922D01*
X69146994Y-101418009D01*
X69156239Y-101442779D01*
X69168911Y-101465985D01*
X69169362Y-101468151D01*
X69200261Y-101623491D01*
X69200264Y-101623501D01*
X69260602Y-101769172D01*
X69260609Y-101769185D01*
X69348210Y-101900288D01*
X69348213Y-101900292D01*
X69459707Y-102011786D01*
X69459711Y-102011789D01*
X69590814Y-102099390D01*
X69590827Y-102099397D01*
X69736498Y-102159735D01*
X69736503Y-102159737D01*
X69891153Y-102190499D01*
X69891156Y-102190500D01*
X69891158Y-102190500D01*
X70048844Y-102190500D01*
X70048845Y-102190499D01*
X70203497Y-102159737D01*
X70349179Y-102099394D01*
X70480289Y-102011789D01*
X70591789Y-101900289D01*
X70679394Y-101769179D01*
X70739737Y-101623497D01*
X70770500Y-101468842D01*
X70770500Y-101423418D01*
X70790185Y-101356379D01*
X70842989Y-101310624D01*
X70912147Y-101300680D01*
X70941948Y-101308855D01*
X71016503Y-101339737D01*
X71171153Y-101370499D01*
X71171156Y-101370500D01*
X71171158Y-101370500D01*
X71229903Y-101370500D01*
X71296942Y-101390185D01*
X71317583Y-101406818D01*
X72491284Y-102580520D01*
X72491286Y-102580521D01*
X72491290Y-102580524D01*
X72628209Y-102659573D01*
X72628216Y-102659577D01*
X72780943Y-102700501D01*
X72780945Y-102700501D01*
X72946654Y-102700501D01*
X72946670Y-102700500D01*
X82545234Y-102700500D01*
X82612273Y-102720185D01*
X82614125Y-102721398D01*
X82745814Y-102809390D01*
X82745827Y-102809397D01*
X82891498Y-102869735D01*
X82891503Y-102869737D01*
X83046153Y-102900499D01*
X83046156Y-102900500D01*
X83046158Y-102900500D01*
X83203844Y-102900500D01*
X83203845Y-102900499D01*
X83358497Y-102869737D01*
X83504179Y-102809394D01*
X83635289Y-102721789D01*
X83746789Y-102610289D01*
X83834394Y-102479179D01*
X83867071Y-102400289D01*
X83871863Y-102388721D01*
X83915704Y-102334317D01*
X83938971Y-102321612D01*
X84065541Y-102269185D01*
X84089179Y-102259394D01*
X84220289Y-102171789D01*
X84331789Y-102060289D01*
X84419394Y-101929179D01*
X84479737Y-101783497D01*
X84510500Y-101628842D01*
X84510500Y-101471158D01*
X84510500Y-101471155D01*
X84510499Y-101471153D01*
X84492309Y-101379707D01*
X84479737Y-101316503D01*
X84441498Y-101224185D01*
X84419397Y-101170827D01*
X84419390Y-101170814D01*
X84331789Y-101039711D01*
X84331786Y-101039707D01*
X84220292Y-100928213D01*
X84220288Y-100928210D01*
X84122946Y-100863168D01*
X84089184Y-100840609D01*
X84089172Y-100840602D01*
X83943501Y-100780264D01*
X83943489Y-100780261D01*
X83872564Y-100766153D01*
X87779500Y-100766153D01*
X87779500Y-100923846D01*
X87810261Y-101078489D01*
X87810264Y-101078501D01*
X87870602Y-101224172D01*
X87870609Y-101224185D01*
X87958210Y-101355288D01*
X87958213Y-101355292D01*
X88069707Y-101466786D01*
X88069711Y-101466789D01*
X88200814Y-101554390D01*
X88200827Y-101554397D01*
X88324466Y-101605609D01*
X88346503Y-101614737D01*
X88501153Y-101645499D01*
X88501156Y-101645500D01*
X88501158Y-101645500D01*
X88658844Y-101645500D01*
X88658845Y-101645499D01*
X88813497Y-101614737D01*
X88959179Y-101554394D01*
X89090289Y-101466789D01*
X89201789Y-101355289D01*
X89289394Y-101224179D01*
X89303074Y-101191153D01*
X92719500Y-101191153D01*
X92719500Y-101348846D01*
X92750261Y-101503489D01*
X92750264Y-101503501D01*
X92810602Y-101649172D01*
X92810609Y-101649185D01*
X92898210Y-101780288D01*
X92898213Y-101780292D01*
X93009707Y-101891786D01*
X93009711Y-101891789D01*
X93140814Y-101979390D01*
X93140827Y-101979397D01*
X93276520Y-102035602D01*
X93286503Y-102039737D01*
X93441153Y-102070499D01*
X93441156Y-102070500D01*
X93441158Y-102070500D01*
X93598844Y-102070500D01*
X93598845Y-102070499D01*
X93753497Y-102039737D01*
X93899179Y-101979394D01*
X94030289Y-101891789D01*
X94141789Y-101780289D01*
X94229394Y-101649179D01*
X94289737Y-101503497D01*
X94320500Y-101348842D01*
X94320500Y-101191158D01*
X94320500Y-101191155D01*
X94320499Y-101191153D01*
X94306398Y-101120263D01*
X94289737Y-101036503D01*
X94289735Y-101036498D01*
X94229397Y-100890827D01*
X94229390Y-100890814D01*
X94141789Y-100759711D01*
X94141786Y-100759707D01*
X94030292Y-100648213D01*
X94030288Y-100648210D01*
X93899185Y-100560609D01*
X93899172Y-100560602D01*
X93753501Y-100500264D01*
X93753489Y-100500261D01*
X93598845Y-100469500D01*
X93598842Y-100469500D01*
X93441158Y-100469500D01*
X93441155Y-100469500D01*
X93286510Y-100500261D01*
X93286498Y-100500264D01*
X93140827Y-100560602D01*
X93140814Y-100560609D01*
X93009711Y-100648210D01*
X93009707Y-100648213D01*
X92898213Y-100759707D01*
X92898210Y-100759711D01*
X92810609Y-100890814D01*
X92810602Y-100890827D01*
X92750264Y-101036498D01*
X92750261Y-101036510D01*
X92719500Y-101191153D01*
X89303074Y-101191153D01*
X89307441Y-101180609D01*
X89325251Y-101137613D01*
X89332438Y-101120261D01*
X89349737Y-101078497D01*
X89380500Y-100923842D01*
X89380500Y-100766158D01*
X89380500Y-100766155D01*
X89380499Y-100766153D01*
X89374181Y-100734390D01*
X89349737Y-100611503D01*
X89328655Y-100560606D01*
X89289397Y-100465827D01*
X89289390Y-100465814D01*
X89201789Y-100334711D01*
X89201786Y-100334707D01*
X89090292Y-100223213D01*
X89090288Y-100223210D01*
X88959185Y-100135609D01*
X88959172Y-100135602D01*
X88813501Y-100075264D01*
X88813489Y-100075261D01*
X88658845Y-100044500D01*
X88658842Y-100044500D01*
X88501158Y-100044500D01*
X88501155Y-100044500D01*
X88346510Y-100075261D01*
X88346498Y-100075264D01*
X88200827Y-100135602D01*
X88200814Y-100135609D01*
X88069711Y-100223210D01*
X88069707Y-100223213D01*
X87958213Y-100334707D01*
X87958210Y-100334711D01*
X87870609Y-100465814D01*
X87870602Y-100465827D01*
X87810264Y-100611498D01*
X87810261Y-100611510D01*
X87779500Y-100766153D01*
X83872564Y-100766153D01*
X83788845Y-100749500D01*
X83788842Y-100749500D01*
X83631158Y-100749500D01*
X83631155Y-100749500D01*
X83476510Y-100780261D01*
X83476498Y-100780264D01*
X83330827Y-100840602D01*
X83330820Y-100840606D01*
X83301928Y-100859911D01*
X83273955Y-100878602D01*
X83207279Y-100899480D01*
X83205065Y-100899500D01*
X73570097Y-100899500D01*
X73503058Y-100879815D01*
X73482416Y-100863181D01*
X72914574Y-100295339D01*
X72881089Y-100234016D01*
X72880638Y-100231849D01*
X72849738Y-100076510D01*
X72849737Y-100076503D01*
X72796598Y-99948213D01*
X72789397Y-99930827D01*
X72789390Y-99930814D01*
X72701789Y-99799711D01*
X72701786Y-99799707D01*
X72590292Y-99688213D01*
X72590288Y-99688210D01*
X72459185Y-99600609D01*
X72459172Y-99600602D01*
X72313501Y-99540264D01*
X72313489Y-99540261D01*
X72158845Y-99509500D01*
X72158842Y-99509500D01*
X72001158Y-99509500D01*
X72001155Y-99509500D01*
X71846510Y-99540261D01*
X71846498Y-99540264D01*
X71700827Y-99600602D01*
X71700814Y-99600609D01*
X71569714Y-99688208D01*
X71508810Y-99749111D01*
X71447486Y-99782595D01*
X71396938Y-99783045D01*
X71328844Y-99769500D01*
X71328842Y-99769500D01*
X71171158Y-99769500D01*
X71171155Y-99769500D01*
X71016510Y-99800261D01*
X71016498Y-99800264D01*
X70870827Y-99860602D01*
X70870814Y-99860609D01*
X70739711Y-99948210D01*
X70739707Y-99948213D01*
X70628213Y-100059707D01*
X70628210Y-100059711D01*
X70540609Y-100190814D01*
X70540602Y-100190827D01*
X70480264Y-100336498D01*
X70480261Y-100336510D01*
X70449500Y-100491153D01*
X70449500Y-100536581D01*
X70440259Y-100568051D01*
X70432142Y-100599855D01*
X70430460Y-100601420D01*
X70429815Y-100603620D01*
X70405032Y-100625093D01*
X70381004Y-100647465D01*
X70378744Y-100647872D01*
X70377011Y-100649375D01*
X70344531Y-100654045D01*
X70312245Y-100659870D01*
X70309281Y-100659113D01*
X70307853Y-100659319D01*
X70278047Y-100651142D01*
X70227047Y-100630017D01*
X70172644Y-100586176D01*
X70150579Y-100519882D01*
X70150500Y-100515456D01*
X70150500Y-97671153D01*
X81939500Y-97671153D01*
X81939500Y-97828846D01*
X81970261Y-97983489D01*
X81970264Y-97983501D01*
X82030602Y-98129172D01*
X82030609Y-98129185D01*
X82118210Y-98260288D01*
X82118213Y-98260292D01*
X82229707Y-98371786D01*
X82229711Y-98371789D01*
X82360814Y-98459390D01*
X82360827Y-98459397D01*
X82414233Y-98481518D01*
X82506503Y-98519737D01*
X82622654Y-98542841D01*
X82643236Y-98546935D01*
X82705147Y-98579319D01*
X82739721Y-98640035D01*
X82735982Y-98709805D01*
X82733606Y-98716004D01*
X82700264Y-98796498D01*
X82700261Y-98796510D01*
X82669500Y-98951153D01*
X82669500Y-99108846D01*
X82700261Y-99263489D01*
X82700264Y-99263501D01*
X82760602Y-99409172D01*
X82760609Y-99409185D01*
X82848210Y-99540288D01*
X82848213Y-99540292D01*
X82959707Y-99651786D01*
X82959711Y-99651789D01*
X83090814Y-99739390D01*
X83090827Y-99739397D01*
X83236440Y-99799711D01*
X83236503Y-99799737D01*
X83391153Y-99830499D01*
X83391156Y-99830500D01*
X83391158Y-99830500D01*
X83548844Y-99830500D01*
X83548845Y-99830499D01*
X83703497Y-99799737D01*
X83849179Y-99739394D01*
X83980289Y-99651789D01*
X84091789Y-99540289D01*
X84179394Y-99409179D01*
X84181867Y-99403210D01*
X84206894Y-99342788D01*
X84239737Y-99263497D01*
X84270500Y-99108842D01*
X84270500Y-98951158D01*
X84270500Y-98951155D01*
X84270499Y-98951153D01*
X84251477Y-98855523D01*
X84239737Y-98796503D01*
X84221949Y-98753560D01*
X84214481Y-98684093D01*
X84245756Y-98621613D01*
X84305845Y-98585961D01*
X84375670Y-98588455D01*
X84424192Y-98618428D01*
X84536284Y-98730520D01*
X84673215Y-98809577D01*
X84825943Y-98850501D01*
X84825946Y-98850501D01*
X84991654Y-98850501D01*
X84991670Y-98850500D01*
X91061493Y-98850500D01*
X91128532Y-98870185D01*
X91174287Y-98922989D01*
X91184231Y-98992147D01*
X91155206Y-99055703D01*
X91130384Y-99077602D01*
X91024711Y-99148210D01*
X91024707Y-99148213D01*
X90913213Y-99259707D01*
X90913210Y-99259711D01*
X90825609Y-99390814D01*
X90825602Y-99390827D01*
X90765264Y-99536498D01*
X90765261Y-99536510D01*
X90734500Y-99691153D01*
X90734500Y-99848846D01*
X90765261Y-100003489D01*
X90765264Y-100003501D01*
X90825602Y-100149172D01*
X90825609Y-100149185D01*
X90913210Y-100280288D01*
X90913213Y-100280292D01*
X91024707Y-100391786D01*
X91024711Y-100391789D01*
X91155814Y-100479390D01*
X91155827Y-100479397D01*
X91301498Y-100539735D01*
X91301503Y-100539737D01*
X91443846Y-100568051D01*
X91456153Y-100570499D01*
X91456156Y-100570500D01*
X91456158Y-100570500D01*
X91613844Y-100570500D01*
X91613845Y-100570499D01*
X91768497Y-100539737D01*
X91914179Y-100479394D01*
X92045289Y-100391789D01*
X92156789Y-100280289D01*
X92244394Y-100149179D01*
X92304737Y-100003497D01*
X92335500Y-99848842D01*
X92335500Y-99691158D01*
X92335500Y-99691155D01*
X92335499Y-99691153D01*
X92326480Y-99645814D01*
X92304737Y-99536503D01*
X92252001Y-99409185D01*
X92244397Y-99390827D01*
X92244390Y-99390814D01*
X92156789Y-99259711D01*
X92156786Y-99259707D01*
X92045292Y-99148213D01*
X92045288Y-99148210D01*
X91939616Y-99077602D01*
X91894811Y-99023990D01*
X91886104Y-98954665D01*
X91916258Y-98891637D01*
X91975702Y-98854918D01*
X92008507Y-98850500D01*
X94145633Y-98850500D01*
X94212672Y-98870185D01*
X94258427Y-98922989D01*
X94267250Y-98950308D01*
X94290261Y-99065991D01*
X94290264Y-99066001D01*
X94350602Y-99211672D01*
X94350609Y-99211685D01*
X94438210Y-99342788D01*
X94438213Y-99342792D01*
X94549707Y-99454286D01*
X94549711Y-99454289D01*
X94680814Y-99541890D01*
X94680827Y-99541897D01*
X94826498Y-99602235D01*
X94826503Y-99602237D01*
X94981153Y-99632999D01*
X94981156Y-99633000D01*
X94981158Y-99633000D01*
X95138844Y-99633000D01*
X95138845Y-99632999D01*
X95293497Y-99602237D01*
X95439179Y-99541894D01*
X95570289Y-99454289D01*
X95681789Y-99342789D01*
X95769394Y-99211679D01*
X95829737Y-99065997D01*
X95838093Y-99023990D01*
X95852750Y-98950308D01*
X95867464Y-98922177D01*
X95880654Y-98893297D01*
X95883543Y-98891440D01*
X95885135Y-98888397D01*
X95912727Y-98872684D01*
X95939432Y-98855523D01*
X95944025Y-98854862D01*
X95945851Y-98853823D01*
X95974367Y-98850500D01*
X96139903Y-98850500D01*
X96206942Y-98870185D01*
X96227584Y-98886819D01*
X96503181Y-99162416D01*
X96536666Y-99223739D01*
X96539500Y-99250097D01*
X96539500Y-103987734D01*
X96519815Y-104054773D01*
X96518602Y-104056625D01*
X96430609Y-104188314D01*
X96430602Y-104188327D01*
X96370264Y-104333998D01*
X96370261Y-104334010D01*
X96339500Y-104488653D01*
X96339500Y-104646346D01*
X96370261Y-104800989D01*
X96370264Y-104801001D01*
X96430602Y-104946672D01*
X96430609Y-104946685D01*
X96518210Y-105077788D01*
X96518213Y-105077792D01*
X96629707Y-105189286D01*
X96629711Y-105189289D01*
X96760814Y-105276890D01*
X96760827Y-105276897D01*
X96906498Y-105337235D01*
X96906503Y-105337237D01*
X97022408Y-105360292D01*
X97061153Y-105367999D01*
X97061156Y-105368000D01*
X97061158Y-105368000D01*
X97218844Y-105368000D01*
X97218845Y-105367999D01*
X97373497Y-105337237D01*
X97519179Y-105276894D01*
X97520288Y-105276153D01*
X98709500Y-105276153D01*
X98709500Y-105433846D01*
X98740261Y-105588489D01*
X98740264Y-105588501D01*
X98800602Y-105734172D01*
X98800609Y-105734185D01*
X98888210Y-105865288D01*
X98888213Y-105865292D01*
X98999707Y-105976786D01*
X98999711Y-105976789D01*
X99130814Y-106064390D01*
X99130827Y-106064397D01*
X99276498Y-106124735D01*
X99276503Y-106124737D01*
X99431153Y-106155499D01*
X99431156Y-106155500D01*
X99431158Y-106155500D01*
X99588844Y-106155500D01*
X99588845Y-106155499D01*
X99743497Y-106124737D01*
X99889179Y-106064394D01*
X100020289Y-105976789D01*
X100131789Y-105865289D01*
X100219394Y-105734179D01*
X100279737Y-105588497D01*
X100310500Y-105433842D01*
X100310500Y-105276158D01*
X100310500Y-105276155D01*
X100310499Y-105276153D01*
X100309374Y-105270499D01*
X100279737Y-105121503D01*
X100263991Y-105083489D01*
X100219397Y-104975827D01*
X100219390Y-104975814D01*
X100131789Y-104844711D01*
X100131786Y-104844707D01*
X100020292Y-104733213D01*
X100020288Y-104733210D01*
X99889185Y-104645609D01*
X99889172Y-104645602D01*
X99743501Y-104585264D01*
X99743489Y-104585261D01*
X99588845Y-104554500D01*
X99588842Y-104554500D01*
X99431158Y-104554500D01*
X99431155Y-104554500D01*
X99276510Y-104585261D01*
X99276498Y-104585264D01*
X99130827Y-104645602D01*
X99130814Y-104645609D01*
X98999711Y-104733210D01*
X98999707Y-104733213D01*
X98888213Y-104844707D01*
X98888210Y-104844711D01*
X98800609Y-104975814D01*
X98800602Y-104975827D01*
X98740264Y-105121498D01*
X98740261Y-105121510D01*
X98709500Y-105276153D01*
X97520288Y-105276153D01*
X97650289Y-105189289D01*
X97650292Y-105189286D01*
X97657194Y-105182385D01*
X97761786Y-105077792D01*
X97761789Y-105077789D01*
X97849394Y-104946679D01*
X97909737Y-104800997D01*
X97940500Y-104646342D01*
X97940500Y-104488658D01*
X97940500Y-104488655D01*
X97940499Y-104488653D01*
X97910872Y-104339711D01*
X97909737Y-104334003D01*
X97895173Y-104298842D01*
X97849397Y-104188327D01*
X97849390Y-104188314D01*
X97761398Y-104056625D01*
X97740520Y-103989947D01*
X97740500Y-103987734D01*
X97740500Y-102666153D01*
X102459500Y-102666153D01*
X102459500Y-102823846D01*
X102490261Y-102978489D01*
X102490264Y-102978501D01*
X102550602Y-103124172D01*
X102550609Y-103124185D01*
X102638210Y-103255288D01*
X102638213Y-103255292D01*
X102749707Y-103366786D01*
X102749711Y-103366789D01*
X102880814Y-103454390D01*
X102880827Y-103454397D01*
X103016520Y-103510602D01*
X103026503Y-103514737D01*
X103181153Y-103545499D01*
X103181156Y-103545500D01*
X103181158Y-103545500D01*
X103338844Y-103545500D01*
X103338845Y-103545499D01*
X103493497Y-103514737D01*
X103639179Y-103454394D01*
X103770289Y-103366789D01*
X103881789Y-103255289D01*
X103969394Y-103124179D01*
X104029737Y-102978497D01*
X104060500Y-102823842D01*
X104060500Y-102666158D01*
X104060500Y-102666155D01*
X104060499Y-102666153D01*
X104037096Y-102548501D01*
X104029737Y-102511503D01*
X104016345Y-102479172D01*
X103969397Y-102365827D01*
X103969390Y-102365814D01*
X103881789Y-102234711D01*
X103881786Y-102234707D01*
X103770292Y-102123213D01*
X103770288Y-102123210D01*
X103639185Y-102035609D01*
X103639172Y-102035602D01*
X103493501Y-101975264D01*
X103493489Y-101975261D01*
X103338845Y-101944500D01*
X103338842Y-101944500D01*
X103181158Y-101944500D01*
X103181155Y-101944500D01*
X103026510Y-101975261D01*
X103026498Y-101975264D01*
X102880827Y-102035602D01*
X102880814Y-102035609D01*
X102749711Y-102123210D01*
X102749707Y-102123213D01*
X102638213Y-102234707D01*
X102638210Y-102234711D01*
X102550609Y-102365814D01*
X102550602Y-102365827D01*
X102490264Y-102511498D01*
X102490261Y-102511510D01*
X102459500Y-102666153D01*
X97740500Y-102666153D01*
X97740500Y-101811153D01*
X106569500Y-101811153D01*
X106569500Y-101968846D01*
X106600261Y-102123489D01*
X106600264Y-102123501D01*
X106660602Y-102269172D01*
X106660609Y-102269185D01*
X106748210Y-102400288D01*
X106748213Y-102400292D01*
X106859707Y-102511786D01*
X106859711Y-102511789D01*
X106990814Y-102599390D01*
X106990827Y-102599397D01*
X107136107Y-102659573D01*
X107136503Y-102659737D01*
X107291153Y-102690499D01*
X107291156Y-102690500D01*
X107291158Y-102690500D01*
X107448844Y-102690500D01*
X107448845Y-102690499D01*
X107603497Y-102659737D01*
X107749179Y-102599394D01*
X107880289Y-102511789D01*
X107991789Y-102400289D01*
X108079394Y-102269179D01*
X108139737Y-102123497D01*
X108170500Y-101968842D01*
X108170500Y-101811158D01*
X108170500Y-101811155D01*
X108170499Y-101811153D01*
X108164360Y-101780289D01*
X108139737Y-101656503D01*
X108136703Y-101649179D01*
X108079397Y-101510827D01*
X108079390Y-101510814D01*
X107991789Y-101379711D01*
X107991786Y-101379707D01*
X107880292Y-101268213D01*
X107880288Y-101268210D01*
X107749185Y-101180609D01*
X107749172Y-101180602D01*
X107603501Y-101120264D01*
X107603489Y-101120261D01*
X107448845Y-101089500D01*
X107448842Y-101089500D01*
X107291158Y-101089500D01*
X107291155Y-101089500D01*
X107136510Y-101120261D01*
X107136498Y-101120264D01*
X106990827Y-101180602D01*
X106990814Y-101180609D01*
X106859711Y-101268210D01*
X106859707Y-101268213D01*
X106748213Y-101379707D01*
X106748210Y-101379711D01*
X106660609Y-101510814D01*
X106660602Y-101510827D01*
X106600264Y-101656498D01*
X106600261Y-101656510D01*
X106569500Y-101811153D01*
X97740500Y-101811153D01*
X97740500Y-99946153D01*
X103789500Y-99946153D01*
X103789500Y-100103846D01*
X103820261Y-100258489D01*
X103820264Y-100258501D01*
X103880602Y-100404172D01*
X103880609Y-100404185D01*
X103968210Y-100535288D01*
X103968213Y-100535292D01*
X104079707Y-100646786D01*
X104079711Y-100646789D01*
X104210814Y-100734390D01*
X104210827Y-100734397D01*
X104356498Y-100794735D01*
X104356503Y-100794737D01*
X104511153Y-100825499D01*
X104511156Y-100825500D01*
X104511158Y-100825500D01*
X104668844Y-100825500D01*
X104668845Y-100825499D01*
X104823497Y-100794737D01*
X104969179Y-100734394D01*
X105100289Y-100646789D01*
X105211789Y-100535289D01*
X105299394Y-100404179D01*
X105359737Y-100258497D01*
X105390500Y-100103842D01*
X105390500Y-99946158D01*
X105390500Y-99946155D01*
X105390499Y-99946153D01*
X105373483Y-99860609D01*
X105359737Y-99791503D01*
X105318171Y-99691153D01*
X105299397Y-99645827D01*
X105299390Y-99645814D01*
X105211789Y-99514711D01*
X105211786Y-99514707D01*
X105100292Y-99403213D01*
X105100288Y-99403210D01*
X104969185Y-99315609D01*
X104969172Y-99315602D01*
X104823501Y-99255264D01*
X104823489Y-99255261D01*
X104668845Y-99224500D01*
X104668842Y-99224500D01*
X104511158Y-99224500D01*
X104511155Y-99224500D01*
X104356510Y-99255261D01*
X104356498Y-99255264D01*
X104210827Y-99315602D01*
X104210814Y-99315609D01*
X104079711Y-99403210D01*
X104079707Y-99403213D01*
X103968213Y-99514707D01*
X103968210Y-99514711D01*
X103880609Y-99645814D01*
X103880602Y-99645827D01*
X103820264Y-99791498D01*
X103820261Y-99791510D01*
X103789500Y-99946153D01*
X97740500Y-99946153D01*
X97740500Y-98870944D01*
X97740500Y-98870943D01*
X97732277Y-98840256D01*
X97724057Y-98809577D01*
X97699577Y-98718216D01*
X97641965Y-98618428D01*
X97620524Y-98581290D01*
X97620518Y-98581282D01*
X97582077Y-98542841D01*
X97548592Y-98481518D01*
X97553576Y-98411826D01*
X97595448Y-98355893D01*
X97614085Y-98345281D01*
X97613809Y-98344764D01*
X97619172Y-98341896D01*
X97619179Y-98341894D01*
X97750289Y-98254289D01*
X97861789Y-98142789D01*
X97949394Y-98011679D01*
X98009737Y-97865997D01*
X98040500Y-97711342D01*
X98040500Y-97553658D01*
X98040500Y-97553655D01*
X98040499Y-97553653D01*
X98009738Y-97399010D01*
X98009738Y-97399008D01*
X98009737Y-97399003D01*
X97998061Y-97370814D01*
X97949397Y-97253327D01*
X97949390Y-97253314D01*
X97861789Y-97122211D01*
X97861786Y-97122207D01*
X97750292Y-97010713D01*
X97750288Y-97010710D01*
X97619185Y-96923109D01*
X97619172Y-96923102D01*
X97473501Y-96862764D01*
X97473489Y-96862761D01*
X97318845Y-96832000D01*
X97318842Y-96832000D01*
X97161158Y-96832000D01*
X97161155Y-96832000D01*
X97006510Y-96862761D01*
X97006498Y-96862764D01*
X96860827Y-96923102D01*
X96860814Y-96923109D01*
X96729711Y-97010710D01*
X96729707Y-97010713D01*
X96618213Y-97122207D01*
X96618210Y-97122211D01*
X96530609Y-97253314D01*
X96530602Y-97253327D01*
X96470264Y-97398998D01*
X96470261Y-97399008D01*
X96440288Y-97549692D01*
X96407903Y-97611603D01*
X96347187Y-97646177D01*
X96318671Y-97649500D01*
X85205098Y-97649500D01*
X85138059Y-97629815D01*
X85117417Y-97613181D01*
X84081819Y-96577583D01*
X84067115Y-96550655D01*
X84050523Y-96524837D01*
X84049631Y-96518636D01*
X84048334Y-96516260D01*
X84045500Y-96489902D01*
X84045500Y-96343653D01*
X89807000Y-96343653D01*
X89807000Y-96501346D01*
X89837761Y-96655989D01*
X89837764Y-96656001D01*
X89898102Y-96801672D01*
X89898109Y-96801685D01*
X89985710Y-96932788D01*
X89985713Y-96932792D01*
X90097207Y-97044286D01*
X90097211Y-97044289D01*
X90228314Y-97131890D01*
X90228327Y-97131897D01*
X90373998Y-97192235D01*
X90374003Y-97192237D01*
X90505643Y-97218422D01*
X90528653Y-97222999D01*
X90528656Y-97223000D01*
X90528658Y-97223000D01*
X90686344Y-97223000D01*
X90686345Y-97222999D01*
X90840997Y-97192237D01*
X90986679Y-97131894D01*
X91117789Y-97044289D01*
X91229289Y-96932789D01*
X91316894Y-96801679D01*
X91377237Y-96655997D01*
X91408000Y-96501342D01*
X91408000Y-96343658D01*
X91408000Y-96343655D01*
X91407999Y-96343653D01*
X91382427Y-96215097D01*
X91377237Y-96189003D01*
X91372364Y-96177238D01*
X91316897Y-96043327D01*
X91316890Y-96043314D01*
X91229289Y-95912211D01*
X91229286Y-95912207D01*
X91117792Y-95800713D01*
X91117788Y-95800710D01*
X90986685Y-95713109D01*
X90986672Y-95713102D01*
X90841001Y-95652764D01*
X90840989Y-95652761D01*
X90686345Y-95622000D01*
X90686342Y-95622000D01*
X90528658Y-95622000D01*
X90528655Y-95622000D01*
X90374010Y-95652761D01*
X90373998Y-95652764D01*
X90228327Y-95713102D01*
X90228314Y-95713109D01*
X90097211Y-95800710D01*
X90097207Y-95800713D01*
X89985713Y-95912207D01*
X89985710Y-95912211D01*
X89898109Y-96043314D01*
X89898102Y-96043327D01*
X89837764Y-96188998D01*
X89837761Y-96189010D01*
X89807000Y-96343653D01*
X84045500Y-96343653D01*
X84045500Y-96215097D01*
X84065185Y-96148058D01*
X84081819Y-96127416D01*
X85638083Y-94571153D01*
X87889500Y-94571153D01*
X87889500Y-94728846D01*
X87920261Y-94883489D01*
X87920264Y-94883501D01*
X87980602Y-95029172D01*
X87980609Y-95029185D01*
X88068210Y-95160288D01*
X88068213Y-95160292D01*
X88179707Y-95271786D01*
X88179711Y-95271789D01*
X88310814Y-95359390D01*
X88310827Y-95359397D01*
X88456498Y-95419735D01*
X88456503Y-95419737D01*
X88611153Y-95450499D01*
X88611156Y-95450500D01*
X88611158Y-95450500D01*
X88768844Y-95450500D01*
X88768845Y-95450499D01*
X88923497Y-95419737D01*
X89069179Y-95359394D01*
X89200289Y-95271789D01*
X89311789Y-95160289D01*
X89399394Y-95029179D01*
X89459737Y-94883497D01*
X89490500Y-94728842D01*
X89490500Y-94571158D01*
X89490500Y-94571155D01*
X89490499Y-94571153D01*
X89471847Y-94477385D01*
X89459737Y-94416503D01*
X89454123Y-94402950D01*
X89399397Y-94270827D01*
X89399390Y-94270814D01*
X89311789Y-94139711D01*
X89311786Y-94139707D01*
X89200292Y-94028213D01*
X89200288Y-94028210D01*
X89167278Y-94006153D01*
X91249500Y-94006153D01*
X91249500Y-94163846D01*
X91280261Y-94318489D01*
X91280264Y-94318501D01*
X91340602Y-94464172D01*
X91340609Y-94464185D01*
X91428210Y-94595288D01*
X91428213Y-94595292D01*
X91539707Y-94706786D01*
X91539711Y-94706789D01*
X91670814Y-94794390D01*
X91670827Y-94794397D01*
X91816498Y-94854735D01*
X91816503Y-94854737D01*
X91971153Y-94885499D01*
X91971156Y-94885500D01*
X91971158Y-94885500D01*
X92128844Y-94885500D01*
X92128845Y-94885499D01*
X92283497Y-94854737D01*
X92429179Y-94794394D01*
X92560289Y-94706789D01*
X92671789Y-94595289D01*
X92759394Y-94464179D01*
X92819737Y-94318497D01*
X92850500Y-94163842D01*
X92850500Y-94006158D01*
X92850500Y-94006155D01*
X92850499Y-94006153D01*
X92833165Y-93919010D01*
X92819737Y-93851503D01*
X92815081Y-93840263D01*
X92759397Y-93705827D01*
X92759390Y-93705814D01*
X92671789Y-93574711D01*
X92671786Y-93574707D01*
X92560292Y-93463213D01*
X92560287Y-93463209D01*
X92429185Y-93375609D01*
X92429172Y-93375602D01*
X92283501Y-93315264D01*
X92283489Y-93315261D01*
X92128845Y-93284500D01*
X92128842Y-93284500D01*
X91971158Y-93284500D01*
X91971155Y-93284500D01*
X91816510Y-93315261D01*
X91816498Y-93315264D01*
X91670827Y-93375602D01*
X91670814Y-93375609D01*
X91539713Y-93463209D01*
X91539707Y-93463213D01*
X91428213Y-93574707D01*
X91428210Y-93574711D01*
X91340609Y-93705814D01*
X91340602Y-93705827D01*
X91280264Y-93851498D01*
X91280261Y-93851510D01*
X91249500Y-94006153D01*
X89167278Y-94006153D01*
X89069185Y-93940609D01*
X89069172Y-93940602D01*
X88923501Y-93880264D01*
X88923489Y-93880261D01*
X88768845Y-93849500D01*
X88768842Y-93849500D01*
X88611158Y-93849500D01*
X88611155Y-93849500D01*
X88456510Y-93880261D01*
X88456498Y-93880264D01*
X88310827Y-93940602D01*
X88310814Y-93940609D01*
X88179711Y-94028210D01*
X88179707Y-94028213D01*
X88068213Y-94139707D01*
X88068210Y-94139711D01*
X87980609Y-94270814D01*
X87980602Y-94270827D01*
X87920264Y-94416498D01*
X87920261Y-94416510D01*
X87889500Y-94571153D01*
X85638083Y-94571153D01*
X85731851Y-94477385D01*
X85748737Y-94460499D01*
X85788020Y-94421216D01*
X85867077Y-94284284D01*
X85908001Y-94131557D01*
X85908001Y-94054764D01*
X85927686Y-93987725D01*
X85928899Y-93985873D01*
X86016890Y-93854185D01*
X86016890Y-93854184D01*
X86016894Y-93854179D01*
X86018003Y-93851503D01*
X86030567Y-93821166D01*
X86077237Y-93708497D01*
X86108000Y-93553842D01*
X86108000Y-93396158D01*
X86108000Y-93396155D01*
X86107999Y-93396153D01*
X86105335Y-93382761D01*
X86077237Y-93241503D01*
X86061433Y-93203348D01*
X86016897Y-93095827D01*
X86016890Y-93095814D01*
X85929289Y-92964711D01*
X85929286Y-92964707D01*
X85817792Y-92853213D01*
X85817788Y-92853210D01*
X85720561Y-92788245D01*
X85675756Y-92734633D01*
X85667049Y-92665308D01*
X85697203Y-92602281D01*
X85701752Y-92597481D01*
X86358080Y-91941153D01*
X89389500Y-91941153D01*
X89389500Y-92098846D01*
X89420261Y-92253489D01*
X89420264Y-92253501D01*
X89480602Y-92399172D01*
X89480609Y-92399185D01*
X89568210Y-92530288D01*
X89568213Y-92530292D01*
X89679707Y-92641786D01*
X89679711Y-92641789D01*
X89810814Y-92729390D01*
X89810827Y-92729397D01*
X89949386Y-92786789D01*
X89956503Y-92789737D01*
X90111153Y-92820499D01*
X90111156Y-92820500D01*
X90111158Y-92820500D01*
X90268844Y-92820500D01*
X90268845Y-92820499D01*
X90423497Y-92789737D01*
X90569179Y-92729394D01*
X90700289Y-92641789D01*
X90811789Y-92530289D01*
X90899394Y-92399179D01*
X90899677Y-92398497D01*
X90959735Y-92253501D01*
X90959737Y-92253497D01*
X90990500Y-92098842D01*
X90990500Y-91941158D01*
X90990500Y-91941155D01*
X90990499Y-91941153D01*
X90976445Y-91870499D01*
X90959737Y-91786503D01*
X90938523Y-91735288D01*
X90899397Y-91640827D01*
X90899390Y-91640814D01*
X90811789Y-91509711D01*
X90811786Y-91509707D01*
X90700292Y-91398213D01*
X90700288Y-91398210D01*
X90580545Y-91318200D01*
X90580496Y-91318168D01*
X90569179Y-91310606D01*
X90569172Y-91310602D01*
X90423501Y-91250264D01*
X90423489Y-91250261D01*
X90277155Y-91221153D01*
X92462000Y-91221153D01*
X92462000Y-91378846D01*
X92492761Y-91533489D01*
X92492764Y-91533501D01*
X92553102Y-91679172D01*
X92553109Y-91679185D01*
X92640710Y-91810288D01*
X92640713Y-91810292D01*
X92752207Y-91921786D01*
X92752211Y-91921789D01*
X92883314Y-92009390D01*
X92883327Y-92009397D01*
X92968584Y-92044711D01*
X93029003Y-92069737D01*
X93093647Y-92082595D01*
X93184349Y-92100638D01*
X93246260Y-92133023D01*
X93247839Y-92134574D01*
X93503181Y-92389916D01*
X93536666Y-92451239D01*
X93539500Y-92477597D01*
X93539500Y-93203330D01*
X93539499Y-93203348D01*
X93539499Y-93369054D01*
X93539498Y-93369054D01*
X93580423Y-93521785D01*
X93609358Y-93571900D01*
X93609359Y-93571904D01*
X93609360Y-93571904D01*
X93659479Y-93658714D01*
X93659481Y-93658717D01*
X93778349Y-93777585D01*
X93778355Y-93777590D01*
X94517639Y-94516874D01*
X94517649Y-94516885D01*
X94521979Y-94521215D01*
X94521980Y-94521216D01*
X94633784Y-94633020D01*
X94704884Y-94674069D01*
X94770715Y-94712077D01*
X94923442Y-94753000D01*
X94923443Y-94753000D01*
X96020234Y-94753000D01*
X96087273Y-94772685D01*
X96089125Y-94773898D01*
X96220814Y-94861890D01*
X96220827Y-94861897D01*
X96306084Y-94897211D01*
X96366503Y-94922237D01*
X96521153Y-94952999D01*
X96521156Y-94953000D01*
X96521158Y-94953000D01*
X96678844Y-94953000D01*
X96678845Y-94952999D01*
X96833497Y-94922237D01*
X96979179Y-94861894D01*
X97110289Y-94774289D01*
X97221789Y-94662789D01*
X97309394Y-94531679D01*
X97369737Y-94385997D01*
X97400500Y-94231342D01*
X97400500Y-94073658D01*
X97400500Y-94073655D01*
X97400499Y-94073653D01*
X97391460Y-94028210D01*
X97369737Y-93919003D01*
X97359169Y-93893489D01*
X97309397Y-93773327D01*
X97309390Y-93773314D01*
X97222956Y-93643957D01*
X97221789Y-93642211D01*
X97221786Y-93642207D01*
X97160732Y-93581153D01*
X103229500Y-93581153D01*
X103229500Y-93738846D01*
X103260261Y-93893489D01*
X103260264Y-93893501D01*
X103320602Y-94039172D01*
X103320609Y-94039185D01*
X103408210Y-94170288D01*
X103408213Y-94170292D01*
X103519707Y-94281786D01*
X103519711Y-94281789D01*
X103650814Y-94369390D01*
X103650827Y-94369397D01*
X103796498Y-94429735D01*
X103796503Y-94429737D01*
X103951153Y-94460499D01*
X103951156Y-94460500D01*
X103951158Y-94460500D01*
X104108844Y-94460500D01*
X104108845Y-94460499D01*
X104263497Y-94429737D01*
X104409179Y-94369394D01*
X104540289Y-94281789D01*
X104651789Y-94170289D01*
X104739394Y-94039179D01*
X104743938Y-94028210D01*
X104780224Y-93940606D01*
X104799737Y-93893497D01*
X104830500Y-93738842D01*
X104830500Y-93581158D01*
X104830500Y-93581155D01*
X104830499Y-93581153D01*
X104807039Y-93463213D01*
X104799737Y-93426503D01*
X104781620Y-93382764D01*
X104739397Y-93280827D01*
X104739390Y-93280814D01*
X104651789Y-93149711D01*
X104651786Y-93149707D01*
X104540292Y-93038213D01*
X104540288Y-93038210D01*
X104409185Y-92950609D01*
X104409172Y-92950602D01*
X104263501Y-92890264D01*
X104263489Y-92890261D01*
X104108845Y-92859500D01*
X104108842Y-92859500D01*
X103951158Y-92859500D01*
X103951155Y-92859500D01*
X103796510Y-92890261D01*
X103796498Y-92890264D01*
X103650827Y-92950602D01*
X103650814Y-92950609D01*
X103519711Y-93038210D01*
X103519707Y-93038213D01*
X103408213Y-93149707D01*
X103408210Y-93149711D01*
X103320609Y-93280814D01*
X103320602Y-93280827D01*
X103260264Y-93426498D01*
X103260261Y-93426510D01*
X103229500Y-93581153D01*
X97160732Y-93581153D01*
X97110292Y-93530713D01*
X97110288Y-93530710D01*
X96979185Y-93443109D01*
X96979172Y-93443102D01*
X96833501Y-93382764D01*
X96833489Y-93382761D01*
X96727192Y-93361617D01*
X96665281Y-93329232D01*
X96630707Y-93268516D01*
X96634446Y-93198747D01*
X96675313Y-93142075D01*
X96727192Y-93118383D01*
X96774705Y-93108931D01*
X96833497Y-93097237D01*
X96975995Y-93038213D01*
X96979172Y-93036897D01*
X96979172Y-93036896D01*
X96979179Y-93036894D01*
X97110289Y-92949289D01*
X97221789Y-92837789D01*
X97309394Y-92706679D01*
X97369737Y-92560997D01*
X97400500Y-92406342D01*
X97400500Y-92248658D01*
X97400500Y-92248655D01*
X97400499Y-92248653D01*
X97377807Y-92134574D01*
X97369737Y-92094003D01*
X97366486Y-92086155D01*
X97309397Y-91948327D01*
X97309390Y-91948314D01*
X97221789Y-91817211D01*
X97221786Y-91817207D01*
X97110292Y-91705713D01*
X97110288Y-91705710D01*
X96979185Y-91618109D01*
X96979172Y-91618102D01*
X96833501Y-91557764D01*
X96833489Y-91557761D01*
X96678845Y-91527000D01*
X96678842Y-91527000D01*
X96521158Y-91527000D01*
X96521155Y-91527000D01*
X96366510Y-91557761D01*
X96366498Y-91557764D01*
X96220827Y-91618102D01*
X96220814Y-91618109D01*
X96089711Y-91705710D01*
X96089707Y-91705713D01*
X95978213Y-91817207D01*
X95978210Y-91817211D01*
X95890609Y-91948314D01*
X95890602Y-91948327D01*
X95830264Y-92093998D01*
X95830261Y-92094008D01*
X95816005Y-92165677D01*
X95783619Y-92227588D01*
X95722903Y-92262162D01*
X95653134Y-92258421D01*
X95596462Y-92217554D01*
X95579826Y-92188935D01*
X95574395Y-92175824D01*
X95574394Y-92175821D01*
X95574392Y-92175818D01*
X95574390Y-92175814D01*
X95486789Y-92044711D01*
X95486786Y-92044707D01*
X95375292Y-91933213D01*
X95375288Y-91933210D01*
X95244185Y-91845609D01*
X95244172Y-91845602D01*
X95111392Y-91790604D01*
X95056988Y-91746763D01*
X95034923Y-91680469D01*
X95052202Y-91612770D01*
X95103339Y-91565159D01*
X95134653Y-91554426D01*
X95165142Y-91548360D01*
X95208497Y-91539737D01*
X95354179Y-91479394D01*
X95485289Y-91391789D01*
X95596789Y-91280289D01*
X95684394Y-91149179D01*
X95744737Y-91003497D01*
X95775500Y-90848842D01*
X95775500Y-90691158D01*
X95775500Y-90691155D01*
X95775499Y-90691153D01*
X95760472Y-90615609D01*
X95744737Y-90536503D01*
X95742152Y-90530263D01*
X95684397Y-90390827D01*
X95684390Y-90390814D01*
X95596789Y-90259711D01*
X95596786Y-90259707D01*
X95485292Y-90148213D01*
X95485288Y-90148210D01*
X95354185Y-90060609D01*
X95354172Y-90060602D01*
X95208501Y-90000264D01*
X95208489Y-90000261D01*
X95053845Y-89969500D01*
X95053842Y-89969500D01*
X94896158Y-89969500D01*
X94896155Y-89969500D01*
X94741510Y-90000261D01*
X94741498Y-90000264D01*
X94595827Y-90060602D01*
X94595814Y-90060609D01*
X94464711Y-90148210D01*
X94464707Y-90148213D01*
X94353213Y-90259707D01*
X94353210Y-90259711D01*
X94265609Y-90390814D01*
X94265602Y-90390827D01*
X94205264Y-90536498D01*
X94205261Y-90536510D01*
X94174500Y-90691153D01*
X94174500Y-90815268D01*
X94154815Y-90882307D01*
X94102011Y-90928062D01*
X94032853Y-90938006D01*
X93969297Y-90908981D01*
X93947398Y-90884159D01*
X93884289Y-90789711D01*
X93884286Y-90789707D01*
X93772792Y-90678213D01*
X93772788Y-90678210D01*
X93641685Y-90590609D01*
X93641672Y-90590602D01*
X93496001Y-90530264D01*
X93495989Y-90530261D01*
X93341345Y-90499500D01*
X93341342Y-90499500D01*
X93183658Y-90499500D01*
X93183655Y-90499500D01*
X93029010Y-90530261D01*
X93028998Y-90530264D01*
X92883327Y-90590602D01*
X92883314Y-90590609D01*
X92752211Y-90678210D01*
X92752207Y-90678213D01*
X92640713Y-90789707D01*
X92640710Y-90789711D01*
X92553109Y-90920814D01*
X92553102Y-90920827D01*
X92492764Y-91066498D01*
X92492761Y-91066510D01*
X92462000Y-91221153D01*
X90277155Y-91221153D01*
X90268845Y-91219500D01*
X90268842Y-91219500D01*
X90111158Y-91219500D01*
X90111155Y-91219500D01*
X89956510Y-91250261D01*
X89956498Y-91250264D01*
X89810827Y-91310602D01*
X89810814Y-91310609D01*
X89679711Y-91398210D01*
X89679707Y-91398213D01*
X89568213Y-91509707D01*
X89568210Y-91509711D01*
X89480609Y-91640814D01*
X89480602Y-91640827D01*
X89420264Y-91786498D01*
X89420261Y-91786510D01*
X89389500Y-91941153D01*
X86358080Y-91941153D01*
X90844534Y-87454699D01*
X90905855Y-87421216D01*
X90975547Y-87426200D01*
X91031480Y-87468072D01*
X91046773Y-87494927D01*
X91050603Y-87504173D01*
X91050609Y-87504185D01*
X91138210Y-87635288D01*
X91138213Y-87635292D01*
X91249707Y-87746786D01*
X91249711Y-87746789D01*
X91380814Y-87834390D01*
X91380827Y-87834397D01*
X91526498Y-87894735D01*
X91526503Y-87894737D01*
X91681153Y-87925499D01*
X91681156Y-87925500D01*
X91681158Y-87925500D01*
X91838844Y-87925500D01*
X91838845Y-87925499D01*
X91993497Y-87894737D01*
X92132127Y-87837315D01*
X92139172Y-87834397D01*
X92139172Y-87834396D01*
X92139179Y-87834394D01*
X92270289Y-87746789D01*
X92381789Y-87635289D01*
X92469394Y-87504179D01*
X92529737Y-87358497D01*
X92560500Y-87203842D01*
X92560500Y-87046158D01*
X92560500Y-87046155D01*
X92560499Y-87046153D01*
X93509500Y-87046153D01*
X93509500Y-87203846D01*
X93540261Y-87358489D01*
X93540264Y-87358501D01*
X93600602Y-87504172D01*
X93600609Y-87504185D01*
X93688210Y-87635288D01*
X93688213Y-87635292D01*
X93799707Y-87746786D01*
X93799711Y-87746789D01*
X93930814Y-87834390D01*
X93930827Y-87834397D01*
X94076498Y-87894735D01*
X94076503Y-87894737D01*
X94231153Y-87925499D01*
X94231156Y-87925500D01*
X94231158Y-87925500D01*
X94388844Y-87925500D01*
X94388845Y-87925499D01*
X94543497Y-87894737D01*
X94682127Y-87837315D01*
X94689172Y-87834397D01*
X94689172Y-87834396D01*
X94689179Y-87834394D01*
X94820289Y-87746789D01*
X94931789Y-87635289D01*
X95019394Y-87504179D01*
X95079737Y-87358497D01*
X95110500Y-87203842D01*
X95110500Y-87046158D01*
X95110500Y-87046155D01*
X95110499Y-87046153D01*
X95079737Y-86891503D01*
X95064139Y-86853846D01*
X95019397Y-86745827D01*
X95019390Y-86745814D01*
X94931789Y-86614711D01*
X94931786Y-86614707D01*
X94820292Y-86503213D01*
X94820288Y-86503210D01*
X94689185Y-86415609D01*
X94689172Y-86415602D01*
X94543501Y-86355264D01*
X94543489Y-86355261D01*
X94388845Y-86324500D01*
X94388842Y-86324500D01*
X94231158Y-86324500D01*
X94231155Y-86324500D01*
X94076510Y-86355261D01*
X94076498Y-86355264D01*
X93930827Y-86415602D01*
X93930814Y-86415609D01*
X93799711Y-86503210D01*
X93799707Y-86503213D01*
X93688213Y-86614707D01*
X93688210Y-86614711D01*
X93600609Y-86745814D01*
X93600602Y-86745827D01*
X93540264Y-86891498D01*
X93540261Y-86891510D01*
X93509500Y-87046153D01*
X92560499Y-87046153D01*
X92529737Y-86891503D01*
X92514139Y-86853846D01*
X92469397Y-86745827D01*
X92469390Y-86745814D01*
X92381789Y-86614711D01*
X92381786Y-86614707D01*
X92270292Y-86503213D01*
X92270288Y-86503210D01*
X92139185Y-86415609D01*
X92139173Y-86415603D01*
X92129927Y-86411773D01*
X92075524Y-86367931D01*
X92053461Y-86301636D01*
X92070741Y-86233937D01*
X92089697Y-86209536D01*
X94832416Y-83466819D01*
X94893739Y-83433334D01*
X94920097Y-83430500D01*
X103220234Y-83430500D01*
X103287273Y-83450185D01*
X103289125Y-83451398D01*
X103420814Y-83539390D01*
X103420827Y-83539397D01*
X103566498Y-83599735D01*
X103566503Y-83599737D01*
X103721153Y-83630499D01*
X103721156Y-83630500D01*
X103721158Y-83630500D01*
X103878844Y-83630500D01*
X103878845Y-83630499D01*
X104033497Y-83599737D01*
X104179179Y-83539394D01*
X104310289Y-83451789D01*
X104421789Y-83340289D01*
X104509394Y-83209179D01*
X104512854Y-83200827D01*
X104540372Y-83134390D01*
X104569737Y-83063497D01*
X104600500Y-82908842D01*
X104600500Y-82751158D01*
X104600500Y-82751155D01*
X104600499Y-82751153D01*
X104594941Y-82723210D01*
X104569737Y-82596503D01*
X104565315Y-82585827D01*
X104509397Y-82450827D01*
X104509390Y-82450814D01*
X104421789Y-82319711D01*
X104421786Y-82319707D01*
X104310292Y-82208213D01*
X104310288Y-82208210D01*
X104179185Y-82120609D01*
X104179172Y-82120602D01*
X104033501Y-82060264D01*
X104033489Y-82060261D01*
X103878845Y-82029500D01*
X103878842Y-82029500D01*
X103721158Y-82029500D01*
X103721155Y-82029500D01*
X103566510Y-82060261D01*
X103566498Y-82060264D01*
X103420827Y-82120602D01*
X103420814Y-82120609D01*
X103289125Y-82208602D01*
X103222447Y-82229480D01*
X103220234Y-82229500D01*
X94540943Y-82229500D01*
X94388214Y-82270423D01*
X94345074Y-82295331D01*
X94345073Y-82295331D01*
X94251287Y-82349477D01*
X94251282Y-82349481D01*
X94139478Y-82461286D01*
X87617841Y-88982922D01*
X87556518Y-89016407D01*
X87486826Y-89011423D01*
X87430893Y-88969551D01*
X87420280Y-88950914D01*
X87419764Y-88951191D01*
X87416890Y-88945814D01*
X87329289Y-88814711D01*
X87329286Y-88814707D01*
X87217792Y-88703213D01*
X87217788Y-88703210D01*
X87086685Y-88615609D01*
X87086672Y-88615602D01*
X86941001Y-88555264D01*
X86940989Y-88555261D01*
X86786345Y-88524500D01*
X86786342Y-88524500D01*
X86628658Y-88524500D01*
X86628655Y-88524500D01*
X86474010Y-88555261D01*
X86473998Y-88555264D01*
X86328327Y-88615602D01*
X86328314Y-88615609D01*
X86197211Y-88703210D01*
X86197207Y-88703213D01*
X86085713Y-88814707D01*
X86085710Y-88814711D01*
X85998109Y-88945814D01*
X85998102Y-88945827D01*
X85937764Y-89091498D01*
X85937761Y-89091510D01*
X85907000Y-89246153D01*
X85907000Y-89403846D01*
X85937761Y-89558489D01*
X85937764Y-89558501D01*
X85998102Y-89704172D01*
X85998109Y-89704185D01*
X86085710Y-89835288D01*
X86085713Y-89835292D01*
X86197207Y-89946786D01*
X86197211Y-89946789D01*
X86328314Y-90034390D01*
X86333691Y-90037264D01*
X86332689Y-90039138D01*
X86379598Y-90076942D01*
X86401662Y-90143236D01*
X86384382Y-90210935D01*
X86365422Y-90235341D01*
X82374769Y-94225994D01*
X82374763Y-94226000D01*
X82371286Y-94229478D01*
X82371284Y-94229480D01*
X82259480Y-94341284D01*
X82229549Y-94393127D01*
X82223878Y-94402947D01*
X82223877Y-94402950D01*
X82213331Y-94421217D01*
X82180423Y-94478215D01*
X82139499Y-94630943D01*
X82139499Y-94630945D01*
X82139499Y-94799046D01*
X82139500Y-94799059D01*
X82139500Y-97170234D01*
X82119815Y-97237273D01*
X82118602Y-97239125D01*
X82030609Y-97370814D01*
X82030602Y-97370827D01*
X81970264Y-97516498D01*
X81970261Y-97516510D01*
X81939500Y-97671153D01*
X70150500Y-97671153D01*
X70150500Y-94531153D01*
X79054500Y-94531153D01*
X79054500Y-94688846D01*
X79085261Y-94843489D01*
X79085264Y-94843501D01*
X79145602Y-94989172D01*
X79145609Y-94989185D01*
X79233210Y-95120288D01*
X79233213Y-95120292D01*
X79344707Y-95231786D01*
X79344711Y-95231789D01*
X79475814Y-95319390D01*
X79475827Y-95319397D01*
X79621498Y-95379735D01*
X79621503Y-95379737D01*
X79776153Y-95410499D01*
X79776156Y-95410500D01*
X79776158Y-95410500D01*
X79933844Y-95410500D01*
X79933845Y-95410499D01*
X80088497Y-95379737D01*
X80234179Y-95319394D01*
X80365289Y-95231789D01*
X80476789Y-95120289D01*
X80564394Y-94989179D01*
X80624737Y-94843497D01*
X80655500Y-94688842D01*
X80655500Y-94531158D01*
X80655500Y-94531155D01*
X80655499Y-94531153D01*
X80644969Y-94478215D01*
X80624737Y-94376503D01*
X80600712Y-94318501D01*
X80564397Y-94230827D01*
X80564390Y-94230814D01*
X80476789Y-94099711D01*
X80476786Y-94099707D01*
X80365292Y-93988213D01*
X80365288Y-93988210D01*
X80234185Y-93900609D01*
X80234172Y-93900602D01*
X80088501Y-93840264D01*
X80088489Y-93840261D01*
X79933845Y-93809500D01*
X79933842Y-93809500D01*
X79776158Y-93809500D01*
X79776155Y-93809500D01*
X79621510Y-93840261D01*
X79621498Y-93840264D01*
X79475827Y-93900602D01*
X79475814Y-93900609D01*
X79344711Y-93988210D01*
X79344707Y-93988213D01*
X79233213Y-94099707D01*
X79233210Y-94099711D01*
X79145609Y-94230814D01*
X79145602Y-94230827D01*
X79085264Y-94376498D01*
X79085261Y-94376510D01*
X79054500Y-94531153D01*
X70150500Y-94531153D01*
X70150500Y-92240096D01*
X70170185Y-92173057D01*
X70186814Y-92152420D01*
X71348080Y-90991153D01*
X77959500Y-90991153D01*
X77959500Y-91148846D01*
X77990261Y-91303489D01*
X77990264Y-91303501D01*
X78050602Y-91449172D01*
X78050609Y-91449185D01*
X78138210Y-91580288D01*
X78138213Y-91580292D01*
X78249707Y-91691786D01*
X78249711Y-91691789D01*
X78380814Y-91779390D01*
X78380827Y-91779397D01*
X78526498Y-91839735D01*
X78526503Y-91839737D01*
X78681153Y-91870499D01*
X78681156Y-91870500D01*
X78681158Y-91870500D01*
X78838844Y-91870500D01*
X78838845Y-91870499D01*
X78993497Y-91839737D01*
X79106166Y-91793067D01*
X79139172Y-91779397D01*
X79139172Y-91779396D01*
X79139179Y-91779394D01*
X79270289Y-91691789D01*
X79381789Y-91580289D01*
X79469394Y-91449179D01*
X79529737Y-91303497D01*
X79560500Y-91148842D01*
X79560500Y-90991158D01*
X79560500Y-90991155D01*
X79560499Y-90991153D01*
X79546509Y-90920821D01*
X79529737Y-90836503D01*
X79510354Y-90789707D01*
X79469397Y-90690827D01*
X79469390Y-90690814D01*
X79381789Y-90559711D01*
X79381786Y-90559707D01*
X79270292Y-90448213D01*
X79270288Y-90448210D01*
X79139185Y-90360609D01*
X79139172Y-90360602D01*
X78993501Y-90300264D01*
X78993489Y-90300261D01*
X78838845Y-90269500D01*
X78838842Y-90269500D01*
X78681158Y-90269500D01*
X78681155Y-90269500D01*
X78526510Y-90300261D01*
X78526498Y-90300264D01*
X78380827Y-90360602D01*
X78380814Y-90360609D01*
X78249711Y-90448210D01*
X78249707Y-90448213D01*
X78138213Y-90559707D01*
X78138210Y-90559711D01*
X78050609Y-90690814D01*
X78050602Y-90690827D01*
X77990264Y-90836498D01*
X77990261Y-90836510D01*
X77959500Y-90991153D01*
X71348080Y-90991153D01*
X71858506Y-90480727D01*
X71858511Y-90480724D01*
X71868714Y-90470520D01*
X71868716Y-90470520D01*
X71980520Y-90358716D01*
X72059577Y-90221784D01*
X72100500Y-90069057D01*
X72100500Y-89326153D01*
X74939500Y-89326153D01*
X74939500Y-89483846D01*
X74970261Y-89638489D01*
X74970264Y-89638501D01*
X75030602Y-89784172D01*
X75030609Y-89784185D01*
X75118210Y-89915288D01*
X75118213Y-89915292D01*
X75229707Y-90026786D01*
X75229711Y-90026789D01*
X75360814Y-90114390D01*
X75360827Y-90114397D01*
X75506498Y-90174735D01*
X75506503Y-90174737D01*
X75661153Y-90205499D01*
X75661156Y-90205500D01*
X75661158Y-90205500D01*
X75818844Y-90205500D01*
X75818845Y-90205499D01*
X75973497Y-90174737D01*
X76119179Y-90114394D01*
X76250289Y-90026789D01*
X76361789Y-89915289D01*
X76449394Y-89784179D01*
X76509737Y-89638497D01*
X76540500Y-89483842D01*
X76540500Y-89326158D01*
X76540500Y-89326155D01*
X76540499Y-89326153D01*
X76524586Y-89246153D01*
X76509737Y-89171503D01*
X76508865Y-89169397D01*
X76449397Y-89025827D01*
X76449390Y-89025814D01*
X76361789Y-88894711D01*
X76361786Y-88894707D01*
X76250292Y-88783213D01*
X76250288Y-88783210D01*
X76119185Y-88695609D01*
X76119172Y-88695602D01*
X75973501Y-88635264D01*
X75973489Y-88635261D01*
X75818845Y-88604500D01*
X75818842Y-88604500D01*
X75661158Y-88604500D01*
X75661155Y-88604500D01*
X75506510Y-88635261D01*
X75506498Y-88635264D01*
X75360827Y-88695602D01*
X75360814Y-88695609D01*
X75229711Y-88783210D01*
X75229707Y-88783213D01*
X75118213Y-88894707D01*
X75118210Y-88894711D01*
X75030609Y-89025814D01*
X75030602Y-89025827D01*
X74970264Y-89171498D01*
X74970261Y-89171510D01*
X74939500Y-89326153D01*
X72100500Y-89326153D01*
X72100500Y-85771153D01*
X79099500Y-85771153D01*
X79099500Y-85928846D01*
X79130261Y-86083489D01*
X79130264Y-86083501D01*
X79190602Y-86229172D01*
X79190609Y-86229185D01*
X79278210Y-86360288D01*
X79278213Y-86360292D01*
X79389707Y-86471786D01*
X79389711Y-86471789D01*
X79520814Y-86559390D01*
X79520827Y-86559397D01*
X79654359Y-86614707D01*
X79666503Y-86619737D01*
X79819967Y-86650263D01*
X79821153Y-86650499D01*
X79821156Y-86650500D01*
X79821158Y-86650500D01*
X79978844Y-86650500D01*
X79978845Y-86650499D01*
X80133497Y-86619737D01*
X80249262Y-86571786D01*
X80279172Y-86559397D01*
X80279172Y-86559396D01*
X80279179Y-86559394D01*
X80410289Y-86471789D01*
X80521789Y-86360289D01*
X80609394Y-86229179D01*
X80669737Y-86083497D01*
X80700500Y-85928842D01*
X80700500Y-85771158D01*
X80700500Y-85771155D01*
X80700499Y-85771153D01*
X80670077Y-85618213D01*
X80669737Y-85616503D01*
X80613195Y-85479997D01*
X80609397Y-85470827D01*
X80609390Y-85470814D01*
X80521789Y-85339711D01*
X80521786Y-85339707D01*
X80410292Y-85228213D01*
X80410288Y-85228210D01*
X80279185Y-85140609D01*
X80279172Y-85140602D01*
X80133501Y-85080264D01*
X80133489Y-85080261D01*
X79978845Y-85049500D01*
X79978842Y-85049500D01*
X79821158Y-85049500D01*
X79821155Y-85049500D01*
X79666510Y-85080261D01*
X79666498Y-85080264D01*
X79520827Y-85140602D01*
X79520814Y-85140609D01*
X79389711Y-85228210D01*
X79389707Y-85228213D01*
X79278213Y-85339707D01*
X79278210Y-85339711D01*
X79190609Y-85470814D01*
X79190602Y-85470827D01*
X79130264Y-85616498D01*
X79130261Y-85616510D01*
X79099500Y-85771153D01*
X72100500Y-85771153D01*
X72100500Y-82886153D01*
X72622000Y-82886153D01*
X72622000Y-83043846D01*
X72652761Y-83198489D01*
X72652764Y-83198501D01*
X72713102Y-83344172D01*
X72713109Y-83344185D01*
X72800710Y-83475288D01*
X72800713Y-83475292D01*
X72912207Y-83586786D01*
X72912211Y-83586789D01*
X73043314Y-83674390D01*
X73043327Y-83674397D01*
X73163528Y-83724185D01*
X73189003Y-83734737D01*
X73343653Y-83765499D01*
X73343656Y-83765500D01*
X73343658Y-83765500D01*
X73501344Y-83765500D01*
X73501345Y-83765499D01*
X73655997Y-83734737D01*
X73801679Y-83674394D01*
X73932789Y-83586789D01*
X74044289Y-83475289D01*
X74131894Y-83344179D01*
X74192237Y-83198497D01*
X74223000Y-83043842D01*
X74223000Y-82886158D01*
X74223000Y-82886155D01*
X74222999Y-82886153D01*
X74212766Y-82834707D01*
X74192237Y-82731503D01*
X74183446Y-82710279D01*
X74131897Y-82585827D01*
X74131890Y-82585814D01*
X74044289Y-82454711D01*
X74044286Y-82454707D01*
X73932792Y-82343213D01*
X73932788Y-82343210D01*
X73801685Y-82255609D01*
X73801672Y-82255602D01*
X73656001Y-82195264D01*
X73655989Y-82195261D01*
X73501345Y-82164500D01*
X73501342Y-82164500D01*
X73343658Y-82164500D01*
X73343655Y-82164500D01*
X73189010Y-82195261D01*
X73188998Y-82195264D01*
X73043327Y-82255602D01*
X73043314Y-82255609D01*
X72912211Y-82343210D01*
X72912207Y-82343213D01*
X72800713Y-82454707D01*
X72800710Y-82454711D01*
X72713109Y-82585814D01*
X72713102Y-82585827D01*
X72652764Y-82731498D01*
X72652761Y-82731510D01*
X72622000Y-82886153D01*
X72100500Y-82886153D01*
X72100500Y-77751153D01*
X72522000Y-77751153D01*
X72522000Y-77908846D01*
X72552761Y-78063489D01*
X72552764Y-78063501D01*
X72613102Y-78209172D01*
X72613109Y-78209185D01*
X72700710Y-78340288D01*
X72700713Y-78340292D01*
X72812207Y-78451786D01*
X72812211Y-78451789D01*
X72943314Y-78539390D01*
X72943327Y-78539397D01*
X73088998Y-78599735D01*
X73089003Y-78599737D01*
X73243653Y-78630499D01*
X73243656Y-78630500D01*
X73243658Y-78630500D01*
X73401344Y-78630500D01*
X73401345Y-78630499D01*
X73555997Y-78599737D01*
X73701679Y-78539394D01*
X73832789Y-78451789D01*
X73944289Y-78340289D01*
X74031894Y-78209179D01*
X74039697Y-78190342D01*
X74092235Y-78063501D01*
X74092237Y-78063497D01*
X74123000Y-77908842D01*
X74123000Y-77751158D01*
X74123000Y-77751155D01*
X74122999Y-77751153D01*
X74092238Y-77596510D01*
X74092237Y-77596503D01*
X74092235Y-77596498D01*
X74031897Y-77450827D01*
X74031890Y-77450814D01*
X73944289Y-77319711D01*
X73944286Y-77319707D01*
X73832792Y-77208213D01*
X73832788Y-77208210D01*
X73701685Y-77120609D01*
X73701672Y-77120602D01*
X73556001Y-77060264D01*
X73555989Y-77060261D01*
X73401345Y-77029500D01*
X73401342Y-77029500D01*
X73243658Y-77029500D01*
X73243655Y-77029500D01*
X73089010Y-77060261D01*
X73088998Y-77060264D01*
X72943327Y-77120602D01*
X72943314Y-77120609D01*
X72812211Y-77208210D01*
X72812207Y-77208213D01*
X72700713Y-77319707D01*
X72700710Y-77319711D01*
X72613109Y-77450814D01*
X72613102Y-77450827D01*
X72552764Y-77596498D01*
X72552761Y-77596510D01*
X72522000Y-77751153D01*
X72100500Y-77751153D01*
X72100500Y-77021560D01*
X72100501Y-77021547D01*
X72100501Y-76853444D01*
X72100501Y-76853443D01*
X72059577Y-76700716D01*
X71981888Y-76566153D01*
X71980524Y-76563790D01*
X71980518Y-76563782D01*
X70782073Y-75365337D01*
X70748588Y-75304014D01*
X70748137Y-75301847D01*
X70728643Y-75203844D01*
X70717237Y-75146503D01*
X70709468Y-75127747D01*
X70656897Y-75000827D01*
X70656890Y-75000814D01*
X70569289Y-74869711D01*
X70569286Y-74869707D01*
X70457792Y-74758213D01*
X70457788Y-74758210D01*
X70326685Y-74670609D01*
X70326672Y-74670602D01*
X70181001Y-74610264D01*
X70180989Y-74610261D01*
X70026345Y-74579500D01*
X70026342Y-74579500D01*
X69868658Y-74579500D01*
X69868655Y-74579500D01*
X69714010Y-74610261D01*
X69713998Y-74610264D01*
X69568327Y-74670602D01*
X69568314Y-74670609D01*
X69437211Y-74758210D01*
X69437207Y-74758213D01*
X69325713Y-74869707D01*
X69325710Y-74869711D01*
X69238109Y-75000814D01*
X69238102Y-75000827D01*
X69177764Y-75146498D01*
X69177761Y-75146510D01*
X69147000Y-75301153D01*
X69147000Y-75458846D01*
X69177761Y-75613489D01*
X69177764Y-75613501D01*
X69238102Y-75759172D01*
X69238109Y-75759185D01*
X69325710Y-75890288D01*
X69325713Y-75890292D01*
X69437207Y-76001786D01*
X69437211Y-76001789D01*
X69568314Y-76089390D01*
X69568327Y-76089397D01*
X69713998Y-76149735D01*
X69714003Y-76149737D01*
X69778647Y-76162595D01*
X69869349Y-76180638D01*
X69931260Y-76213023D01*
X69932839Y-76214574D01*
X70863181Y-77144916D01*
X70896666Y-77206239D01*
X70899500Y-77232597D01*
X70899500Y-78882604D01*
X70879815Y-78949643D01*
X70827011Y-78995398D01*
X70757853Y-79005342D01*
X70706609Y-78985706D01*
X70609185Y-78920609D01*
X70609172Y-78920602D01*
X70463501Y-78860264D01*
X70463489Y-78860261D01*
X70308845Y-78829500D01*
X70308842Y-78829500D01*
X70151158Y-78829500D01*
X70151155Y-78829500D01*
X69996510Y-78860261D01*
X69996498Y-78860264D01*
X69850827Y-78920602D01*
X69850814Y-78920609D01*
X69719711Y-79008210D01*
X69719707Y-79008213D01*
X69608213Y-79119707D01*
X69608210Y-79119711D01*
X69520609Y-79250814D01*
X69520602Y-79250827D01*
X69460264Y-79396498D01*
X69460261Y-79396510D01*
X69429500Y-79551153D01*
X69429500Y-79708846D01*
X69460261Y-79863489D01*
X69460264Y-79863501D01*
X69520602Y-80009172D01*
X69520609Y-80009185D01*
X69608210Y-80140288D01*
X69608213Y-80140292D01*
X69719707Y-80251786D01*
X69719711Y-80251789D01*
X69794703Y-80301898D01*
X69839508Y-80355511D01*
X69848215Y-80424836D01*
X69818060Y-80487863D01*
X69794703Y-80508102D01*
X69719711Y-80558210D01*
X69719707Y-80558213D01*
X69608213Y-80669707D01*
X69608210Y-80669711D01*
X69520609Y-80800814D01*
X69520602Y-80800827D01*
X69460264Y-80946498D01*
X69460261Y-80946510D01*
X69429500Y-81101153D01*
X69429500Y-81258846D01*
X69460261Y-81413489D01*
X69460264Y-81413501D01*
X69520602Y-81559172D01*
X69520609Y-81559185D01*
X69608210Y-81690288D01*
X69608213Y-81690292D01*
X69650992Y-81733071D01*
X69684477Y-81794394D01*
X69679493Y-81864086D01*
X69637621Y-81920019D01*
X69599309Y-81939412D01*
X69596498Y-81940264D01*
X69450827Y-82000602D01*
X69450814Y-82000609D01*
X69319711Y-82088210D01*
X69319707Y-82088213D01*
X69208213Y-82199707D01*
X69208210Y-82199711D01*
X69120609Y-82330814D01*
X69120602Y-82330827D01*
X69060264Y-82476498D01*
X69060261Y-82476510D01*
X69029500Y-82631153D01*
X69029500Y-82788846D01*
X69060261Y-82943489D01*
X69060264Y-82943501D01*
X69120602Y-83089172D01*
X69120609Y-83089185D01*
X69208210Y-83220288D01*
X69208213Y-83220292D01*
X69319707Y-83331786D01*
X69319711Y-83331789D01*
X69419635Y-83398557D01*
X69464440Y-83452169D01*
X69473147Y-83521494D01*
X69442992Y-83584522D01*
X69419635Y-83604761D01*
X69309711Y-83678210D01*
X69309707Y-83678213D01*
X69198213Y-83789707D01*
X69198210Y-83789711D01*
X69110609Y-83920814D01*
X69110602Y-83920827D01*
X69050264Y-84066498D01*
X69050262Y-84066507D01*
X69019500Y-84221153D01*
X69019500Y-84378846D01*
X69050261Y-84533489D01*
X69050264Y-84533501D01*
X69110602Y-84679172D01*
X69110609Y-84679185D01*
X69198210Y-84810288D01*
X69198213Y-84810292D01*
X69309707Y-84921786D01*
X69309711Y-84921789D01*
X69440814Y-85009390D01*
X69440827Y-85009397D01*
X69537646Y-85049500D01*
X69586503Y-85069737D01*
X69741153Y-85100499D01*
X69741156Y-85100500D01*
X69741158Y-85100500D01*
X69898844Y-85100500D01*
X69898845Y-85100499D01*
X70053497Y-85069737D01*
X70199179Y-85009394D01*
X70330289Y-84921789D01*
X70441789Y-84810289D01*
X70529394Y-84679179D01*
X70589737Y-84533497D01*
X70620500Y-84378842D01*
X70620500Y-84221158D01*
X70620500Y-84221155D01*
X70620499Y-84221153D01*
X70589738Y-84066507D01*
X70589735Y-84066498D01*
X70529397Y-83920827D01*
X70529390Y-83920814D01*
X70441789Y-83789711D01*
X70441786Y-83789707D01*
X70330292Y-83678213D01*
X70330288Y-83678210D01*
X70230364Y-83611442D01*
X70185559Y-83557829D01*
X70176852Y-83488504D01*
X70207007Y-83425477D01*
X70230360Y-83405241D01*
X70340289Y-83331789D01*
X70451789Y-83220289D01*
X70539394Y-83089179D01*
X70599737Y-82943497D01*
X70630500Y-82788842D01*
X70630500Y-82631158D01*
X70630500Y-82631155D01*
X70630499Y-82631153D01*
X70619381Y-82575261D01*
X70599737Y-82476503D01*
X70565638Y-82394179D01*
X70539397Y-82330827D01*
X70539390Y-82330814D01*
X70451789Y-82199711D01*
X70451786Y-82199707D01*
X70409008Y-82156929D01*
X70375523Y-82095606D01*
X70380507Y-82025914D01*
X70422379Y-81969981D01*
X70460691Y-81950588D01*
X70463489Y-81949738D01*
X70463497Y-81949737D01*
X70609179Y-81889394D01*
X70706609Y-81824292D01*
X70773286Y-81803415D01*
X70840666Y-81821899D01*
X70887357Y-81873878D01*
X70899500Y-81927395D01*
X70899500Y-87896696D01*
X70879815Y-87963735D01*
X70827011Y-88009490D01*
X70757853Y-88019434D01*
X70694297Y-87990409D01*
X70672399Y-87965589D01*
X70661788Y-87949709D01*
X70550292Y-87838213D01*
X70550288Y-87838210D01*
X70419185Y-87750609D01*
X70419172Y-87750602D01*
X70273501Y-87690264D01*
X70273489Y-87690261D01*
X70118845Y-87659500D01*
X70118842Y-87659500D01*
X69961158Y-87659500D01*
X69961155Y-87659500D01*
X69806510Y-87690261D01*
X69806498Y-87690264D01*
X69660827Y-87750602D01*
X69660814Y-87750609D01*
X69534632Y-87834922D01*
X69467954Y-87855800D01*
X69400574Y-87837315D01*
X69362639Y-87800711D01*
X69281789Y-87679711D01*
X69281786Y-87679707D01*
X69170292Y-87568213D01*
X69170288Y-87568210D01*
X69039185Y-87480609D01*
X69039172Y-87480602D01*
X68893501Y-87420264D01*
X68893491Y-87420261D01*
X68831841Y-87407998D01*
X68769930Y-87375613D01*
X68735356Y-87314897D01*
X68734416Y-87310572D01*
X68718618Y-87231153D01*
X68709737Y-87186503D01*
X68696345Y-87154172D01*
X68649397Y-87040827D01*
X68649390Y-87040814D01*
X68561789Y-86909711D01*
X68561786Y-86909707D01*
X68450292Y-86798213D01*
X68450288Y-86798210D01*
X68319185Y-86710609D01*
X68319172Y-86710602D01*
X68173501Y-86650264D01*
X68173489Y-86650261D01*
X68018845Y-86619500D01*
X68018842Y-86619500D01*
X67861158Y-86619500D01*
X67861155Y-86619500D01*
X67706510Y-86650261D01*
X67706498Y-86650264D01*
X67560827Y-86710602D01*
X67560814Y-86710609D01*
X67429711Y-86798210D01*
X67429707Y-86798213D01*
X67318213Y-86909707D01*
X67318210Y-86909711D01*
X67230609Y-87040814D01*
X67230602Y-87040827D01*
X67170264Y-87186498D01*
X67170261Y-87186510D01*
X67139500Y-87341153D01*
X66670500Y-87341153D01*
X66670500Y-87231158D01*
X66670500Y-87231155D01*
X66670499Y-87231153D01*
X66661619Y-87186510D01*
X66639737Y-87076503D01*
X66624369Y-87039400D01*
X66579397Y-86930827D01*
X66579390Y-86930814D01*
X66491789Y-86799711D01*
X66491786Y-86799707D01*
X66380292Y-86688213D01*
X66380288Y-86688210D01*
X66249185Y-86600609D01*
X66249172Y-86600602D01*
X66103501Y-86540264D01*
X66103493Y-86540262D01*
X66083667Y-86536318D01*
X66021757Y-86503931D01*
X65987184Y-86443215D01*
X65986244Y-86390510D01*
X66000500Y-86318842D01*
X66000500Y-86161158D01*
X66000500Y-86161155D01*
X66000499Y-86161153D01*
X65998308Y-86150136D01*
X65969737Y-86006503D01*
X65955104Y-85971176D01*
X65909397Y-85860827D01*
X65909390Y-85860814D01*
X65821789Y-85729711D01*
X65821786Y-85729707D01*
X65710292Y-85618213D01*
X65710288Y-85618210D01*
X65579185Y-85530609D01*
X65579172Y-85530602D01*
X65456998Y-85479997D01*
X65402594Y-85436156D01*
X65380529Y-85369862D01*
X65380686Y-85364934D01*
X65380500Y-85364934D01*
X65380500Y-85201155D01*
X65380499Y-85201153D01*
X65376343Y-85180261D01*
X65349737Y-85046503D01*
X65334366Y-85009394D01*
X65289397Y-84900827D01*
X65289390Y-84900814D01*
X65201789Y-84769711D01*
X65201786Y-84769707D01*
X65090292Y-84658213D01*
X65090288Y-84658210D01*
X64959185Y-84570609D01*
X64959172Y-84570602D01*
X64813501Y-84510264D01*
X64813489Y-84510261D01*
X64658845Y-84479500D01*
X64658842Y-84479500D01*
X64501158Y-84479500D01*
X64501155Y-84479500D01*
X64346510Y-84510261D01*
X64346498Y-84510264D01*
X64200827Y-84570602D01*
X64200814Y-84570609D01*
X64069711Y-84658210D01*
X64069707Y-84658213D01*
X63958213Y-84769707D01*
X63958210Y-84769711D01*
X63870609Y-84900814D01*
X63870602Y-84900827D01*
X63810264Y-85046498D01*
X63810261Y-85046508D01*
X63780584Y-85195704D01*
X63748199Y-85257615D01*
X63687483Y-85292189D01*
X63617714Y-85288449D01*
X63590076Y-85274614D01*
X63539185Y-85240609D01*
X63539172Y-85240602D01*
X63393501Y-85180264D01*
X63393489Y-85180261D01*
X63238845Y-85149500D01*
X63238842Y-85149500D01*
X63081158Y-85149500D01*
X63081155Y-85149500D01*
X62926510Y-85180261D01*
X62926498Y-85180264D01*
X62780827Y-85240602D01*
X62780814Y-85240609D01*
X62649711Y-85328210D01*
X62649707Y-85328213D01*
X62538213Y-85439707D01*
X62538210Y-85439711D01*
X62450609Y-85570814D01*
X62450602Y-85570827D01*
X62390264Y-85716498D01*
X62390261Y-85716510D01*
X62358797Y-85874691D01*
X62326412Y-85936602D01*
X62265697Y-85971176D01*
X62237180Y-85974500D01*
X62106155Y-85974500D01*
X61951510Y-86005261D01*
X61951498Y-86005264D01*
X61805827Y-86065602D01*
X61805814Y-86065609D01*
X61674711Y-86153210D01*
X61674707Y-86153213D01*
X61563213Y-86264707D01*
X61563210Y-86264711D01*
X61475609Y-86395814D01*
X61475602Y-86395827D01*
X61415264Y-86541498D01*
X61415261Y-86541510D01*
X61384500Y-86696153D01*
X57736075Y-86696153D01*
X57717785Y-86677863D01*
X57717781Y-86677860D01*
X57553920Y-86568371D01*
X57553907Y-86568364D01*
X57371839Y-86492950D01*
X57371829Y-86492947D01*
X57178543Y-86454500D01*
X57178541Y-86454500D01*
X56981459Y-86454500D01*
X56981457Y-86454500D01*
X56788170Y-86492947D01*
X56788160Y-86492950D01*
X56606092Y-86568364D01*
X56606079Y-86568371D01*
X56442218Y-86677860D01*
X56442214Y-86677863D01*
X56302863Y-86817214D01*
X56302860Y-86817218D01*
X56193371Y-86981079D01*
X56193364Y-86981092D01*
X56117950Y-87163160D01*
X56117947Y-87163170D01*
X56079500Y-87356456D01*
X56079500Y-87356459D01*
X56079500Y-87553541D01*
X56079500Y-87553543D01*
X56079499Y-87553543D01*
X51820500Y-87553543D01*
X51820500Y-83266153D01*
X67129500Y-83266153D01*
X67129500Y-83423846D01*
X67160261Y-83578489D01*
X67160264Y-83578501D01*
X67220602Y-83724172D01*
X67220609Y-83724185D01*
X67308210Y-83855288D01*
X67308213Y-83855292D01*
X67419707Y-83966786D01*
X67419711Y-83966789D01*
X67550814Y-84054390D01*
X67550827Y-84054397D01*
X67645118Y-84093453D01*
X67696503Y-84114737D01*
X67851153Y-84145499D01*
X67851156Y-84145500D01*
X67851158Y-84145500D01*
X68008844Y-84145500D01*
X68008845Y-84145499D01*
X68163497Y-84114737D01*
X68309179Y-84054394D01*
X68440289Y-83966789D01*
X68551789Y-83855289D01*
X68639394Y-83724179D01*
X68699737Y-83578497D01*
X68730500Y-83423842D01*
X68730500Y-83266158D01*
X68730500Y-83266155D01*
X68730499Y-83266153D01*
X68699737Y-83111503D01*
X68690487Y-83089172D01*
X68639397Y-82965827D01*
X68639390Y-82965814D01*
X68551789Y-82834711D01*
X68551786Y-82834707D01*
X68440292Y-82723213D01*
X68440288Y-82723210D01*
X68309185Y-82635609D01*
X68309172Y-82635602D01*
X68163501Y-82575264D01*
X68163489Y-82575261D01*
X68008845Y-82544500D01*
X68008842Y-82544500D01*
X67851158Y-82544500D01*
X67851155Y-82544500D01*
X67696510Y-82575261D01*
X67696498Y-82575264D01*
X67550827Y-82635602D01*
X67550814Y-82635609D01*
X67419711Y-82723210D01*
X67419707Y-82723213D01*
X67308213Y-82834707D01*
X67308210Y-82834711D01*
X67220609Y-82965814D01*
X67220602Y-82965827D01*
X67160264Y-83111498D01*
X67160261Y-83111510D01*
X67129500Y-83266153D01*
X51820500Y-83266153D01*
X51820500Y-81056153D01*
X67139500Y-81056153D01*
X67139500Y-81213846D01*
X67170261Y-81368489D01*
X67170264Y-81368501D01*
X67230602Y-81514172D01*
X67230609Y-81514185D01*
X67318210Y-81645288D01*
X67318213Y-81645292D01*
X67429707Y-81756786D01*
X67429711Y-81756789D01*
X67560814Y-81844390D01*
X67560827Y-81844397D01*
X67706498Y-81904735D01*
X67706503Y-81904737D01*
X67820412Y-81927395D01*
X67861153Y-81935499D01*
X67861156Y-81935500D01*
X67861158Y-81935500D01*
X68018844Y-81935500D01*
X68018845Y-81935499D01*
X68173497Y-81904737D01*
X68319179Y-81844394D01*
X68450289Y-81756789D01*
X68561789Y-81645289D01*
X68649394Y-81514179D01*
X68709737Y-81368497D01*
X68740500Y-81213842D01*
X68740500Y-81056158D01*
X68740500Y-81056155D01*
X68740499Y-81056153D01*
X68724192Y-80974172D01*
X68709737Y-80901503D01*
X68668036Y-80800827D01*
X68649397Y-80755827D01*
X68649390Y-80755814D01*
X68561789Y-80624711D01*
X68561786Y-80624707D01*
X68450292Y-80513213D01*
X68450288Y-80513210D01*
X68319185Y-80425609D01*
X68319172Y-80425602D01*
X68173501Y-80365264D01*
X68173489Y-80365261D01*
X68018845Y-80334500D01*
X68018842Y-80334500D01*
X67861158Y-80334500D01*
X67861155Y-80334500D01*
X67706510Y-80365261D01*
X67706498Y-80365264D01*
X67560827Y-80425602D01*
X67560814Y-80425609D01*
X67429711Y-80513210D01*
X67429707Y-80513213D01*
X67318213Y-80624707D01*
X67318210Y-80624711D01*
X67230609Y-80755814D01*
X67230602Y-80755827D01*
X67170264Y-80901498D01*
X67170261Y-80901510D01*
X67139500Y-81056153D01*
X51820500Y-81056153D01*
X51820500Y-79553543D01*
X56079499Y-79553543D01*
X56117947Y-79746829D01*
X56117950Y-79746839D01*
X56193364Y-79928907D01*
X56193371Y-79928920D01*
X56302860Y-80092781D01*
X56302863Y-80092785D01*
X56442214Y-80232136D01*
X56442218Y-80232139D01*
X56606079Y-80341628D01*
X56606092Y-80341635D01*
X56746365Y-80399737D01*
X56788165Y-80417051D01*
X56788169Y-80417051D01*
X56788170Y-80417052D01*
X56981456Y-80455500D01*
X56981459Y-80455500D01*
X57178543Y-80455500D01*
X57308582Y-80429632D01*
X57371835Y-80417051D01*
X57553914Y-80341632D01*
X57717782Y-80232139D01*
X57857139Y-80092782D01*
X57966632Y-79928914D01*
X58042051Y-79746835D01*
X58080500Y-79553541D01*
X58080500Y-79356459D01*
X58080500Y-79356456D01*
X58042052Y-79163170D01*
X58042051Y-79163169D01*
X58042051Y-79163165D01*
X58002983Y-79068846D01*
X57966635Y-78981092D01*
X57966628Y-78981079D01*
X57857139Y-78817218D01*
X57857136Y-78817214D01*
X57717785Y-78677863D01*
X57717781Y-78677860D01*
X57553920Y-78568371D01*
X57553907Y-78568364D01*
X57371839Y-78492950D01*
X57371829Y-78492947D01*
X57178543Y-78454500D01*
X57178541Y-78454500D01*
X56981459Y-78454500D01*
X56981457Y-78454500D01*
X56788170Y-78492947D01*
X56788160Y-78492950D01*
X56606092Y-78568364D01*
X56606079Y-78568371D01*
X56442218Y-78677860D01*
X56442214Y-78677863D01*
X56302863Y-78817214D01*
X56302860Y-78817218D01*
X56193371Y-78981079D01*
X56193364Y-78981092D01*
X56117950Y-79163160D01*
X56117947Y-79163170D01*
X56079500Y-79356456D01*
X56079500Y-79356459D01*
X56079500Y-79553541D01*
X56079500Y-79553543D01*
X56079499Y-79553543D01*
X51820500Y-79553543D01*
X51820500Y-76566153D01*
X56569500Y-76566153D01*
X56569500Y-76723846D01*
X56600261Y-76878489D01*
X56600264Y-76878501D01*
X56660602Y-77024172D01*
X56660609Y-77024185D01*
X56748210Y-77155288D01*
X56748213Y-77155292D01*
X56859707Y-77266786D01*
X56859711Y-77266789D01*
X56990814Y-77354390D01*
X56990827Y-77354397D01*
X57136498Y-77414735D01*
X57136503Y-77414737D01*
X57291153Y-77445499D01*
X57291156Y-77445500D01*
X57291158Y-77445500D01*
X57448844Y-77445500D01*
X57448845Y-77445499D01*
X57603497Y-77414737D01*
X57749179Y-77354394D01*
X57880289Y-77266789D01*
X57991789Y-77155289D01*
X58079394Y-77024179D01*
X58139737Y-76878497D01*
X58170500Y-76723842D01*
X58170500Y-76566158D01*
X58170500Y-76566155D01*
X58170499Y-76566153D01*
X66279500Y-76566153D01*
X66279500Y-76723846D01*
X66310261Y-76878489D01*
X66310264Y-76878501D01*
X66370602Y-77024172D01*
X66370609Y-77024185D01*
X66458210Y-77155288D01*
X66458213Y-77155292D01*
X66569707Y-77266786D01*
X66569711Y-77266789D01*
X66700814Y-77354390D01*
X66700827Y-77354397D01*
X66846498Y-77414735D01*
X66846503Y-77414737D01*
X67001153Y-77445499D01*
X67001156Y-77445500D01*
X67001158Y-77445500D01*
X67158844Y-77445500D01*
X67158845Y-77445499D01*
X67313497Y-77414737D01*
X67459179Y-77354394D01*
X67590289Y-77266789D01*
X67701789Y-77155289D01*
X67789394Y-77024179D01*
X67849737Y-76878497D01*
X67880500Y-76723842D01*
X67880500Y-76566158D01*
X67880500Y-76566155D01*
X67880499Y-76566153D01*
X67849738Y-76411510D01*
X67849737Y-76411503D01*
X67849735Y-76411498D01*
X67789397Y-76265827D01*
X67789390Y-76265814D01*
X67701789Y-76134711D01*
X67701786Y-76134707D01*
X67590292Y-76023213D01*
X67590288Y-76023210D01*
X67459185Y-75935609D01*
X67459172Y-75935602D01*
X67313501Y-75875264D01*
X67313489Y-75875261D01*
X67158845Y-75844500D01*
X67158842Y-75844500D01*
X67001158Y-75844500D01*
X67001155Y-75844500D01*
X66846510Y-75875261D01*
X66846498Y-75875264D01*
X66700827Y-75935602D01*
X66700814Y-75935609D01*
X66569711Y-76023210D01*
X66569707Y-76023213D01*
X66458213Y-76134707D01*
X66458210Y-76134711D01*
X66370609Y-76265814D01*
X66370602Y-76265827D01*
X66310264Y-76411498D01*
X66310261Y-76411510D01*
X66279500Y-76566153D01*
X58170499Y-76566153D01*
X58139738Y-76411510D01*
X58139737Y-76411503D01*
X58139735Y-76411498D01*
X58079397Y-76265827D01*
X58079390Y-76265814D01*
X57991789Y-76134711D01*
X57991786Y-76134707D01*
X57880292Y-76023213D01*
X57880288Y-76023210D01*
X57749185Y-75935609D01*
X57749172Y-75935602D01*
X57603501Y-75875264D01*
X57603489Y-75875261D01*
X57448845Y-75844500D01*
X57448842Y-75844500D01*
X57291158Y-75844500D01*
X57291155Y-75844500D01*
X57136510Y-75875261D01*
X57136498Y-75875264D01*
X56990827Y-75935602D01*
X56990814Y-75935609D01*
X56859711Y-76023210D01*
X56859707Y-76023213D01*
X56748213Y-76134707D01*
X56748210Y-76134711D01*
X56660609Y-76265814D01*
X56660602Y-76265827D01*
X56600264Y-76411498D01*
X56600261Y-76411510D01*
X56569500Y-76566153D01*
X51820500Y-76566153D01*
X51820500Y-74351153D01*
X67272000Y-74351153D01*
X67272000Y-74508846D01*
X67302761Y-74663489D01*
X67302764Y-74663501D01*
X67363102Y-74809172D01*
X67363109Y-74809185D01*
X67450710Y-74940288D01*
X67450713Y-74940292D01*
X67562207Y-75051786D01*
X67562211Y-75051789D01*
X67693314Y-75139390D01*
X67693327Y-75139397D01*
X67838998Y-75199735D01*
X67839003Y-75199737D01*
X67993653Y-75230499D01*
X67993656Y-75230500D01*
X67993658Y-75230500D01*
X68151344Y-75230500D01*
X68151345Y-75230499D01*
X68305997Y-75199737D01*
X68451679Y-75139394D01*
X68582789Y-75051789D01*
X68694289Y-74940289D01*
X68781894Y-74809179D01*
X68842237Y-74663497D01*
X68873000Y-74508842D01*
X68873000Y-74351158D01*
X68873000Y-74351155D01*
X68872999Y-74351153D01*
X68856804Y-74269735D01*
X68842237Y-74196503D01*
X68811290Y-74121789D01*
X68781897Y-74050827D01*
X68781890Y-74050814D01*
X68694289Y-73919711D01*
X68694286Y-73919707D01*
X68582792Y-73808213D01*
X68582788Y-73808210D01*
X68451685Y-73720609D01*
X68451672Y-73720602D01*
X68306001Y-73660264D01*
X68305989Y-73660261D01*
X68151345Y-73629500D01*
X68151342Y-73629500D01*
X67993658Y-73629500D01*
X67993655Y-73629500D01*
X67839010Y-73660261D01*
X67838998Y-73660264D01*
X67693327Y-73720602D01*
X67693314Y-73720609D01*
X67562211Y-73808210D01*
X67562207Y-73808213D01*
X67450713Y-73919707D01*
X67450710Y-73919711D01*
X67363109Y-74050814D01*
X67363102Y-74050827D01*
X67302764Y-74196498D01*
X67302761Y-74196510D01*
X67272000Y-74351153D01*
X51820500Y-74351153D01*
X51820500Y-67941153D01*
X54939500Y-67941153D01*
X54939500Y-68098846D01*
X54970261Y-68253489D01*
X54970264Y-68253501D01*
X55030602Y-68399172D01*
X55030609Y-68399185D01*
X55118210Y-68530288D01*
X55118213Y-68530292D01*
X55229707Y-68641786D01*
X55229711Y-68641789D01*
X55360817Y-68729392D01*
X55360819Y-68729392D01*
X55360821Y-68729394D01*
X55426286Y-68756510D01*
X55456399Y-68768983D01*
X55496627Y-68795862D01*
X58221284Y-71520520D01*
X58221286Y-71520521D01*
X58221290Y-71520524D01*
X58358209Y-71599573D01*
X58358216Y-71599577D01*
X58510943Y-71640501D01*
X58510945Y-71640501D01*
X58676654Y-71640501D01*
X58676670Y-71640500D01*
X68839903Y-71640500D01*
X68906942Y-71660185D01*
X68927584Y-71676819D01*
X82043181Y-84792416D01*
X82076666Y-84853739D01*
X82079500Y-84880097D01*
X82079500Y-90645234D01*
X82059815Y-90712273D01*
X82058602Y-90714125D01*
X81970609Y-90845814D01*
X81970602Y-90845827D01*
X81910264Y-90991498D01*
X81910261Y-90991510D01*
X81879500Y-91146153D01*
X81879500Y-91303846D01*
X81910261Y-91458489D01*
X81910264Y-91458501D01*
X81970602Y-91604172D01*
X81970609Y-91604185D01*
X82058210Y-91735288D01*
X82058213Y-91735292D01*
X82169707Y-91846786D01*
X82169711Y-91846789D01*
X82300814Y-91934390D01*
X82300827Y-91934397D01*
X82446498Y-91994735D01*
X82446503Y-91994737D01*
X82601153Y-92025499D01*
X82601156Y-92025500D01*
X82601158Y-92025500D01*
X82758844Y-92025500D01*
X82758845Y-92025499D01*
X82913497Y-91994737D01*
X83042849Y-91941158D01*
X83059172Y-91934397D01*
X83059172Y-91934396D01*
X83059179Y-91934394D01*
X83190289Y-91846789D01*
X83301789Y-91735289D01*
X83389394Y-91604179D01*
X83399290Y-91580289D01*
X83414647Y-91543213D01*
X83449737Y-91458497D01*
X83480500Y-91303842D01*
X83480500Y-91146158D01*
X83480500Y-91146155D01*
X83480499Y-91146153D01*
X83464657Y-91066510D01*
X83449737Y-90991503D01*
X83423459Y-90928062D01*
X83389397Y-90845827D01*
X83389390Y-90845814D01*
X83301398Y-90714125D01*
X83280520Y-90647447D01*
X83280500Y-90645234D01*
X83280500Y-84669060D01*
X83280501Y-84669047D01*
X83280501Y-84500944D01*
X83239576Y-84348214D01*
X83239575Y-84348213D01*
X83178912Y-84243140D01*
X83162439Y-84175239D01*
X83185292Y-84109213D01*
X83198618Y-84093459D01*
X83201789Y-84090289D01*
X83289394Y-83959179D01*
X83349737Y-83813497D01*
X83380500Y-83658842D01*
X83380500Y-83501158D01*
X83380500Y-83501155D01*
X83380499Y-83501153D01*
X83375354Y-83475288D01*
X83349737Y-83346503D01*
X83348774Y-83344179D01*
X83289397Y-83200827D01*
X83289390Y-83200814D01*
X83201789Y-83069711D01*
X83201786Y-83069707D01*
X83090292Y-82958213D01*
X83090288Y-82958210D01*
X82959185Y-82870609D01*
X82959172Y-82870602D01*
X82813501Y-82810264D01*
X82813489Y-82810261D01*
X82658845Y-82779500D01*
X82658842Y-82779500D01*
X82501158Y-82779500D01*
X82501155Y-82779500D01*
X82346510Y-82810261D01*
X82346498Y-82810264D01*
X82200827Y-82870602D01*
X82200814Y-82870609D01*
X82069708Y-82958212D01*
X82067458Y-82960059D01*
X82066049Y-82960656D01*
X82064646Y-82961595D01*
X82064468Y-82961328D01*
X82003147Y-82987368D01*
X81934280Y-82975573D01*
X81901118Y-82951882D01*
X81720838Y-82771602D01*
X81687353Y-82710279D01*
X81692337Y-82640587D01*
X81720836Y-82596241D01*
X81791789Y-82525289D01*
X81879394Y-82394179D01*
X81899287Y-82346153D01*
X87789500Y-82346153D01*
X87789500Y-82503846D01*
X87820261Y-82658489D01*
X87820264Y-82658501D01*
X87880602Y-82804172D01*
X87880609Y-82804185D01*
X87968210Y-82935288D01*
X87968213Y-82935292D01*
X88079707Y-83046786D01*
X88079711Y-83046789D01*
X88210814Y-83134390D01*
X88210827Y-83134397D01*
X88356498Y-83194735D01*
X88356503Y-83194737D01*
X88484956Y-83220288D01*
X88511153Y-83225499D01*
X88511156Y-83225500D01*
X88511158Y-83225500D01*
X88668844Y-83225500D01*
X88668845Y-83225499D01*
X88823497Y-83194737D01*
X88969179Y-83134394D01*
X89100289Y-83046789D01*
X89211789Y-82935289D01*
X89299394Y-82804179D01*
X89359737Y-82658497D01*
X89390500Y-82503842D01*
X89390500Y-82346158D01*
X89390500Y-82346155D01*
X89390499Y-82346153D01*
X89385239Y-82319711D01*
X89359737Y-82191503D01*
X89330369Y-82120602D01*
X89299397Y-82045827D01*
X89299390Y-82045814D01*
X89211789Y-81914711D01*
X89211786Y-81914707D01*
X89100292Y-81803213D01*
X89100288Y-81803210D01*
X88969185Y-81715609D01*
X88969172Y-81715602D01*
X88823501Y-81655264D01*
X88823489Y-81655261D01*
X88668845Y-81624500D01*
X88668842Y-81624500D01*
X88511158Y-81624500D01*
X88511155Y-81624500D01*
X88356510Y-81655261D01*
X88356498Y-81655264D01*
X88210827Y-81715602D01*
X88210814Y-81715609D01*
X88079711Y-81803210D01*
X88079707Y-81803213D01*
X87968213Y-81914707D01*
X87968210Y-81914711D01*
X87880609Y-82045814D01*
X87880602Y-82045827D01*
X87820264Y-82191498D01*
X87820261Y-82191510D01*
X87789500Y-82346153D01*
X81899287Y-82346153D01*
X81900505Y-82343213D01*
X81921464Y-82292613D01*
X81924715Y-82284761D01*
X81939737Y-82248497D01*
X81970500Y-82093842D01*
X81970500Y-81936158D01*
X81970500Y-81936155D01*
X81970499Y-81936153D01*
X81964250Y-81904737D01*
X81939737Y-81781503D01*
X81912440Y-81715602D01*
X81879397Y-81635827D01*
X81879390Y-81635814D01*
X81791789Y-81504711D01*
X81791786Y-81504707D01*
X81680292Y-81393213D01*
X81680288Y-81393210D01*
X81549185Y-81305609D01*
X81549172Y-81305602D01*
X81403501Y-81245264D01*
X81403489Y-81245261D01*
X81248845Y-81214500D01*
X81248842Y-81214500D01*
X81091158Y-81214500D01*
X81091155Y-81214500D01*
X80936510Y-81245261D01*
X80936498Y-81245264D01*
X80790827Y-81305602D01*
X80790814Y-81305609D01*
X80659711Y-81393210D01*
X80588759Y-81464162D01*
X80527435Y-81497646D01*
X80457744Y-81492661D01*
X80413397Y-81464161D01*
X79465389Y-80516153D01*
X93509500Y-80516153D01*
X93509500Y-80673846D01*
X93540261Y-80828489D01*
X93540264Y-80828501D01*
X93600602Y-80974172D01*
X93600609Y-80974185D01*
X93688210Y-81105288D01*
X93688213Y-81105292D01*
X93799707Y-81216786D01*
X93799711Y-81216789D01*
X93930814Y-81304390D01*
X93930827Y-81304397D01*
X94076498Y-81364735D01*
X94076503Y-81364737D01*
X94219661Y-81393213D01*
X94231153Y-81395499D01*
X94231156Y-81395500D01*
X94231158Y-81395500D01*
X94388844Y-81395500D01*
X94388845Y-81395499D01*
X94543497Y-81364737D01*
X94689179Y-81304394D01*
X94820289Y-81216789D01*
X94931789Y-81105289D01*
X95019394Y-80974179D01*
X95079737Y-80828497D01*
X95110500Y-80673842D01*
X95110500Y-80516158D01*
X95110500Y-80516155D01*
X95110499Y-80516153D01*
X95098434Y-80455500D01*
X95079737Y-80361503D01*
X95077255Y-80355511D01*
X95019397Y-80215827D01*
X95019390Y-80215814D01*
X94931789Y-80084711D01*
X94931786Y-80084707D01*
X94820292Y-79973213D01*
X94820288Y-79973210D01*
X94689185Y-79885609D01*
X94689172Y-79885602D01*
X94543501Y-79825264D01*
X94543489Y-79825261D01*
X94388845Y-79794500D01*
X94388842Y-79794500D01*
X94231158Y-79794500D01*
X94231155Y-79794500D01*
X94076510Y-79825261D01*
X94076498Y-79825264D01*
X93930827Y-79885602D01*
X93930814Y-79885609D01*
X93799711Y-79973210D01*
X93799707Y-79973213D01*
X93688213Y-80084707D01*
X93688210Y-80084711D01*
X93600609Y-80215814D01*
X93600602Y-80215827D01*
X93540264Y-80361498D01*
X93540261Y-80361510D01*
X93509500Y-80516153D01*
X79465389Y-80516153D01*
X77787360Y-78838124D01*
X77705766Y-78756530D01*
X99149500Y-78756530D01*
X99149500Y-78963469D01*
X99189868Y-79166412D01*
X99189870Y-79166420D01*
X99269059Y-79357598D01*
X99276797Y-79369179D01*
X99384024Y-79529657D01*
X99530342Y-79675975D01*
X99530345Y-79675977D01*
X99702402Y-79790941D01*
X99893580Y-79870130D01*
X100096530Y-79910499D01*
X100096534Y-79910500D01*
X100096535Y-79910500D01*
X100303466Y-79910500D01*
X100303467Y-79910499D01*
X100506420Y-79870130D01*
X100697598Y-79790941D01*
X100869655Y-79675977D01*
X101015977Y-79529655D01*
X101130941Y-79357598D01*
X101210130Y-79166420D01*
X101250500Y-78963465D01*
X101250500Y-78911153D01*
X103229500Y-78911153D01*
X103229500Y-79068846D01*
X103260261Y-79223489D01*
X103260264Y-79223501D01*
X103320602Y-79369172D01*
X103320609Y-79369185D01*
X103408210Y-79500288D01*
X103408213Y-79500292D01*
X103519707Y-79611786D01*
X103519711Y-79611789D01*
X103650814Y-79699390D01*
X103650827Y-79699397D01*
X103765364Y-79746839D01*
X103796503Y-79759737D01*
X103951153Y-79790499D01*
X103951156Y-79790500D01*
X103951158Y-79790500D01*
X104108844Y-79790500D01*
X104108845Y-79790499D01*
X104263497Y-79759737D01*
X104409179Y-79699394D01*
X104540289Y-79611789D01*
X104651789Y-79500289D01*
X104739394Y-79369179D01*
X104799737Y-79223497D01*
X104830500Y-79068842D01*
X104830500Y-78911158D01*
X104830500Y-78911155D01*
X104803344Y-78774635D01*
X104803344Y-78774634D01*
X104799742Y-78756530D01*
X105149500Y-78756530D01*
X105149500Y-78963469D01*
X105189868Y-79166412D01*
X105189870Y-79166420D01*
X105269059Y-79357598D01*
X105276797Y-79369179D01*
X105384024Y-79529657D01*
X105530342Y-79675975D01*
X105530345Y-79675977D01*
X105702402Y-79790941D01*
X105893580Y-79870130D01*
X106096530Y-79910499D01*
X106096534Y-79910500D01*
X106096535Y-79910500D01*
X106303466Y-79910500D01*
X106303467Y-79910499D01*
X106506420Y-79870130D01*
X106697598Y-79790941D01*
X106869655Y-79675977D01*
X107015977Y-79529655D01*
X107130941Y-79357598D01*
X107210130Y-79166420D01*
X107250500Y-78963465D01*
X107250500Y-78756535D01*
X107210130Y-78553580D01*
X107130941Y-78362402D01*
X107015977Y-78190345D01*
X107015975Y-78190342D01*
X106869657Y-78044024D01*
X106783626Y-77986541D01*
X106697598Y-77929059D01*
X106506420Y-77849870D01*
X106506412Y-77849868D01*
X106303469Y-77809500D01*
X106303465Y-77809500D01*
X106096535Y-77809500D01*
X106096530Y-77809500D01*
X105893587Y-77849868D01*
X105893579Y-77849870D01*
X105702403Y-77929058D01*
X105530342Y-78044024D01*
X105384024Y-78190342D01*
X105269058Y-78362403D01*
X105189870Y-78553579D01*
X105189868Y-78553587D01*
X105149500Y-78756530D01*
X104799742Y-78756530D01*
X104799738Y-78756510D01*
X104799737Y-78756503D01*
X104799735Y-78756498D01*
X104739397Y-78610827D01*
X104739390Y-78610814D01*
X104651789Y-78479711D01*
X104651786Y-78479707D01*
X104540292Y-78368213D01*
X104540288Y-78368210D01*
X104409185Y-78280609D01*
X104409172Y-78280602D01*
X104263501Y-78220264D01*
X104263489Y-78220261D01*
X104108845Y-78189500D01*
X104108842Y-78189500D01*
X103951158Y-78189500D01*
X103951155Y-78189500D01*
X103796510Y-78220261D01*
X103796498Y-78220264D01*
X103650827Y-78280602D01*
X103650814Y-78280609D01*
X103519711Y-78368210D01*
X103519707Y-78368213D01*
X103408213Y-78479707D01*
X103408210Y-78479711D01*
X103320609Y-78610814D01*
X103320602Y-78610827D01*
X103260264Y-78756498D01*
X103260261Y-78756510D01*
X103229500Y-78911153D01*
X101250500Y-78911153D01*
X101250500Y-78756535D01*
X101210130Y-78553580D01*
X101130941Y-78362402D01*
X101015977Y-78190345D01*
X101015975Y-78190342D01*
X100869657Y-78044024D01*
X100783626Y-77986541D01*
X100697598Y-77929059D01*
X100506420Y-77849870D01*
X100506412Y-77849868D01*
X100303469Y-77809500D01*
X100303465Y-77809500D01*
X100096535Y-77809500D01*
X100096530Y-77809500D01*
X99893587Y-77849868D01*
X99893579Y-77849870D01*
X99702403Y-77929058D01*
X99530342Y-78044024D01*
X99384024Y-78190342D01*
X99269058Y-78362403D01*
X99189870Y-78553579D01*
X99189868Y-78553587D01*
X99149500Y-78756530D01*
X77705766Y-78756530D01*
X75960794Y-77011558D01*
X73995389Y-75046153D01*
X86517000Y-75046153D01*
X86517000Y-75203846D01*
X86547761Y-75358489D01*
X86547764Y-75358501D01*
X86608102Y-75504172D01*
X86608109Y-75504185D01*
X86695710Y-75635288D01*
X86695713Y-75635292D01*
X86807207Y-75746786D01*
X86807211Y-75746789D01*
X86938314Y-75834390D01*
X86938327Y-75834397D01*
X87083998Y-75894735D01*
X87084003Y-75894737D01*
X87238653Y-75925499D01*
X87238656Y-75925500D01*
X87238658Y-75925500D01*
X87396344Y-75925500D01*
X87396345Y-75925499D01*
X87550997Y-75894737D01*
X87696679Y-75834394D01*
X87827789Y-75746789D01*
X87939289Y-75635289D01*
X88026894Y-75504179D01*
X88087237Y-75358497D01*
X88118000Y-75203842D01*
X88118000Y-75046158D01*
X88118000Y-75046155D01*
X88117999Y-75046153D01*
X88087238Y-74891510D01*
X88087237Y-74891503D01*
X88032027Y-74758213D01*
X88026897Y-74745827D01*
X88026890Y-74745814D01*
X87939289Y-74614711D01*
X87939286Y-74614707D01*
X87827792Y-74503213D01*
X87827788Y-74503210D01*
X87696685Y-74415609D01*
X87696672Y-74415602D01*
X87551001Y-74355264D01*
X87550989Y-74355261D01*
X87396345Y-74324500D01*
X87396342Y-74324500D01*
X87238658Y-74324500D01*
X87238655Y-74324500D01*
X87084010Y-74355261D01*
X87083998Y-74355264D01*
X86938327Y-74415602D01*
X86938314Y-74415609D01*
X86807211Y-74503210D01*
X86807207Y-74503213D01*
X86695713Y-74614707D01*
X86695710Y-74614711D01*
X86608109Y-74745814D01*
X86608102Y-74745827D01*
X86547764Y-74891498D01*
X86547761Y-74891510D01*
X86517000Y-75046153D01*
X73995389Y-75046153D01*
X71780388Y-72831153D01*
X83089500Y-72831153D01*
X83089500Y-72988846D01*
X83120261Y-73143489D01*
X83120264Y-73143501D01*
X83180602Y-73289172D01*
X83180609Y-73289185D01*
X83268210Y-73420288D01*
X83268213Y-73420292D01*
X83379707Y-73531786D01*
X83379711Y-73531789D01*
X83510814Y-73619390D01*
X83510827Y-73619397D01*
X83656498Y-73679735D01*
X83656503Y-73679737D01*
X83711374Y-73690651D01*
X83756590Y-73699646D01*
X83818501Y-73732031D01*
X83846960Y-73773810D01*
X83890604Y-73879175D01*
X83890609Y-73879185D01*
X83978210Y-74010288D01*
X83978213Y-74010292D01*
X84089707Y-74121786D01*
X84089711Y-74121789D01*
X84220814Y-74209390D01*
X84220827Y-74209397D01*
X84366498Y-74269735D01*
X84366503Y-74269737D01*
X84521153Y-74300499D01*
X84521156Y-74300500D01*
X84521158Y-74300500D01*
X84678844Y-74300500D01*
X84678845Y-74300499D01*
X84833497Y-74269737D01*
X84979179Y-74209394D01*
X85110289Y-74121789D01*
X85221789Y-74010289D01*
X85296632Y-73898278D01*
X85350240Y-73853477D01*
X85419565Y-73844768D01*
X85482593Y-73874923D01*
X85487412Y-73879491D01*
X85489707Y-73881786D01*
X85489711Y-73881789D01*
X85620814Y-73969390D01*
X85620827Y-73969397D01*
X85719558Y-74010292D01*
X85766503Y-74029737D01*
X85921153Y-74060499D01*
X85921156Y-74060500D01*
X85921158Y-74060500D01*
X86078844Y-74060500D01*
X86078845Y-74060499D01*
X86233497Y-74029737D01*
X86379179Y-73969394D01*
X86510289Y-73881789D01*
X86621789Y-73770289D01*
X86709394Y-73639179D01*
X86769737Y-73493497D01*
X86800500Y-73338842D01*
X86800500Y-73181158D01*
X86800500Y-73181155D01*
X86800499Y-73181153D01*
X86769737Y-73026503D01*
X86754139Y-72988846D01*
X86709397Y-72880827D01*
X86709390Y-72880814D01*
X86621789Y-72749711D01*
X86621786Y-72749707D01*
X86510292Y-72638213D01*
X86510288Y-72638210D01*
X86379185Y-72550609D01*
X86379172Y-72550602D01*
X86233501Y-72490264D01*
X86233489Y-72490261D01*
X86078845Y-72459500D01*
X86078842Y-72459500D01*
X85921158Y-72459500D01*
X85861398Y-72471386D01*
X85791807Y-72465157D01*
X85749528Y-72437449D01*
X85680292Y-72368213D01*
X85680288Y-72368210D01*
X85549185Y-72280609D01*
X85549172Y-72280602D01*
X85403501Y-72220264D01*
X85403489Y-72220261D01*
X85248845Y-72189500D01*
X85248842Y-72189500D01*
X85091158Y-72189500D01*
X85091155Y-72189500D01*
X84936510Y-72220261D01*
X84936498Y-72220264D01*
X84790827Y-72280602D01*
X84790814Y-72280609D01*
X84659714Y-72368208D01*
X84659706Y-72368215D01*
X84657674Y-72370247D01*
X84656349Y-72370970D01*
X84655007Y-72372072D01*
X84654797Y-72371817D01*
X84596349Y-72403727D01*
X84526657Y-72398737D01*
X84482319Y-72370240D01*
X84400292Y-72288213D01*
X84400288Y-72288210D01*
X84269185Y-72200609D01*
X84269172Y-72200602D01*
X84123501Y-72140264D01*
X84123489Y-72140261D01*
X83968845Y-72109500D01*
X83968842Y-72109500D01*
X83811158Y-72109500D01*
X83811155Y-72109500D01*
X83656510Y-72140261D01*
X83656498Y-72140264D01*
X83510827Y-72200602D01*
X83510814Y-72200609D01*
X83379711Y-72288210D01*
X83379707Y-72288213D01*
X83268213Y-72399707D01*
X83268210Y-72399711D01*
X83180609Y-72530814D01*
X83180602Y-72530827D01*
X83120264Y-72676498D01*
X83120261Y-72676510D01*
X83089500Y-72831153D01*
X71780388Y-72831153D01*
X69620521Y-70671286D01*
X69620520Y-70671284D01*
X69530389Y-70581153D01*
X71669500Y-70581153D01*
X71669500Y-70738846D01*
X71700261Y-70893489D01*
X71700264Y-70893501D01*
X71760602Y-71039172D01*
X71760609Y-71039185D01*
X71848210Y-71170288D01*
X71848213Y-71170292D01*
X71959707Y-71281786D01*
X71959711Y-71281789D01*
X72090814Y-71369390D01*
X72090827Y-71369397D01*
X72236498Y-71429735D01*
X72236503Y-71429737D01*
X72391153Y-71460499D01*
X72391156Y-71460500D01*
X72391158Y-71460500D01*
X72548844Y-71460500D01*
X72548845Y-71460499D01*
X72703497Y-71429737D01*
X72849179Y-71369394D01*
X72980289Y-71281789D01*
X73091789Y-71170289D01*
X73179394Y-71039179D01*
X73181669Y-71033685D01*
X73225508Y-70979281D01*
X73291801Y-70957213D01*
X73359501Y-70974490D01*
X73399334Y-71012243D01*
X73478210Y-71130288D01*
X73478213Y-71130292D01*
X73589707Y-71241786D01*
X73589711Y-71241789D01*
X73720814Y-71329390D01*
X73720827Y-71329397D01*
X73866498Y-71389735D01*
X73866503Y-71389737D01*
X74021153Y-71420499D01*
X74021156Y-71420500D01*
X74021158Y-71420500D01*
X74178844Y-71420500D01*
X74178845Y-71420499D01*
X74333497Y-71389737D01*
X74479179Y-71329394D01*
X74610289Y-71241789D01*
X74721789Y-71130289D01*
X74809394Y-70999179D01*
X74869737Y-70853497D01*
X74900500Y-70698842D01*
X74900500Y-70541158D01*
X74900500Y-70541155D01*
X74900499Y-70541153D01*
X85639500Y-70541153D01*
X85639500Y-70698846D01*
X85670261Y-70853489D01*
X85670264Y-70853501D01*
X85730602Y-70999172D01*
X85730609Y-70999185D01*
X85818210Y-71130288D01*
X85818213Y-71130292D01*
X85929707Y-71241786D01*
X85929711Y-71241789D01*
X86060814Y-71329390D01*
X86060827Y-71329397D01*
X86206498Y-71389735D01*
X86206503Y-71389737D01*
X86361153Y-71420499D01*
X86361156Y-71420500D01*
X86361158Y-71420500D01*
X86518844Y-71420500D01*
X86518845Y-71420499D01*
X86673497Y-71389737D01*
X86819179Y-71329394D01*
X86950289Y-71241789D01*
X87061789Y-71130289D01*
X87149394Y-70999179D01*
X87209737Y-70853497D01*
X87240500Y-70698842D01*
X87240500Y-70541158D01*
X87240500Y-70541155D01*
X87240499Y-70541153D01*
X87234175Y-70509359D01*
X87209737Y-70386503D01*
X87176186Y-70305503D01*
X87149397Y-70240827D01*
X87149390Y-70240814D01*
X87061789Y-70109711D01*
X87061786Y-70109707D01*
X86950292Y-69998213D01*
X86950288Y-69998210D01*
X86819185Y-69910609D01*
X86819172Y-69910602D01*
X86673501Y-69850264D01*
X86673489Y-69850261D01*
X86518845Y-69819500D01*
X86518842Y-69819500D01*
X86361158Y-69819500D01*
X86361155Y-69819500D01*
X86206510Y-69850261D01*
X86206498Y-69850264D01*
X86060827Y-69910602D01*
X86060814Y-69910609D01*
X85929711Y-69998210D01*
X85929707Y-69998213D01*
X85818213Y-70109707D01*
X85818210Y-70109711D01*
X85730609Y-70240814D01*
X85730602Y-70240827D01*
X85670264Y-70386498D01*
X85670261Y-70386510D01*
X85639500Y-70541153D01*
X74900499Y-70541153D01*
X74894175Y-70509359D01*
X74869737Y-70386503D01*
X74836186Y-70305503D01*
X74809397Y-70240827D01*
X74809390Y-70240814D01*
X74721789Y-70109711D01*
X74721786Y-70109707D01*
X74610292Y-69998213D01*
X74610288Y-69998210D01*
X74479185Y-69910609D01*
X74479172Y-69910602D01*
X74333501Y-69850264D01*
X74333489Y-69850261D01*
X74178845Y-69819500D01*
X74178842Y-69819500D01*
X74021158Y-69819500D01*
X74021155Y-69819500D01*
X73866510Y-69850261D01*
X73866498Y-69850264D01*
X73720827Y-69910602D01*
X73720814Y-69910609D01*
X73589711Y-69998210D01*
X73589707Y-69998213D01*
X73478213Y-70109707D01*
X73478210Y-70109711D01*
X73390609Y-70240814D01*
X73390602Y-70240828D01*
X73388325Y-70246325D01*
X73344480Y-70300726D01*
X73278185Y-70322786D01*
X73210486Y-70305503D01*
X73170665Y-70267756D01*
X73091789Y-70149711D01*
X73091786Y-70149707D01*
X72980292Y-70038213D01*
X72980288Y-70038210D01*
X72849185Y-69950609D01*
X72849172Y-69950602D01*
X72703501Y-69890264D01*
X72703489Y-69890261D01*
X72548845Y-69859500D01*
X72548842Y-69859500D01*
X72391158Y-69859500D01*
X72391155Y-69859500D01*
X72236510Y-69890261D01*
X72236498Y-69890264D01*
X72090827Y-69950602D01*
X72090814Y-69950609D01*
X71959711Y-70038210D01*
X71959707Y-70038213D01*
X71848213Y-70149707D01*
X71848210Y-70149711D01*
X71760609Y-70280814D01*
X71760602Y-70280827D01*
X71700264Y-70426498D01*
X71700261Y-70426510D01*
X71669500Y-70581153D01*
X69530389Y-70581153D01*
X69508716Y-70559480D01*
X69421904Y-70509360D01*
X69421904Y-70509359D01*
X69421900Y-70509358D01*
X69371785Y-70480423D01*
X69219057Y-70439499D01*
X69060943Y-70439499D01*
X69053347Y-70439499D01*
X69053331Y-70439500D01*
X58890098Y-70439500D01*
X58823059Y-70419815D01*
X58802417Y-70403181D01*
X57310389Y-68911153D01*
X67289500Y-68911153D01*
X67289500Y-69068846D01*
X67320261Y-69223489D01*
X67320264Y-69223501D01*
X67380602Y-69369172D01*
X67380609Y-69369185D01*
X67468210Y-69500288D01*
X67468213Y-69500292D01*
X67579707Y-69611786D01*
X67579711Y-69611789D01*
X67710814Y-69699390D01*
X67710827Y-69699397D01*
X67856498Y-69759735D01*
X67856503Y-69759737D01*
X68011153Y-69790499D01*
X68011156Y-69790500D01*
X68011158Y-69790500D01*
X68168844Y-69790500D01*
X68168845Y-69790499D01*
X68323497Y-69759737D01*
X68469179Y-69699394D01*
X68600289Y-69611789D01*
X68711789Y-69500289D01*
X68799394Y-69369179D01*
X68811003Y-69341153D01*
X97929500Y-69341153D01*
X97929500Y-69498846D01*
X97960261Y-69653489D01*
X97960264Y-69653501D01*
X98020602Y-69799172D01*
X98020609Y-69799185D01*
X98108210Y-69930288D01*
X98108213Y-69930292D01*
X98219707Y-70041786D01*
X98219711Y-70041789D01*
X98350814Y-70129390D01*
X98350827Y-70129397D01*
X98496498Y-70189735D01*
X98496503Y-70189737D01*
X98651153Y-70220499D01*
X98651156Y-70220500D01*
X98651158Y-70220500D01*
X98808844Y-70220500D01*
X98808845Y-70220499D01*
X98963497Y-70189737D01*
X99109179Y-70129394D01*
X99240289Y-70041789D01*
X99351789Y-69930289D01*
X99439394Y-69799179D01*
X99499737Y-69653497D01*
X99530500Y-69498842D01*
X99530500Y-69341158D01*
X99530500Y-69341155D01*
X99530499Y-69341153D01*
X101729500Y-69341153D01*
X101729500Y-69498846D01*
X101760261Y-69653489D01*
X101760264Y-69653501D01*
X101820602Y-69799172D01*
X101820609Y-69799185D01*
X101908210Y-69930288D01*
X101908213Y-69930292D01*
X102019707Y-70041786D01*
X102019711Y-70041789D01*
X102150814Y-70129390D01*
X102150827Y-70129397D01*
X102296498Y-70189735D01*
X102296503Y-70189737D01*
X102451153Y-70220499D01*
X102451156Y-70220500D01*
X102451158Y-70220500D01*
X102608844Y-70220500D01*
X102608845Y-70220499D01*
X102763497Y-70189737D01*
X102909179Y-70129394D01*
X103040289Y-70041789D01*
X103151789Y-69930289D01*
X103239394Y-69799179D01*
X103299737Y-69653497D01*
X103330500Y-69498842D01*
X103330500Y-69341158D01*
X103330500Y-69341155D01*
X103330499Y-69341153D01*
X103307096Y-69223501D01*
X103299737Y-69186503D01*
X103299735Y-69186498D01*
X103239397Y-69040827D01*
X103239390Y-69040814D01*
X103151789Y-68909711D01*
X103151786Y-68909707D01*
X103040292Y-68798213D01*
X103040288Y-68798210D01*
X102909185Y-68710609D01*
X102909172Y-68710602D01*
X102763501Y-68650264D01*
X102763489Y-68650261D01*
X102608845Y-68619500D01*
X102608842Y-68619500D01*
X102451158Y-68619500D01*
X102451155Y-68619500D01*
X102296510Y-68650261D01*
X102296498Y-68650264D01*
X102150827Y-68710602D01*
X102150814Y-68710609D01*
X102019711Y-68798210D01*
X102019707Y-68798213D01*
X101908213Y-68909707D01*
X101908210Y-68909711D01*
X101820609Y-69040814D01*
X101820602Y-69040827D01*
X101760264Y-69186498D01*
X101760261Y-69186510D01*
X101729500Y-69341153D01*
X99530499Y-69341153D01*
X99507096Y-69223501D01*
X99499737Y-69186503D01*
X99499735Y-69186498D01*
X99439397Y-69040827D01*
X99439390Y-69040814D01*
X99351789Y-68909711D01*
X99351786Y-68909707D01*
X99240292Y-68798213D01*
X99240288Y-68798210D01*
X99109185Y-68710609D01*
X99109172Y-68710602D01*
X98963501Y-68650264D01*
X98963489Y-68650261D01*
X98808845Y-68619500D01*
X98808842Y-68619500D01*
X98651158Y-68619500D01*
X98651155Y-68619500D01*
X98496510Y-68650261D01*
X98496498Y-68650264D01*
X98350827Y-68710602D01*
X98350814Y-68710609D01*
X98219711Y-68798210D01*
X98219707Y-68798213D01*
X98108213Y-68909707D01*
X98108210Y-68909711D01*
X98020609Y-69040814D01*
X98020602Y-69040827D01*
X97960264Y-69186498D01*
X97960261Y-69186510D01*
X97929500Y-69341153D01*
X68811003Y-69341153D01*
X68859737Y-69223497D01*
X68890500Y-69068842D01*
X68890500Y-68911158D01*
X68890500Y-68911155D01*
X68890499Y-68911153D01*
X68890211Y-68909707D01*
X68859737Y-68756503D01*
X68840726Y-68710606D01*
X68799397Y-68610827D01*
X68799390Y-68610814D01*
X68711789Y-68479711D01*
X68711786Y-68479707D01*
X68600292Y-68368213D01*
X68600288Y-68368210D01*
X68469185Y-68280609D01*
X68469172Y-68280602D01*
X68323501Y-68220264D01*
X68323489Y-68220261D01*
X68168845Y-68189500D01*
X68168842Y-68189500D01*
X68011158Y-68189500D01*
X68011155Y-68189500D01*
X67856510Y-68220261D01*
X67856498Y-68220264D01*
X67710827Y-68280602D01*
X67710814Y-68280609D01*
X67579711Y-68368210D01*
X67579707Y-68368213D01*
X67468213Y-68479707D01*
X67468210Y-68479711D01*
X67380609Y-68610814D01*
X67380602Y-68610827D01*
X67320264Y-68756498D01*
X67320261Y-68756510D01*
X67289500Y-68911153D01*
X57310389Y-68911153D01*
X56576819Y-68177583D01*
X56543334Y-68116260D01*
X56540500Y-68089902D01*
X56540500Y-67941155D01*
X56540499Y-67941153D01*
X56509738Y-67786510D01*
X56509737Y-67786503D01*
X56509735Y-67786498D01*
X56449397Y-67640827D01*
X56449390Y-67640814D01*
X56361789Y-67509711D01*
X56361786Y-67509707D01*
X56250292Y-67398213D01*
X56250288Y-67398210D01*
X56119185Y-67310609D01*
X56119172Y-67310602D01*
X55973501Y-67250264D01*
X55973489Y-67250261D01*
X55818845Y-67219500D01*
X55818842Y-67219500D01*
X55661158Y-67219500D01*
X55661155Y-67219500D01*
X55506510Y-67250261D01*
X55506498Y-67250264D01*
X55360827Y-67310602D01*
X55360814Y-67310609D01*
X55229711Y-67398210D01*
X55229707Y-67398213D01*
X55118213Y-67509707D01*
X55118210Y-67509711D01*
X55030609Y-67640814D01*
X55030602Y-67640827D01*
X54970264Y-67786498D01*
X54970261Y-67786510D01*
X54939500Y-67941153D01*
X51820500Y-67941153D01*
X51820500Y-67703051D01*
X51820649Y-67696967D01*
X51829848Y-67509711D01*
X51838256Y-67338564D01*
X51839449Y-67326457D01*
X51850751Y-67250264D01*
X51891654Y-66974520D01*
X51894023Y-66962610D01*
X51980474Y-66617477D01*
X51984005Y-66605839D01*
X52103860Y-66270869D01*
X52108516Y-66259628D01*
X52240154Y-65981300D01*
X52260639Y-65937987D01*
X52266358Y-65927287D01*
X52449281Y-65622101D01*
X52456025Y-65612008D01*
X52667978Y-65326220D01*
X52675674Y-65316842D01*
X52914628Y-65053198D01*
X52923198Y-65044628D01*
X53186842Y-64805674D01*
X53196220Y-64797978D01*
X53482008Y-64586025D01*
X53492101Y-64579281D01*
X53797287Y-64396358D01*
X53807987Y-64390639D01*
X54129628Y-64238516D01*
X54140865Y-64233861D01*
X54475847Y-64114002D01*
X54487477Y-64110474D01*
X54832610Y-64024023D01*
X54844520Y-64021654D01*
X55196460Y-63969448D01*
X55208564Y-63968256D01*
X55566967Y-63950648D01*
X55573051Y-63950500D01*
X55614170Y-63950500D01*
X105345830Y-63950500D01*
X105386949Y-63950500D01*
X105393032Y-63950648D01*
G37*
%TD.AperFunction*%
%TD*%
%TA.AperFunction,Conductor*%
%TO.N,AGND*%
G36*
X79896027Y-94317381D02*
G01*
X79929080Y-94323955D01*
X79952332Y-94331009D01*
X79983449Y-94343899D01*
X80004883Y-94355354D01*
X80032904Y-94374077D01*
X80051691Y-94389496D01*
X80075502Y-94413307D01*
X80090919Y-94432092D01*
X80109639Y-94460107D01*
X80121096Y-94481542D01*
X80133688Y-94511942D01*
X80133705Y-94511982D01*
X80134005Y-94512707D01*
X80141043Y-94535921D01*
X80147617Y-94568970D01*
X80150000Y-94593158D01*
X80150000Y-94626839D01*
X80147616Y-94651035D01*
X80141043Y-94684073D01*
X80133988Y-94707329D01*
X80121098Y-94738449D01*
X80109639Y-94759888D01*
X80090920Y-94787903D01*
X80075499Y-94806693D01*
X80051693Y-94830499D01*
X80032903Y-94845920D01*
X80004885Y-94864641D01*
X79983446Y-94876100D01*
X79952328Y-94888989D01*
X79929071Y-94896045D01*
X79912340Y-94899373D01*
X79896031Y-94902617D01*
X79871841Y-94905000D01*
X79838159Y-94905000D01*
X79813970Y-94902617D01*
X79789566Y-94897763D01*
X79780924Y-94896044D01*
X79757667Y-94888988D01*
X79726547Y-94876098D01*
X79705108Y-94864639D01*
X79677096Y-94845922D01*
X79658306Y-94830501D01*
X79634496Y-94806691D01*
X79619075Y-94787901D01*
X79600358Y-94759889D01*
X79600357Y-94759888D01*
X79600356Y-94759886D01*
X79588899Y-94738451D01*
X79576009Y-94707333D01*
X79568954Y-94684072D01*
X79562382Y-94651028D01*
X79560000Y-94626840D01*
X79560000Y-94593157D01*
X79562382Y-94568969D01*
X79568954Y-94535925D01*
X79568955Y-94535924D01*
X79568954Y-94535921D01*
X79576008Y-94512667D01*
X79588902Y-94481539D01*
X79600353Y-94460115D01*
X79619080Y-94432089D01*
X79634491Y-94413311D01*
X79658311Y-94389491D01*
X79677088Y-94374081D01*
X79705118Y-94355351D01*
X79726539Y-94343902D01*
X79757667Y-94331008D01*
X79780920Y-94323955D01*
X79813968Y-94317381D01*
X79838158Y-94315000D01*
X79871845Y-94315000D01*
X79896027Y-94317381D01*
G37*
%TD.AperFunction*%
%TA.AperFunction,Conductor*%
G36*
X86748527Y-89032381D02*
G01*
X86781580Y-89038955D01*
X86804832Y-89046009D01*
X86835949Y-89058899D01*
X86857383Y-89070354D01*
X86885404Y-89089077D01*
X86904191Y-89104496D01*
X86928001Y-89128306D01*
X86943422Y-89147096D01*
X86987378Y-89212880D01*
X86990576Y-89218057D01*
X86990609Y-89218038D01*
X86991620Y-89219691D01*
X87026215Y-89272481D01*
X87049677Y-89295943D01*
X87089568Y-89335834D01*
X87123051Y-89397157D01*
X87118066Y-89466848D01*
X87089566Y-89511195D01*
X86894033Y-89706728D01*
X86889455Y-89709227D01*
X86886591Y-89713586D01*
X86859105Y-89725799D01*
X86832710Y-89740213D01*
X86827508Y-89739840D01*
X86822742Y-89741959D01*
X86793020Y-89737374D01*
X86763018Y-89735229D01*
X86757453Y-89731888D01*
X86753689Y-89731308D01*
X86740636Y-89721794D01*
X86724194Y-89711924D01*
X86719687Y-89707937D01*
X86696795Y-89683348D01*
X86649886Y-89645544D01*
X86649581Y-89645922D01*
X86639523Y-89637025D01*
X86636651Y-89632454D01*
X86623657Y-89623772D01*
X86620437Y-89621406D01*
X86617958Y-89619964D01*
X86529596Y-89560922D01*
X86510806Y-89545501D01*
X86486996Y-89521691D01*
X86471575Y-89502901D01*
X86452858Y-89474889D01*
X86441399Y-89453451D01*
X86428509Y-89422333D01*
X86421454Y-89399072D01*
X86414882Y-89366028D01*
X86412500Y-89341840D01*
X86412500Y-89308157D01*
X86414882Y-89283969D01*
X86421454Y-89250925D01*
X86428508Y-89227667D01*
X86441402Y-89196539D01*
X86452853Y-89175115D01*
X86471580Y-89147089D01*
X86486991Y-89128311D01*
X86510811Y-89104491D01*
X86529588Y-89089081D01*
X86557618Y-89070351D01*
X86579039Y-89058902D01*
X86610167Y-89046008D01*
X86633420Y-89038955D01*
X86666468Y-89032381D01*
X86690658Y-89030000D01*
X86724345Y-89030000D01*
X86748527Y-89032381D01*
G37*
%TD.AperFunction*%
%TA.AperFunction,Conductor*%
G36*
X75781027Y-89112381D02*
G01*
X75814080Y-89118955D01*
X75837332Y-89126009D01*
X75868449Y-89138899D01*
X75889883Y-89150354D01*
X75917904Y-89169077D01*
X75936691Y-89184496D01*
X75960499Y-89208304D01*
X75975921Y-89227095D01*
X75994639Y-89255109D01*
X76006097Y-89276545D01*
X76018988Y-89307666D01*
X76026043Y-89330922D01*
X76028798Y-89344768D01*
X76028799Y-89344772D01*
X76032617Y-89363968D01*
X76035000Y-89388157D01*
X76035000Y-89421839D01*
X76032616Y-89446035D01*
X76026043Y-89479073D01*
X76018988Y-89502329D01*
X76006098Y-89533449D01*
X75994639Y-89554888D01*
X75975920Y-89582903D01*
X75960499Y-89601693D01*
X75936693Y-89625499D01*
X75917903Y-89640920D01*
X75889885Y-89659641D01*
X75868446Y-89671100D01*
X75837328Y-89683989D01*
X75814071Y-89691045D01*
X75797340Y-89694373D01*
X75781031Y-89697617D01*
X75756841Y-89700000D01*
X75723159Y-89700000D01*
X75698970Y-89697617D01*
X75674566Y-89692763D01*
X75665924Y-89691044D01*
X75642667Y-89683988D01*
X75611547Y-89671098D01*
X75590108Y-89659639D01*
X75562096Y-89640922D01*
X75543306Y-89625501D01*
X75519496Y-89601691D01*
X75504075Y-89582901D01*
X75485358Y-89554889D01*
X75485357Y-89554888D01*
X75485356Y-89554886D01*
X75473899Y-89533451D01*
X75461009Y-89502333D01*
X75453954Y-89479072D01*
X75447382Y-89446028D01*
X75445000Y-89421840D01*
X75445000Y-89388157D01*
X75447382Y-89363969D01*
X75453954Y-89330925D01*
X75461009Y-89307666D01*
X75473900Y-89276543D01*
X75485353Y-89255115D01*
X75504080Y-89227089D01*
X75519491Y-89208311D01*
X75543311Y-89184491D01*
X75562088Y-89169081D01*
X75590118Y-89150351D01*
X75611539Y-89138902D01*
X75642667Y-89126008D01*
X75665920Y-89118955D01*
X75698968Y-89112381D01*
X75723158Y-89110000D01*
X75756845Y-89110000D01*
X75781027Y-89112381D01*
G37*
%TD.AperFunction*%
%TA.AperFunction,Conductor*%
G36*
X104071027Y-78697381D02*
G01*
X104104080Y-78703955D01*
X104127332Y-78711009D01*
X104158449Y-78723899D01*
X104179883Y-78735354D01*
X104207904Y-78754077D01*
X104226691Y-78769496D01*
X104250501Y-78793306D01*
X104265922Y-78812096D01*
X104284639Y-78840108D01*
X104296098Y-78861547D01*
X104308988Y-78892667D01*
X104316044Y-78915924D01*
X104322617Y-78948968D01*
X104325000Y-78973157D01*
X104325000Y-79006839D01*
X104322616Y-79031035D01*
X104316043Y-79064073D01*
X104308988Y-79087329D01*
X104296098Y-79118449D01*
X104284639Y-79139888D01*
X104265920Y-79167903D01*
X104250499Y-79186693D01*
X104226693Y-79210499D01*
X104207903Y-79225920D01*
X104179885Y-79244641D01*
X104158446Y-79256100D01*
X104127328Y-79268989D01*
X104104071Y-79276045D01*
X104087340Y-79279373D01*
X104071031Y-79282617D01*
X104046841Y-79285000D01*
X104013159Y-79285000D01*
X103988970Y-79282617D01*
X103955924Y-79276044D01*
X103932667Y-79268988D01*
X103901547Y-79256098D01*
X103880108Y-79244639D01*
X103852096Y-79225922D01*
X103833306Y-79210501D01*
X103809496Y-79186691D01*
X103794075Y-79167901D01*
X103775358Y-79139889D01*
X103775357Y-79139888D01*
X103775356Y-79139886D01*
X103763899Y-79118451D01*
X103751009Y-79087333D01*
X103743954Y-79064072D01*
X103737382Y-79031028D01*
X103735000Y-79006840D01*
X103735000Y-78973157D01*
X103737382Y-78948969D01*
X103743954Y-78915925D01*
X103743955Y-78915924D01*
X103743954Y-78915921D01*
X103751008Y-78892667D01*
X103763902Y-78861539D01*
X103775353Y-78840115D01*
X103794080Y-78812089D01*
X103809491Y-78793311D01*
X103833311Y-78769491D01*
X103852088Y-78754081D01*
X103880118Y-78735351D01*
X103901539Y-78723902D01*
X103932667Y-78711008D01*
X103955920Y-78703955D01*
X103988968Y-78697381D01*
X104013158Y-78695000D01*
X104046845Y-78695000D01*
X104071027Y-78697381D01*
G37*
%TD.AperFunction*%
%TA.AperFunction,Conductor*%
G36*
X87358527Y-74832381D02*
G01*
X87391580Y-74838955D01*
X87414832Y-74846009D01*
X87445949Y-74858899D01*
X87467383Y-74870354D01*
X87495404Y-74889077D01*
X87514191Y-74904496D01*
X87538001Y-74928306D01*
X87553423Y-74947097D01*
X87572137Y-74975105D01*
X87583594Y-74996540D01*
X87596488Y-75027667D01*
X87603545Y-75050930D01*
X87610117Y-75083968D01*
X87612500Y-75108157D01*
X87612500Y-75141839D01*
X87610116Y-75166035D01*
X87603543Y-75199073D01*
X87596488Y-75222329D01*
X87583598Y-75253449D01*
X87572139Y-75274888D01*
X87553420Y-75302903D01*
X87537999Y-75321693D01*
X87514193Y-75345499D01*
X87495403Y-75360920D01*
X87467385Y-75379641D01*
X87445946Y-75391100D01*
X87414828Y-75403989D01*
X87391571Y-75411045D01*
X87374840Y-75414373D01*
X87358531Y-75417617D01*
X87334341Y-75420000D01*
X87300659Y-75420000D01*
X87276470Y-75417617D01*
X87252066Y-75412763D01*
X87243424Y-75411044D01*
X87220167Y-75403988D01*
X87189047Y-75391098D01*
X87167608Y-75379639D01*
X87139596Y-75360922D01*
X87120806Y-75345501D01*
X87096996Y-75321691D01*
X87081575Y-75302901D01*
X87062858Y-75274889D01*
X87062857Y-75274888D01*
X87062856Y-75274886D01*
X87051399Y-75253451D01*
X87038509Y-75222333D01*
X87031454Y-75199072D01*
X87024882Y-75166028D01*
X87022500Y-75141840D01*
X87022500Y-75108157D01*
X87024882Y-75083969D01*
X87031454Y-75050925D01*
X87038508Y-75027667D01*
X87051402Y-74996539D01*
X87062853Y-74975115D01*
X87081580Y-74947089D01*
X87096991Y-74928311D01*
X87120811Y-74904491D01*
X87139588Y-74889081D01*
X87167618Y-74870351D01*
X87189039Y-74858902D01*
X87220167Y-74846008D01*
X87243420Y-74838955D01*
X87276468Y-74832381D01*
X87300658Y-74830000D01*
X87334345Y-74830000D01*
X87358527Y-74832381D01*
G37*
%TD.AperFunction*%
%TD*%
M02*
