%TF.GenerationSoftware,KiCad,Pcbnew,10.0.4*%
%TF.CreationDate,2026-07-21T12:54:15+05:30*%
%TF.ProjectId,Singy,53696e67-792e-46b6-9963-61645f706362,rev?*%
%TF.SameCoordinates,Original*%
%TF.FileFunction,Legend,Top*%
%TF.FilePolarity,Positive*%
%FSLAX46Y46*%
G04 Gerber Fmt 4.6, Leading zero omitted, Abs format (unit mm)*
G04 Created by KiCad (PCBNEW 10.0.4) date 2026-07-21 12:54:15*
%MOMM*%
%LPD*%
G01*
G04 APERTURE LIST*
%ADD10C,0.150000*%
%ADD11C,0.120000*%
%ADD12C,0.060000*%
%ADD13C,0.000000*%
%ADD14C,0.250000*%
%ADD15C,0.300000*%
G04 APERTURE END LIST*
D10*
X82569580Y-87761666D02*
X82617200Y-87809285D01*
X82617200Y-87809285D02*
X82664819Y-87952142D01*
X82664819Y-87952142D02*
X82664819Y-88047380D01*
X82664819Y-88047380D02*
X82617200Y-88190237D01*
X82617200Y-88190237D02*
X82521961Y-88285475D01*
X82521961Y-88285475D02*
X82426723Y-88333094D01*
X82426723Y-88333094D02*
X82236247Y-88380713D01*
X82236247Y-88380713D02*
X82093390Y-88380713D01*
X82093390Y-88380713D02*
X81902914Y-88333094D01*
X81902914Y-88333094D02*
X81807676Y-88285475D01*
X81807676Y-88285475D02*
X81712438Y-88190237D01*
X81712438Y-88190237D02*
X81664819Y-88047380D01*
X81664819Y-88047380D02*
X81664819Y-87952142D01*
X81664819Y-87952142D02*
X81712438Y-87809285D01*
X81712438Y-87809285D02*
X81760057Y-87761666D01*
X81664819Y-86904523D02*
X81664819Y-87094999D01*
X81664819Y-87094999D02*
X81712438Y-87190237D01*
X81712438Y-87190237D02*
X81760057Y-87237856D01*
X81760057Y-87237856D02*
X81902914Y-87333094D01*
X81902914Y-87333094D02*
X82093390Y-87380713D01*
X82093390Y-87380713D02*
X82474342Y-87380713D01*
X82474342Y-87380713D02*
X82569580Y-87333094D01*
X82569580Y-87333094D02*
X82617200Y-87285475D01*
X82617200Y-87285475D02*
X82664819Y-87190237D01*
X82664819Y-87190237D02*
X82664819Y-86999761D01*
X82664819Y-86999761D02*
X82617200Y-86904523D01*
X82617200Y-86904523D02*
X82569580Y-86856904D01*
X82569580Y-86856904D02*
X82474342Y-86809285D01*
X82474342Y-86809285D02*
X82236247Y-86809285D01*
X82236247Y-86809285D02*
X82141009Y-86856904D01*
X82141009Y-86856904D02*
X82093390Y-86904523D01*
X82093390Y-86904523D02*
X82045771Y-86999761D01*
X82045771Y-86999761D02*
X82045771Y-87190237D01*
X82045771Y-87190237D02*
X82093390Y-87285475D01*
X82093390Y-87285475D02*
X82141009Y-87333094D01*
X82141009Y-87333094D02*
X82236247Y-87380713D01*
X76364819Y-89361666D02*
X75364819Y-89361666D01*
X75364819Y-89361666D02*
X75364819Y-89123571D01*
X75364819Y-89123571D02*
X75412438Y-88980714D01*
X75412438Y-88980714D02*
X75507676Y-88885476D01*
X75507676Y-88885476D02*
X75602914Y-88837857D01*
X75602914Y-88837857D02*
X75793390Y-88790238D01*
X75793390Y-88790238D02*
X75936247Y-88790238D01*
X75936247Y-88790238D02*
X76126723Y-88837857D01*
X76126723Y-88837857D02*
X76221961Y-88885476D01*
X76221961Y-88885476D02*
X76317200Y-88980714D01*
X76317200Y-88980714D02*
X76364819Y-89123571D01*
X76364819Y-89123571D02*
X76364819Y-89361666D01*
X76079104Y-88409285D02*
X76079104Y-87933095D01*
X76364819Y-88504523D02*
X75364819Y-88171190D01*
X75364819Y-88171190D02*
X76364819Y-87837857D01*
X76269580Y-86933095D02*
X76317200Y-86980714D01*
X76317200Y-86980714D02*
X76364819Y-87123571D01*
X76364819Y-87123571D02*
X76364819Y-87218809D01*
X76364819Y-87218809D02*
X76317200Y-87361666D01*
X76317200Y-87361666D02*
X76221961Y-87456904D01*
X76221961Y-87456904D02*
X76126723Y-87504523D01*
X76126723Y-87504523D02*
X75936247Y-87552142D01*
X75936247Y-87552142D02*
X75793390Y-87552142D01*
X75793390Y-87552142D02*
X75602914Y-87504523D01*
X75602914Y-87504523D02*
X75507676Y-87456904D01*
X75507676Y-87456904D02*
X75412438Y-87361666D01*
X75412438Y-87361666D02*
X75364819Y-87218809D01*
X75364819Y-87218809D02*
X75364819Y-87123571D01*
X75364819Y-87123571D02*
X75412438Y-86980714D01*
X75412438Y-86980714D02*
X75460057Y-86933095D01*
X76364819Y-85980714D02*
X76364819Y-86552142D01*
X76364819Y-86266428D02*
X75364819Y-86266428D01*
X75364819Y-86266428D02*
X75507676Y-86361666D01*
X75507676Y-86361666D02*
X75602914Y-86456904D01*
X75602914Y-86456904D02*
X75650533Y-86552142D01*
X104357142Y-98054580D02*
X104309523Y-98102200D01*
X104309523Y-98102200D02*
X104166666Y-98149819D01*
X104166666Y-98149819D02*
X104071428Y-98149819D01*
X104071428Y-98149819D02*
X103928571Y-98102200D01*
X103928571Y-98102200D02*
X103833333Y-98006961D01*
X103833333Y-98006961D02*
X103785714Y-97911723D01*
X103785714Y-97911723D02*
X103738095Y-97721247D01*
X103738095Y-97721247D02*
X103738095Y-97578390D01*
X103738095Y-97578390D02*
X103785714Y-97387914D01*
X103785714Y-97387914D02*
X103833333Y-97292676D01*
X103833333Y-97292676D02*
X103928571Y-97197438D01*
X103928571Y-97197438D02*
X104071428Y-97149819D01*
X104071428Y-97149819D02*
X104166666Y-97149819D01*
X104166666Y-97149819D02*
X104309523Y-97197438D01*
X104309523Y-97197438D02*
X104357142Y-97245057D01*
X104738095Y-97245057D02*
X104785714Y-97197438D01*
X104785714Y-97197438D02*
X104880952Y-97149819D01*
X104880952Y-97149819D02*
X105119047Y-97149819D01*
X105119047Y-97149819D02*
X105214285Y-97197438D01*
X105214285Y-97197438D02*
X105261904Y-97245057D01*
X105261904Y-97245057D02*
X105309523Y-97340295D01*
X105309523Y-97340295D02*
X105309523Y-97435533D01*
X105309523Y-97435533D02*
X105261904Y-97578390D01*
X105261904Y-97578390D02*
X104690476Y-98149819D01*
X104690476Y-98149819D02*
X105309523Y-98149819D01*
X105642857Y-97149819D02*
X106261904Y-97149819D01*
X106261904Y-97149819D02*
X105928571Y-97530771D01*
X105928571Y-97530771D02*
X106071428Y-97530771D01*
X106071428Y-97530771D02*
X106166666Y-97578390D01*
X106166666Y-97578390D02*
X106214285Y-97626009D01*
X106214285Y-97626009D02*
X106261904Y-97721247D01*
X106261904Y-97721247D02*
X106261904Y-97959342D01*
X106261904Y-97959342D02*
X106214285Y-98054580D01*
X106214285Y-98054580D02*
X106166666Y-98102200D01*
X106166666Y-98102200D02*
X106071428Y-98149819D01*
X106071428Y-98149819D02*
X105785714Y-98149819D01*
X105785714Y-98149819D02*
X105690476Y-98102200D01*
X105690476Y-98102200D02*
X105642857Y-98054580D01*
X100484819Y-91926666D02*
X100484819Y-92402856D01*
X100484819Y-92402856D02*
X99484819Y-92402856D01*
X99580057Y-91640951D02*
X99532438Y-91593332D01*
X99532438Y-91593332D02*
X99484819Y-91498094D01*
X99484819Y-91498094D02*
X99484819Y-91259999D01*
X99484819Y-91259999D02*
X99532438Y-91164761D01*
X99532438Y-91164761D02*
X99580057Y-91117142D01*
X99580057Y-91117142D02*
X99675295Y-91069523D01*
X99675295Y-91069523D02*
X99770533Y-91069523D01*
X99770533Y-91069523D02*
X99913390Y-91117142D01*
X99913390Y-91117142D02*
X100484819Y-91688570D01*
X100484819Y-91688570D02*
X100484819Y-91069523D01*
%TO.C,R16*%
D11*
X64607064Y-103525000D02*
X64152936Y-103525000D01*
X64607064Y-104995000D02*
X64152936Y-104995000D01*
%TO.C,R23*%
X73625000Y-107677936D02*
X73625000Y-108132064D01*
X75095000Y-107677936D02*
X75095000Y-108132064D01*
%TO.C,R20*%
X72182936Y-77095000D02*
X72637064Y-77095000D01*
X72182936Y-78565000D02*
X72637064Y-78565000D01*
%TO.C,R21*%
X88002936Y-74390000D02*
X88457064Y-74390000D01*
X88002936Y-75860000D02*
X88457064Y-75860000D01*
%TO.C,C5*%
X78939420Y-94120000D02*
X79220580Y-94120000D01*
X78939420Y-95140000D02*
X79220580Y-95140000D01*
%TO.C,C15*%
X86540580Y-94710000D02*
X86259420Y-94710000D01*
X86540580Y-95730000D02*
X86259420Y-95730000D01*
%TO.C,C1*%
X79940000Y-90790580D02*
X79940000Y-90509420D01*
X80960000Y-90790580D02*
X80960000Y-90509420D01*
%TO.C,C11*%
X85999420Y-100410000D02*
X86280580Y-100410000D01*
X85999420Y-101430000D02*
X86280580Y-101430000D01*
%TO.C,R11*%
X91417064Y-88600000D02*
X90962936Y-88600000D01*
X91417064Y-90070000D02*
X90962936Y-90070000D01*
%TO.C,C6*%
X80270000Y-87454420D02*
X80270000Y-87735580D01*
X81290000Y-87454420D02*
X81290000Y-87735580D01*
%TO.C,D1*%
D10*
X98730000Y-98575000D02*
X99130000Y-98575000D01*
X98730000Y-102505000D02*
X101530000Y-102505000D01*
X98730000Y-104035000D02*
X98730000Y-98575000D01*
X101530000Y-98575000D02*
X101130000Y-98575000D01*
X101530000Y-104035000D02*
X101530000Y-98575000D01*
D12*
X101410000Y-103855000D02*
G75*
G02*
X101350000Y-103855000I-30000J0D01*
G01*
X101350000Y-103855000D02*
G75*
G02*
X101410000Y-103855000I30000J0D01*
G01*
D13*
G36*
X99181107Y-104412207D02*
G01*
X98652609Y-104412207D01*
X98652609Y-103955007D01*
X99181107Y-103955007D01*
X99181107Y-104412207D01*
G37*
G36*
X101607391Y-104412207D02*
G01*
X101078893Y-104412207D01*
X101078893Y-103955007D01*
X101607391Y-103955007D01*
X101607391Y-104412207D01*
G37*
%TO.C,C8*%
D11*
X70460000Y-89350580D02*
X70460000Y-89069420D01*
X71480000Y-89350580D02*
X71480000Y-89069420D01*
%TO.C,C19*%
X87830580Y-106140000D02*
X87549420Y-106140000D01*
X87830580Y-107160000D02*
X87549420Y-107160000D01*
%TO.C,R9*%
X96505000Y-96947064D02*
X96505000Y-96492936D01*
X97975000Y-96947064D02*
X97975000Y-96492936D01*
%TO.C,R25*%
X81787064Y-104580000D02*
X81332936Y-104580000D01*
X81787064Y-106050000D02*
X81332936Y-106050000D01*
%TO.C,C27*%
X69720000Y-80545580D02*
X69720000Y-80264420D01*
X70740000Y-80545580D02*
X70740000Y-80264420D01*
%TO.C,R3*%
X92262936Y-111440000D02*
X92717064Y-111440000D01*
X92262936Y-112910000D02*
X92717064Y-112910000D01*
%TO.C,ProtectionIC1*%
X100160000Y-107792500D02*
X101980000Y-107792500D01*
X100160000Y-107842500D02*
X100160000Y-107792500D01*
X100160000Y-110912500D02*
X100160000Y-110862500D01*
X101980000Y-107792500D02*
X101980000Y-107842500D01*
X101980000Y-110862500D02*
X101980000Y-110912500D01*
X101980000Y-110912500D02*
X100160000Y-110912500D01*
X102520000Y-110862500D02*
X102760000Y-111192500D01*
X102280000Y-111192500D01*
X102520000Y-110862500D01*
G36*
X102760000Y-111192500D02*
G01*
X102280000Y-111192500D01*
X102520000Y-110862500D01*
X102760000Y-111192500D01*
G37*
%TO.C,SplitRegulator1*%
D10*
X90410000Y-92565000D02*
X90410000Y-92565000D01*
X90410000Y-92565000D02*
X90410000Y-92815000D01*
X90410000Y-95725000D02*
X90410000Y-95475000D01*
X90410000Y-95725000D02*
X90410000Y-95725000D01*
X93570000Y-92565000D02*
X90410000Y-92565000D01*
X93570000Y-92565000D02*
X93570000Y-92565000D01*
X93570000Y-92815000D02*
X93570000Y-92565000D01*
X93570000Y-95475000D02*
X93570000Y-95725000D01*
X93570000Y-95725000D02*
X90410000Y-95725000D01*
X93570000Y-95725000D02*
X93570000Y-95725000D01*
D12*
X93520000Y-95645000D02*
G75*
G02*
X93460000Y-95645000I-30000J0D01*
G01*
X93460000Y-95645000D02*
G75*
G02*
X93520000Y-95645000I30000J0D01*
G01*
D10*
X94090000Y-95145000D02*
G75*
G02*
X93950000Y-95145000I-70000J0D01*
G01*
X93950000Y-95145000D02*
G75*
G02*
X94090000Y-95145000I70000J0D01*
G01*
%TO.C,R7*%
D11*
X95865000Y-93012936D02*
X95865000Y-93467064D01*
X97335000Y-93012936D02*
X97335000Y-93467064D01*
%TO.C,FPC1*%
D14*
X67140000Y-64840000D02*
X67140000Y-67440000D01*
X67140000Y-69620000D02*
X67140000Y-71440000D01*
X67140000Y-71440000D02*
X69810000Y-71440000D01*
X90070000Y-71440000D02*
X91040000Y-71440000D01*
X91040000Y-71440000D02*
X92740000Y-71440000D01*
X92640000Y-64840000D02*
X67140000Y-64840000D01*
X92640000Y-67540000D02*
X92640000Y-64840000D01*
X92740000Y-71440000D02*
X92740000Y-69840000D01*
X90480000Y-71990000D02*
G75*
G02*
X90200000Y-71990000I-140000J0D01*
G01*
X90200000Y-71990000D02*
G75*
G02*
X90480000Y-71990000I140000J0D01*
G01*
D12*
X92720000Y-71980000D02*
G75*
G02*
X92660000Y-71980000I-30000J0D01*
G01*
X92660000Y-71980000D02*
G75*
G02*
X92720000Y-71980000I30000J0D01*
G01*
%TO.C,R8*%
D11*
X94150000Y-96642936D02*
X94150000Y-98097064D01*
X95970000Y-96642936D02*
X95970000Y-98097064D01*
%TO.C,R19*%
X72872936Y-79055000D02*
X73327064Y-79055000D01*
X72872936Y-80525000D02*
X73327064Y-80525000D01*
%TO.C,C24*%
X95609420Y-90260000D02*
X95890580Y-90260000D01*
X95609420Y-91280000D02*
X95890580Y-91280000D01*
%TO.C,R1*%
X85992936Y-92740000D02*
X86447064Y-92740000D01*
X85992936Y-94210000D02*
X86447064Y-94210000D01*
%TO.C,C20*%
X97660000Y-110900580D02*
X97660000Y-110619420D01*
X98680000Y-110900580D02*
X98680000Y-110619420D01*
%TO.C,C3*%
X80660000Y-82649420D02*
X80660000Y-82930580D01*
X81680000Y-82649420D02*
X81680000Y-82930580D01*
%TO.C,SW2*%
D10*
X69650000Y-98415000D02*
X69650000Y-105075000D01*
X69650000Y-98415000D02*
X71790000Y-98415000D01*
X69650000Y-105075000D02*
X71770000Y-105075000D01*
X75810000Y-98415000D02*
X73670000Y-98415000D01*
X75810000Y-98415000D02*
X75810000Y-105075000D01*
X75810000Y-105075000D02*
X73690000Y-105075000D01*
D12*
X75760000Y-105045000D02*
G75*
G02*
X75700000Y-105045000I-30000J0D01*
G01*
X75700000Y-105045000D02*
G75*
G02*
X75760000Y-105045000I30000J0D01*
G01*
%TO.C,C17*%
D11*
X88400000Y-92609420D02*
X88400000Y-92890580D01*
X89420000Y-92609420D02*
X89420000Y-92890580D01*
%TO.C,Amplifier1*%
D14*
X82090000Y-78925000D02*
X82090000Y-85925000D01*
X82090000Y-78925000D02*
X95070000Y-78925000D01*
X95070000Y-78925000D02*
X95090000Y-81325000D01*
X95090000Y-83525000D02*
X95110000Y-85925000D01*
X95110000Y-85925000D02*
X82090000Y-85925000D01*
X95087888Y-83524998D02*
G75*
G02*
X95090000Y-81325000I2112J1099998D01*
G01*
D12*
X95030000Y-77225000D02*
G75*
G02*
X94970000Y-77225000I-30000J0D01*
G01*
X94970000Y-77225000D02*
G75*
G02*
X95030000Y-77225000I30000J0D01*
G01*
D14*
X95490000Y-78125000D02*
G75*
G02*
X94890000Y-78125000I-300000J0D01*
G01*
X94890000Y-78125000D02*
G75*
G02*
X95490000Y-78125000I300000J0D01*
G01*
%TO.C,R6*%
D11*
X92577064Y-90565000D02*
X92122936Y-90565000D01*
X92577064Y-92035000D02*
X92122936Y-92035000D01*
%TO.C,DAC1*%
D10*
X73880000Y-84275000D02*
X77420000Y-84275000D01*
X73880000Y-90935000D02*
X73880000Y-84275000D01*
X77420000Y-84275000D02*
X77420000Y-90935000D01*
X77420000Y-90935000D02*
X73880000Y-90935000D01*
D15*
X76830000Y-90535000D02*
G75*
G02*
X76510000Y-90535000I-160000J0D01*
G01*
X76510000Y-90535000D02*
G75*
G02*
X76830000Y-90535000I160000J0D01*
G01*
X78670000Y-91165000D02*
G75*
G02*
X78370000Y-91165000I-150000J0D01*
G01*
X78370000Y-91165000D02*
G75*
G02*
X78670000Y-91165000I150000J0D01*
G01*
D12*
X78880000Y-90855000D02*
G75*
G02*
X78820000Y-90855000I-30000J0D01*
G01*
X78820000Y-90855000D02*
G75*
G02*
X78880000Y-90855000I30000J0D01*
G01*
%TO.C,C14*%
D11*
X92169420Y-99260000D02*
X92450580Y-99260000D01*
X92169420Y-100280000D02*
X92450580Y-100280000D01*
%TO.C,SW3*%
D10*
X58320000Y-95795000D02*
X60440000Y-95795000D01*
X58320000Y-102455000D02*
X58320000Y-95795000D01*
X58320000Y-102455000D02*
X60460000Y-102455000D01*
X64480000Y-95795000D02*
X62360000Y-95795000D01*
X64480000Y-102455000D02*
X62340000Y-102455000D01*
X64480000Y-102455000D02*
X64480000Y-95795000D01*
D12*
X58430000Y-95825000D02*
G75*
G02*
X58370000Y-95825000I-30000J0D01*
G01*
X58370000Y-95825000D02*
G75*
G02*
X58430000Y-95825000I30000J0D01*
G01*
%TO.C,C23*%
D11*
X104859420Y-98615000D02*
X105140580Y-98615000D01*
X104859420Y-99635000D02*
X105140580Y-99635000D01*
%TO.C,R4*%
X102377064Y-105780000D02*
X101922936Y-105780000D01*
X102377064Y-107250000D02*
X101922936Y-107250000D01*
%TO.C,C16*%
X86189420Y-96590000D02*
X86470580Y-96590000D01*
X86189420Y-97610000D02*
X86470580Y-97610000D01*
%TO.C,C13*%
X93039420Y-104340000D02*
X93320580Y-104340000D01*
X93039420Y-105360000D02*
X93320580Y-105360000D01*
%TO.C,L2*%
D14*
X101460000Y-91050000D02*
X101460000Y-91050000D01*
X101460000Y-92470000D02*
X101460000Y-91050000D01*
X106630000Y-91120000D02*
X106640000Y-91110000D01*
X106630000Y-92450000D02*
X106630000Y-91120000D01*
D12*
X101560000Y-94260000D02*
G75*
G02*
X101500000Y-94260000I-30000J0D01*
G01*
X101500000Y-94260000D02*
G75*
G02*
X101560000Y-94260000I30000J0D01*
G01*
%TO.C,C22*%
D11*
X97840000Y-93314420D02*
X97840000Y-93595580D01*
X98860000Y-93314420D02*
X98860000Y-93595580D01*
%TO.C,DigitalLDO1*%
D14*
X88140000Y-101645000D02*
X90940000Y-101645000D01*
X88140000Y-102645000D02*
X88140000Y-101645000D01*
X90940000Y-101645000D02*
X90940000Y-102645000D01*
X90940000Y-102645000D02*
X88140000Y-102645000D01*
X87747550Y-103664975D02*
G75*
G02*
X87750000Y-103665000I2449J119975D01*
G01*
D12*
X88110000Y-103545000D02*
G75*
G02*
X88050000Y-103545000I-30000J0D01*
G01*
X88050000Y-103545000D02*
G75*
G02*
X88110000Y-103545000I30000J0D01*
G01*
%TO.C,R17*%
D11*
X73037064Y-72785000D02*
X72582936Y-72785000D01*
X73037064Y-74255000D02*
X72582936Y-74255000D01*
%TO.C,C28*%
X92159420Y-97710000D02*
X92440580Y-97710000D01*
X92159420Y-98730000D02*
X92440580Y-98730000D01*
%TO.C,R15*%
X67582936Y-103485000D02*
X68037064Y-103485000D01*
X67582936Y-104955000D02*
X68037064Y-104955000D01*
%TO.C,ChargerIC1*%
D14*
X90800000Y-105715000D02*
X94900000Y-105715000D01*
X90800000Y-110815000D02*
X90800000Y-105715000D01*
X92050000Y-110815000D02*
X90800000Y-110815000D01*
X93650000Y-110815000D02*
X94900000Y-110815000D01*
X94900000Y-105715000D02*
X94900000Y-110815000D01*
X92046354Y-110772773D02*
G75*
G02*
X93650000Y-110765000I803646J-372227D01*
G01*
X95520000Y-111295000D02*
G75*
G02*
X95180000Y-111295000I-170000J0D01*
G01*
X95180000Y-111295000D02*
G75*
G02*
X95520000Y-111295000I170000J0D01*
G01*
D12*
X95830000Y-110715000D02*
G75*
G02*
X95770000Y-110715000I-30000J0D01*
G01*
X95770000Y-110715000D02*
G75*
G02*
X95830000Y-110715000I30000J0D01*
G01*
%TO.C,USB1*%
D14*
X79370000Y-109855000D02*
X79370000Y-111615000D01*
X79370000Y-113855000D02*
X79370000Y-115375000D01*
X79370000Y-115375000D02*
X88270000Y-115375000D01*
X88270000Y-111615000D02*
X88270000Y-109855000D01*
X88270000Y-115375000D02*
X88270000Y-113855000D01*
D12*
X79380000Y-107575000D02*
G75*
G02*
X79320000Y-107575000I-30000J0D01*
G01*
X79320000Y-107575000D02*
G75*
G02*
X79380000Y-107575000I30000J0D01*
G01*
%TO.C,C26*%
D11*
X69320000Y-83625580D02*
X69320000Y-83344420D01*
X70340000Y-83625580D02*
X70340000Y-83344420D01*
%TO.C,L1*%
D14*
X99920000Y-71990000D02*
X99920000Y-71990000D01*
X99990000Y-66820000D02*
X99980000Y-66810000D01*
X101320000Y-66820000D02*
X99990000Y-66820000D01*
X101340000Y-71990000D02*
X99920000Y-71990000D01*
D12*
X103160000Y-71920000D02*
G75*
G02*
X103100000Y-71920000I-30000J0D01*
G01*
X103100000Y-71920000D02*
G75*
G02*
X103160000Y-71920000I30000J0D01*
G01*
%TO.C,C4*%
D11*
X78929420Y-92590000D02*
X79210580Y-92590000D01*
X78929420Y-93610000D02*
X79210580Y-93610000D01*
%TO.C,R10*%
X103667064Y-84380000D02*
X103212936Y-84380000D01*
X103667064Y-85850000D02*
X103212936Y-85850000D01*
%TO.C,C18*%
X95689420Y-111860000D02*
X95970580Y-111860000D01*
X95689420Y-112880000D02*
X95970580Y-112880000D01*
%TO.C,R5*%
X97255000Y-107337064D02*
X97255000Y-106882936D01*
X98725000Y-107337064D02*
X98725000Y-106882936D01*
%TO.C,C7*%
X71815580Y-91180000D02*
X71534420Y-91180000D01*
X71815580Y-92200000D02*
X71534420Y-92200000D01*
%TO.C,AnalogLDO1*%
D14*
X92950000Y-101670000D02*
X92950000Y-103070000D01*
X94090000Y-101480000D02*
X94850000Y-101480000D01*
X95870000Y-101950000D02*
X95870000Y-102790000D01*
D12*
X93050000Y-103770000D02*
G75*
G02*
X92990000Y-103770000I-30000J0D01*
G01*
X92990000Y-103770000D02*
G75*
G02*
X93050000Y-103770000I30000J0D01*
G01*
D15*
X93660000Y-104380000D02*
G75*
G02*
X93360000Y-104380000I-150000J0D01*
G01*
X93360000Y-104380000D02*
G75*
G02*
X93660000Y-104380000I150000J0D01*
G01*
%TO.C,L4*%
D10*
X54920000Y-65100000D02*
X61070000Y-65100000D01*
X54920000Y-70940000D02*
X61070000Y-70940000D01*
X61070000Y-65100000D02*
X61070000Y-65100000D01*
X61070000Y-70940000D02*
X61070000Y-70940000D01*
D12*
X61030000Y-70620000D02*
G75*
G02*
X60970000Y-70620000I-30000J0D01*
G01*
X60970000Y-70620000D02*
G75*
G02*
X61030000Y-70620000I30000J0D01*
G01*
%TO.C,C12*%
D11*
X85999420Y-101970000D02*
X86280580Y-101970000D01*
X85999420Y-102990000D02*
X86280580Y-102990000D01*
%TO.C,R14*%
X96405000Y-103427936D02*
X96405000Y-103882064D01*
X97875000Y-103427936D02*
X97875000Y-103882064D01*
%TO.C,3.5mmjack1*%
D14*
X97000000Y-75860000D02*
X97000000Y-81600000D01*
X98270000Y-75860000D02*
X97000000Y-75860000D01*
X102570000Y-81860000D02*
X99030000Y-81860000D01*
X105270000Y-75860000D02*
X100730000Y-75860000D01*
X106270000Y-81860000D02*
X105030000Y-81860000D01*
X109200000Y-75860000D02*
X107730000Y-75860000D01*
X109200000Y-76360000D02*
X111200000Y-76360000D01*
X109200000Y-81360000D02*
X111200000Y-81360000D01*
X109200000Y-81860000D02*
X108730000Y-81860000D01*
X109200000Y-81860000D02*
X109200000Y-75860000D01*
X111200000Y-81360000D02*
X111200000Y-76360000D01*
D12*
X111180000Y-83360000D02*
G75*
G02*
X111120000Y-83360000I-30000J0D01*
G01*
X111120000Y-83360000D02*
G75*
G02*
X111180000Y-83360000I30000J0D01*
G01*
%TO.C,N-channel1*%
D11*
X68250000Y-72870000D02*
X69770000Y-72870000D01*
X68250000Y-73870000D02*
X68250000Y-72870000D01*
X68250000Y-75990000D02*
X68250000Y-74990000D01*
X69770000Y-72870000D02*
X69770000Y-72920000D01*
X69770000Y-74040000D02*
X69770000Y-74820000D01*
X69770000Y-75940000D02*
X69770000Y-75990000D01*
X69770000Y-75990000D02*
X68250000Y-75990000D01*
X70310000Y-74810000D02*
X70070000Y-74480000D01*
X70550000Y-74480000D01*
X70310000Y-74810000D01*
G36*
X70310000Y-74810000D02*
G01*
X70070000Y-74480000D01*
X70550000Y-74480000D01*
X70310000Y-74810000D01*
G37*
%TO.C,R24*%
X65135000Y-96092936D02*
X65135000Y-96547064D01*
X66605000Y-96092936D02*
X66605000Y-96547064D01*
%TO.C,R18*%
X72272936Y-82240000D02*
X72727064Y-82240000D01*
X72272936Y-83710000D02*
X72727064Y-83710000D01*
%TO.C,R13*%
X85882936Y-103735000D02*
X86337064Y-103735000D01*
X85882936Y-105205000D02*
X86337064Y-105205000D01*
%TO.C,R2*%
X85852936Y-90770000D02*
X86307064Y-90770000D01*
X85852936Y-92240000D02*
X86307064Y-92240000D01*
%TO.C,Card_Reader1*%
D14*
X53070000Y-77035000D02*
X53070000Y-91775000D01*
X53070000Y-91775000D02*
X55980000Y-91775000D01*
X53560000Y-77035000D02*
X53780000Y-77035000D01*
X53780000Y-77035000D02*
X53780000Y-85405000D01*
X53780000Y-85405000D02*
X53090000Y-88345000D01*
X56130000Y-77035000D02*
X53070000Y-77035000D01*
X58480000Y-91775000D02*
X65980000Y-91775000D01*
X66060000Y-77035000D02*
X58550000Y-77035000D01*
D12*
X68150000Y-92455000D02*
G75*
G02*
X68090000Y-92455000I-30000J0D01*
G01*
X68090000Y-92455000D02*
G75*
G02*
X68150000Y-92455000I30000J0D01*
G01*
%TO.C,C2*%
D11*
X79150000Y-82669420D02*
X79150000Y-82950580D01*
X80170000Y-82669420D02*
X80170000Y-82950580D01*
%TO.C,U2*%
D14*
X60780000Y-105730000D02*
X60780000Y-107710000D01*
X60780000Y-109870000D02*
X60780000Y-110940000D01*
X60780000Y-110940000D02*
X63070000Y-110940000D01*
X69390000Y-110940000D02*
X71680000Y-110940000D01*
X71680000Y-105730000D02*
X60780000Y-105730000D01*
X71680000Y-107710000D02*
X71680000Y-105730000D01*
X71680000Y-110940000D02*
X71680000Y-109870000D01*
D12*
X71460000Y-111690000D02*
G75*
G02*
X71400000Y-111690000I-30000J0D01*
G01*
X71400000Y-111690000D02*
G75*
G02*
X71460000Y-111690000I30000J0D01*
G01*
D13*
%TO.C,DualMosfet1*%
D14*
X104670000Y-107810000D02*
X106470000Y-107810000D01*
X104670000Y-110910000D02*
X106470000Y-110910000D01*
D12*
X107000000Y-110810000D02*
G75*
G02*
X106940000Y-110810000I-30000J0D01*
G01*
X106940000Y-110810000D02*
G75*
G02*
X107000000Y-110810000I30000J0D01*
G01*
D14*
X107090000Y-111010000D02*
G75*
G02*
X106850000Y-111010000I-120000J0D01*
G01*
X106850000Y-111010000D02*
G75*
G02*
X107090000Y-111010000I120000J0D01*
G01*
%TO.C,C25*%
D11*
X89330000Y-98384420D02*
X89330000Y-98665580D01*
X90350000Y-98384420D02*
X90350000Y-98665580D01*
%TO.C,R22*%
X87392936Y-88590000D02*
X87847064Y-88590000D01*
X87392936Y-90060000D02*
X87847064Y-90060000D01*
%TO.C,C10*%
X76030000Y-80750580D02*
X76030000Y-80469420D01*
X77050000Y-80750580D02*
X77050000Y-80469420D01*
%TO.C,R12*%
X91452936Y-74390000D02*
X91907064Y-74390000D01*
X91452936Y-75860000D02*
X91907064Y-75860000D01*
%TO.C,C21*%
X94330000Y-93289420D02*
X94330000Y-93570580D01*
X95350000Y-93289420D02*
X95350000Y-93570580D01*
%TO.C,C9*%
X74490000Y-82189420D02*
X74490000Y-82470580D01*
X75510000Y-82189420D02*
X75510000Y-82470580D01*
%TO.C,D2*%
D10*
X81280000Y-90685000D02*
X81680000Y-90685000D01*
X81280000Y-94615000D02*
X84080000Y-94615000D01*
X81280000Y-96145000D02*
X81280000Y-90685000D01*
X84080000Y-90685000D02*
X83680000Y-90685000D01*
X84080000Y-96145000D02*
X84080000Y-90685000D01*
D12*
X83960000Y-95965000D02*
G75*
G02*
X83900000Y-95965000I-30000J0D01*
G01*
X83900000Y-95965000D02*
G75*
G02*
X83960000Y-95965000I30000J0D01*
G01*
D13*
G36*
X81731107Y-96522207D02*
G01*
X81202609Y-96522207D01*
X81202609Y-96065007D01*
X81731107Y-96065007D01*
X81731107Y-96522207D01*
G37*
G36*
X84157391Y-96522207D02*
G01*
X83628893Y-96522207D01*
X83628893Y-96065007D01*
X84157391Y-96065007D01*
X84157391Y-96522207D01*
G37*
%TD*%
M02*
