M48
; DRILL file KiCad 10.0.4 date 2026-07-21T12:54:11
; FORMAT={-:-/ absolute / metric / decimal}
; #@! TF.CreationDate,2026-07-21T12:54:11+05:30
; #@! TF.GenerationSoftware,Kicad,Pcbnew,10.0.4
; #@! TF.FileFunction,Plated,1,4,PTH
FMAT,2
METRIC
; #@! TA.AperFunction,Plated,PTH,ViaDrill
T1C0.300
; #@! TA.AperFunction,Plated,PTH,ComponentDrill
T2C0.600
; #@! TA.AperFunction,Plated,PTH,ComponentDrill
T3C0.650
; #@! TA.AperFunction,Plated,PTH,ComponentDrill
T4C1.000
; #@! TA.AperFunction,Plated,PTH,ComponentDrill
T5C1.100
%
G90
G05
T1
X55.74Y-68.02
X57.37Y-76.645
X57.37Y-92.165
X61.4Y-102.315
X62.185Y-86.775
X63.16Y-85.95
X64.31Y-112.71
X64.58Y-85.28
X64.78Y-107.95
X65.2Y-86.24
X65.38Y-113.45
X65.87Y-87.31
X65.87Y-95.407
X66.897Y-104.22
X67.08Y-76.645
X67.08Y-91.325
X67.93Y-83.345
X67.94Y-81.135
X67.94Y-87.42
X68.072Y-74.43
X68.09Y-68.99
X68.66Y-88.19
X69.43Y-89.18
X69.82Y-84.3
X69.83Y-82.71
X69.947Y-75.38
X69.97Y-101.39
X70.04Y-88.46
X70.23Y-79.63
X70.23Y-81.18
X71.25Y-100.57
X72.08Y-100.31
X72.27Y-106.56
X72.47Y-70.66
X73.24Y-76.28
X73.322Y-77.83
X73.422Y-82.965
X74.1Y-70.62
X74.36Y-106.992
X74.86Y-84.755
X75.74Y-89.405
X76.54Y-79.835
X78.53Y-84.07
X78.76Y-91.07
X79.855Y-94.61
X79.9Y-85.85
X81.17Y-82.015
X81.42Y-108.015
X82.58Y-83.58
X82.68Y-91.225
X82.74Y-97.75
X83.125Y-102.1
X83.47Y-99.03
X83.71Y-101.55
X83.89Y-72.91
X84.6Y-73.5
X85.17Y-72.99
X85.307Y-93.475
X85.625Y-95.22
X86.0Y-73.26
X86.22Y-108.015
X86.44Y-70.62
X86.707Y-89.325
X87.022Y-104.47
X87.317Y-75.125
X88.47Y-97.7
X88.58Y-100.845
X88.59Y-82.425
X88.69Y-94.65
X88.89Y-105.48
X88.91Y-93.525
X89.94Y-110.175
X90.19Y-92.02
X90.608Y-96.422
X91.535Y-99.77
X91.76Y-87.125
X92.05Y-94.085
X92.405Y-104.85
X93.263Y-91.3
X93.52Y-101.27
X94.31Y-80.595
X94.31Y-87.125
X94.47Y-103.47
X94.865Y-92.555
X94.975Y-90.77
X95.06Y-98.832
X95.66Y-110.175
X96.6Y-92.328
X96.6Y-94.152
X97.14Y-104.567
X97.24Y-97.632
X98.73Y-69.42
X99.51Y-105.355
X99.93Y-110.302
X102.53Y-69.42
X103.062Y-106.515
X103.26Y-102.745
X103.8Y-82.83
X104.03Y-78.99
X104.03Y-93.66
X104.59Y-100.025
X107.25Y-105.11
X107.37Y-101.89
T3
X80.93Y-109.085
X86.71Y-109.085
T4
X57.08Y-79.455
X57.08Y-87.455
T5
X100.2Y-78.86
X106.2Y-78.86
T2
G00X79.5Y-108.035
M15
G01X79.5Y-109.135
M16
G05
G00X79.5Y-112.335
M15
G01X79.5Y-113.135
M16
G05
G00X88.14Y-108.035
M15
G01X88.14Y-109.135
M16
G05
G00X88.14Y-112.335
M15
G01X88.14Y-113.135
M16
G05
M30
