%TF.GenerationSoftware,KiCad,Pcbnew,10.0.4*%
%TF.CreationDate,2026-07-21T12:54:15+05:30*%
%TF.ProjectId,Singy,53696e67-792e-46b6-9963-61645f706362,rev?*%
%TF.SameCoordinates,Original*%
%TF.FileFunction,Copper,L4,Bot*%
%TF.FilePolarity,Positive*%
%FSLAX46Y46*%
G04 Gerber Fmt 4.6, Leading zero omitted, Abs format (unit mm)*
G04 Created by KiCad (PCBNEW 10.0.4) date 2026-07-21 12:54:15*
%MOMM*%
%LPD*%
G01*
G04 APERTURE LIST*
G04 Aperture macros list*
%AMRoundRect*
0 Rectangle with rounded corners*
0 $1 Rounding radius*
0 $2 $3 $4 $5 $6 $7 $8 $9 X,Y pos of 4 corners*
0 Add a 4 corners polygon primitive as box body*
4,1,4,$2,$3,$4,$5,$6,$7,$8,$9,$2,$3,0*
0 Add four circle primitives for the rounded corners*
1,1,$1+$1,$2,$3*
1,1,$1+$1,$4,$5*
1,1,$1+$1,$6,$7*
1,1,$1+$1,$8,$9*
0 Add four rect primitives between the rounded corners*
20,1,$1+$1,$2,$3,$4,$5,0*
20,1,$1+$1,$4,$5,$6,$7,0*
20,1,$1+$1,$6,$7,$8,$9,0*
20,1,$1+$1,$8,$9,$2,$3,0*%
G04 Aperture macros list end*
%ADD10C,0.300000*%
%TA.AperFunction,NonConductor*%
%ADD11C,0.300000*%
%TD*%
%TA.AperFunction,ComponentPad*%
%ADD12C,0.650000*%
%TD*%
%TA.AperFunction,ComponentPad*%
%ADD13O,1.000000X2.100000*%
%TD*%
%TA.AperFunction,ComponentPad*%
%ADD14O,1.000000X1.800000*%
%TD*%
%TA.AperFunction,ComponentPad*%
%ADD15C,1.100000*%
%TD*%
%TA.AperFunction,ComponentPad*%
%ADD16C,1.000000*%
%TD*%
%TA.AperFunction,SMDPad,CuDef*%
%ADD17RoundRect,0.250000X0.750000X-0.250000X0.750000X0.250000X-0.750000X0.250000X-0.750000X-0.250000X0*%
%TD*%
%TA.AperFunction,SMDPad,CuDef*%
%ADD18R,0.900000X1.500000*%
%TD*%
%TA.AperFunction,SMDPad,CuDef*%
%ADD19R,1.500000X0.900000*%
%TD*%
%TA.AperFunction,SMDPad,CuDef*%
%ADD20R,0.900000X0.900000*%
%TD*%
%TA.AperFunction,ViaPad*%
%ADD21C,0.600000*%
%TD*%
%TA.AperFunction,Conductor*%
%ADD22C,0.200000*%
%TD*%
G04 APERTURE END LIST*
D10*
D11*
X63103082Y-67151314D02*
X63174510Y-67222742D01*
X63174510Y-67222742D02*
X63317368Y-67294171D01*
X63317368Y-67294171D02*
X63674510Y-67294171D01*
X63674510Y-67294171D02*
X63817368Y-67222742D01*
X63817368Y-67222742D02*
X63888796Y-67151314D01*
X63888796Y-67151314D02*
X63960225Y-67008457D01*
X63960225Y-67008457D02*
X63960225Y-66865600D01*
X63960225Y-66865600D02*
X63888796Y-66651314D01*
X63888796Y-66651314D02*
X63031653Y-65794171D01*
X63031653Y-65794171D02*
X63960225Y-65794171D01*
X65388796Y-65794171D02*
X64531653Y-65794171D01*
X64960224Y-65794171D02*
X64960224Y-67294171D01*
X64960224Y-67294171D02*
X64817367Y-67079885D01*
X64817367Y-67079885D02*
X64674510Y-66937028D01*
X64674510Y-66937028D02*
X64531653Y-66865600D01*
X67603081Y-67294171D02*
X67603081Y-66222742D01*
X67603081Y-66222742D02*
X67531652Y-66008457D01*
X67531652Y-66008457D02*
X67388795Y-65865600D01*
X67388795Y-65865600D02*
X67174509Y-65794171D01*
X67174509Y-65794171D02*
X67031652Y-65794171D01*
X68960224Y-66794171D02*
X68960224Y-65794171D01*
X68317366Y-66794171D02*
X68317366Y-66008457D01*
X68317366Y-66008457D02*
X68388795Y-65865600D01*
X68388795Y-65865600D02*
X68531652Y-65794171D01*
X68531652Y-65794171D02*
X68745938Y-65794171D01*
X68745938Y-65794171D02*
X68888795Y-65865600D01*
X68888795Y-65865600D02*
X68960224Y-65937028D01*
X69674509Y-66794171D02*
X69674509Y-65794171D01*
X69674509Y-66651314D02*
X69745938Y-66722742D01*
X69745938Y-66722742D02*
X69888795Y-66794171D01*
X69888795Y-66794171D02*
X70103081Y-66794171D01*
X70103081Y-66794171D02*
X70245938Y-66722742D01*
X70245938Y-66722742D02*
X70317367Y-66579885D01*
X70317367Y-66579885D02*
X70317367Y-65794171D01*
X71603081Y-65865600D02*
X71460224Y-65794171D01*
X71460224Y-65794171D02*
X71174510Y-65794171D01*
X71174510Y-65794171D02*
X71031652Y-65865600D01*
X71031652Y-65865600D02*
X70960224Y-66008457D01*
X70960224Y-66008457D02*
X70960224Y-66579885D01*
X70960224Y-66579885D02*
X71031652Y-66722742D01*
X71031652Y-66722742D02*
X71174510Y-66794171D01*
X71174510Y-66794171D02*
X71460224Y-66794171D01*
X71460224Y-66794171D02*
X71603081Y-66722742D01*
X71603081Y-66722742D02*
X71674510Y-66579885D01*
X71674510Y-66579885D02*
X71674510Y-66437028D01*
X71674510Y-66437028D02*
X70960224Y-66294171D01*
X73388795Y-67151314D02*
X73460223Y-67222742D01*
X73460223Y-67222742D02*
X73603081Y-67294171D01*
X73603081Y-67294171D02*
X73960223Y-67294171D01*
X73960223Y-67294171D02*
X74103081Y-67222742D01*
X74103081Y-67222742D02*
X74174509Y-67151314D01*
X74174509Y-67151314D02*
X74245938Y-67008457D01*
X74245938Y-67008457D02*
X74245938Y-66865600D01*
X74245938Y-66865600D02*
X74174509Y-66651314D01*
X74174509Y-66651314D02*
X73317366Y-65794171D01*
X73317366Y-65794171D02*
X74245938Y-65794171D01*
X75174509Y-67294171D02*
X75317366Y-67294171D01*
X75317366Y-67294171D02*
X75460223Y-67222742D01*
X75460223Y-67222742D02*
X75531652Y-67151314D01*
X75531652Y-67151314D02*
X75603080Y-67008457D01*
X75603080Y-67008457D02*
X75674509Y-66722742D01*
X75674509Y-66722742D02*
X75674509Y-66365600D01*
X75674509Y-66365600D02*
X75603080Y-66079885D01*
X75603080Y-66079885D02*
X75531652Y-65937028D01*
X75531652Y-65937028D02*
X75460223Y-65865600D01*
X75460223Y-65865600D02*
X75317366Y-65794171D01*
X75317366Y-65794171D02*
X75174509Y-65794171D01*
X75174509Y-65794171D02*
X75031652Y-65865600D01*
X75031652Y-65865600D02*
X74960223Y-65937028D01*
X74960223Y-65937028D02*
X74888794Y-66079885D01*
X74888794Y-66079885D02*
X74817366Y-66365600D01*
X74817366Y-66365600D02*
X74817366Y-66722742D01*
X74817366Y-66722742D02*
X74888794Y-67008457D01*
X74888794Y-67008457D02*
X74960223Y-67151314D01*
X74960223Y-67151314D02*
X75031652Y-67222742D01*
X75031652Y-67222742D02*
X75174509Y-67294171D01*
X76245937Y-67151314D02*
X76317365Y-67222742D01*
X76317365Y-67222742D02*
X76460223Y-67294171D01*
X76460223Y-67294171D02*
X76817365Y-67294171D01*
X76817365Y-67294171D02*
X76960223Y-67222742D01*
X76960223Y-67222742D02*
X77031651Y-67151314D01*
X77031651Y-67151314D02*
X77103080Y-67008457D01*
X77103080Y-67008457D02*
X77103080Y-66865600D01*
X77103080Y-66865600D02*
X77031651Y-66651314D01*
X77031651Y-66651314D02*
X76174508Y-65794171D01*
X76174508Y-65794171D02*
X77103080Y-65794171D01*
X78388794Y-67294171D02*
X78103079Y-67294171D01*
X78103079Y-67294171D02*
X77960222Y-67222742D01*
X77960222Y-67222742D02*
X77888794Y-67151314D01*
X77888794Y-67151314D02*
X77745936Y-66937028D01*
X77745936Y-66937028D02*
X77674508Y-66651314D01*
X77674508Y-66651314D02*
X77674508Y-66079885D01*
X77674508Y-66079885D02*
X77745936Y-65937028D01*
X77745936Y-65937028D02*
X77817365Y-65865600D01*
X77817365Y-65865600D02*
X77960222Y-65794171D01*
X77960222Y-65794171D02*
X78245936Y-65794171D01*
X78245936Y-65794171D02*
X78388794Y-65865600D01*
X78388794Y-65865600D02*
X78460222Y-65937028D01*
X78460222Y-65937028D02*
X78531651Y-66079885D01*
X78531651Y-66079885D02*
X78531651Y-66437028D01*
X78531651Y-66437028D02*
X78460222Y-66579885D01*
X78460222Y-66579885D02*
X78388794Y-66651314D01*
X78388794Y-66651314D02*
X78245936Y-66722742D01*
X78245936Y-66722742D02*
X77960222Y-66722742D01*
X77960222Y-66722742D02*
X77817365Y-66651314D01*
X77817365Y-66651314D02*
X77745936Y-66579885D01*
X77745936Y-66579885D02*
X77674508Y-66437028D01*
D12*
%TO.P,USB1,*%
%TO.N,*%
X80930000Y-109085000D03*
X86710000Y-109085000D03*
D13*
%TO.P,USB1,1,SHELL_1*%
%TO.N,P-*%
X79500000Y-108585000D03*
%TO.P,USB1,2,SHELL_2*%
X88140000Y-108585000D03*
D14*
%TO.P,USB1,3,SHELL_3*%
X79500000Y-112735000D03*
%TO.P,USB1,4,SHELL_4*%
X88140000Y-112735000D03*
%TD*%
D15*
%TO.P,3.5mmjack1,*%
%TO.N,*%
X106200000Y-78860000D03*
X100200000Y-78860000D03*
%TD*%
D16*
%TO.P,Card_Reader1,*%
%TO.N,*%
X57080000Y-79455000D03*
X57080000Y-87455000D03*
%TD*%
D17*
%TO.P,Positive1,1,Pin_1_1*%
%TO.N,P+*%
X107370000Y-101890000D03*
%TD*%
%TO.P,J2,1,Pin_1_1*%
%TO.N,GND*%
X107250000Y-105110000D03*
%TD*%
D18*
%TO.P,U1,1,GND_1*%
%TO.N,P-*%
X59420000Y-93635000D03*
%TO.P,U1,2,3V3_2*%
%TO.N,D-3.3V*%
X60690000Y-93635000D03*
%TO.P,U1,3,EN_3*%
%TO.N,Net-(U1-EN)*%
X61960000Y-93635000D03*
%TO.P,U1,4,IO4_4*%
%TO.N,S-MISO*%
X63230000Y-93635000D03*
%TO.P,U1,5,IO5_5*%
%TO.N,S-CLK*%
X64500000Y-93635000D03*
%TO.P,U1,6,IO6_6*%
%TO.N,S-MOSI*%
X65770000Y-93635000D03*
%TO.P,U1,7,IO7_7*%
%TO.N,S-CS*%
X67040000Y-93635000D03*
%TO.P,U1,8,IO15_8*%
%TO.N,SCK*%
X68310000Y-93635000D03*
%TO.P,U1,9,IO16_9*%
%TO.N,BCK*%
X69580000Y-93635000D03*
%TO.P,U1,10,IO17_10*%
%TO.N,DIN*%
X70850000Y-93635000D03*
%TO.P,U1,11,IO18_11*%
%TO.N,LRCK*%
X72120000Y-93635000D03*
%TO.P,U1,12,IO8_12*%
%TO.N,unconnected-(U1-IO8-Pad12)*%
X73390000Y-93635000D03*
%TO.P,U1,13,IO19_13*%
%TO.N,D-*%
X74660000Y-93635000D03*
%TO.P,U1,14,IO20_14*%
%TO.N,D+*%
X75930000Y-93635000D03*
D19*
%TO.P,U1,15,IO3_15*%
%TO.N,D-DC*%
X77200000Y-95395000D03*
%TO.P,U1,16,IO46_16*%
%TO.N,D-SCL*%
X77200000Y-96665000D03*
%TO.P,U1,17,IO9_17*%
%TO.N,D-CS*%
X77200000Y-97935000D03*
%TO.P,U1,18,IO10_18*%
%TO.N,D-SDA*%
X77200000Y-99215000D03*
%TO.P,U1,19,IO11_19*%
%TO.N,Head-D*%
X77200000Y-100485000D03*
%TO.P,U1,20,IO12_20*%
%TO.N,Auto-Pause*%
X77200000Y-101755000D03*
%TO.P,U1,21,IO13_21*%
%TO.N,D-Bright*%
X77200000Y-103025000D03*
%TO.P,U1,22,IO14_22*%
%TO.N,unconnected-(U1-IO14-Pad22)*%
X77200000Y-104295000D03*
%TO.P,U1,23,IO21_23*%
%TO.N,unconnected-(U1-IO21-Pad23)*%
X77200000Y-105565000D03*
%TO.P,U1,24,IO47_24*%
%TO.N,unconnected-(U1-IO47-Pad24)*%
X77200000Y-106835000D03*
%TO.P,U1,25,IO48_25*%
%TO.N,unconnected-(U1-IO48-Pad25)*%
X77200000Y-108105000D03*
%TO.P,U1,26,IO45_26*%
%TO.N,unconnected-(U1-IO45-Pad26)*%
X77170000Y-109375000D03*
D18*
%TO.P,U1,27,IO0_27*%
%TO.N,Net-(U1-IO0)*%
X75930000Y-111135000D03*
%TO.P,U1,28,IO35_28*%
%TO.N,unconnected-(U1-IO35-Pad28)*%
X74660000Y-111135000D03*
%TO.P,U1,29,IO36_29*%
%TO.N,unconnected-(U1-IO36-Pad29)*%
X73390000Y-111135000D03*
%TO.P,U1,30,IO37_30*%
%TO.N,unconnected-(U1-IO37-Pad30)*%
X72120000Y-111135000D03*
%TO.P,U1,31,IO38_31*%
%TO.N,unconnected-(U1-IO38-Pad31)*%
X70850000Y-111135000D03*
%TO.P,U1,32,IO39_32*%
%TO.N,unconnected-(U1-IO39-Pad32)*%
X69580000Y-111135000D03*
%TO.P,U1,33,IO40_33*%
%TO.N,unconnected-(U1-IO40-Pad33)*%
X68310000Y-111135000D03*
%TO.P,U1,34,IO41_34*%
%TO.N,unconnected-(U1-IO41-Pad34)*%
X67040000Y-111135000D03*
%TO.P,U1,35,IO42_35*%
%TO.N,unconnected-(U1-IO42-Pad35)*%
X65770000Y-111135000D03*
%TO.P,U1,36,RXD0_36*%
%TO.N,unconnected-(U1-RXD0-Pad36)*%
X64500000Y-111135000D03*
%TO.P,U1,37,TXD0_37*%
%TO.N,unconnected-(U1-TXD0-Pad37)*%
X63230000Y-111135000D03*
%TO.P,U1,38,IO2_38*%
%TO.N,T-SDA*%
X61960000Y-111135000D03*
%TO.P,U1,39,IO1_39*%
%TO.N,T-SCL*%
X60690000Y-111135000D03*
%TO.P,U1,40,GND_40*%
%TO.N,P-*%
X59420000Y-111135000D03*
D20*
%TO.P,U1,41,GND_41*%
X68540000Y-99485000D03*
X67140000Y-99485000D03*
X65740000Y-99485000D03*
X68540000Y-100885000D03*
X67140000Y-100885000D03*
X65740000Y-100885000D03*
X68540000Y-102285000D03*
X67140000Y-102285000D03*
X65740000Y-102285000D03*
%TD*%
D21*
%TO.N,T-SDA*%
X64310000Y-112710000D03*
%TO.N,D-3.3V*%
X70230000Y-81180000D03*
X74360000Y-106992500D03*
X86440000Y-70620000D03*
X74100000Y-70620000D03*
X73322500Y-77830000D03*
X73422500Y-82965000D03*
X66897500Y-104220000D03*
X65870000Y-95407500D03*
X88580000Y-100845000D03*
X67930000Y-83345000D03*
X69820000Y-84300000D03*
%TO.N,Net-(U1-IO0)*%
X72270000Y-106560000D03*
%TO.N,S-MISO*%
X63160000Y-85950000D03*
%TO.N,AGND*%
X82580000Y-83580000D03*
X104030000Y-78990000D03*
X79855000Y-94610000D03*
X75740000Y-89405000D03*
X86707500Y-89325000D03*
X87317500Y-75125000D03*
%TO.N,A-3.3V*%
X93520000Y-101270000D03*
X79900000Y-85850000D03*
X81170000Y-82015000D03*
X78760000Y-91070000D03*
%TO.N,GND*%
X76540000Y-79835000D03*
X78530000Y-84070000D03*
X88890000Y-105480000D03*
X94470000Y-103470000D03*
X88470000Y-97700000D03*
X85625000Y-95220000D03*
X88910000Y-93525000D03*
X73240000Y-76280000D03*
X99930000Y-110302500D03*
X107250000Y-105110000D03*
X74860000Y-84755000D03*
%TO.N,P-*%
X97240000Y-97632500D03*
X67940000Y-81135000D03*
X69830000Y-82710000D03*
X95660000Y-110175000D03*
X91535000Y-99770000D03*
X103062500Y-106515000D03*
X57370000Y-92165000D03*
X67080000Y-91325000D03*
X57370000Y-76645000D03*
X61400000Y-102315000D03*
X103260000Y-102745000D03*
X64780000Y-107950000D03*
X94865000Y-92555000D03*
X68090000Y-68990000D03*
X94975000Y-90770000D03*
X70230000Y-79630000D03*
X67080000Y-76645000D03*
X92050000Y-94085000D03*
X92405000Y-104850000D03*
X87022500Y-104470000D03*
%TO.N,P+*%
X88690000Y-94650000D03*
X99510000Y-105355000D03*
X98730000Y-69420000D03*
X107370000Y-101890000D03*
X90607500Y-96422500D03*
%TO.N,CE*%
X89940000Y-110175000D03*
X81420000Y-108015000D03*
X86220000Y-108015000D03*
%TO.N,Net-(SplitRegulator1-FB1P)*%
X93262500Y-91300000D03*
X96600000Y-94152500D03*
%TO.N,SW2*%
X104590000Y-100025000D03*
X102530000Y-69420000D03*
X90190000Y-92020000D03*
%TO.N,SW1*%
X82680000Y-91225000D03*
X55740000Y-68020000D03*
%TO.N,-12V*%
X104030000Y-93660000D03*
X94310000Y-87125000D03*
X88590000Y-82425000D03*
X94310000Y-80595000D03*
X96600000Y-92327500D03*
%TO.N,D-SDA*%
X86000000Y-73260000D03*
%TO.N,D-CS*%
X85170000Y-72990000D03*
%TO.N,D-SCL*%
X84600000Y-73500000D03*
%TO.N,D-DC*%
X83890000Y-72910000D03*
%TO.N,Net-(N-channel1-D)*%
X72470000Y-70660000D03*
X68072500Y-74430000D03*
%TO.N,+12V*%
X91760000Y-87125000D03*
X95060000Y-98832500D03*
%TO.N,S-MOSI*%
X65200000Y-86240000D03*
%TO.N,Auto-Pause*%
X83470000Y-99030000D03*
X85307500Y-93475000D03*
X97140000Y-104567500D03*
%TO.N,SCK*%
X67940000Y-87420000D03*
%TO.N,BCK*%
X68660000Y-88190000D03*
%TO.N,DIN*%
X69430000Y-89180000D03*
%TO.N,LRCK*%
X70040000Y-88460000D03*
%TO.N,Net-(U1-EN)*%
X62185000Y-86775000D03*
%TO.N,T-SCL*%
X65380000Y-113450000D03*
%TO.N,D+*%
X72080000Y-100310000D03*
X83710000Y-101550000D03*
%TO.N,D-*%
X71250000Y-100570000D03*
X83125000Y-102100000D03*
%TO.N,Head-D*%
X82740000Y-97750000D03*
X103800000Y-82830000D03*
%TO.N,D-Bright*%
X69970000Y-101390000D03*
X69947500Y-75380000D03*
%TO.N,S-CS*%
X65870000Y-87310000D03*
%TO.N,S-CLK*%
X64580000Y-85280000D03*
%TD*%
%TO.N,T-SDA*%
D22*
X61850000Y-111245000D02*
X61850000Y-112830000D01*
X63930000Y-113230000D02*
X64310000Y-112850000D01*
X61960000Y-111135000D02*
X61850000Y-111245000D01*
X61850000Y-112830000D02*
X62250000Y-113230000D01*
X64310000Y-112850000D02*
X64310000Y-112710000D01*
X62250000Y-113230000D02*
X63930000Y-113230000D01*
%TO.N,D-3.3V*%
X64055000Y-83345000D02*
X60690000Y-86710000D01*
X60690000Y-93635000D02*
X60690000Y-94300000D01*
X72087500Y-84300000D02*
X73422500Y-82965000D01*
X69820000Y-84300000D02*
X72087500Y-84300000D01*
X67930000Y-83345000D02*
X64055000Y-83345000D01*
X60690000Y-86710000D02*
X60690000Y-93635000D01*
X67930000Y-83345000D02*
X68885000Y-84300000D01*
X61797500Y-95407500D02*
X65870000Y-95407500D01*
X67930000Y-85295000D02*
X67930000Y-83345000D01*
X75330000Y-77830000D02*
X82540000Y-70620000D01*
X82540000Y-70620000D02*
X86440000Y-70620000D01*
X60690000Y-94300000D02*
X61797500Y-95407500D01*
X60690000Y-93635000D02*
X60690000Y-94330000D01*
X70560000Y-83560000D02*
X69820000Y-84300000D01*
X70560000Y-81510000D02*
X70560000Y-83560000D01*
X70230000Y-81180000D02*
X70560000Y-81510000D01*
X73322500Y-77830000D02*
X75330000Y-77830000D01*
X82540000Y-70620000D02*
X74100000Y-70620000D01*
X68885000Y-84300000D02*
X69820000Y-84300000D01*
%TO.N,Net-(U1-IO0)*%
X75930000Y-110387500D02*
X75930000Y-111135000D01*
X72270000Y-106727500D02*
X75930000Y-110387500D01*
X72270000Y-106560000D02*
X72270000Y-106727500D01*
%TO.N,S-MISO*%
X63160000Y-85950000D02*
X63160000Y-93565000D01*
X63160000Y-93565000D02*
X63230000Y-93635000D01*
%TO.N,A-3.3V*%
X79900000Y-90365000D02*
X79195000Y-91070000D01*
X88380000Y-101520000D02*
X93270000Y-101520000D01*
X79900000Y-85850000D02*
X79900000Y-90365000D01*
X93270000Y-101520000D02*
X93520000Y-101270000D01*
X81170000Y-82015000D02*
X81170000Y-84580000D01*
X81170000Y-84580000D02*
X79900000Y-85850000D01*
X80070000Y-92380000D02*
X80070000Y-93210000D01*
X80070000Y-93210000D02*
X88380000Y-101520000D01*
X78760000Y-91070000D02*
X80070000Y-92380000D01*
X79195000Y-91070000D02*
X78760000Y-91070000D01*
%TO.N,P-*%
X67140000Y-102285000D02*
X67140000Y-100885000D01*
X58840000Y-93635000D02*
X57370000Y-92165000D01*
X62970000Y-105865000D02*
X62827500Y-106007500D01*
X68540000Y-99485000D02*
X67140000Y-99485000D01*
X67140000Y-100885000D02*
X68540000Y-102285000D01*
X67140000Y-99485000D02*
X65740000Y-99485000D01*
X62827500Y-106007500D02*
X59350000Y-109485000D01*
X65710000Y-102315000D02*
X61400000Y-102315000D01*
X62970000Y-103015000D02*
X62970000Y-105865000D01*
X67140000Y-100885000D02*
X65740000Y-100885000D01*
X65740000Y-100885000D02*
X65740000Y-102285000D01*
X65740000Y-102285000D02*
X65710000Y-102315000D01*
X65740000Y-99485000D02*
X67140000Y-100885000D01*
X68540000Y-102285000D02*
X67140000Y-102285000D01*
X59420000Y-93635000D02*
X59420000Y-96200000D01*
X62827500Y-106007500D02*
X62837500Y-106007500D01*
X67140000Y-100885000D02*
X68540000Y-100885000D01*
X59350000Y-111065000D02*
X59420000Y-111135000D01*
X59350000Y-109485000D02*
X59350000Y-111065000D01*
X62705000Y-99485000D02*
X68540000Y-99485000D01*
X62837500Y-106007500D02*
X64780000Y-107950000D01*
X59420000Y-96200000D02*
X62705000Y-99485000D01*
X65740000Y-102285000D02*
X67140000Y-100885000D01*
X67140000Y-100885000D02*
X68540000Y-99485000D01*
X68540000Y-99485000D02*
X68540000Y-102285000D01*
X59420000Y-93635000D02*
X58840000Y-93635000D01*
X65740000Y-100885000D02*
X65740000Y-99485000D01*
X65740000Y-102285000D02*
X65010000Y-103015000D01*
X67140000Y-102285000D02*
X65740000Y-100885000D01*
X65010000Y-103015000D02*
X62970000Y-103015000D01*
X65740000Y-102285000D02*
X67140000Y-102285000D01*
%TO.N,CE*%
X81420000Y-108015000D02*
X86220000Y-108015000D01*
X81420000Y-108015000D02*
X83580000Y-110175000D01*
X83580000Y-110175000D02*
X89940000Y-110175000D01*
%TO.N,SW2*%
X108480000Y-72410000D02*
X108480000Y-97215000D01*
X105670000Y-100025000D02*
X104590000Y-100025000D01*
X108480000Y-97215000D02*
X105670000Y-100025000D01*
X89895000Y-92020000D02*
X89470000Y-92445000D01*
X89470000Y-92445000D02*
X89470000Y-98800000D01*
X102530000Y-69420000D02*
X103750000Y-70640000D01*
X89470000Y-98800000D02*
X92835000Y-98800000D01*
X90190000Y-92020000D02*
X89895000Y-92020000D01*
X108470000Y-72420000D02*
X108480000Y-72410000D01*
X106690000Y-70640000D02*
X108470000Y-72420000D01*
X94060000Y-100025000D02*
X104590000Y-100025000D01*
X103750000Y-70640000D02*
X106690000Y-70640000D01*
X92835000Y-98800000D02*
X94060000Y-100025000D01*
%TO.N,-12V*%
X97845000Y-87475000D02*
X94660000Y-87475000D01*
X96660000Y-89475000D02*
X94310000Y-87125000D01*
X104030000Y-93660000D02*
X97845000Y-87475000D01*
X94660000Y-87475000D02*
X94310000Y-87125000D01*
X96660000Y-92267500D02*
X96660000Y-89475000D01*
X92480000Y-82425000D02*
X88590000Y-82425000D01*
X94310000Y-80595000D02*
X92480000Y-82425000D01*
X96600000Y-92327500D02*
X96660000Y-92267500D01*
%TO.N,D-SDA*%
X78980000Y-97770000D02*
X77535000Y-99215000D01*
X85960000Y-73260000D02*
X85780000Y-73440000D01*
X85780000Y-73440000D02*
X85780000Y-75485000D01*
X77890000Y-83375000D02*
X77890000Y-91559314D01*
X85780000Y-75485000D02*
X77890000Y-83375000D01*
X77535000Y-99215000D02*
X77200000Y-99215000D01*
X77890000Y-91559314D02*
X78980000Y-92649314D01*
X78980000Y-92649314D02*
X78980000Y-97770000D01*
X86000000Y-73260000D02*
X85960000Y-73260000D01*
%TO.N,D-CS*%
X85170000Y-75530000D02*
X77490000Y-83210000D01*
X78630000Y-92865000D02*
X78630000Y-96930000D01*
X85170000Y-72990000D02*
X85170000Y-75530000D01*
X77625000Y-97935000D02*
X77200000Y-97935000D01*
X78630000Y-96930000D02*
X77625000Y-97935000D01*
X77490000Y-91725000D02*
X78630000Y-92865000D01*
X77490000Y-83210000D02*
X77490000Y-91725000D01*
%TO.N,D-SCL*%
X77140000Y-92005000D02*
X78250000Y-93115000D01*
X77140000Y-82720000D02*
X77140000Y-92005000D01*
X78250000Y-93115000D02*
X78250000Y-96100000D01*
X84600000Y-73500000D02*
X84600000Y-75260000D01*
X78250000Y-96100000D02*
X77685000Y-96665000D01*
X84600000Y-75260000D02*
X77140000Y-82720000D01*
X77685000Y-96665000D02*
X77200000Y-96665000D01*
%TO.N,D-DC*%
X77200000Y-93415000D02*
X77200000Y-95395000D01*
X77510000Y-93105000D02*
X77200000Y-93415000D01*
X76460000Y-92055000D02*
X77510000Y-93105000D01*
X83890000Y-75180000D02*
X76460000Y-82610000D01*
X83890000Y-72910000D02*
X83890000Y-75180000D01*
X76460000Y-82610000D02*
X76460000Y-92055000D01*
%TO.N,Net-(N-channel1-D)*%
X72470000Y-70660000D02*
X71842500Y-70660000D01*
X71842500Y-70660000D02*
X68072500Y-74430000D01*
%TO.N,+12V*%
X92730000Y-98440000D02*
X91350000Y-97060000D01*
X95060000Y-98832500D02*
X94667500Y-98440000D01*
X91350000Y-87535000D02*
X91760000Y-87125000D01*
X94667500Y-98440000D02*
X92730000Y-98440000D01*
X91350000Y-97060000D02*
X91350000Y-87535000D01*
%TO.N,S-MOSI*%
X65200000Y-93065000D02*
X65770000Y-93635000D01*
X65200000Y-86240000D02*
X65200000Y-93065000D01*
%TO.N,Auto-Pause*%
X80745000Y-101755000D02*
X83470000Y-99030000D01*
X77200000Y-101755000D02*
X80745000Y-101755000D01*
%TO.N,SCK*%
X67940000Y-87420000D02*
X67940000Y-93265000D01*
X67940000Y-93265000D02*
X68310000Y-93635000D01*
%TO.N,BCK*%
X69510000Y-91800000D02*
X69510000Y-93565000D01*
X69510000Y-93565000D02*
X69580000Y-93635000D01*
X68660000Y-88190000D02*
X68660000Y-90950000D01*
X68660000Y-90950000D02*
X69510000Y-91800000D01*
%TO.N,DIN*%
X69430000Y-89180000D02*
X69430000Y-89560000D01*
X69430000Y-89560000D02*
X70780000Y-90910000D01*
X70780000Y-90910000D02*
X70780000Y-93565000D01*
X70780000Y-93565000D02*
X70850000Y-93635000D01*
%TO.N,LRCK*%
X72120000Y-90540000D02*
X72120000Y-93635000D01*
X70040000Y-88460000D02*
X72120000Y-90540000D01*
%TO.N,Net-(U1-EN)*%
X62185000Y-86775000D02*
X62210000Y-86750000D01*
X61960000Y-87000000D02*
X62185000Y-86775000D01*
X61960000Y-93635000D02*
X61960000Y-87000000D01*
%TO.N,T-SCL*%
X60690000Y-111135000D02*
X60690000Y-113550000D01*
X64800000Y-114030000D02*
X65380000Y-113450000D01*
X60690000Y-113550000D02*
X61170000Y-114030000D01*
X61170000Y-114030000D02*
X64800000Y-114030000D01*
%TO.N,D+*%
X74360000Y-96500000D02*
X75930000Y-94930000D01*
X74360000Y-98030000D02*
X74360000Y-96500000D01*
X72080000Y-100310000D02*
X74360000Y-98030000D01*
X75930000Y-94930000D02*
X75930000Y-93635000D01*
%TO.N,D-*%
X73620000Y-97830000D02*
X73620000Y-96050000D01*
X74660000Y-95010000D02*
X74660000Y-93635000D01*
X73620000Y-96050000D02*
X74660000Y-95010000D01*
X71250000Y-100200000D02*
X73620000Y-97830000D01*
X71250000Y-100570000D02*
X71250000Y-100200000D01*
%TO.N,Head-D*%
X80005000Y-100485000D02*
X82740000Y-97750000D01*
X77200000Y-100485000D02*
X80005000Y-100485000D01*
%TO.N,D-Bright*%
X69980000Y-101390000D02*
X71615000Y-103025000D01*
X71615000Y-103025000D02*
X77200000Y-103025000D01*
X69970000Y-101390000D02*
X69980000Y-101390000D01*
%TO.N,S-CS*%
X66790000Y-92520000D02*
X66790000Y-93385000D01*
X65870000Y-87310000D02*
X65870000Y-91600000D01*
X66790000Y-93385000D02*
X67040000Y-93635000D01*
X65870000Y-91600000D02*
X66790000Y-92520000D01*
%TO.N,S-CLK*%
X64580000Y-93555000D02*
X64500000Y-93635000D01*
X64580000Y-85280000D02*
X64580000Y-93555000D01*
%TD*%
%TA.AperFunction,Conductor*%
%TO.N,GND*%
G36*
X58294830Y-93939505D02*
G01*
X58301257Y-93945492D01*
X58359478Y-94003713D01*
X58359480Y-94003716D01*
X58433183Y-94077419D01*
X58441649Y-94092924D01*
X58466666Y-94138739D01*
X58466665Y-94138740D01*
X58466666Y-94138741D01*
X58469500Y-94165098D01*
X58469500Y-94432869D01*
X58469501Y-94432876D01*
X58475908Y-94492483D01*
X58526202Y-94627328D01*
X58526206Y-94627335D01*
X58612452Y-94742544D01*
X58612455Y-94742547D01*
X58727665Y-94828794D01*
X58727667Y-94828794D01*
X58727669Y-94828796D01*
X58738830Y-94832958D01*
X58794764Y-94874826D01*
X58819184Y-94940289D01*
X58819500Y-94949141D01*
X58819500Y-96113330D01*
X58819499Y-96113348D01*
X58819499Y-96279054D01*
X58819498Y-96279054D01*
X58860423Y-96431785D01*
X58889358Y-96481900D01*
X58889359Y-96481904D01*
X58889360Y-96481904D01*
X58939479Y-96568714D01*
X58939481Y-96568717D01*
X59058349Y-96687585D01*
X59058354Y-96687589D01*
X62336284Y-99965520D01*
X62336286Y-99965521D01*
X62336290Y-99965524D01*
X62469589Y-100042483D01*
X62473216Y-100044577D01*
X62625943Y-100085501D01*
X62625945Y-100085501D01*
X62791654Y-100085501D01*
X62791670Y-100085500D01*
X64707582Y-100085500D01*
X64774621Y-100105185D01*
X64820376Y-100157989D01*
X64830320Y-100227147D01*
X64823764Y-100252833D01*
X64795908Y-100327517D01*
X64789890Y-100383501D01*
X64789501Y-100387123D01*
X64789500Y-100387135D01*
X64789500Y-101382870D01*
X64789501Y-101382876D01*
X64795909Y-101442484D01*
X64832901Y-101541668D01*
X64834784Y-101568011D01*
X64840405Y-101593819D01*
X64837565Y-101606887D01*
X64837885Y-101611360D01*
X64832910Y-101628308D01*
X64830860Y-101633808D01*
X64789002Y-101689751D01*
X64723543Y-101714182D01*
X64714669Y-101714500D01*
X61979766Y-101714500D01*
X61912727Y-101694815D01*
X61910875Y-101693602D01*
X61779185Y-101605609D01*
X61779172Y-101605602D01*
X61633501Y-101545264D01*
X61633489Y-101545261D01*
X61478845Y-101514500D01*
X61478842Y-101514500D01*
X61321158Y-101514500D01*
X61321155Y-101514500D01*
X61166510Y-101545261D01*
X61166498Y-101545264D01*
X61020827Y-101605602D01*
X61020814Y-101605609D01*
X60889711Y-101693210D01*
X60889707Y-101693213D01*
X60778213Y-101804707D01*
X60778210Y-101804711D01*
X60690609Y-101935814D01*
X60690602Y-101935827D01*
X60630264Y-102081498D01*
X60630261Y-102081510D01*
X60599500Y-102236153D01*
X60599500Y-102393846D01*
X60630261Y-102548489D01*
X60630264Y-102548501D01*
X60690602Y-102694172D01*
X60690609Y-102694185D01*
X60778210Y-102825288D01*
X60778213Y-102825292D01*
X60889707Y-102936786D01*
X60889711Y-102936789D01*
X61020814Y-103024390D01*
X61020827Y-103024397D01*
X61166498Y-103084735D01*
X61166503Y-103084737D01*
X61321153Y-103115499D01*
X61321156Y-103115500D01*
X61321158Y-103115500D01*
X61478844Y-103115500D01*
X61478845Y-103115499D01*
X61633497Y-103084737D01*
X61779179Y-103024394D01*
X61849614Y-102977331D01*
X61910875Y-102936398D01*
X61977553Y-102915520D01*
X61979766Y-102915500D01*
X62245500Y-102915500D01*
X62312539Y-102935185D01*
X62358294Y-102987989D01*
X62369500Y-103039500D01*
X62369500Y-105564902D01*
X62349815Y-105631941D01*
X62333181Y-105652583D01*
X58869481Y-109116282D01*
X58869479Y-109116284D01*
X58849181Y-109151443D01*
X58840601Y-109166305D01*
X58790423Y-109253215D01*
X58749499Y-109405943D01*
X58749499Y-109405945D01*
X58749499Y-109574046D01*
X58749500Y-109574059D01*
X58749500Y-109862791D01*
X58729815Y-109929830D01*
X58699812Y-109962057D01*
X58612452Y-110027455D01*
X58526206Y-110142664D01*
X58526202Y-110142671D01*
X58475908Y-110277517D01*
X58469501Y-110337116D01*
X58469500Y-110337135D01*
X58469500Y-111932870D01*
X58469501Y-111932876D01*
X58475908Y-111992483D01*
X58526202Y-112127328D01*
X58526206Y-112127335D01*
X58612452Y-112242544D01*
X58612455Y-112242547D01*
X58727664Y-112328793D01*
X58727671Y-112328797D01*
X58862517Y-112379091D01*
X58862516Y-112379091D01*
X58869444Y-112379835D01*
X58922127Y-112385500D01*
X59917872Y-112385499D01*
X59917874Y-112385498D01*
X59917887Y-112385498D01*
X59946803Y-112382388D01*
X59952244Y-112381804D01*
X60021003Y-112394208D01*
X60072141Y-112441818D01*
X60089500Y-112505093D01*
X60089500Y-113463330D01*
X60089499Y-113463348D01*
X60089499Y-113629054D01*
X60089498Y-113629054D01*
X60130423Y-113781785D01*
X60159358Y-113831900D01*
X60159359Y-113831904D01*
X60159360Y-113831904D01*
X60209480Y-113918716D01*
X60321284Y-114030520D01*
X60321285Y-114030521D01*
X60801284Y-114510520D01*
X60801286Y-114510521D01*
X60801290Y-114510524D01*
X60938209Y-114589573D01*
X60938216Y-114589577D01*
X61090943Y-114630501D01*
X61090945Y-114630501D01*
X61256654Y-114630501D01*
X61256670Y-114630500D01*
X64713331Y-114630500D01*
X64713347Y-114630501D01*
X64720943Y-114630501D01*
X64879054Y-114630501D01*
X64879057Y-114630501D01*
X65031785Y-114589577D01*
X65081904Y-114560639D01*
X65168716Y-114510520D01*
X65280520Y-114398716D01*
X65280520Y-114398714D01*
X65290728Y-114388507D01*
X65290730Y-114388504D01*
X65394662Y-114284572D01*
X65455984Y-114251088D01*
X65458151Y-114250637D01*
X65458840Y-114250500D01*
X65458842Y-114250500D01*
X65613497Y-114219737D01*
X65759179Y-114159394D01*
X65890289Y-114071789D01*
X66001789Y-113960289D01*
X66089394Y-113829179D01*
X66099249Y-113805388D01*
X66149735Y-113683501D01*
X66149737Y-113683497D01*
X66180500Y-113528842D01*
X66180500Y-113371158D01*
X66180500Y-113371155D01*
X66180499Y-113371153D01*
X66153126Y-113233543D01*
X78499499Y-113233543D01*
X78537947Y-113426829D01*
X78537950Y-113426839D01*
X78613364Y-113608907D01*
X78613371Y-113608920D01*
X78722860Y-113772781D01*
X78722863Y-113772785D01*
X78862214Y-113912136D01*
X78862218Y-113912139D01*
X79026079Y-114021628D01*
X79026092Y-114021635D01*
X79208160Y-114097049D01*
X79208165Y-114097051D01*
X79208169Y-114097051D01*
X79208170Y-114097052D01*
X79401456Y-114135500D01*
X79401459Y-114135500D01*
X79598543Y-114135500D01*
X79728582Y-114109632D01*
X79791835Y-114097051D01*
X79973914Y-114021632D01*
X80137782Y-113912139D01*
X80277139Y-113772782D01*
X80386632Y-113608914D01*
X80462051Y-113426835D01*
X80500500Y-113233543D01*
X87139499Y-113233543D01*
X87177947Y-113426829D01*
X87177950Y-113426839D01*
X87253364Y-113608907D01*
X87253371Y-113608920D01*
X87362860Y-113772781D01*
X87362863Y-113772785D01*
X87502214Y-113912136D01*
X87502218Y-113912139D01*
X87666079Y-114021628D01*
X87666092Y-114021635D01*
X87848160Y-114097049D01*
X87848165Y-114097051D01*
X87848169Y-114097051D01*
X87848170Y-114097052D01*
X88041456Y-114135500D01*
X88041459Y-114135500D01*
X88238543Y-114135500D01*
X88368582Y-114109632D01*
X88431835Y-114097051D01*
X88613914Y-114021632D01*
X88777782Y-113912139D01*
X88917139Y-113772782D01*
X89026632Y-113608914D01*
X89102051Y-113426835D01*
X89140500Y-113233541D01*
X89140500Y-112236459D01*
X89140500Y-112236456D01*
X89102052Y-112043170D01*
X89102051Y-112043169D01*
X89102051Y-112043165D01*
X89056366Y-111932870D01*
X89026635Y-111861092D01*
X89026628Y-111861079D01*
X88917139Y-111697218D01*
X88917136Y-111697214D01*
X88777785Y-111557863D01*
X88777781Y-111557860D01*
X88613920Y-111448371D01*
X88613907Y-111448364D01*
X88431839Y-111372950D01*
X88431829Y-111372947D01*
X88238543Y-111334500D01*
X88238541Y-111334500D01*
X88041459Y-111334500D01*
X88041457Y-111334500D01*
X87848170Y-111372947D01*
X87848160Y-111372950D01*
X87666092Y-111448364D01*
X87666079Y-111448371D01*
X87502218Y-111557860D01*
X87502214Y-111557863D01*
X87362863Y-111697214D01*
X87362860Y-111697218D01*
X87253371Y-111861079D01*
X87253364Y-111861092D01*
X87177950Y-112043160D01*
X87177947Y-112043170D01*
X87139500Y-112236456D01*
X87139500Y-112236459D01*
X87139500Y-113233541D01*
X87139500Y-113233543D01*
X87139499Y-113233543D01*
X80500500Y-113233543D01*
X80500500Y-113233541D01*
X80500500Y-112236459D01*
X80500500Y-112236456D01*
X80462052Y-112043170D01*
X80462051Y-112043169D01*
X80462051Y-112043165D01*
X80416366Y-111932870D01*
X80386635Y-111861092D01*
X80386628Y-111861079D01*
X80277139Y-111697218D01*
X80277136Y-111697214D01*
X80137785Y-111557863D01*
X80137781Y-111557860D01*
X79973920Y-111448371D01*
X79973907Y-111448364D01*
X79791839Y-111372950D01*
X79791829Y-111372947D01*
X79598543Y-111334500D01*
X79598541Y-111334500D01*
X79401459Y-111334500D01*
X79401457Y-111334500D01*
X79208170Y-111372947D01*
X79208160Y-111372950D01*
X79026092Y-111448364D01*
X79026079Y-111448371D01*
X78862218Y-111557860D01*
X78862214Y-111557863D01*
X78722863Y-111697214D01*
X78722860Y-111697218D01*
X78613371Y-111861079D01*
X78613364Y-111861092D01*
X78537950Y-112043160D01*
X78537947Y-112043170D01*
X78499500Y-112236456D01*
X78499500Y-112236459D01*
X78499500Y-113233541D01*
X78499500Y-113233543D01*
X78499499Y-113233543D01*
X66153126Y-113233543D01*
X66149738Y-113216510D01*
X66149737Y-113216503D01*
X66149735Y-113216498D01*
X66089397Y-113070827D01*
X66089390Y-113070814D01*
X66001789Y-112939711D01*
X66001786Y-112939707D01*
X65890292Y-112828213D01*
X65890288Y-112828210D01*
X65759185Y-112740609D01*
X65759172Y-112740602D01*
X65613501Y-112680264D01*
X65613489Y-112680261D01*
X65458845Y-112649500D01*
X65458842Y-112649500D01*
X65301158Y-112649500D01*
X65301155Y-112649500D01*
X65242883Y-112661091D01*
X65233866Y-112660284D01*
X65225329Y-112663296D01*
X65199613Y-112657219D01*
X65173292Y-112654864D01*
X65166142Y-112649309D01*
X65157332Y-112647228D01*
X65138983Y-112628212D01*
X65118114Y-112612001D01*
X65113819Y-112602134D01*
X65108816Y-112596949D01*
X65097075Y-112563665D01*
X65089960Y-112527895D01*
X65096187Y-112458303D01*
X65139050Y-112403126D01*
X65204940Y-112379882D01*
X65224831Y-112380414D01*
X65272127Y-112385500D01*
X66267872Y-112385499D01*
X66327483Y-112379091D01*
X66361667Y-112366340D01*
X66431358Y-112361357D01*
X66448327Y-112366338D01*
X66482517Y-112379091D01*
X66542127Y-112385500D01*
X67537872Y-112385499D01*
X67597483Y-112379091D01*
X67631667Y-112366340D01*
X67701358Y-112361357D01*
X67718327Y-112366338D01*
X67752517Y-112379091D01*
X67812127Y-112385500D01*
X68807872Y-112385499D01*
X68867483Y-112379091D01*
X68901667Y-112366340D01*
X68971358Y-112361357D01*
X68988327Y-112366338D01*
X69022517Y-112379091D01*
X69082127Y-112385500D01*
X70077872Y-112385499D01*
X70137483Y-112379091D01*
X70171667Y-112366340D01*
X70241358Y-112361357D01*
X70258327Y-112366338D01*
X70292517Y-112379091D01*
X70352127Y-112385500D01*
X71347872Y-112385499D01*
X71407483Y-112379091D01*
X71441667Y-112366340D01*
X71511358Y-112361357D01*
X71528327Y-112366338D01*
X71562517Y-112379091D01*
X71622127Y-112385500D01*
X72617872Y-112385499D01*
X72677483Y-112379091D01*
X72711667Y-112366340D01*
X72781358Y-112361357D01*
X72798327Y-112366338D01*
X72832517Y-112379091D01*
X72892127Y-112385500D01*
X73887872Y-112385499D01*
X73947483Y-112379091D01*
X73981667Y-112366340D01*
X74051358Y-112361357D01*
X74068327Y-112366338D01*
X74102517Y-112379091D01*
X74162127Y-112385500D01*
X75157872Y-112385499D01*
X75217483Y-112379091D01*
X75251667Y-112366340D01*
X75321358Y-112361357D01*
X75338327Y-112366338D01*
X75372517Y-112379091D01*
X75432127Y-112385500D01*
X76427872Y-112385499D01*
X76487483Y-112379091D01*
X76622331Y-112328796D01*
X76737546Y-112242546D01*
X76823796Y-112127331D01*
X76874091Y-111992483D01*
X76880500Y-111932873D01*
X76880499Y-110449498D01*
X76900184Y-110382460D01*
X76952987Y-110336705D01*
X77004499Y-110325499D01*
X77967871Y-110325499D01*
X77967872Y-110325499D01*
X78027483Y-110319091D01*
X78162331Y-110268796D01*
X78277546Y-110182546D01*
X78363796Y-110067331D01*
X78414091Y-109932483D01*
X78420500Y-109872873D01*
X78420499Y-109729038D01*
X78440183Y-109662001D01*
X78492987Y-109616246D01*
X78562145Y-109606302D01*
X78625701Y-109635327D01*
X78647601Y-109660149D01*
X78722860Y-109772781D01*
X78722863Y-109772785D01*
X78862214Y-109912136D01*
X78862218Y-109912139D01*
X79026079Y-110021628D01*
X79026092Y-110021635D01*
X79205997Y-110096153D01*
X79208165Y-110097051D01*
X79208169Y-110097051D01*
X79208170Y-110097052D01*
X79401456Y-110135500D01*
X79401459Y-110135500D01*
X79598543Y-110135500D01*
X79728582Y-110109632D01*
X79791835Y-110097051D01*
X79973914Y-110021632D01*
X80137782Y-109912139D01*
X80190154Y-109859767D01*
X80281447Y-109768475D01*
X80282830Y-109769858D01*
X80333101Y-109735603D01*
X80402945Y-109733720D01*
X80440119Y-109750493D01*
X80538977Y-109816547D01*
X80538980Y-109816549D01*
X80674938Y-109872864D01*
X80689211Y-109878776D01*
X80689215Y-109878776D01*
X80689216Y-109878777D01*
X80848692Y-109910500D01*
X80848695Y-109910500D01*
X81011307Y-109910500D01*
X81118598Y-109889157D01*
X81170789Y-109878776D01*
X81321021Y-109816548D01*
X81321023Y-109816547D01*
X81442164Y-109735603D01*
X81456225Y-109726208D01*
X81571208Y-109611225D01*
X81661548Y-109476021D01*
X81663000Y-109472517D01*
X81698970Y-109385676D01*
X81742810Y-109331272D01*
X81809104Y-109309207D01*
X81876804Y-109326486D01*
X81901212Y-109345447D01*
X83095139Y-110539374D01*
X83095149Y-110539385D01*
X83099479Y-110543715D01*
X83099480Y-110543716D01*
X83211284Y-110655520D01*
X83281890Y-110696284D01*
X83348215Y-110734577D01*
X83500942Y-110775500D01*
X83500943Y-110775500D01*
X89360234Y-110775500D01*
X89427273Y-110795185D01*
X89429125Y-110796398D01*
X89560814Y-110884390D01*
X89560827Y-110884397D01*
X89706498Y-110944735D01*
X89706503Y-110944737D01*
X89861153Y-110975499D01*
X89861156Y-110975500D01*
X89861158Y-110975500D01*
X90018844Y-110975500D01*
X90018845Y-110975499D01*
X90173497Y-110944737D01*
X90319179Y-110884394D01*
X90450289Y-110796789D01*
X90561789Y-110685289D01*
X90649394Y-110554179D01*
X90709737Y-110408497D01*
X90740500Y-110253842D01*
X90740500Y-110096158D01*
X90740500Y-110096155D01*
X90740499Y-110096153D01*
X94859500Y-110096153D01*
X94859500Y-110253846D01*
X94890261Y-110408489D01*
X94890264Y-110408501D01*
X94950602Y-110554172D01*
X94950609Y-110554185D01*
X95038210Y-110685288D01*
X95038213Y-110685292D01*
X95149707Y-110796786D01*
X95149711Y-110796789D01*
X95280814Y-110884390D01*
X95280827Y-110884397D01*
X95426498Y-110944735D01*
X95426503Y-110944737D01*
X95581153Y-110975499D01*
X95581156Y-110975500D01*
X95581158Y-110975500D01*
X95738844Y-110975500D01*
X95738845Y-110975499D01*
X95893497Y-110944737D01*
X96039179Y-110884394D01*
X96170289Y-110796789D01*
X96281789Y-110685289D01*
X96369394Y-110554179D01*
X96429737Y-110408497D01*
X96460500Y-110253842D01*
X96460500Y-110096158D01*
X96460500Y-110096155D01*
X96460499Y-110096153D01*
X96429738Y-109941510D01*
X96429737Y-109941503D01*
X96426001Y-109932483D01*
X96369397Y-109795827D01*
X96369390Y-109795814D01*
X96281789Y-109664711D01*
X96281786Y-109664707D01*
X96170292Y-109553213D01*
X96170288Y-109553210D01*
X96039185Y-109465609D01*
X96039172Y-109465602D01*
X95893501Y-109405264D01*
X95893489Y-109405261D01*
X95738845Y-109374500D01*
X95738842Y-109374500D01*
X95581158Y-109374500D01*
X95581155Y-109374500D01*
X95426510Y-109405261D01*
X95426498Y-109405264D01*
X95280827Y-109465602D01*
X95280814Y-109465609D01*
X95149711Y-109553210D01*
X95149707Y-109553213D01*
X95038213Y-109664707D01*
X95038210Y-109664711D01*
X94950609Y-109795814D01*
X94950602Y-109795827D01*
X94890264Y-109941498D01*
X94890261Y-109941510D01*
X94859500Y-110096153D01*
X90740499Y-110096153D01*
X90709738Y-109941510D01*
X90709737Y-109941503D01*
X90706001Y-109932483D01*
X90649397Y-109795827D01*
X90649390Y-109795814D01*
X90561789Y-109664711D01*
X90561786Y-109664707D01*
X90450292Y-109553213D01*
X90450288Y-109553210D01*
X90319185Y-109465609D01*
X90319172Y-109465602D01*
X90173501Y-109405264D01*
X90173489Y-109405261D01*
X90018845Y-109374500D01*
X90018842Y-109374500D01*
X89861158Y-109374500D01*
X89861155Y-109374500D01*
X89706510Y-109405261D01*
X89706498Y-109405264D01*
X89560827Y-109465602D01*
X89560814Y-109465609D01*
X89429125Y-109553602D01*
X89411078Y-109559252D01*
X89395169Y-109569477D01*
X89364207Y-109573928D01*
X89362447Y-109574480D01*
X89360234Y-109574500D01*
X89223773Y-109574500D01*
X89156734Y-109554815D01*
X89110979Y-109502011D01*
X89101035Y-109432853D01*
X89102156Y-109426308D01*
X89140500Y-109233543D01*
X89140500Y-107936456D01*
X89102052Y-107743170D01*
X89102051Y-107743169D01*
X89102051Y-107743165D01*
X89089536Y-107712950D01*
X89026635Y-107561092D01*
X89026628Y-107561079D01*
X88917139Y-107397218D01*
X88917136Y-107397214D01*
X88777785Y-107257863D01*
X88777781Y-107257860D01*
X88613920Y-107148371D01*
X88613907Y-107148364D01*
X88431839Y-107072950D01*
X88431829Y-107072947D01*
X88238543Y-107034500D01*
X88238541Y-107034500D01*
X88041459Y-107034500D01*
X88041457Y-107034500D01*
X87848170Y-107072947D01*
X87848160Y-107072950D01*
X87666092Y-107148364D01*
X87666079Y-107148371D01*
X87502218Y-107257860D01*
X87502214Y-107257863D01*
X87362863Y-107397214D01*
X87362860Y-107397218D01*
X87253371Y-107561079D01*
X87253364Y-107561092D01*
X87190464Y-107712950D01*
X87146623Y-107767354D01*
X87080329Y-107789419D01*
X87012630Y-107772140D01*
X86965019Y-107721003D01*
X86961342Y-107712950D01*
X86929397Y-107635827D01*
X86929390Y-107635814D01*
X86841789Y-107504711D01*
X86841786Y-107504707D01*
X86730292Y-107393213D01*
X86730288Y-107393210D01*
X86599185Y-107305609D01*
X86599172Y-107305602D01*
X86453501Y-107245264D01*
X86453489Y-107245261D01*
X86298845Y-107214500D01*
X86298842Y-107214500D01*
X86141158Y-107214500D01*
X86141155Y-107214500D01*
X85986510Y-107245261D01*
X85986498Y-107245264D01*
X85840827Y-107305602D01*
X85840814Y-107305609D01*
X85709125Y-107393602D01*
X85642447Y-107414480D01*
X85640234Y-107414500D01*
X81999766Y-107414500D01*
X81932727Y-107394815D01*
X81930875Y-107393602D01*
X81799185Y-107305609D01*
X81799172Y-107305602D01*
X81653501Y-107245264D01*
X81653489Y-107245261D01*
X81498845Y-107214500D01*
X81498842Y-107214500D01*
X81341158Y-107214500D01*
X81341155Y-107214500D01*
X81186510Y-107245261D01*
X81186498Y-107245264D01*
X81040827Y-107305602D01*
X81040814Y-107305609D01*
X80909711Y-107393210D01*
X80909707Y-107393213D01*
X80798213Y-107504707D01*
X80798210Y-107504711D01*
X80710609Y-107635814D01*
X80710604Y-107635824D01*
X80678657Y-107712951D01*
X80634815Y-107767355D01*
X80568521Y-107789419D01*
X80500822Y-107772139D01*
X80453212Y-107721002D01*
X80449551Y-107712988D01*
X80386632Y-107561086D01*
X80386630Y-107561083D01*
X80386628Y-107561079D01*
X80277139Y-107397218D01*
X80277136Y-107397214D01*
X80137785Y-107257863D01*
X80137781Y-107257860D01*
X79973920Y-107148371D01*
X79973907Y-107148364D01*
X79791839Y-107072950D01*
X79791829Y-107072947D01*
X79598543Y-107034500D01*
X79598541Y-107034500D01*
X79401459Y-107034500D01*
X79401457Y-107034500D01*
X79208170Y-107072947D01*
X79208160Y-107072950D01*
X79026092Y-107148364D01*
X79026079Y-107148371D01*
X78862218Y-107257860D01*
X78862214Y-107257863D01*
X78722863Y-107397214D01*
X78670356Y-107475796D01*
X78616743Y-107520600D01*
X78547418Y-107529307D01*
X78484391Y-107499152D01*
X78447672Y-107439708D01*
X78443965Y-107393647D01*
X78444089Y-107392486D01*
X78444091Y-107392483D01*
X78450500Y-107332873D01*
X78450499Y-106436153D01*
X102262000Y-106436153D01*
X102262000Y-106593846D01*
X102292761Y-106748489D01*
X102292764Y-106748501D01*
X102353102Y-106894172D01*
X102353109Y-106894185D01*
X102440710Y-107025288D01*
X102440713Y-107025292D01*
X102552207Y-107136786D01*
X102552211Y-107136789D01*
X102683314Y-107224390D01*
X102683327Y-107224397D01*
X102791959Y-107269393D01*
X102829003Y-107284737D01*
X102983653Y-107315499D01*
X102983656Y-107315500D01*
X102983658Y-107315500D01*
X103141344Y-107315500D01*
X103141345Y-107315499D01*
X103295997Y-107284737D01*
X103408666Y-107238067D01*
X103441672Y-107224397D01*
X103441672Y-107224396D01*
X103441679Y-107224394D01*
X103572789Y-107136789D01*
X103684289Y-107025289D01*
X103771894Y-106894179D01*
X103832237Y-106748497D01*
X103863000Y-106593842D01*
X103863000Y-106436158D01*
X103863000Y-106436155D01*
X103862999Y-106436153D01*
X103843303Y-106337135D01*
X103832237Y-106281503D01*
X103807907Y-106222764D01*
X103771897Y-106135827D01*
X103771890Y-106135814D01*
X103684289Y-106004711D01*
X103684286Y-106004707D01*
X103572792Y-105893213D01*
X103572788Y-105893210D01*
X103441685Y-105805609D01*
X103441672Y-105805602D01*
X103296001Y-105745264D01*
X103295989Y-105745261D01*
X103141345Y-105714500D01*
X103141342Y-105714500D01*
X102983658Y-105714500D01*
X102983655Y-105714500D01*
X102829010Y-105745261D01*
X102828998Y-105745264D01*
X102683327Y-105805602D01*
X102683314Y-105805609D01*
X102552211Y-105893210D01*
X102552207Y-105893213D01*
X102440713Y-106004707D01*
X102440710Y-106004711D01*
X102353109Y-106135814D01*
X102353102Y-106135827D01*
X102292764Y-106281498D01*
X102292761Y-106281510D01*
X102262000Y-106436153D01*
X78450499Y-106436153D01*
X78450499Y-106337128D01*
X78444091Y-106277517D01*
X78426110Y-106229308D01*
X78424367Y-106214440D01*
X78427824Y-106194161D01*
X78426357Y-106173642D01*
X78431340Y-106156669D01*
X78444091Y-106122483D01*
X78450500Y-106062873D01*
X78450499Y-105067128D01*
X78444091Y-105007517D01*
X78431340Y-104973332D01*
X78426357Y-104903642D01*
X78431340Y-104886669D01*
X78444091Y-104852483D01*
X78450500Y-104792873D01*
X78450499Y-104391153D01*
X86222000Y-104391153D01*
X86222000Y-104548846D01*
X86252761Y-104703489D01*
X86252764Y-104703501D01*
X86313102Y-104849172D01*
X86313109Y-104849185D01*
X86400710Y-104980288D01*
X86400713Y-104980292D01*
X86512207Y-105091786D01*
X86512211Y-105091789D01*
X86643314Y-105179390D01*
X86643327Y-105179397D01*
X86763528Y-105229185D01*
X86789003Y-105239737D01*
X86943653Y-105270499D01*
X86943656Y-105270500D01*
X86943658Y-105270500D01*
X87101344Y-105270500D01*
X87101345Y-105270499D01*
X87255997Y-105239737D01*
X87401679Y-105179394D01*
X87532789Y-105091789D01*
X87644289Y-104980289D01*
X87731894Y-104849179D01*
X87751850Y-104801001D01*
X87764213Y-104771153D01*
X91604500Y-104771153D01*
X91604500Y-104928846D01*
X91635261Y-105083489D01*
X91635264Y-105083501D01*
X91695602Y-105229172D01*
X91695609Y-105229185D01*
X91783210Y-105360288D01*
X91783213Y-105360292D01*
X91894707Y-105471786D01*
X91894711Y-105471789D01*
X92025814Y-105559390D01*
X92025827Y-105559397D01*
X92163118Y-105616264D01*
X92171503Y-105619737D01*
X92326153Y-105650499D01*
X92326156Y-105650500D01*
X92326158Y-105650500D01*
X92483844Y-105650500D01*
X92483845Y-105650499D01*
X92638497Y-105619737D01*
X92751166Y-105573067D01*
X92784172Y-105559397D01*
X92784172Y-105559396D01*
X92784179Y-105559394D01*
X92915289Y-105471789D01*
X93026789Y-105360289D01*
X93114394Y-105229179D01*
X93174737Y-105083497D01*
X93205500Y-104928842D01*
X93205500Y-104771158D01*
X93205500Y-104771155D01*
X93205499Y-104771153D01*
X93197371Y-104730292D01*
X93174737Y-104616503D01*
X93121780Y-104488653D01*
X96339500Y-104488653D01*
X96339500Y-104646346D01*
X96370261Y-104800989D01*
X96370264Y-104801001D01*
X96430602Y-104946672D01*
X96430609Y-104946685D01*
X96518210Y-105077788D01*
X96518213Y-105077792D01*
X96629707Y-105189286D01*
X96629711Y-105189289D01*
X96760814Y-105276890D01*
X96760827Y-105276897D01*
X96906498Y-105337235D01*
X96906503Y-105337237D01*
X97022408Y-105360292D01*
X97061153Y-105367999D01*
X97061156Y-105368000D01*
X97061158Y-105368000D01*
X97218844Y-105368000D01*
X97218845Y-105367999D01*
X97373497Y-105337237D01*
X97519179Y-105276894D01*
X97520288Y-105276153D01*
X98709500Y-105276153D01*
X98709500Y-105433846D01*
X98740261Y-105588489D01*
X98740264Y-105588501D01*
X98800602Y-105734172D01*
X98800609Y-105734185D01*
X98888210Y-105865288D01*
X98888213Y-105865292D01*
X98999707Y-105976786D01*
X98999711Y-105976789D01*
X99130814Y-106064390D01*
X99130827Y-106064397D01*
X99271056Y-106122481D01*
X99276503Y-106124737D01*
X99431153Y-106155499D01*
X99431156Y-106155500D01*
X99431158Y-106155500D01*
X99588844Y-106155500D01*
X99588845Y-106155499D01*
X99743497Y-106124737D01*
X99889179Y-106064394D01*
X100020289Y-105976789D01*
X100131789Y-105865289D01*
X100219394Y-105734179D01*
X100279737Y-105588497D01*
X100310500Y-105433842D01*
X100310500Y-105276158D01*
X100310500Y-105276155D01*
X100310499Y-105276153D01*
X100309374Y-105270499D01*
X100279737Y-105121503D01*
X100263991Y-105083489D01*
X100219397Y-104975827D01*
X100219390Y-104975814D01*
X100131789Y-104844711D01*
X100131786Y-104844707D01*
X100020292Y-104733213D01*
X100020288Y-104733210D01*
X99889185Y-104645609D01*
X99889172Y-104645602D01*
X99743501Y-104585264D01*
X99743489Y-104585261D01*
X99588845Y-104554500D01*
X99588842Y-104554500D01*
X99431158Y-104554500D01*
X99431155Y-104554500D01*
X99276510Y-104585261D01*
X99276498Y-104585264D01*
X99130827Y-104645602D01*
X99130814Y-104645609D01*
X98999711Y-104733210D01*
X98999707Y-104733213D01*
X98888213Y-104844707D01*
X98888210Y-104844711D01*
X98800609Y-104975814D01*
X98800602Y-104975827D01*
X98740264Y-105121498D01*
X98740261Y-105121510D01*
X98709500Y-105276153D01*
X97520288Y-105276153D01*
X97650289Y-105189289D01*
X97650292Y-105189286D01*
X97657194Y-105182385D01*
X97761786Y-105077792D01*
X97761789Y-105077789D01*
X97849394Y-104946679D01*
X97909737Y-104800997D01*
X97940500Y-104646342D01*
X97940500Y-104488658D01*
X97940500Y-104488655D01*
X97940499Y-104488653D01*
X97910872Y-104339711D01*
X97909737Y-104334003D01*
X97895173Y-104298842D01*
X97849397Y-104188327D01*
X97849390Y-104188314D01*
X97761789Y-104057211D01*
X97761786Y-104057207D01*
X97650292Y-103945713D01*
X97650288Y-103945710D01*
X97519185Y-103858109D01*
X97519172Y-103858102D01*
X97373501Y-103797764D01*
X97373489Y-103797761D01*
X97218845Y-103767000D01*
X97218842Y-103767000D01*
X97061158Y-103767000D01*
X97061155Y-103767000D01*
X96906510Y-103797761D01*
X96906498Y-103797764D01*
X96760827Y-103858102D01*
X96760814Y-103858109D01*
X96629711Y-103945710D01*
X96629707Y-103945713D01*
X96518213Y-104057207D01*
X96518210Y-104057211D01*
X96430609Y-104188314D01*
X96430602Y-104188327D01*
X96370264Y-104333998D01*
X96370261Y-104334010D01*
X96339500Y-104488653D01*
X93121780Y-104488653D01*
X93114394Y-104470821D01*
X93114392Y-104470818D01*
X93114390Y-104470814D01*
X93026789Y-104339711D01*
X93026786Y-104339707D01*
X92915292Y-104228213D01*
X92915288Y-104228210D01*
X92784185Y-104140609D01*
X92784172Y-104140602D01*
X92638501Y-104080264D01*
X92638489Y-104080261D01*
X92483845Y-104049500D01*
X92483842Y-104049500D01*
X92326158Y-104049500D01*
X92326155Y-104049500D01*
X92171510Y-104080261D01*
X92171498Y-104080264D01*
X92025827Y-104140602D01*
X92025814Y-104140609D01*
X91894711Y-104228210D01*
X91894707Y-104228213D01*
X91783213Y-104339707D01*
X91783210Y-104339711D01*
X91695609Y-104470814D01*
X91695602Y-104470827D01*
X91635264Y-104616498D01*
X91635261Y-104616510D01*
X91604500Y-104771153D01*
X87764213Y-104771153D01*
X87786387Y-104717621D01*
X87786387Y-104717618D01*
X87792237Y-104703497D01*
X87823000Y-104548842D01*
X87823000Y-104391158D01*
X87823000Y-104391155D01*
X87822999Y-104391153D01*
X87792238Y-104236510D01*
X87792237Y-104236503D01*
X87752517Y-104140609D01*
X87731897Y-104090827D01*
X87731890Y-104090814D01*
X87644289Y-103959711D01*
X87644286Y-103959707D01*
X87532792Y-103848213D01*
X87532788Y-103848210D01*
X87401685Y-103760609D01*
X87401672Y-103760602D01*
X87256001Y-103700264D01*
X87255989Y-103700261D01*
X87101345Y-103669500D01*
X87101342Y-103669500D01*
X86943658Y-103669500D01*
X86943655Y-103669500D01*
X86789010Y-103700261D01*
X86788998Y-103700264D01*
X86643327Y-103760602D01*
X86643314Y-103760609D01*
X86512211Y-103848210D01*
X86512207Y-103848213D01*
X86400713Y-103959707D01*
X86400710Y-103959711D01*
X86313109Y-104090814D01*
X86313102Y-104090827D01*
X86252764Y-104236498D01*
X86252761Y-104236510D01*
X86222000Y-104391153D01*
X78450499Y-104391153D01*
X78450499Y-104236510D01*
X78450499Y-103797129D01*
X78450498Y-103797123D01*
X78446572Y-103760602D01*
X78444091Y-103737517D01*
X78431340Y-103703332D01*
X78426357Y-103633642D01*
X78431338Y-103616672D01*
X78444091Y-103582483D01*
X78450500Y-103522873D01*
X78450499Y-102527128D01*
X78446804Y-102492753D01*
X78459211Y-102423994D01*
X78506822Y-102372857D01*
X78570094Y-102355500D01*
X80658331Y-102355500D01*
X80658347Y-102355501D01*
X80665943Y-102355501D01*
X80824054Y-102355501D01*
X80824057Y-102355501D01*
X80976785Y-102314577D01*
X81055416Y-102269179D01*
X81072365Y-102259394D01*
X81113709Y-102235524D01*
X81113708Y-102235524D01*
X81113716Y-102235520D01*
X81225520Y-102123716D01*
X81225520Y-102123714D01*
X81235724Y-102113511D01*
X81235727Y-102113506D01*
X81328080Y-102021153D01*
X82324500Y-102021153D01*
X82324500Y-102178846D01*
X82355261Y-102333489D01*
X82355264Y-102333501D01*
X82415602Y-102479172D01*
X82415609Y-102479185D01*
X82503210Y-102610288D01*
X82503213Y-102610292D01*
X82614707Y-102721786D01*
X82614711Y-102721789D01*
X82745814Y-102809390D01*
X82745827Y-102809397D01*
X82891498Y-102869735D01*
X82891503Y-102869737D01*
X83046153Y-102900499D01*
X83046156Y-102900500D01*
X83046158Y-102900500D01*
X83203844Y-102900500D01*
X83203845Y-102900499D01*
X83358497Y-102869737D01*
X83504179Y-102809394D01*
X83635289Y-102721789D01*
X83690925Y-102666153D01*
X102459500Y-102666153D01*
X102459500Y-102823846D01*
X102490261Y-102978489D01*
X102490264Y-102978501D01*
X102550602Y-103124172D01*
X102550609Y-103124185D01*
X102638210Y-103255288D01*
X102638213Y-103255292D01*
X102749707Y-103366786D01*
X102749711Y-103366789D01*
X102880814Y-103454390D01*
X102880827Y-103454397D01*
X103004251Y-103505520D01*
X103026503Y-103514737D01*
X103181148Y-103545498D01*
X103181153Y-103545499D01*
X103181156Y-103545500D01*
X103181158Y-103545500D01*
X103338844Y-103545500D01*
X103338845Y-103545499D01*
X103493497Y-103514737D01*
X103639179Y-103454394D01*
X103639841Y-103453952D01*
X103683730Y-103424626D01*
X103770289Y-103366789D01*
X103881789Y-103255289D01*
X103969394Y-103124179D01*
X104029737Y-102978497D01*
X104060500Y-102823842D01*
X104060500Y-102666158D01*
X104060500Y-102666155D01*
X104060499Y-102666153D01*
X104037096Y-102548501D01*
X104029737Y-102511503D01*
X104008127Y-102459331D01*
X103969397Y-102365827D01*
X103969390Y-102365814D01*
X103881789Y-102234711D01*
X103881786Y-102234707D01*
X103770292Y-102123213D01*
X103770288Y-102123210D01*
X103639185Y-102035609D01*
X103639172Y-102035602D01*
X103493501Y-101975264D01*
X103493489Y-101975261D01*
X103338845Y-101944500D01*
X103338842Y-101944500D01*
X103181158Y-101944500D01*
X103181155Y-101944500D01*
X103026510Y-101975261D01*
X103026498Y-101975264D01*
X102880827Y-102035602D01*
X102880814Y-102035609D01*
X102749711Y-102123210D01*
X102749707Y-102123213D01*
X102638213Y-102234707D01*
X102638210Y-102234711D01*
X102550609Y-102365814D01*
X102550602Y-102365827D01*
X102490264Y-102511498D01*
X102490261Y-102511510D01*
X102459500Y-102666153D01*
X83690925Y-102666153D01*
X83746789Y-102610289D01*
X83788075Y-102548501D01*
X83834390Y-102479185D01*
X83834390Y-102479184D01*
X83834394Y-102479179D01*
X83864232Y-102407143D01*
X83871863Y-102388721D01*
X83915704Y-102334317D01*
X83938971Y-102321612D01*
X84065553Y-102269180D01*
X84089179Y-102259394D01*
X84220289Y-102171789D01*
X84331789Y-102060289D01*
X84419394Y-101929179D01*
X84479737Y-101783497D01*
X84510500Y-101628842D01*
X84510500Y-101471158D01*
X84510500Y-101471155D01*
X84510499Y-101471153D01*
X84504061Y-101438788D01*
X84479737Y-101316503D01*
X84464366Y-101279394D01*
X84419397Y-101170827D01*
X84419390Y-101170814D01*
X84331789Y-101039711D01*
X84331786Y-101039707D01*
X84220292Y-100928213D01*
X84220288Y-100928210D01*
X84089185Y-100840609D01*
X84089172Y-100840602D01*
X83943501Y-100780264D01*
X83943489Y-100780261D01*
X83788845Y-100749500D01*
X83788842Y-100749500D01*
X83631158Y-100749500D01*
X83631155Y-100749500D01*
X83476510Y-100780261D01*
X83476498Y-100780264D01*
X83330827Y-100840602D01*
X83330814Y-100840609D01*
X83199711Y-100928210D01*
X83199707Y-100928213D01*
X83088213Y-101039707D01*
X83088210Y-101039711D01*
X83000609Y-101170814D01*
X83000604Y-101170824D01*
X82963136Y-101261280D01*
X82919295Y-101315683D01*
X82896028Y-101328388D01*
X82745823Y-101390604D01*
X82745814Y-101390609D01*
X82614711Y-101478210D01*
X82614707Y-101478213D01*
X82503213Y-101589707D01*
X82503210Y-101589711D01*
X82415609Y-101720814D01*
X82415602Y-101720827D01*
X82355264Y-101866498D01*
X82355261Y-101866510D01*
X82324500Y-102021153D01*
X81328080Y-102021153D01*
X83484662Y-99864572D01*
X83545983Y-99831089D01*
X83548150Y-99830638D01*
X83606085Y-99819113D01*
X83703497Y-99799737D01*
X83816166Y-99753067D01*
X83849172Y-99739397D01*
X83849172Y-99739396D01*
X83849179Y-99739394D01*
X83980289Y-99651789D01*
X84091789Y-99540289D01*
X84179394Y-99409179D01*
X84182002Y-99402884D01*
X84206893Y-99342789D01*
X84239737Y-99263497D01*
X84270500Y-99108842D01*
X84270500Y-98951158D01*
X84270500Y-98951155D01*
X84270499Y-98951153D01*
X84250016Y-98848181D01*
X84239737Y-98796503D01*
X84221988Y-98753653D01*
X84179397Y-98650827D01*
X84179390Y-98650814D01*
X84091789Y-98519711D01*
X84091786Y-98519707D01*
X83980292Y-98408213D01*
X83980288Y-98408210D01*
X83849185Y-98320609D01*
X83849172Y-98320602D01*
X83703501Y-98260264D01*
X83703491Y-98260261D01*
X83566763Y-98233064D01*
X83504852Y-98200679D01*
X83470278Y-98139963D01*
X83474018Y-98070194D01*
X83476394Y-98063994D01*
X83509737Y-97983497D01*
X83540500Y-97828842D01*
X83540500Y-97828835D01*
X83541097Y-97822782D01*
X83542318Y-97822902D01*
X83560185Y-97762058D01*
X83612989Y-97716303D01*
X83682147Y-97706359D01*
X83745703Y-97735384D01*
X83752180Y-97741415D01*
X88011284Y-102000520D01*
X88011286Y-102000521D01*
X88011290Y-102000524D01*
X88079210Y-102039737D01*
X88148216Y-102079577D01*
X88300943Y-102120501D01*
X88300945Y-102120501D01*
X88466654Y-102120501D01*
X88466670Y-102120500D01*
X93183331Y-102120500D01*
X93183347Y-102120501D01*
X93190943Y-102120501D01*
X93349054Y-102120501D01*
X93349057Y-102120501D01*
X93501785Y-102079577D01*
X93501786Y-102079575D01*
X93509635Y-102077473D01*
X93509820Y-102078165D01*
X93548364Y-102070500D01*
X93598844Y-102070500D01*
X93598845Y-102070499D01*
X93753497Y-102039737D01*
X93899179Y-101979394D01*
X94030289Y-101891789D01*
X94141789Y-101780289D01*
X94229394Y-101649179D01*
X94253914Y-101589983D01*
X105869500Y-101589983D01*
X105869500Y-102190001D01*
X105869501Y-102190019D01*
X105880000Y-102292796D01*
X105880001Y-102292799D01*
X105923475Y-102423994D01*
X105935186Y-102459334D01*
X106027288Y-102608656D01*
X106151344Y-102732712D01*
X106300666Y-102824814D01*
X106467203Y-102879999D01*
X106569991Y-102890500D01*
X108170008Y-102890499D01*
X108272797Y-102879999D01*
X108439334Y-102824814D01*
X108588656Y-102732712D01*
X108712712Y-102608656D01*
X108804814Y-102459334D01*
X108859999Y-102292797D01*
X108870500Y-102190009D01*
X108870499Y-101589992D01*
X108870470Y-101589711D01*
X108859999Y-101487203D01*
X108859998Y-101487200D01*
X108854681Y-101471155D01*
X108804814Y-101320666D01*
X108712712Y-101171344D01*
X108588656Y-101047288D01*
X108439334Y-100955186D01*
X108272797Y-100900001D01*
X108272795Y-100900000D01*
X108170010Y-100889500D01*
X106569998Y-100889500D01*
X106569981Y-100889501D01*
X106467203Y-100900000D01*
X106467200Y-100900001D01*
X106300668Y-100955185D01*
X106300663Y-100955187D01*
X106151342Y-101047289D01*
X106027289Y-101171342D01*
X105935187Y-101320663D01*
X105935185Y-101320668D01*
X105914574Y-101382870D01*
X105880001Y-101487203D01*
X105880001Y-101487204D01*
X105880000Y-101487204D01*
X105869500Y-101589983D01*
X94253914Y-101589983D01*
X94289737Y-101503497D01*
X94320500Y-101348842D01*
X94320500Y-101191158D01*
X94320500Y-101191155D01*
X94320499Y-101191153D01*
X94301851Y-101097405D01*
X94289737Y-101036503D01*
X94267524Y-100982876D01*
X94229397Y-100890827D01*
X94229390Y-100890814D01*
X94180998Y-100818391D01*
X94160120Y-100751714D01*
X94178604Y-100684334D01*
X94230583Y-100637643D01*
X94284100Y-100625500D01*
X104010234Y-100625500D01*
X104077273Y-100645185D01*
X104079125Y-100646398D01*
X104210814Y-100734390D01*
X104210827Y-100734397D01*
X104356498Y-100794735D01*
X104356503Y-100794737D01*
X104475419Y-100818391D01*
X104511153Y-100825499D01*
X104511156Y-100825500D01*
X104511158Y-100825500D01*
X104668844Y-100825500D01*
X104668845Y-100825499D01*
X104823497Y-100794737D01*
X104969179Y-100734394D01*
X105036848Y-100689179D01*
X105100875Y-100646398D01*
X105167553Y-100625520D01*
X105169766Y-100625500D01*
X105583331Y-100625500D01*
X105583347Y-100625501D01*
X105590943Y-100625501D01*
X105749054Y-100625501D01*
X105749057Y-100625501D01*
X105901785Y-100584577D01*
X105972937Y-100543497D01*
X105984915Y-100536582D01*
X106038709Y-100505524D01*
X106038708Y-100505524D01*
X106038716Y-100505520D01*
X106150520Y-100393716D01*
X106150520Y-100393714D01*
X106160724Y-100383511D01*
X106160728Y-100383506D01*
X108838506Y-97705728D01*
X108838511Y-97705724D01*
X108848714Y-97695520D01*
X108848716Y-97695520D01*
X108927819Y-97616417D01*
X108989142Y-97582932D01*
X109058834Y-97587916D01*
X109114767Y-97629788D01*
X109139184Y-97695252D01*
X109139500Y-97704098D01*
X109139500Y-111146948D01*
X109139351Y-111153033D01*
X109121743Y-111511432D01*
X109120550Y-111523542D01*
X109068347Y-111875467D01*
X109065973Y-111887401D01*
X108979527Y-112232514D01*
X108975994Y-112244160D01*
X108856139Y-112579130D01*
X108851483Y-112590371D01*
X108699366Y-112911999D01*
X108693629Y-112922732D01*
X108510726Y-113227885D01*
X108503966Y-113238002D01*
X108292032Y-113523764D01*
X108284312Y-113533171D01*
X108045388Y-113796783D01*
X108036783Y-113805388D01*
X107773171Y-114044312D01*
X107763764Y-114052032D01*
X107478002Y-114263966D01*
X107467885Y-114270726D01*
X107162732Y-114453629D01*
X107151999Y-114459366D01*
X106830371Y-114611483D01*
X106819130Y-114616139D01*
X106484160Y-114735994D01*
X106472514Y-114739527D01*
X106127401Y-114825973D01*
X106115467Y-114828347D01*
X105763542Y-114880550D01*
X105751432Y-114881743D01*
X105413927Y-114898324D01*
X105393031Y-114899351D01*
X105386949Y-114899500D01*
X55573051Y-114899500D01*
X55566968Y-114899351D01*
X55544856Y-114898264D01*
X55208567Y-114881743D01*
X55196457Y-114880550D01*
X54844532Y-114828347D01*
X54832598Y-114825973D01*
X54487485Y-114739527D01*
X54475839Y-114735994D01*
X54140869Y-114616139D01*
X54129628Y-114611483D01*
X53808000Y-114459366D01*
X53797272Y-114453631D01*
X53492114Y-114270726D01*
X53481997Y-114263966D01*
X53256934Y-114097049D01*
X53196233Y-114052030D01*
X53186828Y-114044312D01*
X53161808Y-114021635D01*
X52923209Y-113805381D01*
X52914618Y-113796790D01*
X52675683Y-113533166D01*
X52667967Y-113523764D01*
X52623146Y-113463330D01*
X52456031Y-113238000D01*
X52449273Y-113227885D01*
X52431790Y-113198716D01*
X52266363Y-112922720D01*
X52260633Y-112911999D01*
X52108516Y-112590371D01*
X52103860Y-112579130D01*
X51984005Y-112244160D01*
X51980472Y-112232514D01*
X51894024Y-111887393D01*
X51891652Y-111875467D01*
X51871240Y-111737861D01*
X51864267Y-111690853D01*
X51873902Y-111621654D01*
X51919420Y-111568646D01*
X51986367Y-111548663D01*
X58080000Y-111530000D01*
X58089576Y-94033102D01*
X58109297Y-93966076D01*
X58162126Y-93920350D01*
X58231290Y-93910445D01*
X58294830Y-93939505D01*
G37*
%TD.AperFunction*%
%TA.AperFunction,Conductor*%
G36*
X105393032Y-63950648D02*
G01*
X105751433Y-63968256D01*
X105763541Y-63969448D01*
X106115475Y-64021653D01*
X106127393Y-64024024D01*
X106472516Y-64110472D01*
X106484160Y-64114005D01*
X106819130Y-64233860D01*
X106830371Y-64238516D01*
X107059005Y-64346650D01*
X107152003Y-64390635D01*
X107162720Y-64396363D01*
X107467885Y-64579273D01*
X107478000Y-64586031D01*
X107763768Y-64797970D01*
X107773166Y-64805683D01*
X108036790Y-65044618D01*
X108045381Y-65053209D01*
X108121276Y-65136946D01*
X108284312Y-65316828D01*
X108292032Y-65326235D01*
X108503966Y-65611997D01*
X108510726Y-65622114D01*
X108693629Y-65927267D01*
X108699366Y-65938000D01*
X108851483Y-66259628D01*
X108856139Y-66270869D01*
X108975994Y-66605839D01*
X108979527Y-66617485D01*
X109065973Y-66962598D01*
X109068347Y-66974532D01*
X109120550Y-67326457D01*
X109121743Y-67338567D01*
X109139351Y-67696966D01*
X109139500Y-67703051D01*
X109139500Y-71920902D01*
X109134590Y-71937623D01*
X109134705Y-71955052D01*
X109124950Y-71970452D01*
X109119815Y-71987941D01*
X109106644Y-71999353D01*
X109097318Y-72014078D01*
X109080785Y-72021760D01*
X109067011Y-72033696D01*
X109049761Y-72036176D01*
X109033955Y-72043521D01*
X109015895Y-72041045D01*
X108997853Y-72043640D01*
X108981799Y-72036372D01*
X108964733Y-72034033D01*
X108941977Y-72018344D01*
X108934917Y-72015148D01*
X108931240Y-72012004D01*
X108848716Y-71929480D01*
X108805633Y-71904606D01*
X108796947Y-71897179D01*
X108795487Y-71894940D01*
X108789849Y-71890614D01*
X107177590Y-70278355D01*
X107177588Y-70278352D01*
X107058717Y-70159481D01*
X107058716Y-70159480D01*
X106971904Y-70109360D01*
X106971904Y-70109359D01*
X106971900Y-70109358D01*
X106921785Y-70080423D01*
X106769057Y-70039499D01*
X106610943Y-70039499D01*
X106603347Y-70039499D01*
X106603331Y-70039500D01*
X104050098Y-70039500D01*
X103983059Y-70019815D01*
X103962417Y-70003181D01*
X103364573Y-69405337D01*
X103331088Y-69344014D01*
X103330637Y-69341847D01*
X103307096Y-69223501D01*
X103299737Y-69186503D01*
X103299735Y-69186498D01*
X103239397Y-69040827D01*
X103239390Y-69040814D01*
X103151789Y-68909711D01*
X103151786Y-68909707D01*
X103040292Y-68798213D01*
X103040288Y-68798210D01*
X102909185Y-68710609D01*
X102909172Y-68710602D01*
X102763501Y-68650264D01*
X102763489Y-68650261D01*
X102608845Y-68619500D01*
X102608842Y-68619500D01*
X102451158Y-68619500D01*
X102451155Y-68619500D01*
X102296510Y-68650261D01*
X102296498Y-68650264D01*
X102150827Y-68710602D01*
X102150814Y-68710609D01*
X102019711Y-68798210D01*
X102019707Y-68798213D01*
X101908213Y-68909707D01*
X101908210Y-68909711D01*
X101820609Y-69040814D01*
X101820602Y-69040827D01*
X101760264Y-69186498D01*
X101760261Y-69186510D01*
X101729500Y-69341153D01*
X101729500Y-69498846D01*
X101760261Y-69653489D01*
X101760264Y-69653501D01*
X101820602Y-69799172D01*
X101820609Y-69799185D01*
X101908210Y-69930288D01*
X101908213Y-69930292D01*
X102019707Y-70041786D01*
X102019711Y-70041789D01*
X102150814Y-70129390D01*
X102150827Y-70129397D01*
X102296498Y-70189735D01*
X102296503Y-70189737D01*
X102361147Y-70202595D01*
X102451849Y-70220638D01*
X102513760Y-70253023D01*
X102515336Y-70254571D01*
X103381284Y-71120520D01*
X103381286Y-71120521D01*
X103381290Y-71120524D01*
X103467485Y-71170288D01*
X103518216Y-71199577D01*
X103670943Y-71240501D01*
X103670945Y-71240501D01*
X103836654Y-71240501D01*
X103836670Y-71240500D01*
X106389903Y-71240500D01*
X106456942Y-71260185D01*
X106477584Y-71276819D01*
X107843181Y-72642416D01*
X107876666Y-72703739D01*
X107879500Y-72730097D01*
X107879500Y-96914903D01*
X107859815Y-96981942D01*
X107843181Y-97002584D01*
X105457584Y-99388181D01*
X105430656Y-99402884D01*
X105404838Y-99419477D01*
X105398637Y-99420368D01*
X105396261Y-99421666D01*
X105369903Y-99424500D01*
X105169766Y-99424500D01*
X105102727Y-99404815D01*
X105100875Y-99403602D01*
X104969185Y-99315609D01*
X104969172Y-99315602D01*
X104823501Y-99255264D01*
X104823489Y-99255261D01*
X104668845Y-99224500D01*
X104668842Y-99224500D01*
X104511158Y-99224500D01*
X104511155Y-99224500D01*
X104356510Y-99255261D01*
X104356498Y-99255264D01*
X104210827Y-99315602D01*
X104210814Y-99315609D01*
X104079125Y-99403602D01*
X104012447Y-99424480D01*
X104010234Y-99424500D01*
X95859180Y-99424500D01*
X95792141Y-99404815D01*
X95746386Y-99352011D01*
X95736442Y-99282853D01*
X95756078Y-99231610D01*
X95769387Y-99211690D01*
X95769388Y-99211686D01*
X95769394Y-99211679D01*
X95829737Y-99065997D01*
X95860500Y-98911342D01*
X95860500Y-98753658D01*
X95860500Y-98753655D01*
X95860499Y-98753653D01*
X95829737Y-98599003D01*
X95805674Y-98540909D01*
X95769397Y-98453327D01*
X95769390Y-98453314D01*
X95681789Y-98322211D01*
X95681786Y-98322207D01*
X95570292Y-98210713D01*
X95570288Y-98210710D01*
X95439185Y-98123109D01*
X95439172Y-98123102D01*
X95293501Y-98062764D01*
X95293491Y-98062761D01*
X95138151Y-98031862D01*
X95090099Y-98011026D01*
X95081845Y-98005109D01*
X95036216Y-97959480D01*
X94948880Y-97909057D01*
X94943589Y-97906002D01*
X94899288Y-97880424D01*
X94899287Y-97880423D01*
X94838193Y-97864053D01*
X94746557Y-97839499D01*
X94588443Y-97839499D01*
X94580847Y-97839499D01*
X94580831Y-97839500D01*
X93030098Y-97839500D01*
X93000657Y-97830855D01*
X92970671Y-97824332D01*
X92965655Y-97820577D01*
X92963059Y-97819815D01*
X92942417Y-97803181D01*
X92692889Y-97553653D01*
X96439500Y-97553653D01*
X96439500Y-97711346D01*
X96470261Y-97865989D01*
X96470264Y-97866001D01*
X96530602Y-98011672D01*
X96530609Y-98011685D01*
X96618210Y-98142788D01*
X96618213Y-98142792D01*
X96729707Y-98254286D01*
X96729711Y-98254289D01*
X96860814Y-98341890D01*
X96860827Y-98341897D01*
X96997993Y-98398712D01*
X97006503Y-98402237D01*
X97160504Y-98432870D01*
X97161153Y-98432999D01*
X97161156Y-98433000D01*
X97161158Y-98433000D01*
X97318844Y-98433000D01*
X97318845Y-98432999D01*
X97473497Y-98402237D01*
X97619179Y-98341894D01*
X97750289Y-98254289D01*
X97861789Y-98142789D01*
X97949394Y-98011679D01*
X97949665Y-98011026D01*
X97991901Y-97909057D01*
X98009737Y-97865997D01*
X98040500Y-97711342D01*
X98040500Y-97553658D01*
X98040500Y-97553655D01*
X98040499Y-97553653D01*
X98017318Y-97437116D01*
X98009737Y-97399003D01*
X97966268Y-97294059D01*
X97949397Y-97253327D01*
X97949390Y-97253314D01*
X97861789Y-97122211D01*
X97861786Y-97122207D01*
X97750292Y-97010713D01*
X97750288Y-97010710D01*
X97619185Y-96923109D01*
X97619172Y-96923102D01*
X97473501Y-96862764D01*
X97473489Y-96862761D01*
X97318845Y-96832000D01*
X97318842Y-96832000D01*
X97161158Y-96832000D01*
X97161155Y-96832000D01*
X97006510Y-96862761D01*
X97006498Y-96862764D01*
X96860827Y-96923102D01*
X96860814Y-96923109D01*
X96729711Y-97010710D01*
X96729707Y-97010713D01*
X96618213Y-97122207D01*
X96618210Y-97122211D01*
X96530609Y-97253314D01*
X96530602Y-97253327D01*
X96470264Y-97398998D01*
X96470261Y-97399010D01*
X96439500Y-97553653D01*
X92692889Y-97553653D01*
X91986819Y-96847583D01*
X91953334Y-96786260D01*
X91950500Y-96759902D01*
X91950500Y-95009500D01*
X91970185Y-94942461D01*
X92022989Y-94896706D01*
X92074500Y-94885500D01*
X92128844Y-94885500D01*
X92128845Y-94885499D01*
X92283497Y-94854737D01*
X92429179Y-94794394D01*
X92560289Y-94706789D01*
X92671789Y-94595289D01*
X92759394Y-94464179D01*
X92819737Y-94318497D01*
X92850500Y-94163842D01*
X92850500Y-94006158D01*
X92850500Y-94006155D01*
X92850499Y-94006153D01*
X92837242Y-93939505D01*
X92819737Y-93851503D01*
X92802339Y-93809500D01*
X92759397Y-93705827D01*
X92759390Y-93705814D01*
X92671789Y-93574711D01*
X92671786Y-93574707D01*
X92560292Y-93463213D01*
X92560288Y-93463210D01*
X92429185Y-93375609D01*
X92429172Y-93375602D01*
X92283501Y-93315264D01*
X92283489Y-93315261D01*
X92128845Y-93284500D01*
X92128842Y-93284500D01*
X92074500Y-93284500D01*
X92007461Y-93264815D01*
X91961706Y-93212011D01*
X91950500Y-93160500D01*
X91950500Y-91221153D01*
X92462000Y-91221153D01*
X92462000Y-91378846D01*
X92492761Y-91533489D01*
X92492764Y-91533501D01*
X92553102Y-91679172D01*
X92553109Y-91679185D01*
X92640710Y-91810288D01*
X92640713Y-91810292D01*
X92752207Y-91921786D01*
X92752211Y-91921789D01*
X92883314Y-92009390D01*
X92883327Y-92009397D01*
X92968584Y-92044711D01*
X93029003Y-92069737D01*
X93150996Y-92094003D01*
X93183653Y-92100499D01*
X93183656Y-92100500D01*
X93183658Y-92100500D01*
X93341344Y-92100500D01*
X93341345Y-92100499D01*
X93495997Y-92069737D01*
X93641679Y-92009394D01*
X93772789Y-91921789D01*
X93884289Y-91810289D01*
X93971894Y-91679179D01*
X94032237Y-91533497D01*
X94063000Y-91378842D01*
X94063000Y-91254731D01*
X94082685Y-91187692D01*
X94135489Y-91141937D01*
X94204647Y-91131993D01*
X94268203Y-91161018D01*
X94290102Y-91185840D01*
X94353210Y-91280289D01*
X94464707Y-91391786D01*
X94464711Y-91391789D01*
X94595814Y-91479390D01*
X94595826Y-91479397D01*
X94690877Y-91518767D01*
X94728607Y-91534395D01*
X94783011Y-91578235D01*
X94805076Y-91644529D01*
X94787797Y-91712229D01*
X94736660Y-91759839D01*
X94705348Y-91770573D01*
X94631507Y-91785261D01*
X94631498Y-91785264D01*
X94485827Y-91845602D01*
X94485814Y-91845609D01*
X94354711Y-91933210D01*
X94354707Y-91933213D01*
X94243213Y-92044707D01*
X94243210Y-92044711D01*
X94155609Y-92175814D01*
X94155602Y-92175827D01*
X94095264Y-92321498D01*
X94095261Y-92321510D01*
X94064500Y-92476153D01*
X94064500Y-92633846D01*
X94095261Y-92788489D01*
X94095264Y-92788501D01*
X94155602Y-92934172D01*
X94155609Y-92934185D01*
X94243210Y-93065288D01*
X94243213Y-93065292D01*
X94354707Y-93176786D01*
X94354711Y-93176789D01*
X94485814Y-93264390D01*
X94485827Y-93264397D01*
X94608633Y-93315264D01*
X94631503Y-93324737D01*
X94786153Y-93355499D01*
X94786156Y-93355500D01*
X94786158Y-93355500D01*
X94943844Y-93355500D01*
X94943845Y-93355499D01*
X95098497Y-93324737D01*
X95244179Y-93264394D01*
X95375289Y-93176789D01*
X95486789Y-93065289D01*
X95574394Y-92934179D01*
X95634737Y-92788497D01*
X95648994Y-92716823D01*
X95681378Y-92654912D01*
X95742094Y-92620338D01*
X95811863Y-92624077D01*
X95868536Y-92664943D01*
X95885172Y-92693560D01*
X95890606Y-92706679D01*
X95890609Y-92706685D01*
X95978210Y-92837788D01*
X95978213Y-92837792D01*
X96089707Y-92949286D01*
X96089711Y-92949289D01*
X96220814Y-93036890D01*
X96220827Y-93036897D01*
X96363084Y-93095821D01*
X96366503Y-93097237D01*
X96366507Y-93097237D01*
X96366508Y-93097238D01*
X96472808Y-93118383D01*
X96534718Y-93150768D01*
X96569293Y-93211484D01*
X96565553Y-93281253D01*
X96524686Y-93337925D01*
X96472808Y-93361617D01*
X96366508Y-93382761D01*
X96366498Y-93382764D01*
X96220827Y-93443102D01*
X96220814Y-93443109D01*
X96089711Y-93530710D01*
X96089707Y-93530713D01*
X95978213Y-93642207D01*
X95978210Y-93642211D01*
X95890609Y-93773314D01*
X95890602Y-93773327D01*
X95830264Y-93918998D01*
X95830261Y-93919010D01*
X95799500Y-94073653D01*
X95799500Y-94231346D01*
X95830261Y-94385989D01*
X95830264Y-94386001D01*
X95890602Y-94531672D01*
X95890609Y-94531685D01*
X95978210Y-94662788D01*
X95978213Y-94662792D01*
X96089707Y-94774286D01*
X96089711Y-94774289D01*
X96220814Y-94861890D01*
X96220827Y-94861897D01*
X96366498Y-94922235D01*
X96366503Y-94922237D01*
X96501758Y-94949141D01*
X96521153Y-94952999D01*
X96521156Y-94953000D01*
X96521158Y-94953000D01*
X96678844Y-94953000D01*
X96678845Y-94952999D01*
X96833497Y-94922237D01*
X96979179Y-94861894D01*
X97110289Y-94774289D01*
X97221789Y-94662789D01*
X97309394Y-94531679D01*
X97369737Y-94385997D01*
X97400500Y-94231342D01*
X97400500Y-94073658D01*
X97400500Y-94073655D01*
X97400499Y-94073653D01*
X97387072Y-94006153D01*
X97369737Y-93919003D01*
X97353691Y-93880264D01*
X97309397Y-93773327D01*
X97309390Y-93773314D01*
X97221789Y-93642211D01*
X97221786Y-93642207D01*
X97110292Y-93530713D01*
X97110288Y-93530710D01*
X96979185Y-93443109D01*
X96979172Y-93443102D01*
X96833501Y-93382764D01*
X96833489Y-93382761D01*
X96727192Y-93361617D01*
X96665281Y-93329232D01*
X96630707Y-93268516D01*
X96634446Y-93198747D01*
X96675313Y-93142075D01*
X96727192Y-93118383D01*
X96775442Y-93108785D01*
X96833497Y-93097237D01*
X96975995Y-93038213D01*
X96979172Y-93036897D01*
X96979172Y-93036896D01*
X96979179Y-93036894D01*
X97110289Y-92949289D01*
X97221789Y-92837789D01*
X97309394Y-92706679D01*
X97369737Y-92560997D01*
X97400500Y-92406342D01*
X97400500Y-92248658D01*
X97400500Y-92248655D01*
X97400499Y-92248653D01*
X97393450Y-92213215D01*
X97369737Y-92094003D01*
X97366488Y-92086158D01*
X97309397Y-91948327D01*
X97309390Y-91948314D01*
X97281398Y-91906421D01*
X97260520Y-91839743D01*
X97260500Y-91837530D01*
X97260500Y-89564059D01*
X97260501Y-89564046D01*
X97260501Y-89395945D01*
X97260501Y-89395943D01*
X97219577Y-89243215D01*
X97176956Y-89169394D01*
X97140520Y-89106284D01*
X97028716Y-88994480D01*
X97028715Y-88994479D01*
X97024385Y-88990149D01*
X97024374Y-88990139D01*
X96321416Y-88287181D01*
X96287931Y-88225858D01*
X96292915Y-88156166D01*
X96334787Y-88100233D01*
X96400251Y-88075816D01*
X96409097Y-88075500D01*
X97544903Y-88075500D01*
X97611942Y-88095185D01*
X97632584Y-88111819D01*
X103195425Y-93674660D01*
X103228910Y-93735983D01*
X103229361Y-93738149D01*
X103260261Y-93893491D01*
X103260264Y-93893501D01*
X103320602Y-94039172D01*
X103320609Y-94039185D01*
X103408210Y-94170288D01*
X103408213Y-94170292D01*
X103519707Y-94281786D01*
X103519711Y-94281789D01*
X103650814Y-94369390D01*
X103650827Y-94369397D01*
X103764541Y-94416498D01*
X103796503Y-94429737D01*
X103951153Y-94460499D01*
X103951156Y-94460500D01*
X103951158Y-94460500D01*
X104108844Y-94460500D01*
X104108845Y-94460499D01*
X104263497Y-94429737D01*
X104409179Y-94369394D01*
X104540289Y-94281789D01*
X104651789Y-94170289D01*
X104739394Y-94039179D01*
X104743938Y-94028210D01*
X104755883Y-93999371D01*
X104799737Y-93893497D01*
X104830500Y-93738842D01*
X104830500Y-93581158D01*
X104830500Y-93581155D01*
X104830499Y-93581153D01*
X104807039Y-93463213D01*
X104799737Y-93426503D01*
X104781620Y-93382764D01*
X104739397Y-93280827D01*
X104739390Y-93280814D01*
X104651789Y-93149711D01*
X104651786Y-93149707D01*
X104540292Y-93038213D01*
X104540288Y-93038210D01*
X104409185Y-92950609D01*
X104409172Y-92950602D01*
X104263501Y-92890264D01*
X104263491Y-92890261D01*
X104108149Y-92859361D01*
X104046238Y-92826976D01*
X104044660Y-92825425D01*
X98332590Y-87113355D01*
X98332588Y-87113352D01*
X98213717Y-86994481D01*
X98213709Y-86994475D01*
X98109828Y-86934500D01*
X98109825Y-86934499D01*
X98076787Y-86915424D01*
X98076786Y-86915423D01*
X98076785Y-86915423D01*
X97924057Y-86874499D01*
X97765943Y-86874499D01*
X97758347Y-86874499D01*
X97758331Y-86874500D01*
X95155548Y-86874500D01*
X95088509Y-86854815D01*
X95042754Y-86802011D01*
X95040987Y-86797952D01*
X95019396Y-86745827D01*
X95019394Y-86745821D01*
X95019392Y-86745819D01*
X95019392Y-86745817D01*
X94931789Y-86614711D01*
X94931786Y-86614707D01*
X94820292Y-86503213D01*
X94820288Y-86503210D01*
X94689185Y-86415609D01*
X94689172Y-86415602D01*
X94543501Y-86355264D01*
X94543489Y-86355261D01*
X94388845Y-86324500D01*
X94388842Y-86324500D01*
X94231158Y-86324500D01*
X94231155Y-86324500D01*
X94076510Y-86355261D01*
X94076498Y-86355264D01*
X93930827Y-86415602D01*
X93930814Y-86415609D01*
X93799711Y-86503210D01*
X93799707Y-86503213D01*
X93688213Y-86614707D01*
X93688210Y-86614711D01*
X93600609Y-86745814D01*
X93600602Y-86745827D01*
X93540264Y-86891498D01*
X93540261Y-86891510D01*
X93509500Y-87046153D01*
X93509500Y-87203846D01*
X93540261Y-87358489D01*
X93540264Y-87358501D01*
X93600602Y-87504172D01*
X93600609Y-87504185D01*
X93688210Y-87635288D01*
X93688213Y-87635292D01*
X93799707Y-87746786D01*
X93799711Y-87746789D01*
X93930814Y-87834390D01*
X93930827Y-87834397D01*
X94042952Y-87880840D01*
X94076503Y-87894737D01*
X94231158Y-87925500D01*
X94231847Y-87925637D01*
X94248593Y-87934396D01*
X94267065Y-87938412D01*
X94279191Y-87947488D01*
X94279454Y-87947095D01*
X94279457Y-87947097D01*
X94287729Y-87953878D01*
X94292120Y-87957165D01*
X94293758Y-87958022D01*
X94295323Y-87959558D01*
X94298342Y-87962577D01*
X94298343Y-87962579D01*
X94298349Y-87962585D01*
X94298355Y-87962590D01*
X96023181Y-89687416D01*
X96056666Y-89748739D01*
X96059500Y-89775097D01*
X96059500Y-91684559D01*
X96039815Y-91751598D01*
X96023181Y-91772240D01*
X95978213Y-91817207D01*
X95978210Y-91817211D01*
X95890609Y-91948314D01*
X95890602Y-91948327D01*
X95830264Y-92093998D01*
X95830261Y-92094008D01*
X95816005Y-92165677D01*
X95783619Y-92227588D01*
X95722903Y-92262162D01*
X95653134Y-92258421D01*
X95596462Y-92217554D01*
X95579826Y-92188935D01*
X95574395Y-92175824D01*
X95574394Y-92175821D01*
X95574392Y-92175818D01*
X95574390Y-92175814D01*
X95486789Y-92044711D01*
X95486786Y-92044707D01*
X95375292Y-91933213D01*
X95375288Y-91933210D01*
X95244185Y-91845609D01*
X95244172Y-91845602D01*
X95111392Y-91790604D01*
X95056988Y-91746763D01*
X95034923Y-91680469D01*
X95052202Y-91612770D01*
X95103339Y-91565159D01*
X95134653Y-91554426D01*
X95165142Y-91548360D01*
X95208497Y-91539737D01*
X95354179Y-91479394D01*
X95485289Y-91391789D01*
X95596789Y-91280289D01*
X95684394Y-91149179D01*
X95744737Y-91003497D01*
X95775500Y-90848842D01*
X95775500Y-90691158D01*
X95775500Y-90691155D01*
X95775499Y-90691153D01*
X95765922Y-90643008D01*
X95744737Y-90536503D01*
X95742152Y-90530263D01*
X95684397Y-90390827D01*
X95684390Y-90390814D01*
X95596789Y-90259711D01*
X95596786Y-90259707D01*
X95485292Y-90148213D01*
X95485288Y-90148210D01*
X95354185Y-90060609D01*
X95354172Y-90060602D01*
X95208501Y-90000264D01*
X95208489Y-90000261D01*
X95053845Y-89969500D01*
X95053842Y-89969500D01*
X94896158Y-89969500D01*
X94896155Y-89969500D01*
X94741510Y-90000261D01*
X94741498Y-90000264D01*
X94595827Y-90060602D01*
X94595814Y-90060609D01*
X94464711Y-90148210D01*
X94464707Y-90148213D01*
X94353213Y-90259707D01*
X94353210Y-90259711D01*
X94265609Y-90390814D01*
X94265602Y-90390827D01*
X94205264Y-90536498D01*
X94205261Y-90536510D01*
X94174500Y-90691153D01*
X94174500Y-90815268D01*
X94154815Y-90882307D01*
X94102011Y-90928062D01*
X94032853Y-90938006D01*
X93969297Y-90908981D01*
X93947398Y-90884159D01*
X93884289Y-90789711D01*
X93884286Y-90789707D01*
X93772792Y-90678213D01*
X93772788Y-90678210D01*
X93641685Y-90590609D01*
X93641672Y-90590602D01*
X93496001Y-90530264D01*
X93495989Y-90530261D01*
X93341345Y-90499500D01*
X93341342Y-90499500D01*
X93183658Y-90499500D01*
X93183655Y-90499500D01*
X93029010Y-90530261D01*
X93028998Y-90530264D01*
X92883327Y-90590602D01*
X92883314Y-90590609D01*
X92752211Y-90678210D01*
X92752207Y-90678213D01*
X92640713Y-90789707D01*
X92640710Y-90789711D01*
X92553109Y-90920814D01*
X92553102Y-90920827D01*
X92492764Y-91066498D01*
X92492761Y-91066510D01*
X92462000Y-91221153D01*
X91950500Y-91221153D01*
X91950500Y-87995401D01*
X91970185Y-87928362D01*
X92022989Y-87882607D01*
X92027048Y-87880840D01*
X92139172Y-87834397D01*
X92139172Y-87834396D01*
X92139179Y-87834394D01*
X92270289Y-87746789D01*
X92381789Y-87635289D01*
X92469394Y-87504179D01*
X92529737Y-87358497D01*
X92560500Y-87203842D01*
X92560500Y-87046158D01*
X92560500Y-87046155D01*
X92560499Y-87046153D01*
X92550221Y-86994481D01*
X92529737Y-86891503D01*
X92522694Y-86874499D01*
X92469397Y-86745827D01*
X92469390Y-86745814D01*
X92381789Y-86614711D01*
X92381786Y-86614707D01*
X92270292Y-86503213D01*
X92270288Y-86503210D01*
X92139185Y-86415609D01*
X92139172Y-86415602D01*
X91993501Y-86355264D01*
X91993489Y-86355261D01*
X91838845Y-86324500D01*
X91838842Y-86324500D01*
X91681158Y-86324500D01*
X91681155Y-86324500D01*
X91526510Y-86355261D01*
X91526498Y-86355264D01*
X91380827Y-86415602D01*
X91380814Y-86415609D01*
X91249711Y-86503210D01*
X91249707Y-86503213D01*
X91138213Y-86614707D01*
X91138210Y-86614711D01*
X91050609Y-86745814D01*
X91050602Y-86745827D01*
X90990264Y-86891498D01*
X90990261Y-86891508D01*
X90959362Y-87046848D01*
X90954351Y-87058001D01*
X90953686Y-87066631D01*
X90943161Y-87082907D01*
X90936600Y-87097514D01*
X90931452Y-87104311D01*
X90869480Y-87166284D01*
X90825064Y-87243215D01*
X90821202Y-87249903D01*
X90821199Y-87249908D01*
X90790424Y-87303213D01*
X90790423Y-87303215D01*
X90749499Y-87455943D01*
X90749499Y-87455945D01*
X90749499Y-87624046D01*
X90749500Y-87624059D01*
X90749500Y-91200107D01*
X90729815Y-91267146D01*
X90677011Y-91312901D01*
X90607853Y-91322845D01*
X90575144Y-91312124D01*
X90574808Y-91312937D01*
X90423501Y-91250264D01*
X90423489Y-91250261D01*
X90268845Y-91219500D01*
X90268842Y-91219500D01*
X90111158Y-91219500D01*
X90111155Y-91219500D01*
X89956510Y-91250261D01*
X89956498Y-91250264D01*
X89810827Y-91310602D01*
X89810814Y-91310609D01*
X89679711Y-91398210D01*
X89679707Y-91398213D01*
X89566594Y-91511327D01*
X89540917Y-91531031D01*
X89526287Y-91539478D01*
X89526281Y-91539482D01*
X89094217Y-91971546D01*
X89094214Y-91971548D01*
X89094215Y-91971549D01*
X88989478Y-92076286D01*
X88975499Y-92100500D01*
X88946179Y-92151284D01*
X88910423Y-92213215D01*
X88869499Y-92365943D01*
X88869499Y-92365945D01*
X88869499Y-92534046D01*
X88869500Y-92534059D01*
X88869500Y-93725500D01*
X88849815Y-93792539D01*
X88797011Y-93838294D01*
X88745500Y-93849500D01*
X88611155Y-93849500D01*
X88456510Y-93880261D01*
X88456498Y-93880264D01*
X88310827Y-93940602D01*
X88310814Y-93940609D01*
X88179711Y-94028210D01*
X88179707Y-94028213D01*
X88068213Y-94139707D01*
X88068210Y-94139711D01*
X87980609Y-94270814D01*
X87980602Y-94270827D01*
X87920264Y-94416498D01*
X87920261Y-94416510D01*
X87889500Y-94571153D01*
X87889500Y-94728846D01*
X87920261Y-94883489D01*
X87920264Y-94883501D01*
X87980602Y-95029172D01*
X87980609Y-95029185D01*
X88068210Y-95160288D01*
X88068213Y-95160292D01*
X88179707Y-95271786D01*
X88179711Y-95271789D01*
X88310814Y-95359390D01*
X88310827Y-95359397D01*
X88456498Y-95419735D01*
X88456503Y-95419737D01*
X88611153Y-95450499D01*
X88611156Y-95450500D01*
X88745500Y-95450500D01*
X88812539Y-95470185D01*
X88858294Y-95522989D01*
X88869500Y-95574500D01*
X88869500Y-98720943D01*
X88869500Y-98879057D01*
X88898458Y-98987128D01*
X88910423Y-99031783D01*
X88910426Y-99031790D01*
X88989475Y-99168709D01*
X88989479Y-99168714D01*
X88989480Y-99168716D01*
X89101284Y-99280520D01*
X89101286Y-99280521D01*
X89101290Y-99280524D01*
X89162048Y-99315602D01*
X89238216Y-99359577D01*
X89390943Y-99400500D01*
X90641221Y-99400500D01*
X90708260Y-99420185D01*
X90754015Y-99472989D01*
X90763959Y-99542147D01*
X90762838Y-99548691D01*
X90734500Y-99691153D01*
X90734500Y-99848846D01*
X90765261Y-100003489D01*
X90765264Y-100003501D01*
X90825602Y-100149172D01*
X90825609Y-100149185D01*
X90913210Y-100280288D01*
X90913213Y-100280292D01*
X91024707Y-100391786D01*
X91024711Y-100391789D01*
X91155814Y-100479390D01*
X91155827Y-100479397D01*
X91293886Y-100536582D01*
X91301503Y-100539737D01*
X91439809Y-100567248D01*
X91456153Y-100570499D01*
X91456156Y-100570500D01*
X91456158Y-100570500D01*
X91613844Y-100570500D01*
X91613845Y-100570499D01*
X91768497Y-100539737D01*
X91885790Y-100491153D01*
X91914172Y-100479397D01*
X91914172Y-100479396D01*
X91914179Y-100479394D01*
X92045289Y-100391789D01*
X92156789Y-100280289D01*
X92244394Y-100149179D01*
X92304737Y-100003497D01*
X92335500Y-99848842D01*
X92335500Y-99691158D01*
X92335500Y-99691155D01*
X92335499Y-99691153D01*
X92307162Y-99548691D01*
X92309039Y-99527707D01*
X92306041Y-99506853D01*
X92312091Y-99493605D01*
X92313389Y-99479100D01*
X92326313Y-99462461D01*
X92335066Y-99443297D01*
X92347317Y-99435423D01*
X92356252Y-99423922D01*
X92376120Y-99416912D01*
X92393844Y-99405523D01*
X92418427Y-99401988D01*
X92422142Y-99400678D01*
X92428779Y-99400500D01*
X92534903Y-99400500D01*
X92601942Y-99420185D01*
X92622584Y-99436819D01*
X93455701Y-100269937D01*
X93489186Y-100331260D01*
X93484202Y-100400952D01*
X93442330Y-100456885D01*
X93392212Y-100479235D01*
X93286508Y-100500261D01*
X93286498Y-100500264D01*
X93140827Y-100560602D01*
X93140814Y-100560609D01*
X93009711Y-100648210D01*
X93009707Y-100648213D01*
X92898210Y-100759710D01*
X92828266Y-100864391D01*
X92774654Y-100909196D01*
X92725164Y-100919500D01*
X89504500Y-100919500D01*
X89437461Y-100899815D01*
X89391706Y-100847011D01*
X89380500Y-100795500D01*
X89380500Y-100766155D01*
X89380499Y-100766153D01*
X89364224Y-100684334D01*
X89349737Y-100611503D01*
X89328655Y-100560606D01*
X89289397Y-100465827D01*
X89289390Y-100465814D01*
X89201789Y-100334711D01*
X89201786Y-100334707D01*
X89090292Y-100223213D01*
X89090288Y-100223210D01*
X88959185Y-100135609D01*
X88959172Y-100135602D01*
X88813501Y-100075264D01*
X88813489Y-100075261D01*
X88658845Y-100044500D01*
X88658842Y-100044500D01*
X88501158Y-100044500D01*
X88501155Y-100044500D01*
X88346510Y-100075261D01*
X88346498Y-100075264D01*
X88200827Y-100135602D01*
X88200814Y-100135609D01*
X88072040Y-100221654D01*
X88005362Y-100242532D01*
X87937982Y-100224047D01*
X87915468Y-100206233D01*
X81186983Y-93477747D01*
X81105389Y-93396153D01*
X84507000Y-93396153D01*
X84507000Y-93553846D01*
X84537761Y-93708489D01*
X84537764Y-93708501D01*
X84598102Y-93854172D01*
X84598109Y-93854185D01*
X84685710Y-93985288D01*
X84685713Y-93985292D01*
X84797207Y-94096786D01*
X84797211Y-94096789D01*
X84928314Y-94184390D01*
X84928327Y-94184397D01*
X85041664Y-94231342D01*
X85074003Y-94244737D01*
X85228653Y-94275499D01*
X85228656Y-94275500D01*
X85228658Y-94275500D01*
X85386344Y-94275500D01*
X85386345Y-94275499D01*
X85540997Y-94244737D01*
X85686679Y-94184394D01*
X85817789Y-94096789D01*
X85929289Y-93985289D01*
X86016894Y-93854179D01*
X86018003Y-93851503D01*
X86030567Y-93821166D01*
X86077237Y-93708497D01*
X86108000Y-93553842D01*
X86108000Y-93396158D01*
X86108000Y-93396155D01*
X86107999Y-93396153D01*
X86105335Y-93382761D01*
X86077237Y-93241503D01*
X86030223Y-93128000D01*
X86016897Y-93095827D01*
X86016890Y-93095814D01*
X85929289Y-92964711D01*
X85929286Y-92964707D01*
X85817792Y-92853213D01*
X85817788Y-92853210D01*
X85686685Y-92765609D01*
X85686672Y-92765602D01*
X85541001Y-92705264D01*
X85540989Y-92705261D01*
X85386345Y-92674500D01*
X85386342Y-92674500D01*
X85228658Y-92674500D01*
X85228655Y-92674500D01*
X85074010Y-92705261D01*
X85073998Y-92705264D01*
X84928327Y-92765602D01*
X84928314Y-92765609D01*
X84797211Y-92853210D01*
X84797207Y-92853213D01*
X84685713Y-92964707D01*
X84685710Y-92964711D01*
X84598109Y-93095814D01*
X84598102Y-93095827D01*
X84537764Y-93241498D01*
X84537761Y-93241510D01*
X84507000Y-93396153D01*
X81105389Y-93396153D01*
X80706819Y-92997583D01*
X80673334Y-92936260D01*
X80670500Y-92909902D01*
X80670500Y-92469060D01*
X80670501Y-92469047D01*
X80670501Y-92300944D01*
X80666707Y-92286785D01*
X80629577Y-92148216D01*
X80608234Y-92111249D01*
X80550524Y-92011290D01*
X80550518Y-92011282D01*
X79914416Y-91375180D01*
X79910077Y-91367234D01*
X79902830Y-91361809D01*
X79893595Y-91337049D01*
X79880931Y-91313857D01*
X79881576Y-91304827D01*
X79878413Y-91296345D01*
X79884029Y-91270524D01*
X79885915Y-91244165D01*
X79891733Y-91235110D01*
X79893265Y-91228072D01*
X79914412Y-91199822D01*
X79968081Y-91146153D01*
X81879500Y-91146153D01*
X81879500Y-91303846D01*
X81910261Y-91458489D01*
X81910264Y-91458501D01*
X81970602Y-91604172D01*
X81970609Y-91604185D01*
X82058210Y-91735288D01*
X82058213Y-91735292D01*
X82169707Y-91846786D01*
X82169711Y-91846789D01*
X82300814Y-91934390D01*
X82300827Y-91934397D01*
X82408744Y-91979097D01*
X82446503Y-91994737D01*
X82601153Y-92025499D01*
X82601156Y-92025500D01*
X82601158Y-92025500D01*
X82758844Y-92025500D01*
X82758845Y-92025499D01*
X82913497Y-91994737D01*
X83059179Y-91934394D01*
X83190289Y-91846789D01*
X83301789Y-91735289D01*
X83389394Y-91604179D01*
X83449737Y-91458497D01*
X83480500Y-91303842D01*
X83480500Y-91146158D01*
X83480500Y-91146155D01*
X83480499Y-91146153D01*
X83464657Y-91066510D01*
X83449737Y-90991503D01*
X83423459Y-90928062D01*
X83389397Y-90845827D01*
X83389390Y-90845814D01*
X83301789Y-90714711D01*
X83301786Y-90714707D01*
X83190292Y-90603213D01*
X83190288Y-90603210D01*
X83059185Y-90515609D01*
X83059172Y-90515602D01*
X82913501Y-90455264D01*
X82913489Y-90455261D01*
X82758845Y-90424500D01*
X82758842Y-90424500D01*
X82601158Y-90424500D01*
X82601155Y-90424500D01*
X82446510Y-90455261D01*
X82446498Y-90455264D01*
X82300827Y-90515602D01*
X82300814Y-90515609D01*
X82169711Y-90603210D01*
X82169707Y-90603213D01*
X82058213Y-90714707D01*
X82058210Y-90714711D01*
X81970609Y-90845814D01*
X81970602Y-90845827D01*
X81910264Y-90991498D01*
X81910261Y-90991510D01*
X81879500Y-91146153D01*
X79968081Y-91146153D01*
X80380520Y-90733716D01*
X80459577Y-90596784D01*
X80500501Y-90444057D01*
X80500501Y-90285942D01*
X80500501Y-90278347D01*
X80500500Y-90278329D01*
X80500500Y-89246153D01*
X85907000Y-89246153D01*
X85907000Y-89403846D01*
X85937761Y-89558489D01*
X85937764Y-89558501D01*
X85998102Y-89704172D01*
X85998109Y-89704185D01*
X86085710Y-89835288D01*
X86085713Y-89835292D01*
X86197207Y-89946786D01*
X86197211Y-89946789D01*
X86328314Y-90034390D01*
X86328327Y-90034397D01*
X86401974Y-90064902D01*
X86474003Y-90094737D01*
X86582226Y-90116264D01*
X86628653Y-90125499D01*
X86628656Y-90125500D01*
X86628658Y-90125500D01*
X86786344Y-90125500D01*
X86786345Y-90125499D01*
X86940997Y-90094737D01*
X87086679Y-90034394D01*
X87217789Y-89946789D01*
X87329289Y-89835289D01*
X87416894Y-89704179D01*
X87477237Y-89558497D01*
X87508000Y-89403842D01*
X87508000Y-89246158D01*
X87508000Y-89246155D01*
X87507999Y-89246153D01*
X87492731Y-89169395D01*
X87477237Y-89091503D01*
X87477235Y-89091498D01*
X87416897Y-88945827D01*
X87416890Y-88945814D01*
X87329289Y-88814711D01*
X87329286Y-88814707D01*
X87217792Y-88703213D01*
X87217788Y-88703210D01*
X87086685Y-88615609D01*
X87086672Y-88615602D01*
X86941001Y-88555264D01*
X86940989Y-88555261D01*
X86786345Y-88524500D01*
X86786342Y-88524500D01*
X86628658Y-88524500D01*
X86628655Y-88524500D01*
X86474010Y-88555261D01*
X86473998Y-88555264D01*
X86328327Y-88615602D01*
X86328314Y-88615609D01*
X86197211Y-88703210D01*
X86197207Y-88703213D01*
X86085713Y-88814707D01*
X86085710Y-88814711D01*
X85998109Y-88945814D01*
X85998102Y-88945827D01*
X85937764Y-89091498D01*
X85937761Y-89091510D01*
X85907000Y-89246153D01*
X80500500Y-89246153D01*
X80500500Y-86429765D01*
X80520185Y-86362726D01*
X80521398Y-86360874D01*
X80525147Y-86355264D01*
X80609394Y-86229179D01*
X80669737Y-86083497D01*
X80691059Y-85976307D01*
X80700638Y-85928150D01*
X80733023Y-85866239D01*
X80734520Y-85864714D01*
X81528506Y-85070727D01*
X81528511Y-85070724D01*
X81538714Y-85060520D01*
X81538716Y-85060520D01*
X81650520Y-84948716D01*
X81701984Y-84859577D01*
X81729577Y-84811785D01*
X81770500Y-84659058D01*
X81770500Y-84500943D01*
X81770500Y-84201941D01*
X81790185Y-84134902D01*
X81842989Y-84089147D01*
X81912147Y-84079203D01*
X81975703Y-84108228D01*
X81982181Y-84114260D01*
X82069707Y-84201786D01*
X82069711Y-84201789D01*
X82200814Y-84289390D01*
X82200827Y-84289397D01*
X82301907Y-84331265D01*
X82346503Y-84349737D01*
X82501153Y-84380499D01*
X82501156Y-84380500D01*
X82501158Y-84380500D01*
X82658844Y-84380500D01*
X82658845Y-84380499D01*
X82813497Y-84349737D01*
X82959179Y-84289394D01*
X83090289Y-84201789D01*
X83201789Y-84090289D01*
X83289394Y-83959179D01*
X83349737Y-83813497D01*
X83380500Y-83658842D01*
X83380500Y-83501158D01*
X83380500Y-83501155D01*
X83380499Y-83501153D01*
X83349738Y-83346510D01*
X83349737Y-83346503D01*
X83348774Y-83344179D01*
X83289397Y-83200827D01*
X83289390Y-83200814D01*
X83201789Y-83069711D01*
X83201786Y-83069707D01*
X83090292Y-82958213D01*
X83090288Y-82958210D01*
X82959185Y-82870609D01*
X82959172Y-82870602D01*
X82813501Y-82810264D01*
X82813489Y-82810261D01*
X82658845Y-82779500D01*
X82658842Y-82779500D01*
X82501158Y-82779500D01*
X82501155Y-82779500D01*
X82346510Y-82810261D01*
X82346498Y-82810264D01*
X82200827Y-82870602D01*
X82200814Y-82870609D01*
X82069711Y-82958210D01*
X82069707Y-82958213D01*
X81982181Y-83045740D01*
X81920858Y-83079225D01*
X81851166Y-83074241D01*
X81795233Y-83032369D01*
X81770816Y-82966905D01*
X81770500Y-82958059D01*
X81770500Y-82594765D01*
X81790185Y-82527726D01*
X81791398Y-82525874D01*
X81879390Y-82394185D01*
X81879390Y-82394184D01*
X81879394Y-82394179D01*
X81899287Y-82346153D01*
X87789500Y-82346153D01*
X87789500Y-82503846D01*
X87820261Y-82658489D01*
X87820264Y-82658501D01*
X87880602Y-82804172D01*
X87880609Y-82804185D01*
X87968210Y-82935288D01*
X87968213Y-82935292D01*
X88079707Y-83046786D01*
X88079711Y-83046789D01*
X88210814Y-83134390D01*
X88210827Y-83134397D01*
X88356498Y-83194735D01*
X88356503Y-83194737D01*
X88484956Y-83220288D01*
X88511153Y-83225499D01*
X88511156Y-83225500D01*
X88511158Y-83225500D01*
X88668844Y-83225500D01*
X88668845Y-83225499D01*
X88823497Y-83194737D01*
X88969179Y-83134394D01*
X88969185Y-83134390D01*
X89100875Y-83046398D01*
X89167553Y-83025520D01*
X89169766Y-83025500D01*
X92393331Y-83025500D01*
X92393347Y-83025501D01*
X92400943Y-83025501D01*
X92559054Y-83025501D01*
X92559057Y-83025501D01*
X92711785Y-82984577D01*
X92782937Y-82943497D01*
X92848716Y-82905520D01*
X92960520Y-82793716D01*
X92960520Y-82793714D01*
X92970723Y-82783512D01*
X92970727Y-82783506D01*
X93003080Y-82751153D01*
X102999500Y-82751153D01*
X102999500Y-82908846D01*
X103030261Y-83063489D01*
X103030264Y-83063501D01*
X103090602Y-83209172D01*
X103090609Y-83209185D01*
X103178210Y-83340288D01*
X103178213Y-83340292D01*
X103289707Y-83451786D01*
X103289711Y-83451789D01*
X103420814Y-83539390D01*
X103420827Y-83539397D01*
X103566498Y-83599735D01*
X103566503Y-83599737D01*
X103703618Y-83627011D01*
X103721153Y-83630499D01*
X103721156Y-83630500D01*
X103721158Y-83630500D01*
X103878844Y-83630500D01*
X103878845Y-83630499D01*
X104033497Y-83599737D01*
X104179179Y-83539394D01*
X104310289Y-83451789D01*
X104421789Y-83340289D01*
X104509394Y-83209179D01*
X104512854Y-83200827D01*
X104540372Y-83134390D01*
X104569737Y-83063497D01*
X104600500Y-82908842D01*
X104600500Y-82751158D01*
X104600500Y-82751155D01*
X104600499Y-82751153D01*
X104581847Y-82657385D01*
X104569737Y-82596503D01*
X104565315Y-82585827D01*
X104509397Y-82450827D01*
X104509390Y-82450814D01*
X104421789Y-82319711D01*
X104421786Y-82319707D01*
X104310292Y-82208213D01*
X104310288Y-82208210D01*
X104179185Y-82120609D01*
X104179172Y-82120602D01*
X104033501Y-82060264D01*
X104033489Y-82060261D01*
X103878845Y-82029500D01*
X103878842Y-82029500D01*
X103721158Y-82029500D01*
X103721155Y-82029500D01*
X103566510Y-82060261D01*
X103566498Y-82060264D01*
X103420827Y-82120602D01*
X103420814Y-82120609D01*
X103289711Y-82208210D01*
X103289707Y-82208213D01*
X103178213Y-82319707D01*
X103178210Y-82319711D01*
X103090609Y-82450814D01*
X103090602Y-82450827D01*
X103030264Y-82596498D01*
X103030261Y-82596510D01*
X102999500Y-82751153D01*
X93003080Y-82751153D01*
X94324662Y-81429572D01*
X94385983Y-81396089D01*
X94388150Y-81395638D01*
X94446085Y-81384113D01*
X94543497Y-81364737D01*
X94689179Y-81304394D01*
X94820289Y-81216789D01*
X94931789Y-81105289D01*
X95019394Y-80974179D01*
X95079737Y-80828497D01*
X95110500Y-80673842D01*
X95110500Y-80516158D01*
X95110500Y-80516155D01*
X95110499Y-80516153D01*
X95098233Y-80454490D01*
X95079737Y-80361503D01*
X95077255Y-80355511D01*
X95019397Y-80215827D01*
X95019390Y-80215814D01*
X94931789Y-80084711D01*
X94931786Y-80084707D01*
X94820292Y-79973213D01*
X94820288Y-79973210D01*
X94689185Y-79885609D01*
X94689172Y-79885602D01*
X94543501Y-79825264D01*
X94543489Y-79825261D01*
X94388845Y-79794500D01*
X94388842Y-79794500D01*
X94231158Y-79794500D01*
X94231155Y-79794500D01*
X94076510Y-79825261D01*
X94076498Y-79825264D01*
X93930827Y-79885602D01*
X93930814Y-79885609D01*
X93799711Y-79973210D01*
X93799707Y-79973213D01*
X93688213Y-80084707D01*
X93688210Y-80084711D01*
X93600609Y-80215814D01*
X93600602Y-80215827D01*
X93540264Y-80361498D01*
X93540261Y-80361508D01*
X93509361Y-80516850D01*
X93476976Y-80578761D01*
X93475425Y-80580339D01*
X92267584Y-81788181D01*
X92206261Y-81821666D01*
X92179903Y-81824500D01*
X89169766Y-81824500D01*
X89102727Y-81804815D01*
X89100875Y-81803602D01*
X88969185Y-81715609D01*
X88969172Y-81715602D01*
X88823501Y-81655264D01*
X88823489Y-81655261D01*
X88668845Y-81624500D01*
X88668842Y-81624500D01*
X88511158Y-81624500D01*
X88511155Y-81624500D01*
X88356510Y-81655261D01*
X88356498Y-81655264D01*
X88210827Y-81715602D01*
X88210814Y-81715609D01*
X88079711Y-81803210D01*
X88079707Y-81803213D01*
X87968213Y-81914707D01*
X87968210Y-81914711D01*
X87880609Y-82045814D01*
X87880602Y-82045827D01*
X87820264Y-82191498D01*
X87820261Y-82191510D01*
X87789500Y-82346153D01*
X81899287Y-82346153D01*
X81900505Y-82343213D01*
X81921464Y-82292613D01*
X81924715Y-82284761D01*
X81939737Y-82248497D01*
X81970500Y-82093842D01*
X81970500Y-81936158D01*
X81970500Y-81936155D01*
X81970499Y-81936153D01*
X81964250Y-81904737D01*
X81939737Y-81781503D01*
X81912440Y-81715602D01*
X81879397Y-81635827D01*
X81879390Y-81635814D01*
X81791789Y-81504711D01*
X81791786Y-81504707D01*
X81680292Y-81393213D01*
X81680288Y-81393210D01*
X81549185Y-81305609D01*
X81549172Y-81305602D01*
X81403501Y-81245264D01*
X81403489Y-81245261D01*
X81248845Y-81214500D01*
X81248842Y-81214500D01*
X81199096Y-81214500D01*
X81132057Y-81194815D01*
X81086302Y-81142011D01*
X81076358Y-81072853D01*
X81105383Y-81009297D01*
X81111415Y-81002819D01*
X83357704Y-78756530D01*
X99149500Y-78756530D01*
X99149500Y-78963469D01*
X99189868Y-79166412D01*
X99189870Y-79166420D01*
X99269059Y-79357598D01*
X99276797Y-79369179D01*
X99384024Y-79529657D01*
X99530342Y-79675975D01*
X99530345Y-79675977D01*
X99702402Y-79790941D01*
X99893580Y-79870130D01*
X100096530Y-79910499D01*
X100096534Y-79910500D01*
X100096535Y-79910500D01*
X100303466Y-79910500D01*
X100303467Y-79910499D01*
X100506420Y-79870130D01*
X100697598Y-79790941D01*
X100869655Y-79675977D01*
X101015977Y-79529655D01*
X101130941Y-79357598D01*
X101210130Y-79166420D01*
X101250500Y-78963465D01*
X101250500Y-78911153D01*
X103229500Y-78911153D01*
X103229500Y-79068846D01*
X103260261Y-79223489D01*
X103260264Y-79223501D01*
X103320602Y-79369172D01*
X103320609Y-79369185D01*
X103408210Y-79500288D01*
X103408213Y-79500292D01*
X103519707Y-79611786D01*
X103519711Y-79611789D01*
X103650814Y-79699390D01*
X103650827Y-79699397D01*
X103765364Y-79746839D01*
X103796503Y-79759737D01*
X103951153Y-79790499D01*
X103951156Y-79790500D01*
X103951158Y-79790500D01*
X104108844Y-79790500D01*
X104108845Y-79790499D01*
X104263497Y-79759737D01*
X104409179Y-79699394D01*
X104540289Y-79611789D01*
X104651789Y-79500289D01*
X104739394Y-79369179D01*
X104799737Y-79223497D01*
X104830500Y-79068842D01*
X104830500Y-78911158D01*
X104830500Y-78911155D01*
X104803344Y-78774635D01*
X104803344Y-78774634D01*
X104799742Y-78756530D01*
X105149500Y-78756530D01*
X105149500Y-78963469D01*
X105189868Y-79166412D01*
X105189870Y-79166420D01*
X105269059Y-79357598D01*
X105276797Y-79369179D01*
X105384024Y-79529657D01*
X105530342Y-79675975D01*
X105530345Y-79675977D01*
X105702402Y-79790941D01*
X105893580Y-79870130D01*
X106096530Y-79910499D01*
X106096534Y-79910500D01*
X106096535Y-79910500D01*
X106303466Y-79910500D01*
X106303467Y-79910499D01*
X106506420Y-79870130D01*
X106697598Y-79790941D01*
X106869655Y-79675977D01*
X107015977Y-79529655D01*
X107130941Y-79357598D01*
X107210130Y-79166420D01*
X107250500Y-78963465D01*
X107250500Y-78756535D01*
X107210130Y-78553580D01*
X107130941Y-78362402D01*
X107015977Y-78190345D01*
X107015975Y-78190342D01*
X106869657Y-78044024D01*
X106783626Y-77986541D01*
X106697598Y-77929059D01*
X106506420Y-77849870D01*
X106506412Y-77849868D01*
X106303469Y-77809500D01*
X106303465Y-77809500D01*
X106096535Y-77809500D01*
X106096530Y-77809500D01*
X105893587Y-77849868D01*
X105893579Y-77849870D01*
X105702403Y-77929058D01*
X105530342Y-78044024D01*
X105384024Y-78190342D01*
X105269058Y-78362403D01*
X105189870Y-78553579D01*
X105189868Y-78553587D01*
X105149500Y-78756530D01*
X104799742Y-78756530D01*
X104799738Y-78756510D01*
X104799737Y-78756503D01*
X104799735Y-78756498D01*
X104739397Y-78610827D01*
X104739390Y-78610814D01*
X104651789Y-78479711D01*
X104651786Y-78479707D01*
X104540292Y-78368213D01*
X104540288Y-78368210D01*
X104409185Y-78280609D01*
X104409172Y-78280602D01*
X104263501Y-78220264D01*
X104263489Y-78220261D01*
X104108845Y-78189500D01*
X104108842Y-78189500D01*
X103951158Y-78189500D01*
X103951155Y-78189500D01*
X103796510Y-78220261D01*
X103796498Y-78220264D01*
X103650827Y-78280602D01*
X103650814Y-78280609D01*
X103519711Y-78368210D01*
X103519707Y-78368213D01*
X103408213Y-78479707D01*
X103408210Y-78479711D01*
X103320609Y-78610814D01*
X103320602Y-78610827D01*
X103260264Y-78756498D01*
X103260261Y-78756510D01*
X103229500Y-78911153D01*
X101250500Y-78911153D01*
X101250500Y-78756535D01*
X101210130Y-78553580D01*
X101130941Y-78362402D01*
X101015977Y-78190345D01*
X101015975Y-78190342D01*
X100869657Y-78044024D01*
X100783626Y-77986541D01*
X100697598Y-77929059D01*
X100506420Y-77849870D01*
X100506412Y-77849868D01*
X100303469Y-77809500D01*
X100303465Y-77809500D01*
X100096535Y-77809500D01*
X100096530Y-77809500D01*
X99893587Y-77849868D01*
X99893579Y-77849870D01*
X99702403Y-77929058D01*
X99530342Y-78044024D01*
X99384024Y-78190342D01*
X99269058Y-78362403D01*
X99189870Y-78553579D01*
X99189868Y-78553587D01*
X99149500Y-78756530D01*
X83357704Y-78756530D01*
X83451472Y-78662762D01*
X84794527Y-77319707D01*
X86138506Y-75975728D01*
X86138511Y-75975724D01*
X86148714Y-75965520D01*
X86148716Y-75965520D01*
X86260520Y-75853716D01*
X86313596Y-75761785D01*
X86315098Y-75759185D01*
X86339574Y-75716790D01*
X86339575Y-75716789D01*
X86339575Y-75716787D01*
X86339577Y-75716785D01*
X86380501Y-75564057D01*
X86380501Y-75564053D01*
X86381547Y-75556110D01*
X86409814Y-75492214D01*
X86468138Y-75453743D01*
X86538003Y-75452912D01*
X86597226Y-75489984D01*
X86607588Y-75503405D01*
X86695710Y-75635288D01*
X86695713Y-75635292D01*
X86807207Y-75746786D01*
X86807211Y-75746789D01*
X86938314Y-75834390D01*
X86938327Y-75834397D01*
X87083998Y-75894735D01*
X87084003Y-75894737D01*
X87238653Y-75925499D01*
X87238656Y-75925500D01*
X87238658Y-75925500D01*
X87396344Y-75925500D01*
X87396345Y-75925499D01*
X87550997Y-75894737D01*
X87696679Y-75834394D01*
X87827789Y-75746789D01*
X87939289Y-75635289D01*
X88026894Y-75504179D01*
X88087237Y-75358497D01*
X88118000Y-75203842D01*
X88118000Y-75046158D01*
X88118000Y-75046155D01*
X88117999Y-75046153D01*
X88087238Y-74891510D01*
X88087237Y-74891503D01*
X88032027Y-74758213D01*
X88026897Y-74745827D01*
X88026890Y-74745814D01*
X87939289Y-74614711D01*
X87939286Y-74614707D01*
X87827792Y-74503213D01*
X87827788Y-74503210D01*
X87696685Y-74415609D01*
X87696672Y-74415602D01*
X87551001Y-74355264D01*
X87550989Y-74355261D01*
X87396345Y-74324500D01*
X87396342Y-74324500D01*
X87238658Y-74324500D01*
X87238655Y-74324500D01*
X87084010Y-74355261D01*
X87083998Y-74355264D01*
X86938327Y-74415602D01*
X86938314Y-74415609D01*
X86807211Y-74503210D01*
X86807207Y-74503213D01*
X86695713Y-74614707D01*
X86695710Y-74614711D01*
X86607602Y-74746574D01*
X86553990Y-74791379D01*
X86484665Y-74800086D01*
X86421637Y-74769931D01*
X86384918Y-74710488D01*
X86380500Y-74677683D01*
X86380500Y-74034790D01*
X86400185Y-73967751D01*
X86435607Y-73931689D01*
X86510289Y-73881789D01*
X86621789Y-73770289D01*
X86709394Y-73639179D01*
X86769737Y-73493497D01*
X86800500Y-73338842D01*
X86800500Y-73181158D01*
X86800500Y-73181155D01*
X86800499Y-73181153D01*
X86769737Y-73026503D01*
X86754139Y-72988846D01*
X86709397Y-72880827D01*
X86709390Y-72880814D01*
X86621789Y-72749711D01*
X86621786Y-72749707D01*
X86510292Y-72638213D01*
X86510288Y-72638210D01*
X86379185Y-72550609D01*
X86379172Y-72550602D01*
X86233501Y-72490264D01*
X86233489Y-72490261D01*
X86078845Y-72459500D01*
X86078842Y-72459500D01*
X85921158Y-72459500D01*
X85861398Y-72471386D01*
X85791807Y-72465157D01*
X85749528Y-72437449D01*
X85680292Y-72368213D01*
X85680288Y-72368210D01*
X85549185Y-72280609D01*
X85549172Y-72280602D01*
X85403501Y-72220264D01*
X85403489Y-72220261D01*
X85248845Y-72189500D01*
X85248842Y-72189500D01*
X85091158Y-72189500D01*
X85091155Y-72189500D01*
X84936510Y-72220261D01*
X84936498Y-72220264D01*
X84790827Y-72280602D01*
X84790814Y-72280609D01*
X84659714Y-72368208D01*
X84659706Y-72368215D01*
X84657674Y-72370247D01*
X84656349Y-72370970D01*
X84655007Y-72372072D01*
X84654797Y-72371817D01*
X84596349Y-72403727D01*
X84526657Y-72398737D01*
X84482319Y-72370240D01*
X84400292Y-72288213D01*
X84400288Y-72288210D01*
X84269185Y-72200609D01*
X84269172Y-72200602D01*
X84123501Y-72140264D01*
X84123489Y-72140261D01*
X83968845Y-72109500D01*
X83968842Y-72109500D01*
X83811158Y-72109500D01*
X83811155Y-72109500D01*
X83656510Y-72140261D01*
X83656498Y-72140264D01*
X83510827Y-72200602D01*
X83510814Y-72200609D01*
X83379711Y-72288210D01*
X83379707Y-72288213D01*
X83268213Y-72399707D01*
X83268210Y-72399711D01*
X83180609Y-72530814D01*
X83180602Y-72530827D01*
X83120264Y-72676498D01*
X83120261Y-72676510D01*
X83089500Y-72831153D01*
X83089500Y-72988846D01*
X83120261Y-73143489D01*
X83120264Y-73143501D01*
X83180602Y-73289172D01*
X83180609Y-73289185D01*
X83268602Y-73420874D01*
X83289480Y-73487551D01*
X83289500Y-73489765D01*
X83289500Y-74879902D01*
X83269815Y-74946941D01*
X83253181Y-74967583D01*
X75979481Y-82241282D01*
X75979479Y-82241285D01*
X75958344Y-82277892D01*
X75937209Y-82314500D01*
X75900423Y-82378215D01*
X75859499Y-82530943D01*
X75859499Y-82530945D01*
X75859499Y-82699046D01*
X75859500Y-82699059D01*
X75859500Y-88480500D01*
X75839815Y-88547539D01*
X75787011Y-88593294D01*
X75735500Y-88604500D01*
X75661155Y-88604500D01*
X75506510Y-88635261D01*
X75506498Y-88635264D01*
X75360827Y-88695602D01*
X75360814Y-88695609D01*
X75229711Y-88783210D01*
X75229707Y-88783213D01*
X75118213Y-88894707D01*
X75118210Y-88894711D01*
X75030609Y-89025814D01*
X75030602Y-89025827D01*
X74970264Y-89171498D01*
X74970261Y-89171510D01*
X74939500Y-89326153D01*
X74939500Y-89483846D01*
X74970261Y-89638489D01*
X74970264Y-89638501D01*
X75030602Y-89784172D01*
X75030609Y-89784185D01*
X75118210Y-89915288D01*
X75118213Y-89915292D01*
X75229707Y-90026786D01*
X75229711Y-90026789D01*
X75360814Y-90114390D01*
X75360827Y-90114397D01*
X75506498Y-90174735D01*
X75506503Y-90174737D01*
X75661153Y-90205499D01*
X75661156Y-90205500D01*
X75735500Y-90205500D01*
X75802539Y-90225185D01*
X75848294Y-90277989D01*
X75859500Y-90329500D01*
X75859500Y-91968330D01*
X75859499Y-91968348D01*
X75859499Y-91975943D01*
X75859499Y-92134057D01*
X75863293Y-92148216D01*
X75884780Y-92228407D01*
X75883117Y-92298257D01*
X75843954Y-92356119D01*
X75779726Y-92383623D01*
X75765005Y-92384500D01*
X75432130Y-92384500D01*
X75432123Y-92384501D01*
X75372518Y-92390908D01*
X75338331Y-92403659D01*
X75268639Y-92408642D01*
X75251669Y-92403659D01*
X75217480Y-92390908D01*
X75217482Y-92390908D01*
X75157883Y-92384501D01*
X75157881Y-92384500D01*
X75157873Y-92384500D01*
X75157864Y-92384500D01*
X74162129Y-92384500D01*
X74162123Y-92384501D01*
X74102518Y-92390908D01*
X74068331Y-92403659D01*
X73998639Y-92408642D01*
X73981669Y-92403659D01*
X73947480Y-92390908D01*
X73947482Y-92390908D01*
X73887883Y-92384501D01*
X73887881Y-92384500D01*
X73887873Y-92384500D01*
X73887864Y-92384500D01*
X72892129Y-92384500D01*
X72892123Y-92384501D01*
X72857753Y-92388196D01*
X72788994Y-92375789D01*
X72737857Y-92328178D01*
X72720500Y-92264906D01*
X72720500Y-90460945D01*
X72720499Y-90460939D01*
X72720096Y-90459438D01*
X72717089Y-90448211D01*
X72679577Y-90308215D01*
X72620274Y-90205500D01*
X72600520Y-90171284D01*
X72488716Y-90059480D01*
X72488713Y-90059478D01*
X70874574Y-88445339D01*
X70841089Y-88384016D01*
X70840638Y-88381849D01*
X70809738Y-88226510D01*
X70809737Y-88226503D01*
X70754350Y-88092785D01*
X70749397Y-88080827D01*
X70749390Y-88080814D01*
X70661789Y-87949711D01*
X70661786Y-87949707D01*
X70550292Y-87838213D01*
X70550288Y-87838210D01*
X70419185Y-87750609D01*
X70419172Y-87750602D01*
X70273501Y-87690264D01*
X70273489Y-87690261D01*
X70118845Y-87659500D01*
X70118842Y-87659500D01*
X69961158Y-87659500D01*
X69961155Y-87659500D01*
X69806510Y-87690261D01*
X69806498Y-87690264D01*
X69660827Y-87750602D01*
X69660814Y-87750609D01*
X69534632Y-87834922D01*
X69467954Y-87855800D01*
X69400574Y-87837315D01*
X69362639Y-87800711D01*
X69281789Y-87679711D01*
X69281786Y-87679707D01*
X69170292Y-87568213D01*
X69170288Y-87568210D01*
X69039185Y-87480609D01*
X69039172Y-87480602D01*
X68893501Y-87420264D01*
X68893491Y-87420261D01*
X68831841Y-87407998D01*
X68769930Y-87375613D01*
X68735356Y-87314897D01*
X68734416Y-87310572D01*
X68718618Y-87231153D01*
X68709737Y-87186503D01*
X68700068Y-87163160D01*
X68649397Y-87040827D01*
X68649390Y-87040814D01*
X68561789Y-86909711D01*
X68561786Y-86909707D01*
X68450292Y-86798213D01*
X68450288Y-86798210D01*
X68319185Y-86710609D01*
X68319172Y-86710602D01*
X68173501Y-86650264D01*
X68173489Y-86650261D01*
X68018845Y-86619500D01*
X68018842Y-86619500D01*
X67861158Y-86619500D01*
X67861155Y-86619500D01*
X67706510Y-86650261D01*
X67706498Y-86650264D01*
X67560827Y-86710602D01*
X67560814Y-86710609D01*
X67429711Y-86798210D01*
X67429707Y-86798213D01*
X67318213Y-86909707D01*
X67318210Y-86909711D01*
X67230609Y-87040814D01*
X67230602Y-87040827D01*
X67170264Y-87186498D01*
X67170261Y-87186510D01*
X67139500Y-87341153D01*
X67139500Y-87498846D01*
X67170261Y-87653489D01*
X67170264Y-87653501D01*
X67230602Y-87799172D01*
X67230609Y-87799185D01*
X67300170Y-87903289D01*
X67316923Y-87928362D01*
X67318602Y-87930874D01*
X67339480Y-87997551D01*
X67339500Y-87999765D01*
X67339500Y-90409340D01*
X67319815Y-90476379D01*
X67267011Y-90522134D01*
X67197853Y-90532078D01*
X67191310Y-90530958D01*
X67158842Y-90524500D01*
X67001158Y-90524500D01*
X67001155Y-90524500D01*
X66846510Y-90555261D01*
X66846498Y-90555264D01*
X66700827Y-90615602D01*
X66700816Y-90615608D01*
X66663390Y-90640616D01*
X66596713Y-90661493D01*
X66529333Y-90643008D01*
X66482643Y-90591029D01*
X66470500Y-90537513D01*
X66470500Y-87889765D01*
X66490185Y-87822726D01*
X66491398Y-87820874D01*
X66579390Y-87689185D01*
X66579390Y-87689184D01*
X66579394Y-87689179D01*
X66639737Y-87543497D01*
X66670500Y-87388842D01*
X66670500Y-87231158D01*
X66670500Y-87231155D01*
X66670499Y-87231153D01*
X66661619Y-87186510D01*
X66639737Y-87076503D01*
X66605763Y-86994481D01*
X66579397Y-86930827D01*
X66579390Y-86930814D01*
X66491789Y-86799711D01*
X66491786Y-86799707D01*
X66380292Y-86688213D01*
X66380288Y-86688210D01*
X66249185Y-86600609D01*
X66249172Y-86600602D01*
X66103501Y-86540264D01*
X66103493Y-86540262D01*
X66083667Y-86536318D01*
X66021757Y-86503931D01*
X65987184Y-86443215D01*
X65986244Y-86390510D01*
X66000500Y-86318842D01*
X66000500Y-86161158D01*
X66000500Y-86161155D01*
X66000499Y-86161153D01*
X65985052Y-86083497D01*
X65969737Y-86006503D01*
X65937569Y-85928842D01*
X65909397Y-85860827D01*
X65909390Y-85860814D01*
X65821789Y-85729711D01*
X65821786Y-85729707D01*
X65710292Y-85618213D01*
X65710288Y-85618210D01*
X65579185Y-85530609D01*
X65579172Y-85530602D01*
X65456998Y-85479997D01*
X65402594Y-85436156D01*
X65380529Y-85369862D01*
X65380686Y-85364934D01*
X65380500Y-85364934D01*
X65380500Y-85201155D01*
X65380499Y-85201153D01*
X65374636Y-85171678D01*
X65349737Y-85046503D01*
X65334366Y-85009394D01*
X65289397Y-84900827D01*
X65289390Y-84900814D01*
X65201789Y-84769711D01*
X65201786Y-84769707D01*
X65090292Y-84658213D01*
X65090288Y-84658210D01*
X64959185Y-84570609D01*
X64959172Y-84570602D01*
X64813501Y-84510264D01*
X64813489Y-84510261D01*
X64658845Y-84479500D01*
X64658842Y-84479500D01*
X64501158Y-84479500D01*
X64501155Y-84479500D01*
X64346510Y-84510261D01*
X64346498Y-84510264D01*
X64200827Y-84570602D01*
X64200814Y-84570609D01*
X64069711Y-84658210D01*
X64069707Y-84658213D01*
X63958213Y-84769707D01*
X63958210Y-84769711D01*
X63870609Y-84900814D01*
X63870602Y-84900827D01*
X63810264Y-85046498D01*
X63810261Y-85046508D01*
X63780584Y-85195704D01*
X63748199Y-85257615D01*
X63687483Y-85292189D01*
X63617714Y-85288449D01*
X63590076Y-85274614D01*
X63539185Y-85240609D01*
X63539172Y-85240602D01*
X63393501Y-85180264D01*
X63393494Y-85180262D01*
X63350342Y-85171678D01*
X63288432Y-85139292D01*
X63253859Y-85078575D01*
X63257600Y-85008806D01*
X63286853Y-84962382D01*
X64267417Y-83981819D01*
X64328740Y-83948334D01*
X64355098Y-83945500D01*
X67205500Y-83945500D01*
X67272539Y-83965185D01*
X67318294Y-84017989D01*
X67329500Y-84069500D01*
X67329500Y-85374057D01*
X67357887Y-85479997D01*
X67370423Y-85526783D01*
X67370426Y-85526790D01*
X67449475Y-85663709D01*
X67449479Y-85663714D01*
X67449480Y-85663716D01*
X67561284Y-85775520D01*
X67561286Y-85775521D01*
X67561290Y-85775524D01*
X67698209Y-85854573D01*
X67698216Y-85854577D01*
X67850943Y-85895500D01*
X67850945Y-85895500D01*
X68009055Y-85895500D01*
X68009057Y-85895500D01*
X68161784Y-85854577D01*
X68298716Y-85775520D01*
X68410520Y-85663716D01*
X68489577Y-85526784D01*
X68530500Y-85374057D01*
X68530500Y-84988295D01*
X68550185Y-84921256D01*
X68602989Y-84875501D01*
X68672147Y-84865557D01*
X68686577Y-84868516D01*
X68805943Y-84900501D01*
X68805946Y-84900501D01*
X68971653Y-84900501D01*
X68971669Y-84900500D01*
X69240234Y-84900500D01*
X69307273Y-84920185D01*
X69309125Y-84921398D01*
X69440814Y-85009390D01*
X69440827Y-85009397D01*
X69537646Y-85049500D01*
X69586503Y-85069737D01*
X69741153Y-85100499D01*
X69741156Y-85100500D01*
X69741158Y-85100500D01*
X69898844Y-85100500D01*
X69898845Y-85100499D01*
X70053497Y-85069737D01*
X70199179Y-85009394D01*
X70230756Y-84988295D01*
X70330875Y-84921398D01*
X70397553Y-84900520D01*
X70399766Y-84900500D01*
X72000831Y-84900500D01*
X72000847Y-84900501D01*
X72008443Y-84900501D01*
X72166554Y-84900501D01*
X72166557Y-84900501D01*
X72319285Y-84859577D01*
X72369404Y-84830639D01*
X72456216Y-84780520D01*
X72568020Y-84668716D01*
X72568020Y-84668714D01*
X72578228Y-84658507D01*
X72578229Y-84658504D01*
X73437162Y-83799572D01*
X73498483Y-83766089D01*
X73500650Y-83765638D01*
X73558585Y-83754113D01*
X73655997Y-83734737D01*
X73770620Y-83687259D01*
X73801672Y-83674397D01*
X73801672Y-83674396D01*
X73801679Y-83674394D01*
X73932789Y-83586789D01*
X74044289Y-83475289D01*
X74131894Y-83344179D01*
X74192237Y-83198497D01*
X74223000Y-83043842D01*
X74223000Y-82886158D01*
X74223000Y-82886155D01*
X74222999Y-82886153D01*
X74212766Y-82834707D01*
X74192237Y-82731503D01*
X74188802Y-82723210D01*
X74131897Y-82585827D01*
X74131890Y-82585814D01*
X74044289Y-82454711D01*
X74044286Y-82454707D01*
X73932792Y-82343213D01*
X73932788Y-82343210D01*
X73801685Y-82255609D01*
X73801672Y-82255602D01*
X73656001Y-82195264D01*
X73655989Y-82195261D01*
X73501345Y-82164500D01*
X73501342Y-82164500D01*
X73343658Y-82164500D01*
X73343655Y-82164500D01*
X73189010Y-82195261D01*
X73188998Y-82195264D01*
X73043327Y-82255602D01*
X73043314Y-82255609D01*
X72912211Y-82343210D01*
X72912207Y-82343213D01*
X72800713Y-82454707D01*
X72800710Y-82454711D01*
X72713109Y-82585814D01*
X72713102Y-82585827D01*
X72652764Y-82731498D01*
X72652761Y-82731508D01*
X72621861Y-82886850D01*
X72589476Y-82948761D01*
X72587925Y-82950339D01*
X71875084Y-83663181D01*
X71813761Y-83696666D01*
X71787403Y-83699500D01*
X71284501Y-83699500D01*
X71275815Y-83696949D01*
X71266855Y-83698238D01*
X71242813Y-83687259D01*
X71217462Y-83679815D01*
X71211535Y-83672975D01*
X71203299Y-83669214D01*
X71189008Y-83646978D01*
X71171707Y-83627011D01*
X71169419Y-83616498D01*
X71165524Y-83610436D01*
X71160501Y-83575500D01*
X71160501Y-83536521D01*
X71160501Y-83517112D01*
X71160501Y-83480943D01*
X71160500Y-83480939D01*
X71160500Y-81430943D01*
X71155825Y-81413497D01*
X71126591Y-81304394D01*
X71126591Y-81304392D01*
X71119578Y-81278219D01*
X71119577Y-81278218D01*
X71119577Y-81278216D01*
X71046594Y-81151804D01*
X71032208Y-81107028D01*
X71031689Y-81107132D01*
X71030791Y-81102618D01*
X71030579Y-81101958D01*
X71030500Y-81101163D01*
X71030500Y-81101158D01*
X70999737Y-80946503D01*
X70999735Y-80946498D01*
X70939397Y-80800827D01*
X70939390Y-80800814D01*
X70851789Y-80669711D01*
X70851786Y-80669707D01*
X70740292Y-80558213D01*
X70740288Y-80558210D01*
X70665296Y-80508102D01*
X70620491Y-80454490D01*
X70611784Y-80385165D01*
X70641938Y-80322138D01*
X70665296Y-80301898D01*
X70684055Y-80289363D01*
X70740289Y-80251789D01*
X70851789Y-80140289D01*
X70939394Y-80009179D01*
X70999737Y-79863497D01*
X71030500Y-79708842D01*
X71030500Y-79551158D01*
X71030500Y-79551155D01*
X71030499Y-79551153D01*
X70999738Y-79396510D01*
X70999737Y-79396503D01*
X70983622Y-79357598D01*
X70939397Y-79250827D01*
X70939390Y-79250814D01*
X70851789Y-79119711D01*
X70851786Y-79119707D01*
X70740292Y-79008213D01*
X70740288Y-79008210D01*
X70609185Y-78920609D01*
X70609172Y-78920602D01*
X70463501Y-78860264D01*
X70463489Y-78860261D01*
X70308845Y-78829500D01*
X70308842Y-78829500D01*
X70151158Y-78829500D01*
X70151155Y-78829500D01*
X69996510Y-78860261D01*
X69996498Y-78860264D01*
X69850827Y-78920602D01*
X69850814Y-78920609D01*
X69719711Y-79008210D01*
X69719707Y-79008213D01*
X69608213Y-79119707D01*
X69608210Y-79119711D01*
X69520609Y-79250814D01*
X69520602Y-79250827D01*
X69460264Y-79396498D01*
X69460261Y-79396510D01*
X69429500Y-79551153D01*
X69429500Y-79708846D01*
X69460261Y-79863489D01*
X69460264Y-79863501D01*
X69520602Y-80009172D01*
X69520609Y-80009185D01*
X69608210Y-80140288D01*
X69608213Y-80140292D01*
X69719707Y-80251786D01*
X69719711Y-80251789D01*
X69794703Y-80301898D01*
X69839508Y-80355511D01*
X69848215Y-80424836D01*
X69818060Y-80487863D01*
X69794703Y-80508102D01*
X69719711Y-80558210D01*
X69719707Y-80558213D01*
X69608213Y-80669707D01*
X69608210Y-80669711D01*
X69520609Y-80800814D01*
X69520602Y-80800827D01*
X69460264Y-80946498D01*
X69460261Y-80946510D01*
X69429500Y-81101153D01*
X69429500Y-81258846D01*
X69460261Y-81413489D01*
X69460264Y-81413501D01*
X69520602Y-81559172D01*
X69520609Y-81559185D01*
X69608210Y-81690288D01*
X69608213Y-81690292D01*
X69650992Y-81733071D01*
X69684477Y-81794394D01*
X69679493Y-81864086D01*
X69637621Y-81920019D01*
X69599309Y-81939412D01*
X69596498Y-81940264D01*
X69450827Y-82000602D01*
X69450814Y-82000609D01*
X69319711Y-82088210D01*
X69319707Y-82088213D01*
X69208213Y-82199707D01*
X69208210Y-82199711D01*
X69120609Y-82330814D01*
X69120602Y-82330827D01*
X69060264Y-82476498D01*
X69060261Y-82476510D01*
X69029500Y-82631153D01*
X69029500Y-82788846D01*
X69060261Y-82943489D01*
X69060264Y-82943501D01*
X69120602Y-83089172D01*
X69120609Y-83089185D01*
X69208210Y-83220288D01*
X69208213Y-83220292D01*
X69319707Y-83331786D01*
X69319711Y-83331789D01*
X69419635Y-83398557D01*
X69440675Y-83423733D01*
X69462601Y-83448142D01*
X69462968Y-83450407D01*
X69464440Y-83452169D01*
X69468528Y-83484724D01*
X69473777Y-83517112D01*
X69472860Y-83519216D01*
X69473147Y-83521494D01*
X69458990Y-83551082D01*
X69445892Y-83581176D01*
X69443613Y-83583222D01*
X69442992Y-83584522D01*
X69419635Y-83604761D01*
X69309125Y-83678602D01*
X69242448Y-83699480D01*
X69240234Y-83699500D01*
X69185097Y-83699500D01*
X69118058Y-83679815D01*
X69097416Y-83663181D01*
X68764574Y-83330339D01*
X68731089Y-83269016D01*
X68730638Y-83266849D01*
X68704290Y-83134394D01*
X68699737Y-83111503D01*
X68684303Y-83074241D01*
X68639397Y-82965827D01*
X68639390Y-82965814D01*
X68551789Y-82834711D01*
X68551786Y-82834707D01*
X68440292Y-82723213D01*
X68440288Y-82723210D01*
X68309185Y-82635609D01*
X68309172Y-82635602D01*
X68163501Y-82575264D01*
X68163489Y-82575261D01*
X68008845Y-82544500D01*
X68008842Y-82544500D01*
X67851158Y-82544500D01*
X67851155Y-82544500D01*
X67696510Y-82575261D01*
X67696498Y-82575264D01*
X67550827Y-82635602D01*
X67550814Y-82635609D01*
X67419125Y-82723602D01*
X67352447Y-82744480D01*
X67350234Y-82744500D01*
X64141670Y-82744500D01*
X64141654Y-82744499D01*
X64134058Y-82744499D01*
X63975943Y-82744499D01*
X63899579Y-82764961D01*
X63823214Y-82785423D01*
X63823209Y-82785426D01*
X63686290Y-82864475D01*
X63686282Y-82864481D01*
X60209481Y-86341282D01*
X60209479Y-86341285D01*
X60166572Y-86415604D01*
X60166571Y-86415605D01*
X60130423Y-86478214D01*
X60130423Y-86478215D01*
X60089499Y-86630943D01*
X60089499Y-86630945D01*
X60089499Y-86799046D01*
X60089500Y-86799059D01*
X60089500Y-92264906D01*
X60069815Y-92331945D01*
X60017011Y-92377700D01*
X59952247Y-92388195D01*
X59917873Y-92384500D01*
X59917865Y-92384500D01*
X58922129Y-92384500D01*
X58922123Y-92384501D01*
X58862516Y-92390908D01*
X58727671Y-92441202D01*
X58727669Y-92441204D01*
X58680875Y-92476234D01*
X58615411Y-92500651D01*
X58547138Y-92485800D01*
X58518883Y-92464648D01*
X58204574Y-92150339D01*
X58171089Y-92089016D01*
X58170638Y-92086849D01*
X58147062Y-91968330D01*
X58139737Y-91931503D01*
X58118014Y-91879058D01*
X58079397Y-91785827D01*
X58079390Y-91785814D01*
X57991789Y-91654711D01*
X57991786Y-91654707D01*
X57880292Y-91543213D01*
X57880288Y-91543210D01*
X57749185Y-91455609D01*
X57749172Y-91455602D01*
X57603501Y-91395264D01*
X57603489Y-91395261D01*
X57448845Y-91364500D01*
X57448842Y-91364500D01*
X57291158Y-91364500D01*
X57291155Y-91364500D01*
X57136510Y-91395261D01*
X57136498Y-91395264D01*
X56990827Y-91455602D01*
X56990814Y-91455609D01*
X56859711Y-91543210D01*
X56859707Y-91543213D01*
X56748213Y-91654707D01*
X56748210Y-91654711D01*
X56660609Y-91785814D01*
X56660602Y-91785827D01*
X56600264Y-91931498D01*
X56600261Y-91931510D01*
X56569500Y-92086153D01*
X56569500Y-92243846D01*
X56600261Y-92398489D01*
X56600264Y-92398501D01*
X56660602Y-92544172D01*
X56660609Y-92544185D01*
X56748210Y-92675288D01*
X56748213Y-92675292D01*
X56859707Y-92786786D01*
X56859711Y-92786789D01*
X56990814Y-92874390D01*
X56990827Y-92874397D01*
X57135139Y-92934172D01*
X57136503Y-92934737D01*
X57185585Y-92944500D01*
X57291849Y-92965638D01*
X57308605Y-92974402D01*
X57327085Y-92978423D01*
X57352123Y-92997167D01*
X57353760Y-92998023D01*
X57355339Y-92999574D01*
X57403227Y-93047462D01*
X57436712Y-93108785D01*
X57431728Y-93178477D01*
X57389856Y-93234410D01*
X57324392Y-93258827D01*
X57315409Y-93259143D01*
X51944363Y-93253207D01*
X51877345Y-93233448D01*
X51831649Y-93180594D01*
X51820500Y-93129207D01*
X51820500Y-87553543D01*
X56079499Y-87553543D01*
X56117947Y-87746829D01*
X56117950Y-87746839D01*
X56193364Y-87928907D01*
X56193371Y-87928920D01*
X56302860Y-88092781D01*
X56302863Y-88092785D01*
X56442214Y-88232136D01*
X56442218Y-88232139D01*
X56606079Y-88341628D01*
X56606092Y-88341635D01*
X56774196Y-88411265D01*
X56788165Y-88417051D01*
X56788169Y-88417051D01*
X56788170Y-88417052D01*
X56981456Y-88455500D01*
X56981459Y-88455500D01*
X57178543Y-88455500D01*
X57308582Y-88429632D01*
X57371835Y-88417051D01*
X57553914Y-88341632D01*
X57717782Y-88232139D01*
X57857139Y-88092782D01*
X57966632Y-87928914D01*
X58042051Y-87746835D01*
X58059423Y-87659500D01*
X58080500Y-87553543D01*
X58080500Y-87356456D01*
X58042052Y-87163170D01*
X58042051Y-87163169D01*
X58042051Y-87163165D01*
X58018491Y-87106286D01*
X57966635Y-86981092D01*
X57966628Y-86981079D01*
X57857139Y-86817218D01*
X57857136Y-86817214D01*
X57717785Y-86677863D01*
X57717781Y-86677860D01*
X57553920Y-86568371D01*
X57553907Y-86568364D01*
X57371839Y-86492950D01*
X57371829Y-86492947D01*
X57178543Y-86454500D01*
X57178541Y-86454500D01*
X56981459Y-86454500D01*
X56981457Y-86454500D01*
X56788170Y-86492947D01*
X56788160Y-86492950D01*
X56606092Y-86568364D01*
X56606079Y-86568371D01*
X56442218Y-86677860D01*
X56442214Y-86677863D01*
X56302863Y-86817214D01*
X56302860Y-86817218D01*
X56193371Y-86981079D01*
X56193364Y-86981092D01*
X56117950Y-87163160D01*
X56117947Y-87163170D01*
X56079500Y-87356456D01*
X56079500Y-87356459D01*
X56079500Y-87553541D01*
X56079500Y-87553543D01*
X56079499Y-87553543D01*
X51820500Y-87553543D01*
X51820500Y-81056153D01*
X67139500Y-81056153D01*
X67139500Y-81213846D01*
X67170261Y-81368489D01*
X67170264Y-81368501D01*
X67230602Y-81514172D01*
X67230609Y-81514185D01*
X67318210Y-81645288D01*
X67318213Y-81645292D01*
X67429707Y-81756786D01*
X67429711Y-81756789D01*
X67560814Y-81844390D01*
X67560827Y-81844397D01*
X67669461Y-81889394D01*
X67706503Y-81904737D01*
X67823021Y-81927914D01*
X67861153Y-81935499D01*
X67861156Y-81935500D01*
X67861158Y-81935500D01*
X68018844Y-81935500D01*
X68018845Y-81935499D01*
X68173497Y-81904737D01*
X68319179Y-81844394D01*
X68450289Y-81756789D01*
X68561789Y-81645289D01*
X68649394Y-81514179D01*
X68709737Y-81368497D01*
X68740500Y-81213842D01*
X68740500Y-81056158D01*
X68740500Y-81056155D01*
X68740499Y-81056153D01*
X68724192Y-80974172D01*
X68709737Y-80901503D01*
X68668036Y-80800827D01*
X68649397Y-80755827D01*
X68649390Y-80755814D01*
X68561789Y-80624711D01*
X68561786Y-80624707D01*
X68450292Y-80513213D01*
X68450288Y-80513210D01*
X68319185Y-80425609D01*
X68319172Y-80425602D01*
X68173501Y-80365264D01*
X68173489Y-80365261D01*
X68018845Y-80334500D01*
X68018842Y-80334500D01*
X67861158Y-80334500D01*
X67861155Y-80334500D01*
X67706510Y-80365261D01*
X67706498Y-80365264D01*
X67560827Y-80425602D01*
X67560814Y-80425609D01*
X67429711Y-80513210D01*
X67429707Y-80513213D01*
X67318213Y-80624707D01*
X67318210Y-80624711D01*
X67230609Y-80755814D01*
X67230602Y-80755827D01*
X67170264Y-80901498D01*
X67170261Y-80901510D01*
X67139500Y-81056153D01*
X51820500Y-81056153D01*
X51820500Y-79553543D01*
X56079499Y-79553543D01*
X56117947Y-79746829D01*
X56117950Y-79746839D01*
X56193364Y-79928907D01*
X56193371Y-79928920D01*
X56302860Y-80092781D01*
X56302863Y-80092785D01*
X56442214Y-80232136D01*
X56442218Y-80232139D01*
X56606079Y-80341628D01*
X56606092Y-80341635D01*
X56746365Y-80399737D01*
X56788165Y-80417051D01*
X56788169Y-80417051D01*
X56788170Y-80417052D01*
X56981456Y-80455500D01*
X56981459Y-80455500D01*
X57178543Y-80455500D01*
X57308582Y-80429632D01*
X57371835Y-80417051D01*
X57553914Y-80341632D01*
X57717782Y-80232139D01*
X57857139Y-80092782D01*
X57966632Y-79928914D01*
X58042051Y-79746835D01*
X58080500Y-79553541D01*
X58080500Y-79356459D01*
X58080500Y-79356456D01*
X58042052Y-79163170D01*
X58042051Y-79163169D01*
X58042051Y-79163165D01*
X58002983Y-79068846D01*
X57966635Y-78981092D01*
X57966628Y-78981079D01*
X57857139Y-78817218D01*
X57857136Y-78817214D01*
X57717785Y-78677863D01*
X57717781Y-78677860D01*
X57553920Y-78568371D01*
X57553907Y-78568364D01*
X57371839Y-78492950D01*
X57371829Y-78492947D01*
X57178543Y-78454500D01*
X57178541Y-78454500D01*
X56981459Y-78454500D01*
X56981457Y-78454500D01*
X56788170Y-78492947D01*
X56788160Y-78492950D01*
X56606092Y-78568364D01*
X56606079Y-78568371D01*
X56442218Y-78677860D01*
X56442214Y-78677863D01*
X56302863Y-78817214D01*
X56302860Y-78817218D01*
X56193371Y-78981079D01*
X56193364Y-78981092D01*
X56117950Y-79163160D01*
X56117947Y-79163170D01*
X56079500Y-79356456D01*
X56079500Y-79356459D01*
X56079500Y-79553541D01*
X56079500Y-79553543D01*
X56079499Y-79553543D01*
X51820500Y-79553543D01*
X51820500Y-76566153D01*
X56569500Y-76566153D01*
X56569500Y-76723846D01*
X56600261Y-76878489D01*
X56600264Y-76878501D01*
X56660602Y-77024172D01*
X56660609Y-77024185D01*
X56748210Y-77155288D01*
X56748213Y-77155292D01*
X56859707Y-77266786D01*
X56859711Y-77266789D01*
X56990814Y-77354390D01*
X56990827Y-77354397D01*
X57136498Y-77414735D01*
X57136503Y-77414737D01*
X57291153Y-77445499D01*
X57291156Y-77445500D01*
X57291158Y-77445500D01*
X57448844Y-77445500D01*
X57448845Y-77445499D01*
X57603497Y-77414737D01*
X57749179Y-77354394D01*
X57880289Y-77266789D01*
X57991789Y-77155289D01*
X58079394Y-77024179D01*
X58139737Y-76878497D01*
X58170500Y-76723842D01*
X58170500Y-76566158D01*
X58170500Y-76566155D01*
X58170499Y-76566153D01*
X66279500Y-76566153D01*
X66279500Y-76723846D01*
X66310261Y-76878489D01*
X66310264Y-76878501D01*
X66370602Y-77024172D01*
X66370609Y-77024185D01*
X66458210Y-77155288D01*
X66458213Y-77155292D01*
X66569707Y-77266786D01*
X66569711Y-77266789D01*
X66700814Y-77354390D01*
X66700827Y-77354397D01*
X66846498Y-77414735D01*
X66846503Y-77414737D01*
X67001153Y-77445499D01*
X67001156Y-77445500D01*
X67001158Y-77445500D01*
X67158844Y-77445500D01*
X67158845Y-77445499D01*
X67313497Y-77414737D01*
X67459179Y-77354394D01*
X67590289Y-77266789D01*
X67701789Y-77155289D01*
X67789394Y-77024179D01*
X67849737Y-76878497D01*
X67880500Y-76723842D01*
X67880500Y-76566158D01*
X67880500Y-76566155D01*
X67880499Y-76566153D01*
X67849738Y-76411510D01*
X67849737Y-76411503D01*
X67849735Y-76411498D01*
X67789397Y-76265827D01*
X67789390Y-76265814D01*
X67701789Y-76134711D01*
X67701786Y-76134707D01*
X67590292Y-76023213D01*
X67590288Y-76023210D01*
X67459185Y-75935609D01*
X67459172Y-75935602D01*
X67313501Y-75875264D01*
X67313489Y-75875261D01*
X67158845Y-75844500D01*
X67158842Y-75844500D01*
X67001158Y-75844500D01*
X67001155Y-75844500D01*
X66846510Y-75875261D01*
X66846498Y-75875264D01*
X66700827Y-75935602D01*
X66700814Y-75935609D01*
X66569711Y-76023210D01*
X66569707Y-76023213D01*
X66458213Y-76134707D01*
X66458210Y-76134711D01*
X66370609Y-76265814D01*
X66370602Y-76265827D01*
X66310264Y-76411498D01*
X66310261Y-76411510D01*
X66279500Y-76566153D01*
X58170499Y-76566153D01*
X58139738Y-76411510D01*
X58139737Y-76411503D01*
X58139735Y-76411498D01*
X58079397Y-76265827D01*
X58079390Y-76265814D01*
X57991789Y-76134711D01*
X57991786Y-76134707D01*
X57880292Y-76023213D01*
X57880288Y-76023210D01*
X57749185Y-75935609D01*
X57749172Y-75935602D01*
X57603501Y-75875264D01*
X57603489Y-75875261D01*
X57448845Y-75844500D01*
X57448842Y-75844500D01*
X57291158Y-75844500D01*
X57291155Y-75844500D01*
X57136510Y-75875261D01*
X57136498Y-75875264D01*
X56990827Y-75935602D01*
X56990814Y-75935609D01*
X56859711Y-76023210D01*
X56859707Y-76023213D01*
X56748213Y-76134707D01*
X56748210Y-76134711D01*
X56660609Y-76265814D01*
X56660602Y-76265827D01*
X56600264Y-76411498D01*
X56600261Y-76411510D01*
X56569500Y-76566153D01*
X51820500Y-76566153D01*
X51820500Y-75301153D01*
X69147000Y-75301153D01*
X69147000Y-75458846D01*
X69177761Y-75613489D01*
X69177764Y-75613501D01*
X69238102Y-75759172D01*
X69238109Y-75759185D01*
X69325710Y-75890288D01*
X69325713Y-75890292D01*
X69437207Y-76001786D01*
X69437211Y-76001789D01*
X69568314Y-76089390D01*
X69568327Y-76089397D01*
X69713998Y-76149735D01*
X69714003Y-76149737D01*
X69868653Y-76180499D01*
X69868656Y-76180500D01*
X69868658Y-76180500D01*
X70026344Y-76180500D01*
X70026345Y-76180499D01*
X70180997Y-76149737D01*
X70326679Y-76089394D01*
X70457789Y-76001789D01*
X70569289Y-75890289D01*
X70656894Y-75759179D01*
X70717237Y-75613497D01*
X70748000Y-75458842D01*
X70748000Y-75301158D01*
X70748000Y-75301155D01*
X70747999Y-75301153D01*
X70728643Y-75203844D01*
X70717237Y-75146503D01*
X70714291Y-75139390D01*
X70656897Y-75000827D01*
X70656890Y-75000814D01*
X70569289Y-74869711D01*
X70569286Y-74869707D01*
X70457792Y-74758213D01*
X70457788Y-74758210D01*
X70326685Y-74670609D01*
X70326672Y-74670602D01*
X70181001Y-74610264D01*
X70180989Y-74610261D01*
X70026345Y-74579500D01*
X70026342Y-74579500D01*
X69868658Y-74579500D01*
X69868655Y-74579500D01*
X69714010Y-74610261D01*
X69713998Y-74610264D01*
X69568327Y-74670602D01*
X69568314Y-74670609D01*
X69437211Y-74758210D01*
X69437207Y-74758213D01*
X69325713Y-74869707D01*
X69325710Y-74869711D01*
X69238109Y-75000814D01*
X69238102Y-75000827D01*
X69177764Y-75146498D01*
X69177761Y-75146510D01*
X69147000Y-75301153D01*
X51820500Y-75301153D01*
X51820500Y-74351153D01*
X67272000Y-74351153D01*
X67272000Y-74508846D01*
X67302761Y-74663489D01*
X67302764Y-74663501D01*
X67363102Y-74809172D01*
X67363109Y-74809185D01*
X67450710Y-74940288D01*
X67450713Y-74940292D01*
X67562207Y-75051786D01*
X67562211Y-75051789D01*
X67693314Y-75139390D01*
X67693327Y-75139397D01*
X67792570Y-75180504D01*
X67839003Y-75199737D01*
X67993653Y-75230499D01*
X67993656Y-75230500D01*
X67993658Y-75230500D01*
X68151344Y-75230500D01*
X68151345Y-75230499D01*
X68305997Y-75199737D01*
X68451679Y-75139394D01*
X68582789Y-75051789D01*
X68694289Y-74940289D01*
X68781894Y-74809179D01*
X68842237Y-74663497D01*
X68861613Y-74566085D01*
X68873138Y-74508150D01*
X68905523Y-74446239D01*
X68907019Y-74444715D01*
X71955528Y-71396205D01*
X72016849Y-71362722D01*
X72086541Y-71367706D01*
X72090660Y-71369327D01*
X72090819Y-71369393D01*
X72090821Y-71369394D01*
X72236503Y-71429737D01*
X72391153Y-71460499D01*
X72391156Y-71460500D01*
X72391158Y-71460500D01*
X72548844Y-71460500D01*
X72548845Y-71460499D01*
X72703497Y-71429737D01*
X72849179Y-71369394D01*
X72980289Y-71281789D01*
X73091789Y-71170289D01*
X73179394Y-71039179D01*
X73181669Y-71033685D01*
X73225508Y-70979281D01*
X73291801Y-70957213D01*
X73359501Y-70974490D01*
X73399334Y-71012243D01*
X73478210Y-71130288D01*
X73478213Y-71130292D01*
X73589707Y-71241786D01*
X73589711Y-71241789D01*
X73720814Y-71329390D01*
X73720827Y-71329397D01*
X73866498Y-71389735D01*
X73866503Y-71389737D01*
X74021153Y-71420499D01*
X74021156Y-71420500D01*
X74021158Y-71420500D01*
X74178844Y-71420500D01*
X74178845Y-71420499D01*
X74333497Y-71389737D01*
X74479179Y-71329394D01*
X74550425Y-71281789D01*
X74610875Y-71241398D01*
X74677553Y-71220520D01*
X74679766Y-71220500D01*
X80790902Y-71220500D01*
X80857941Y-71240185D01*
X80903696Y-71292989D01*
X80913640Y-71362147D01*
X80884615Y-71425703D01*
X80878583Y-71432181D01*
X75117584Y-77193181D01*
X75056261Y-77226666D01*
X75029903Y-77229500D01*
X73902266Y-77229500D01*
X73835227Y-77209815D01*
X73833375Y-77208602D01*
X73701685Y-77120609D01*
X73701672Y-77120602D01*
X73556001Y-77060264D01*
X73555989Y-77060261D01*
X73401345Y-77029500D01*
X73401342Y-77029500D01*
X73243658Y-77029500D01*
X73243655Y-77029500D01*
X73089010Y-77060261D01*
X73088998Y-77060264D01*
X72943327Y-77120602D01*
X72943314Y-77120609D01*
X72812211Y-77208210D01*
X72812207Y-77208213D01*
X72700713Y-77319707D01*
X72700710Y-77319711D01*
X72613109Y-77450814D01*
X72613102Y-77450827D01*
X72552764Y-77596498D01*
X72552761Y-77596510D01*
X72522000Y-77751153D01*
X72522000Y-77908846D01*
X72552761Y-78063489D01*
X72552764Y-78063501D01*
X72613102Y-78209172D01*
X72613109Y-78209185D01*
X72700710Y-78340288D01*
X72700713Y-78340292D01*
X72812207Y-78451786D01*
X72812211Y-78451789D01*
X72943314Y-78539390D01*
X72943327Y-78539397D01*
X73088998Y-78599735D01*
X73089003Y-78599737D01*
X73243653Y-78630499D01*
X73243656Y-78630500D01*
X73243658Y-78630500D01*
X73401344Y-78630500D01*
X73401345Y-78630499D01*
X73555997Y-78599737D01*
X73701679Y-78539394D01*
X73701685Y-78539390D01*
X73833375Y-78451398D01*
X73900053Y-78430520D01*
X73902266Y-78430500D01*
X75243331Y-78430500D01*
X75243347Y-78430501D01*
X75250943Y-78430501D01*
X75409054Y-78430501D01*
X75409057Y-78430501D01*
X75561785Y-78389577D01*
X75611904Y-78360639D01*
X75698716Y-78310520D01*
X75810520Y-78198716D01*
X75810520Y-78198714D01*
X75820728Y-78188507D01*
X75820729Y-78188504D01*
X82752417Y-71256819D01*
X82813740Y-71223334D01*
X82840098Y-71220500D01*
X85860234Y-71220500D01*
X85927273Y-71240185D01*
X85929125Y-71241398D01*
X86060814Y-71329390D01*
X86060827Y-71329397D01*
X86206498Y-71389735D01*
X86206503Y-71389737D01*
X86361153Y-71420499D01*
X86361156Y-71420500D01*
X86361158Y-71420500D01*
X86518844Y-71420500D01*
X86518845Y-71420499D01*
X86673497Y-71389737D01*
X86819179Y-71329394D01*
X86950289Y-71241789D01*
X87061789Y-71130289D01*
X87149394Y-70999179D01*
X87209737Y-70853497D01*
X87240500Y-70698842D01*
X87240500Y-70541158D01*
X87240500Y-70541155D01*
X87240499Y-70541153D01*
X87209737Y-70386503D01*
X87176186Y-70305503D01*
X87149397Y-70240827D01*
X87149390Y-70240814D01*
X87061789Y-70109711D01*
X87061786Y-70109707D01*
X86950292Y-69998213D01*
X86950288Y-69998210D01*
X86819185Y-69910609D01*
X86819172Y-69910602D01*
X86673501Y-69850264D01*
X86673489Y-69850261D01*
X86518845Y-69819500D01*
X86518842Y-69819500D01*
X86361158Y-69819500D01*
X86361155Y-69819500D01*
X86206510Y-69850261D01*
X86206498Y-69850264D01*
X86060827Y-69910602D01*
X86060814Y-69910609D01*
X85929125Y-69998602D01*
X85862447Y-70019480D01*
X85860234Y-70019500D01*
X82619062Y-70019500D01*
X82619058Y-70019499D01*
X82460943Y-70019499D01*
X82460939Y-70019500D01*
X74679766Y-70019500D01*
X74612727Y-69999815D01*
X74610875Y-69998602D01*
X74479185Y-69910609D01*
X74479172Y-69910602D01*
X74333501Y-69850264D01*
X74333489Y-69850261D01*
X74178845Y-69819500D01*
X74178842Y-69819500D01*
X74021158Y-69819500D01*
X74021155Y-69819500D01*
X73866510Y-69850261D01*
X73866498Y-69850264D01*
X73720827Y-69910602D01*
X73720814Y-69910609D01*
X73589711Y-69998210D01*
X73589707Y-69998213D01*
X73478213Y-70109707D01*
X73478210Y-70109711D01*
X73390609Y-70240814D01*
X73390602Y-70240828D01*
X73388325Y-70246325D01*
X73344480Y-70300726D01*
X73278185Y-70322786D01*
X73210486Y-70305503D01*
X73170665Y-70267756D01*
X73091789Y-70149711D01*
X73091786Y-70149707D01*
X72980292Y-70038213D01*
X72980288Y-70038210D01*
X72849185Y-69950609D01*
X72849172Y-69950602D01*
X72703501Y-69890264D01*
X72703489Y-69890261D01*
X72548845Y-69859500D01*
X72548842Y-69859500D01*
X72391158Y-69859500D01*
X72391155Y-69859500D01*
X72236510Y-69890261D01*
X72236498Y-69890264D01*
X72090827Y-69950602D01*
X72090814Y-69950609D01*
X71959125Y-70038602D01*
X71892447Y-70059480D01*
X71890234Y-70059500D01*
X71763443Y-70059500D01*
X71610715Y-70100423D01*
X71610714Y-70100423D01*
X71610712Y-70100424D01*
X71610709Y-70100425D01*
X71560596Y-70129359D01*
X71560595Y-70129360D01*
X71525353Y-70149707D01*
X71473785Y-70179479D01*
X71473782Y-70179481D01*
X68057839Y-73595425D01*
X67996516Y-73628910D01*
X67994350Y-73629361D01*
X67839008Y-73660261D01*
X67838998Y-73660264D01*
X67693327Y-73720602D01*
X67693314Y-73720609D01*
X67562211Y-73808210D01*
X67562207Y-73808213D01*
X67450713Y-73919707D01*
X67450710Y-73919711D01*
X67363109Y-74050814D01*
X67363102Y-74050827D01*
X67302764Y-74196498D01*
X67302761Y-74196510D01*
X67272000Y-74351153D01*
X51820500Y-74351153D01*
X51820500Y-67941153D01*
X54939500Y-67941153D01*
X54939500Y-68098846D01*
X54970261Y-68253489D01*
X54970264Y-68253501D01*
X55030602Y-68399172D01*
X55030609Y-68399185D01*
X55118210Y-68530288D01*
X55118213Y-68530292D01*
X55229707Y-68641786D01*
X55229711Y-68641789D01*
X55360814Y-68729390D01*
X55360827Y-68729397D01*
X55426256Y-68756498D01*
X55506503Y-68789737D01*
X55661153Y-68820499D01*
X55661156Y-68820500D01*
X55661158Y-68820500D01*
X55818844Y-68820500D01*
X55818845Y-68820499D01*
X55973497Y-68789737D01*
X56119179Y-68729394D01*
X56250289Y-68641789D01*
X56361789Y-68530289D01*
X56449394Y-68399179D01*
X56509737Y-68253497D01*
X56540500Y-68098842D01*
X56540500Y-67952515D01*
X62376153Y-67952515D01*
X67943568Y-67952515D01*
X68010607Y-67972200D01*
X68056362Y-68025004D01*
X68066306Y-68094162D01*
X68037281Y-68157718D01*
X67978503Y-68195492D01*
X67967760Y-68198132D01*
X67856508Y-68220261D01*
X67856498Y-68220264D01*
X67710827Y-68280602D01*
X67710814Y-68280609D01*
X67579711Y-68368210D01*
X67579707Y-68368213D01*
X67468213Y-68479707D01*
X67468210Y-68479711D01*
X67380609Y-68610814D01*
X67380602Y-68610827D01*
X67320264Y-68756498D01*
X67320261Y-68756510D01*
X67289500Y-68911153D01*
X67289500Y-69068846D01*
X67320261Y-69223489D01*
X67320264Y-69223501D01*
X67380602Y-69369172D01*
X67380609Y-69369185D01*
X67468210Y-69500288D01*
X67468213Y-69500292D01*
X67579707Y-69611786D01*
X67579711Y-69611789D01*
X67710814Y-69699390D01*
X67710827Y-69699397D01*
X67856498Y-69759735D01*
X67856503Y-69759737D01*
X68011153Y-69790499D01*
X68011156Y-69790500D01*
X68011158Y-69790500D01*
X68168844Y-69790500D01*
X68168845Y-69790499D01*
X68323497Y-69759737D01*
X68469179Y-69699394D01*
X68600289Y-69611789D01*
X68711789Y-69500289D01*
X68799394Y-69369179D01*
X68811003Y-69341153D01*
X97929500Y-69341153D01*
X97929500Y-69498846D01*
X97960261Y-69653489D01*
X97960264Y-69653501D01*
X98020602Y-69799172D01*
X98020609Y-69799185D01*
X98108210Y-69930288D01*
X98108213Y-69930292D01*
X98219707Y-70041786D01*
X98219711Y-70041789D01*
X98350814Y-70129390D01*
X98350827Y-70129397D01*
X98496498Y-70189735D01*
X98496503Y-70189737D01*
X98651153Y-70220499D01*
X98651156Y-70220500D01*
X98651158Y-70220500D01*
X98808844Y-70220500D01*
X98808845Y-70220499D01*
X98963497Y-70189737D01*
X99109179Y-70129394D01*
X99240289Y-70041789D01*
X99351789Y-69930289D01*
X99439394Y-69799179D01*
X99499737Y-69653497D01*
X99530500Y-69498842D01*
X99530500Y-69341158D01*
X99530500Y-69341155D01*
X99530499Y-69341153D01*
X99507096Y-69223501D01*
X99499737Y-69186503D01*
X99499735Y-69186498D01*
X99439397Y-69040827D01*
X99439390Y-69040814D01*
X99351789Y-68909711D01*
X99351786Y-68909707D01*
X99240292Y-68798213D01*
X99240288Y-68798210D01*
X99109185Y-68710609D01*
X99109172Y-68710602D01*
X98963501Y-68650264D01*
X98963489Y-68650261D01*
X98808845Y-68619500D01*
X98808842Y-68619500D01*
X98651158Y-68619500D01*
X98651155Y-68619500D01*
X98496510Y-68650261D01*
X98496498Y-68650264D01*
X98350827Y-68710602D01*
X98350814Y-68710609D01*
X98219711Y-68798210D01*
X98219707Y-68798213D01*
X98108213Y-68909707D01*
X98108210Y-68909711D01*
X98020609Y-69040814D01*
X98020602Y-69040827D01*
X97960264Y-69186498D01*
X97960261Y-69186510D01*
X97929500Y-69341153D01*
X68811003Y-69341153D01*
X68859737Y-69223497D01*
X68890500Y-69068842D01*
X68890500Y-68911158D01*
X68890500Y-68911155D01*
X68890499Y-68911153D01*
X68872467Y-68820500D01*
X68859737Y-68756503D01*
X68859735Y-68756498D01*
X68799397Y-68610827D01*
X68799390Y-68610814D01*
X68711789Y-68479711D01*
X68711786Y-68479707D01*
X68600292Y-68368213D01*
X68600288Y-68368210D01*
X68469185Y-68280609D01*
X68469172Y-68280602D01*
X68323501Y-68220264D01*
X68323491Y-68220261D01*
X68212240Y-68198132D01*
X68150330Y-68165747D01*
X68115755Y-68105031D01*
X68119495Y-68035262D01*
X68160362Y-67978590D01*
X68225380Y-67953009D01*
X68236432Y-67952515D01*
X79188876Y-67952515D01*
X79188876Y-65136946D01*
X62376153Y-65136946D01*
X62376153Y-67952515D01*
X56540500Y-67952515D01*
X56540500Y-67941158D01*
X56540500Y-67941155D01*
X56540499Y-67941153D01*
X56509738Y-67786510D01*
X56509737Y-67786503D01*
X56509735Y-67786498D01*
X56449397Y-67640827D01*
X56449390Y-67640814D01*
X56361789Y-67509711D01*
X56361786Y-67509707D01*
X56250292Y-67398213D01*
X56250288Y-67398210D01*
X56119185Y-67310609D01*
X56119172Y-67310602D01*
X55973501Y-67250264D01*
X55973489Y-67250261D01*
X55818845Y-67219500D01*
X55818842Y-67219500D01*
X55661158Y-67219500D01*
X55661155Y-67219500D01*
X55506510Y-67250261D01*
X55506498Y-67250264D01*
X55360827Y-67310602D01*
X55360814Y-67310609D01*
X55229711Y-67398210D01*
X55229707Y-67398213D01*
X55118213Y-67509707D01*
X55118210Y-67509711D01*
X55030609Y-67640814D01*
X55030602Y-67640827D01*
X54970264Y-67786498D01*
X54970261Y-67786510D01*
X54939500Y-67941153D01*
X51820500Y-67941153D01*
X51820500Y-67703051D01*
X51820649Y-67696967D01*
X51829848Y-67509711D01*
X51838256Y-67338564D01*
X51839449Y-67326457D01*
X51850751Y-67250264D01*
X51891654Y-66974520D01*
X51894023Y-66962610D01*
X51980474Y-66617477D01*
X51984005Y-66605839D01*
X52103860Y-66270869D01*
X52108516Y-66259628D01*
X52240154Y-65981300D01*
X52260639Y-65937987D01*
X52266358Y-65927287D01*
X52449281Y-65622101D01*
X52456025Y-65612008D01*
X52667978Y-65326220D01*
X52675674Y-65316842D01*
X52914628Y-65053198D01*
X52923198Y-65044628D01*
X53186842Y-64805674D01*
X53196220Y-64797978D01*
X53482008Y-64586025D01*
X53492101Y-64579281D01*
X53797287Y-64396358D01*
X53807987Y-64390639D01*
X54129628Y-64238516D01*
X54140865Y-64233861D01*
X54475847Y-64114002D01*
X54487477Y-64110474D01*
X54832610Y-64024023D01*
X54844520Y-64021654D01*
X55196460Y-63969448D01*
X55208564Y-63968256D01*
X55566967Y-63950648D01*
X55573051Y-63950500D01*
X55614170Y-63950500D01*
X105345830Y-63950500D01*
X105386949Y-63950500D01*
X105393032Y-63950648D01*
G37*
%TD.AperFunction*%
%TA.AperFunction,Conductor*%
G36*
X80288834Y-81927914D02*
G01*
X80344767Y-81969786D01*
X80369184Y-82035250D01*
X80369500Y-82044096D01*
X80369500Y-82093846D01*
X80400261Y-82248489D01*
X80400264Y-82248501D01*
X80460602Y-82394172D01*
X80460609Y-82394185D01*
X80548602Y-82525874D01*
X80569480Y-82592551D01*
X80569500Y-82594765D01*
X80569500Y-84279903D01*
X80549815Y-84346942D01*
X80533181Y-84367584D01*
X79885339Y-85015425D01*
X79824016Y-85048910D01*
X79821850Y-85049361D01*
X79666508Y-85080261D01*
X79666498Y-85080264D01*
X79520827Y-85140602D01*
X79520814Y-85140609D01*
X79389711Y-85228210D01*
X79389707Y-85228213D01*
X79278213Y-85339707D01*
X79278210Y-85339711D01*
X79190609Y-85470814D01*
X79190602Y-85470827D01*
X79130264Y-85616498D01*
X79130261Y-85616510D01*
X79099500Y-85771153D01*
X79099500Y-85928846D01*
X79130261Y-86083489D01*
X79130264Y-86083501D01*
X79190602Y-86229172D01*
X79190609Y-86229185D01*
X79278602Y-86360874D01*
X79299480Y-86427551D01*
X79299500Y-86429765D01*
X79299500Y-90064902D01*
X79290855Y-90094342D01*
X79284332Y-90124329D01*
X79280577Y-90129344D01*
X79279815Y-90131941D01*
X79263185Y-90152578D01*
X79199475Y-90216289D01*
X79138353Y-90277411D01*
X79077030Y-90310895D01*
X79007338Y-90305911D01*
X79003250Y-90304302D01*
X78993497Y-90300263D01*
X78993492Y-90300262D01*
X78993489Y-90300261D01*
X78838845Y-90269500D01*
X78838842Y-90269500D01*
X78681158Y-90269500D01*
X78638690Y-90277947D01*
X78569098Y-90271718D01*
X78513922Y-90228855D01*
X78490678Y-90162965D01*
X78490500Y-90156329D01*
X78490500Y-83675096D01*
X78510185Y-83608057D01*
X78526814Y-83587420D01*
X80157819Y-81956414D01*
X80219142Y-81922930D01*
X80288834Y-81927914D01*
G37*
%TD.AperFunction*%
%TD*%
%TA.AperFunction,Conductor*%
%TO.N,AGND*%
G36*
X79759186Y-93763274D02*
G01*
X79766172Y-93766464D01*
X79802342Y-93791577D01*
X82735976Y-96725211D01*
X82757125Y-96753461D01*
X82762546Y-96763388D01*
X82777400Y-96831661D01*
X82752986Y-96897126D01*
X82697054Y-96938999D01*
X82697043Y-96939003D01*
X82686239Y-96943032D01*
X82663983Y-96948791D01*
X82664011Y-96948931D01*
X82661566Y-96949417D01*
X82661386Y-96949464D01*
X82661161Y-96949497D01*
X82506527Y-96980257D01*
X82506496Y-96980264D01*
X82360833Y-97040598D01*
X82360824Y-97040603D01*
X82360807Y-97040613D01*
X82229708Y-97128211D01*
X82229707Y-97128212D01*
X82229701Y-97128217D01*
X82118217Y-97239701D01*
X82118212Y-97239707D01*
X82118211Y-97239708D01*
X82030613Y-97370807D01*
X82030603Y-97370824D01*
X82030598Y-97370833D01*
X81970272Y-97516475D01*
X81970264Y-97516499D01*
X81970259Y-97516515D01*
X81942839Y-97654357D01*
X81942840Y-97654360D01*
X81931098Y-97687644D01*
X81915733Y-97717018D01*
X81893538Y-97747225D01*
X79805191Y-99835573D01*
X79776940Y-99856722D01*
X79753852Y-99869330D01*
X79694422Y-99884500D01*
X78587924Y-99884500D01*
X78587919Y-99884499D01*
X78587918Y-99884500D01*
X78552983Y-99879475D01*
X78538961Y-99875357D01*
X78480185Y-99837580D01*
X78451499Y-99776221D01*
X78449474Y-99763726D01*
X78448589Y-99730643D01*
X78450500Y-99712873D01*
X78450499Y-99217921D01*
X78455522Y-99182988D01*
X78462932Y-99157751D01*
X78494226Y-99105006D01*
X79460520Y-98138716D01*
X79539577Y-98001784D01*
X79580501Y-97849057D01*
X79580501Y-97690942D01*
X79580501Y-97683347D01*
X79580501Y-97681663D01*
X79580500Y-97681589D01*
X79580500Y-93886926D01*
X79585521Y-93851999D01*
X79588707Y-93841146D01*
X79626477Y-93782365D01*
X79690031Y-93753336D01*
X79759186Y-93763274D01*
G37*
%TD.AperFunction*%
%TA.AperFunction,Conductor*%
G36*
X75802539Y-89129685D02*
G01*
X75848294Y-89182489D01*
X75859500Y-89234000D01*
X75859500Y-89576000D01*
X75839815Y-89643039D01*
X75787011Y-89688794D01*
X75735500Y-89700000D01*
X75723159Y-89700000D01*
X75698970Y-89697617D01*
X75674566Y-89692763D01*
X75665924Y-89691044D01*
X75642667Y-89683988D01*
X75611547Y-89671098D01*
X75590108Y-89659639D01*
X75562096Y-89640922D01*
X75543306Y-89625501D01*
X75519496Y-89601691D01*
X75504075Y-89582901D01*
X75485358Y-89554889D01*
X75473899Y-89533451D01*
X75465451Y-89513055D01*
X75461009Y-89502333D01*
X75453954Y-89479072D01*
X75447382Y-89446028D01*
X75445000Y-89421840D01*
X75445000Y-89388157D01*
X75447382Y-89363969D01*
X75453954Y-89330925D01*
X75461008Y-89307667D01*
X75473902Y-89276539D01*
X75485353Y-89255115D01*
X75504080Y-89227089D01*
X75519491Y-89208311D01*
X75543311Y-89184491D01*
X75562088Y-89169081D01*
X75590118Y-89150351D01*
X75611539Y-89138902D01*
X75642667Y-89126008D01*
X75665920Y-89118955D01*
X75698968Y-89112381D01*
X75723158Y-89110000D01*
X75735500Y-89110000D01*
X75802539Y-89129685D01*
G37*
%TD.AperFunction*%
%TA.AperFunction,Conductor*%
G36*
X86748527Y-89032381D02*
G01*
X86781580Y-89038955D01*
X86804832Y-89046009D01*
X86835949Y-89058899D01*
X86857383Y-89070354D01*
X86885404Y-89089077D01*
X86904191Y-89104496D01*
X86928001Y-89128306D01*
X86943422Y-89147096D01*
X86962139Y-89175108D01*
X86973597Y-89196546D01*
X86973598Y-89196547D01*
X86986488Y-89227667D01*
X86993543Y-89250921D01*
X86996177Y-89264161D01*
X86996944Y-89268015D01*
X86996944Y-89268014D01*
X86998641Y-89276546D01*
X87000117Y-89283963D01*
X87002500Y-89308157D01*
X87002500Y-89341839D01*
X87000116Y-89366035D01*
X86993543Y-89399073D01*
X86986488Y-89422329D01*
X86973598Y-89453449D01*
X86962139Y-89474888D01*
X86943420Y-89502903D01*
X86927999Y-89521693D01*
X86904193Y-89545499D01*
X86885403Y-89560920D01*
X86857385Y-89579641D01*
X86835948Y-89591100D01*
X86830878Y-89593200D01*
X86804828Y-89603989D01*
X86781571Y-89611045D01*
X86764840Y-89614373D01*
X86748531Y-89617617D01*
X86724341Y-89620000D01*
X86690659Y-89620000D01*
X86666470Y-89617617D01*
X86633424Y-89611044D01*
X86610171Y-89603990D01*
X86584138Y-89593208D01*
X86584119Y-89593200D01*
X86579034Y-89591093D01*
X86557611Y-89579641D01*
X86529597Y-89560923D01*
X86510806Y-89545501D01*
X86486996Y-89521691D01*
X86471575Y-89502901D01*
X86452858Y-89474889D01*
X86452857Y-89474888D01*
X86452856Y-89474886D01*
X86441399Y-89453451D01*
X86428509Y-89422333D01*
X86421454Y-89399072D01*
X86414882Y-89366028D01*
X86412500Y-89341840D01*
X86412500Y-89308157D01*
X86414882Y-89283969D01*
X86421454Y-89250925D01*
X86428508Y-89227667D01*
X86441402Y-89196539D01*
X86452853Y-89175115D01*
X86471580Y-89147089D01*
X86486991Y-89128311D01*
X86510811Y-89104491D01*
X86529588Y-89089081D01*
X86557618Y-89070351D01*
X86579039Y-89058902D01*
X86610167Y-89046008D01*
X86633420Y-89038955D01*
X86666468Y-89032381D01*
X86690658Y-89030000D01*
X86724345Y-89030000D01*
X86748527Y-89032381D01*
G37*
%TD.AperFunction*%
%TA.AperFunction,Conductor*%
G36*
X82621027Y-83287381D02*
G01*
X82654080Y-83293955D01*
X82677332Y-83301009D01*
X82708449Y-83313899D01*
X82729883Y-83325354D01*
X82757904Y-83344077D01*
X82776691Y-83359496D01*
X82800501Y-83383306D01*
X82815922Y-83402096D01*
X82834637Y-83430105D01*
X82846097Y-83451545D01*
X82858989Y-83482670D01*
X82866044Y-83505926D01*
X82872617Y-83538971D01*
X82875000Y-83563160D01*
X82875000Y-83596839D01*
X82872616Y-83621035D01*
X82866043Y-83654073D01*
X82858988Y-83677329D01*
X82846098Y-83708449D01*
X82834639Y-83729888D01*
X82815920Y-83757903D01*
X82800499Y-83776693D01*
X82776693Y-83800499D01*
X82757903Y-83815920D01*
X82729885Y-83834641D01*
X82708446Y-83846100D01*
X82677328Y-83858989D01*
X82654071Y-83866045D01*
X82637340Y-83869373D01*
X82621031Y-83872617D01*
X82596841Y-83875000D01*
X82563159Y-83875000D01*
X82538970Y-83872617D01*
X82505924Y-83866044D01*
X82482667Y-83858988D01*
X82451547Y-83846098D01*
X82430108Y-83834639D01*
X82402096Y-83815922D01*
X82383305Y-83800500D01*
X82339645Y-83756839D01*
X82336705Y-83754002D01*
X82326661Y-83744309D01*
X82320183Y-83738277D01*
X82306735Y-83726196D01*
X82242497Y-83684913D01*
X82196744Y-83632111D01*
X82186800Y-83562953D01*
X82215825Y-83499397D01*
X82235222Y-83481336D01*
X82339626Y-83403180D01*
X82383311Y-83359492D01*
X82402100Y-83344072D01*
X82427699Y-83326967D01*
X82430114Y-83325355D01*
X82451548Y-83313899D01*
X82482661Y-83301011D01*
X82505920Y-83293955D01*
X82538968Y-83287381D01*
X82563158Y-83285000D01*
X82596845Y-83285000D01*
X82621027Y-83287381D01*
G37*
%TD.AperFunction*%
%TA.AperFunction,Conductor*%
G36*
X104071027Y-78697381D02*
G01*
X104104080Y-78703955D01*
X104127332Y-78711009D01*
X104158449Y-78723899D01*
X104179883Y-78735354D01*
X104207904Y-78754077D01*
X104226691Y-78769496D01*
X104250501Y-78793306D01*
X104265922Y-78812096D01*
X104284639Y-78840108D01*
X104296097Y-78861546D01*
X104296098Y-78861547D01*
X104308988Y-78892667D01*
X104316044Y-78915924D01*
X104322617Y-78948968D01*
X104325000Y-78973158D01*
X104325000Y-79006839D01*
X104322616Y-79031035D01*
X104316043Y-79064073D01*
X104308988Y-79087329D01*
X104296098Y-79118449D01*
X104284639Y-79139888D01*
X104265920Y-79167903D01*
X104250499Y-79186693D01*
X104226693Y-79210499D01*
X104207903Y-79225920D01*
X104179885Y-79244641D01*
X104158446Y-79256100D01*
X104127328Y-79268989D01*
X104104071Y-79276045D01*
X104087340Y-79279373D01*
X104071031Y-79282617D01*
X104046841Y-79285000D01*
X104013159Y-79285000D01*
X103988970Y-79282617D01*
X103955924Y-79276044D01*
X103932667Y-79268988D01*
X103901547Y-79256098D01*
X103880108Y-79244639D01*
X103852096Y-79225922D01*
X103833306Y-79210501D01*
X103809496Y-79186691D01*
X103794075Y-79167901D01*
X103775358Y-79139889D01*
X103775357Y-79139888D01*
X103775356Y-79139886D01*
X103763899Y-79118451D01*
X103751009Y-79087333D01*
X103743954Y-79064072D01*
X103737382Y-79031028D01*
X103735000Y-79006840D01*
X103735000Y-78973157D01*
X103737382Y-78948969D01*
X103743954Y-78915925D01*
X103743955Y-78915924D01*
X103743954Y-78915921D01*
X103751008Y-78892667D01*
X103763902Y-78861539D01*
X103775353Y-78840115D01*
X103794080Y-78812089D01*
X103809491Y-78793311D01*
X103833311Y-78769491D01*
X103852088Y-78754081D01*
X103880118Y-78735351D01*
X103901539Y-78723902D01*
X103932667Y-78711008D01*
X103955920Y-78703955D01*
X103988968Y-78697381D01*
X104013158Y-78695000D01*
X104046845Y-78695000D01*
X104071027Y-78697381D01*
G37*
%TD.AperFunction*%
%TA.AperFunction,Conductor*%
G36*
X87358527Y-74832381D02*
G01*
X87391580Y-74838955D01*
X87414832Y-74846009D01*
X87445949Y-74858899D01*
X87467383Y-74870354D01*
X87495404Y-74889077D01*
X87514191Y-74904496D01*
X87538001Y-74928306D01*
X87553423Y-74947097D01*
X87572137Y-74975105D01*
X87583594Y-74996540D01*
X87596488Y-75027667D01*
X87603545Y-75050930D01*
X87610117Y-75083968D01*
X87612500Y-75108160D01*
X87612500Y-75141839D01*
X87610116Y-75166035D01*
X87603543Y-75199073D01*
X87596488Y-75222329D01*
X87583598Y-75253449D01*
X87572139Y-75274888D01*
X87553420Y-75302903D01*
X87537999Y-75321693D01*
X87514193Y-75345499D01*
X87495403Y-75360920D01*
X87467385Y-75379641D01*
X87445946Y-75391100D01*
X87414828Y-75403989D01*
X87391571Y-75411045D01*
X87374840Y-75414373D01*
X87358531Y-75417617D01*
X87334341Y-75420000D01*
X87300659Y-75420000D01*
X87276470Y-75417617D01*
X87252066Y-75412763D01*
X87243424Y-75411044D01*
X87220167Y-75403988D01*
X87189047Y-75391098D01*
X87167608Y-75379639D01*
X87139596Y-75360922D01*
X87120806Y-75345501D01*
X87096996Y-75321691D01*
X87081575Y-75302901D01*
X87027895Y-75222563D01*
X87019617Y-75211048D01*
X87008215Y-75195185D01*
X86985069Y-75129260D01*
X87001239Y-75061287D01*
X87016649Y-75039950D01*
X87027910Y-75027415D01*
X87081581Y-74947088D01*
X87096997Y-74928306D01*
X87120811Y-74904491D01*
X87139588Y-74889081D01*
X87167618Y-74870351D01*
X87189039Y-74858902D01*
X87220167Y-74846008D01*
X87243420Y-74838955D01*
X87276468Y-74832381D01*
X87300658Y-74830000D01*
X87334345Y-74830000D01*
X87358527Y-74832381D01*
G37*
%TD.AperFunction*%
%TD*%
M02*
